<?xml version="1.0" encoding="UTF-8" standalone="no"?>
<svg
   xmlns:dc="http://purl.org/dc/elements/1.1/"
   xmlns:cc="http://creativecommons.org/ns#"
   xmlns:rdf="http://www.w3.org/1999/02/22-rdf-syntax-ns#"
   xmlns:svg="http://www.w3.org/2000/svg"
   xmlns="http://www.w3.org/2000/svg"
   xmlns:sodipodi="http://sodipodi.sourceforge.net/DTD/sodipodi-0.dtd"
   xmlns:inkscape="http://www.inkscape.org/namespaces/inkscape"
   sodipodi:docname="new_logo.svg"
   inkscape:version="1.0 (4035a4fb49, 2020-05-01)"
   id="svg8"
   version="1.1"
   viewBox="0 0 67.733331 67.733335"
   height="256"
   width="256"
   inkscape:export-filename="C:\Users\knk takuma\dev\taskMGT\public\img\icons\new_logo_circle.png"
   inkscape:export-xdpi="250"
   inkscape:export-ydpi="250">
  <defs
     id="defs2" />
  <sodipodi:namedview
     inkscape:snap-smooth-nodes="true"
     inkscape:object-paths="true"
     inkscape:snap-intersection-paths="true"
     inkscape:snap-midpoints="true"
     inkscape:window-maximized="1"
     inkscape:window-y="-8"
     inkscape:window-x="-8"
     inkscape:window-height="1057"
     inkscape:window-width="1920"
     inkscape:snap-page="true"
     inkscape:snap-bbox-midpoints="true"
     inkscape:snap-bbox-edge-midpoints="true"
     inkscape:bbox-nodes="true"
     inkscape:bbox-paths="true"
     inkscape:snap-bbox="true"
     borderlayer="true"
     inkscape:pagecheckerboard="true"
     units="px"
     showgrid="false"
     inkscape:document-rotation="0"
     inkscape:current-layer="layer3"
     inkscape:document-units="mm"
     inkscape:cy="103.74633"
     inkscape:cx="145.38207"
     inkscape:zoom="1.7285156"
     inkscape:pageshadow="2"
     inkscape:pageopacity="0.0"
     borderopacity="1.0"
     bordercolor="#666666"
     pagecolor="#ffffff"
     id="base" />
  <metadata
     id="metadata5">
    <rdf:RDF>
      <cc:Work
         rdf:about="">
        <dc:format>image/svg+xml</dc:format>
        <dc:type
           rdf:resource="http://purl.org/dc/dcmitype/StillImage" />
        <dc:title />
      </cc:Work>
    </rdf:RDF>
  </metadata>
  <g
     style="display:none"
     sodipodi:insensitive="true"
     id="layer1"
     inkscape:groupmode="layer"
     inkscape:label="framework">
    <rect
       y="0"
       x="1.4210855e-14"
       height="67.73333"
       width="67.73333"
       id="rect10"
       style="font-variation-settings:normal;opacity:1;vector-effect:none;fill:#fafafa;fill-opacity:1;fill-rule:evenodd;stroke:none;stroke-width:1;stroke-linecap:round;stroke-linejoin:round;stroke-miterlimit:4;stroke-dasharray:none;stroke-dashoffset:0;stroke-opacity:1;paint-order:markers stroke fill;stop-color:#000000;stop-opacity:1" />
  </g>
  <g
     style="display:none"
     inkscape:label="main_back"
     id="layer4"
     inkscape:groupmode="layer">
    <rect
       y="0"
       x="0"
       height="67.73333"
       width="67.73333"
       id="rect846"
       style="font-variation-settings:normal;display:inline;opacity:1;vector-effect:none;fill:#77c9ff;fill-opacity:1;fill-rule:evenodd;stroke:none;stroke-width:1;stroke-linecap:round;stroke-linejoin:round;stroke-miterlimit:4;stroke-dasharray:none;stroke-dashoffset:0;stroke-opacity:1;paint-order:markers stroke fill;stop-color:#000000;stop-opacity:1"
       ry="2.937465e-16" />
    <rect
       transform="matrix(-0.70710678,0.70710678,0.70710678,0.70710678,0,0)"
       ry="0"
       y="14.028032"
       x="-47.894695"
       height="67.73333"
       width="33.866665"
       id="rect854-3"
       style="font-variation-settings:normal;display:inline;opacity:1;vector-effect:none;fill:#77d2ff;fill-opacity:1;fill-rule:evenodd;stroke:none;stroke-width:1;stroke-linecap:round;stroke-linejoin:round;stroke-miterlimit:4;stroke-dasharray:none;stroke-dashoffset:0;stroke-opacity:1;paint-order:markers stroke fill;stop-color:#000000;stop-opacity:1" />
    <rect
       inkscape:export-ydpi="250"
       inkscape:export-xdpi="250"
       transform="matrix(-0.70710678,0.70710678,0.70710678,0.70710678,0,0)"
       ry="0"
       y="14.028032"
       x="-47.894695"
       height="67.73333"
       width="16.933332"
       id="rect856-7"
       style="font-variation-settings:normal;display:inline;opacity:1;vector-effect:none;fill:#77dcff;fill-opacity:1;fill-rule:evenodd;stroke:none;stroke-width:1;stroke-linecap:round;stroke-linejoin:round;stroke-miterlimit:4;stroke-dasharray:none;stroke-dashoffset:0;stroke-opacity:1;paint-order:markers stroke fill;stop-color:#000000;stop-opacity:1" />
    <rect
       style="font-variation-settings:normal;display:inline;opacity:1;vector-effect:none;fill:#77d2ff;fill-opacity:1;fill-rule:evenodd;stroke:none;stroke-width:1;stroke-linecap:round;stroke-linejoin:round;stroke-miterlimit:4;stroke-dasharray:none;stroke-dashoffset:0;stroke-opacity:1;paint-order:markers stroke fill;stop-color:#000000;stop-opacity:1"
       id="rect854-9-1"
       width="33.866665"
       height="67.73333"
       x="-47.894695"
       y="-81.76136"
       ry="0"
       transform="matrix(0.70710678,-0.70710678,-0.70710678,-0.70710678,0,0)" />
    <rect
       inkscape:export-ydpi="250"
       inkscape:export-xdpi="250"
       style="font-variation-settings:normal;display:inline;opacity:1;vector-effect:none;fill:#77dcff;fill-opacity:1;fill-rule:evenodd;stroke:none;stroke-width:1;stroke-linecap:round;stroke-linejoin:round;stroke-miterlimit:4;stroke-dasharray:none;stroke-dashoffset:0;stroke-opacity:1;paint-order:markers stroke fill;stop-color:#000000;stop-opacity:1"
       id="rect856-9-4"
       width="16.933332"
       height="67.73333"
       x="-47.894695"
       y="-81.76136"
       ry="0"
       transform="matrix(0.70710678,-0.70710678,-0.70710678,-0.70710678,0,0)" />
  </g>
  <g
     inkscape:label="main_back_b"
     id="layer6"
     inkscape:groupmode="layer"
     style="display:none">
    <path
       style="font-variation-settings:normal;display:inline;opacity:1;vector-effect:none;fill:#e4f9ff;fill-opacity:1;stroke-width:4.41757;stroke-linecap:round;stroke-linejoin:round;stroke-miterlimit:4;stroke-dasharray:none;stroke-dashoffset:0;stroke-opacity:1;paint-order:markers stroke fill;stop-color:#000000;stop-opacity:1"
       d="m 115.41152,255.19894 c -8.74475,-0.84991 -17.730879,-2.75805 -27.234503,-5.78305 l -5.736748,-1.826 -24.776045,-24.69125 C 44.037403,209.31846 27.408442,192.66995 20.710982,185.90197 L 8.5337817,173.59655 6.9402329,168.92205 C -1.726428,143.49936 -2.0018796,115.20616 6.1666135,89.459195 7.0839528,86.567756 7.957916,84.067299 8.1087538,83.902624 8.2595917,83.737949 13.458597,88.628732 19.662099,94.771032 l 11.279095,11.167818 -0.888857,5.43963 c -1.750897,10.71515 -1.849346,21.77423 -0.284511,31.96018 0.800187,5.20864 3.293873,14.44502 5.343252,19.79091 12.841175,33.49674 42.001353,57.21151 77.284742,62.85251 10.3182,1.64963 22.60464,1.52262 32.63453,-0.33737 l 4.49816,-0.83416 11.53663,11.49375 11.53663,11.49376 -3.34709,1.1649 c -7.97048,2.774 -18.95972,5.18298 -28.01213,6.1406 -4.95697,0.52438 -20.8146,0.58293 -25.83103,0.0954 z"
       id="path943"
       transform="scale(0.26458333)" />
    <path
       style="font-variation-settings:normal;display:inline;opacity:1;vector-effect:none;fill:#d5f9ff;fill-opacity:1;stroke-width:4.41757;stroke-linecap:round;stroke-linejoin:round;stroke-miterlimit:4;stroke-dasharray:none;stroke-dashoffset:0;stroke-opacity:1;paint-order:markers stroke fill;stop-color:#000000;stop-opacity:1"
       d="M 73.008719,243.26603 C 48.741312,231.5604 29.546987,213.55759 16.298157,190.07586 14.101313,186.18225 8.5376797,174.34541 8.5337817,173.59655 c 73.9064873,73.99334 0,0 73.9064873,73.99334 0,0 -5.822507,-2.58301 -9.43155,-4.32386 z"
       id="path945"
       transform="scale(0.26458333)"
       sodipodi:nodetypes="csccc" />
    <path
       style="font-variation-settings:normal;display:inline;opacity:1;vector-effect:none;fill:#e4f9ff;fill-opacity:1;stroke-width:4.41757;stroke-linecap:round;stroke-linejoin:round;stroke-miterlimit:4;stroke-dasharray:none;stroke-dashoffset:0;stroke-opacity:1;paint-order:markers stroke fill;stop-color:#000000;stop-opacity:1"
       d="M 116.30487,199.42856 C 96.238913,197.44247 80.699061,185.7777 68.504241,169.00248 c -2.923826,-4.02203 -6.992784,-12.70266 -8.65719,-17.57154 -1.76461,-5.16201 -3.805618,-11.51609 -3.741287,-15.96588 l 0.0587,-4.0603 27.686708,27.67392 c 38.666098,38.64823 40.903808,40.90737 40.460978,40.84839 -0.21626,-0.0288 -6.20636,-0.32026 -8.00728,-0.49851 z"
       id="path947"
       transform="scale(0.26458333)"
       sodipodi:nodetypes="sssscsss" />
    <path
       style="font-variation-settings:normal;display:inline;opacity:1;vector-effect:none;fill:#fff9ff;fill-opacity:1;stroke-width:4.41757;stroke-linecap:round;stroke-linejoin:round;stroke-miterlimit:4;stroke-dasharray:none;stroke-dashoffset:0;stroke-opacity:1;paint-order:markers stroke fill;stop-color:#000000;stop-opacity:1"
       d="m 149.52851,224.81055 c 0.32534,-0.11097 3.3333,-0.86705 5.55181,-1.46905 11.71807,-3.17975 25.39032,-10.2788 35.1382,-18.24484 8.96986,-7.33023 11.6005,-11.06858 11.5731,-16.44626 -0.0287,-5.6774 -2.69848,-9.98401 -7.69296,-12.41056 -2.31469,-1.12459 -3.11395,-1.30145 -5.81785,-1.28738 -4.16174,0.0217 -6.67962,1.1989 -10.91066,5.10125 -13.53344,12.48213 -28.25828,19.68607 -45.49452,19.81624 l -7.56348,0.0571 C 101.4119,177.00093 79.064716,154.33089 56.164465,131.40476 l 0.07513,-5.58471 C 56.534569,103.8949 67.691445,81.598698 86.957742,68.569949 97.783813,61.248865 109.57437,57.411601 123.69998,56.305477 l 7.46443,-0.46121 c 34.26617,34.238022 0,0 34.26617,34.238022 l -16.9159,17.013021 c -9.20481,9.25766 -17.68635,17.52151 -18.75784,18.45403 l -1.94817,1.69548 -15.30307,-15.04998 C 95.241456,95.216227 95.766982,95.599714 89.831137,95.648831 c -2.456656,0.02033 -3.748311,0.247448 -5.180733,0.910963 -2.568065,1.189558 -5.471468,3.969256 -6.777153,6.488406 -0.939916,1.81345 -1.069806,2.54818 -1.057253,5.98039 0.02274,6.21612 -0.605403,5.41842 22.583084,28.67927 17.670308,17.72544 20.393878,20.29902 22.611098,21.36592 3.57573,1.72058 6.40566,1.94366 10.1112,0.79703 3.50623,-1.08495 1.8973,0.41077 32.21577,-29.94885 10.89852,-10.91333 19.97433,-19.84324 20.16846,-19.84425 0.19412,-10e-4 14.4795,14.10983 31.74529,31.35743 l 31.39233,31.35927 -0.53881,1.66162 c -0.96545,2.97734 -7.05498,15.20003 -9.87667,19.82408 -12.00394,19.67156 -29.54722,36.19176 -49.56253,46.67217 -4.90342,2.56753 -12.93448,6.20633 -15.06345,6.84578 z"
       id="path949"
       transform="scale(0.26458333)"
       sodipodi:nodetypes="csscssssccsssccsscssssssssssscssscc" />
    <path
       style="font-variation-settings:normal;display:inline;opacity:1;vector-effect:none;fill:#ffffff;fill-opacity:1;stroke-width:4.41757;stroke-linecap:round;stroke-linejoin:round;stroke-miterlimit:4;stroke-dasharray:none;stroke-dashoffset:0;stroke-opacity:1;paint-order:markers stroke fill;stop-color:#000000;stop-opacity:1"
       d="M 8.1087538,83.902624 C 8.1036495,82.92204 12.689197,72.629066 15.285829,67.799695 29.158594,41.998303 52.030615,21.157846 78.516298,10.185557 L 83.181635,8.2528355 94.314922,19.542391 c 6.123308,6.209256 11.187118,11.422818 11.252918,11.585694 0.0658,0.162876 -0.64122,0.421868 -1.57115,0.575538 -3.63238,0.60025 -14.331998,4.561261 -20.186754,7.473165 C 77.213464,42.45759 69.195353,47.650263 64.136748,51.9175 59.524997,55.807792 51.637057,64.165709 48.344826,68.650333 40.864562,78.839835 35.524981,89.74168 32.186357,101.64115 c -0.565126,2.01421 -1.184125,4.23602 -1.245163,4.2977 -22.8324402,-22.036226 0,0 -22.8324402,-22.036226 z"
       id="path951"
       transform="scale(0.26458333)"
       sodipodi:nodetypes="csscssssssscc" />
    <path
       style="font-variation-settings:normal;display:inline;opacity:1;vector-effect:none;fill:#e4f9ff;fill-opacity:1;stroke-width:4.41757;stroke-linecap:round;stroke-linejoin:round;stroke-miterlimit:4;stroke-dasharray:none;stroke-dashoffset:0;stroke-opacity:1;paint-order:markers stroke fill;stop-color:#000000;stop-opacity:1"
       d="m 183.74625,109.95338 11.93832,-11.282365 c 12.58159,-11.89029 12.53706,-12.856522 12.81286,-18.172582 0.29032,-5.595751 -2.43224,-10.203427 -7.45797,-12.62192 -4.47414,-2.153059 -9.41318,-1.934022 -13.19658,0.585241 -0.74446,0.495715 -6.09177,5.563127 -11.88293,11.260915 l -10.52937,10.35962 -34.26617,-34.238022 c 0.10223,-0.07455 1.18135,-0.593671 2.39803,-1.153612 2.68262,-1.234599 5.28774,-3.779179 6.59036,-6.437224 0.81444,-1.661896 0.96336,-2.583849 0.94632,-5.858512 -0.0172,-3.29621 -0.17386,-4.194368 -1.03208,-5.915746 -1.29059,-2.588579 -3.80411,-5.076065 -6.40598,-6.339634 -1.96644,-0.954978 -2.32731,-0.987297 -10.01668,-0.897071 -6.28287,0.07372 -8.79782,0.942606 -12.54879,1.323823 l -5.52775,0.561794 c -22.386205,-22.8752495 0,0 -22.386205,-22.8752495 l 4.35359,-1.479979 c 9.133434,-3.1048608 18.711215,-5.0362966 28.526025,-5.98805572 7.83632,-0.75990065 21.95035,-0.44402602 29.7338,0.66544772 7.40699,1.0558125 18.53809,3.7558719 24.23543,5.8787631 22.06079,22.5619294 64.0665,47.4613544 77.96323,76.5809684 1.26068,3.193629 3.91447,12.337619 4.82966,16.64127 4.71482,22.17119 3.73988,44.37953 -2.88157,65.6401 -0.87735,2.81705 -2.12029,6.32856 -2.29857,6.60306 z"
       id="path953"
       transform="scale(0.26458333)"
       sodipodi:nodetypes="csssssccsscssssccsssccsscc" />
    <path
       style="font-variation-settings:normal;display:inline;opacity:1;vector-effect:none;fill:#d5f9ff;fill-opacity:1;stroke-width:4.41757;stroke-linecap:round;stroke-linejoin:round;stroke-miterlimit:4;stroke-dasharray:none;stroke-dashoffset:0;stroke-opacity:1;paint-order:markers stroke fill;stop-color:#000000;stop-opacity:1"
       d="m 170.03048,7.3290116 c 0.27489,-0.2777691 14.19149,5.7712824 18.73214,8.2510454 22.14329,12.092988 40.88907,31.028826 52.16229,52.691139 2.8561,5.488212 5.90322,12.622298 5.65765,12.870432 z"
       id="path955"
       transform="scale(0.26458333)"
       sodipodi:nodetypes="csscc" />
  </g>
  <g
     style="display:inline"
     inkscape:label="main_sd"
     id="layer7"
     inkscape:groupmode="layer">
    <circle
       style="display:inline;opacity:0.3;fill:none;fill-opacity:1;stroke:#787878;stroke-width:8.74926;stroke-linecap:round;stroke-linejoin:round;stroke-miterlimit:4;stroke-dasharray:none;stroke-opacity:1;paint-order:stroke fill markers"
       id="circle53"
       sodipodi:type="arc"
       sodipodi:cx="35.669292"
       sodipodi:cy="35.632469"
       sodipodi:rx="27.72529"
       sodipodi:ry="27.72529"
       sodipodi:start="0.26179939"
       sodipodi:end="4.712389"
       sodipodi:open="true"
       sodipodi:arc-type="arc"
       d="M 62.449866,42.808302 A 27.72529,27.72529 0 0 1 30.854846,62.93655 27.72529,27.72529 0 0 1 8.0495053,33.216051 27.72529,27.72529 0 0 1 35.669292,7.9071789" />
    <path
       sodipodi:nodetypes="ccc"
       id="path85"
       d="M 23.452544,29.493475 35.73053,41.771462 57.454715,20.071275"
       style="display:inline;opacity:0.3;fill:none;stroke:#787878;stroke-width:8.74926;stroke-linecap:round;stroke-linejoin:round;stroke-miterlimit:4;stroke-dasharray:none;stroke-opacity:1" />
  </g>
  <g
     style="display:inline"
     inkscape:label="main"
     id="layer2"
     inkscape:groupmode="layer">
    <circle
       d="M 60.505584,40.86402 A 27.72529,27.72529 0 0 1 28.910564,60.992267 27.72529,27.72529 0 0 1 6.1052228,31.271768 27.72529,27.72529 0 0 1 33.72501,5.9628963"
       sodipodi:arc-type="arc"
       sodipodi:open="true"
       sodipodi:end="4.712389"
       sodipodi:start="0.26179939"
       sodipodi:ry="27.72529"
       sodipodi:rx="27.72529"
       sodipodi:cy="33.688187"
       sodipodi:cx="33.72501"
       sodipodi:type="arc"
       id="path881"
       style="opacity:1;fill:none;fill-opacity:1;stroke:#00ffc0;stroke-width:8.74926;stroke-linecap:round;stroke-linejoin:round;stroke-miterlimit:4;stroke-dasharray:none;stroke-opacity:1;paint-order:stroke fill markers" />
    <path
       sodipodi:nodetypes="ccc"
       id="path939"
       d="M 21.508263,27.549194 33.786249,39.827181 55.510434,18.126994"
       style="fill:none;stroke:#00ffc0;stroke-width:8.74926;stroke-linecap:round;stroke-linejoin:round;stroke-miterlimit:4;stroke-dasharray:none;stroke-opacity:1" />
    <path
       id="path1005"
       d="m 23.906772,64.190041 c -1.968619,-0.641444 -2.565039,-0.887129 -4.536106,-1.868592 -3.24492,-1.615755 -6.0158,-3.656426 -8.658259,-6.376547 C 3.1929097,48.2044 0.12694249,37.401025 2.4317802,26.766933 4.3188706,18.060248 9.9946523,10.345502 17.808918,5.8657224 22.160787,3.3708735 27.118633,1.937683 32.327271,1.6688264 c 1.423099,-0.073457 1.862202,-0.049537 2.501296,0.1362525 0.931803,0.2708822 1.629077,0.6922961 2.134606,1.2900996 1.490258,1.76228 1.405468,4.3731091 -0.192387,5.9237736 -0.997257,0.9678051 -2.18364,1.3241559 -4.462851,1.3404979 -1.128554,0.0081 -3.832179,0.485865 -5.273506,0.931913 -1.577737,0.488264 -2.408004,0.822327 -3.856748,1.551787 -6.390905,3.217898 -10.824874,9.057524 -12.415479,16.351437 -0.266833,1.22359 -0.302336,1.752214 -0.302336,4.501604 0,2.744979 0.03585,3.280628 0.301694,4.507109 1.613192,7.442645 6.249102,13.397099 12.902677,16.572441 l 1.513707,0.722401 -0.04859,3.117461 c -0.03514,2.254499 0.0059,3.521107 0.148157,4.575642 0.108209,0.802003 0.187066,1.466583 0.175235,1.476852 -0.01183,0.01027 -0.707517,-0.204859 -1.545973,-0.478056 z"
       style="font-variation-settings:normal;opacity:1;vector-effect:none;fill:#0090ff;fill-opacity:1;stroke-width:1.4315;stroke-linecap:round;stroke-linejoin:round;stroke-miterlimit:4;stroke-dasharray:none;stroke-dashoffset:0;stroke-opacity:1;paint-order:markers stroke fill;stop-color:#000000;stop-opacity:1" />
    <path
       id="path1007"
       d="m 24.039334,36.161985 c -4.635449,-4.633446 -6.115722,-6.191913 -6.395116,-6.732921 -1.076246,-2.084006 -0.170215,-4.705141 1.99371,-5.767772 0.647941,-0.318182 0.916942,-0.371222 1.882727,-0.371222 1.868808,0 1.85408,-0.01104 7.422088,5.562651 l 4.837132,4.84206 9.612133,-9.589829 c 7.653133,-7.635377 9.747216,-9.654201 10.274942,-9.905675 0.545102,-0.259754 0.874689,-0.316097 1.85587,-0.317258 1.045524,-0.0012 1.278571,0.04352 1.884578,0.3619 0.878257,0.461421 1.530232,1.113397 1.991652,1.991653 0.317909,0.605095 0.363314,0.840626 0.363314,1.884579 0,1.850201 -0.100788,1.994796 -4.403482,6.317425 -3.515164,3.531447 -3.671773,3.669501 -4.26135,3.756433 -1.141509,0.168316 -4.052128,0.97434 -5.516864,1.527756 -2.348075,0.887169 -5.012678,2.290595 -7.025791,3.700434 -2.932557,2.053753 -6.269551,5.46609 -8.285127,8.472196 -0.194759,0.290469 -0.322722,0.172737 -6.230416,-5.73241 z"
       style="font-variation-settings:normal;opacity:1;vector-effect:none;fill:#0090ff;fill-opacity:1;stroke-width:1.4315;stroke-linecap:round;stroke-linejoin:round;stroke-miterlimit:4;stroke-dasharray:none;stroke-dashoffset:0;stroke-opacity:1;paint-order:markers stroke fill;stop-color:#000000;stop-opacity:1" />
    <path
       id="path1017"
       d="M 23.681192,64.173366 C 21.926566,63.591861 19.04152,62.335474 19.04152,62.15287 c 0,-0.06804 -0.05965,-0.08684 -0.132562,-0.04178 -0.07291,0.04506 -0.132562,0.01876 -0.132562,-0.05846 0,-0.07721 -0.04474,-0.128329 -0.09942,-0.113591 -0.174831,0.04712 -1.250526,-0.562244 -2.756665,-1.561617 l -1.464186,-0.971534 0.0987,-1.232359 c 0.302289,-3.774242 0.758194,-7.086741 1.206525,-8.766349 l 0.171036,-0.64076 0.574809,0.681687 c 1.470757,1.744233 4.649019,4.086815 7.193152,5.301811 l 1.411056,0.673875 0.07611,4.072738 c 0.04186,2.240008 0.114067,4.326262 0.160468,4.636128 0.0464,0.309863 0.03336,0.55946 -0.02897,0.554658 -0.06234,-0.0048 -0.799355,-0.236081 -1.63781,-0.513954 z"
       style="font-variation-settings:normal;opacity:1;vector-effect:none;fill:#00adc0;fill-opacity:1;stroke-width:1.4315;stroke-linecap:round;stroke-linejoin:round;stroke-miterlimit:4;stroke-dasharray:none;stroke-dashoffset:0;stroke-opacity:1;paint-order:markers stroke fill;stop-color:#000000;stop-opacity:1" />
    <path
       id="path1019"
       d="m 27.606874,39.676837 c -3.451085,-3.379054 -4.999018,-4.968308 -4.9568,-5.089123 0.122588,-0.350813 2.512571,-3.165699 3.952968,-4.655746 l 1.698222,-1.756761 2.722403,2.711396 c 1.497322,1.491266 2.769354,2.664178 2.826743,2.606475 0.05739,-0.0577 3.676238,-3.634121 8.041891,-7.947593 l 7.937548,-7.84268 0.94411,-0.09055 c 1.33106,-0.127664 5.83852,-0.356582 7.564133,-0.384154 l 1.450105,-0.02317 -0.0103,0.997642 c -0.01089,1.051969 -0.227617,1.952632 -0.469875,1.952632 -0.07941,0 -0.105535,0.03884 -0.05806,0.08631 0.04747,0.04747 -0.01714,0.16197 -0.143608,0.254438 -0.126459,0.09247 -0.229924,0.22348 -0.229924,0.291138 0,0.182756 -6.562673,6.770989 -7.025788,7.05315 -0.218728,0.133264 -1.143346,0.422657 -2.054711,0.643099 -7.798416,1.886272 -13.873635,5.882516 -18.72683,12.3184 -0.508562,0.674409 -0.955332,1.226198 -0.992824,1.226198 -0.03749,0 -1.148716,-1.057999 -2.469387,-2.351104 z"
       style="font-variation-settings:normal;opacity:1;vector-effect:none;fill:#00adc0;fill-opacity:1;stroke-width:1.4315;stroke-linecap:round;stroke-linejoin:round;stroke-miterlimit:4;stroke-dasharray:none;stroke-dashoffset:0;stroke-opacity:1;paint-order:markers stroke fill;stop-color:#000000;stop-opacity:1" />
    <path
       style="font-variation-settings:normal;opacity:1;vector-effect:none;fill:#0090ff;fill-opacity:1;stroke-width:1.4315;stroke-linecap:round;stroke-linejoin:round;stroke-miterlimit:4;stroke-dasharray:none;stroke-dashoffset:0;stroke-opacity:1;paint-order:markers stroke fill;stop-color:#000000;stop-opacity:1"
       d="m 24.039334,36.161985 c -4.635449,-4.633446 -6.115722,-6.191913 -6.395116,-6.732921 -1.076246,-2.084006 -0.170215,-4.705141 1.99371,-5.767772 0.647941,-0.318182 0.916942,-0.371222 1.882727,-0.371222 1.868808,0 1.85408,-0.01104 7.422088,5.562651 l 4.837132,4.84206 9.612133,-9.589829 c 7.653133,-7.635377 9.747216,-9.654201 10.274942,-9.905675 0.545102,-0.259754 0.874689,-0.316097 1.85587,-0.317258 1.045524,-0.0012 1.278571,0.04352 1.884578,0.3619 0.878257,0.461421 1.530232,1.113397 1.991652,1.991653 0.317909,0.605095 0.363314,0.840626 0.363314,1.884579 0,1.850201 -0.100788,1.994796 -4.403482,6.317425 -3.515164,3.531447 -3.671773,3.669501 -4.26135,3.756433 -1.141509,0.168316 -4.052128,0.97434 -5.516864,1.527756 -2.348075,0.887169 -5.012678,2.290595 -7.025791,3.700434 -2.932557,2.053753 -6.269551,5.46609 -8.285127,8.472196 -0.194759,0.290469 -0.322722,0.172737 -6.230416,-5.73241 z"
       id="path59" />
    <path
       style="display:inline;fill:none;stroke:#00ffc0;stroke-width:8.74926;stroke-linecap:round;stroke-linejoin:round;stroke-miterlimit:4;stroke-dasharray:none;stroke-opacity:1"
       d="M 21.508263,27.549194 33.786249,39.827181 55.510434,18.126994"
       id="path55"
       sodipodi:nodetypes="ccc" />
    <path
       id="path82"
       d="m 27.606874,39.676837 c -3.451085,-3.379054 -4.999018,-4.968308 -4.9568,-5.089123 0.122588,-0.350813 2.512571,-3.165699 3.952968,-4.655746 l 1.698222,-1.756761 2.722403,2.711396 c 1.497322,1.491266 2.769354,2.664178 2.826743,2.606475 0.05739,-0.0577 3.676238,-3.634121 8.041891,-7.947593 l 7.937548,-7.84268 0.94411,-0.09055 c 1.33106,-0.127664 5.83852,-0.356582 7.564133,-0.384154 l 1.450105,-0.02317 -0.0103,0.997642 c -0.01089,1.051969 -0.227617,1.952632 -0.469875,1.952632 -0.07941,0 -0.105535,0.03884 -0.05806,0.08631 0.04747,0.04747 -0.01714,0.16197 -0.143608,0.254438 -0.126459,0.09247 -0.229924,0.22348 -0.229924,0.291138 0,0.182756 -6.562673,6.770989 -7.025788,7.05315 -0.218728,0.133264 -1.143346,0.422657 -2.054711,0.643099 -7.798416,1.886272 -13.873635,5.882516 -18.72683,12.3184 -0.508562,0.674409 -0.955332,1.226198 -0.992824,1.226198 -0.03749,0 -1.148716,-1.057999 -2.469387,-2.351104 z"
       style="font-variation-settings:normal;display:inline;opacity:1;vector-effect:none;fill:#00adc0;fill-opacity:1;stroke-width:1.4315;stroke-linecap:round;stroke-linejoin:round;stroke-miterlimit:4;stroke-dasharray:none;stroke-dashoffset:0;stroke-opacity:1;paint-order:markers stroke fill;stop-color:#000000;stop-opacity:1" />
  </g>
  <g
     sodipodi:insensitive="true"
     style="display:none"
     inkscape:label="framework_b"
     id="layer3"
     inkscape:groupmode="layer">
    <circle
       r="33.866665"
       cy="33.866665"
       cx="33.866665"
       id="path12"
       style="opacity:1;fill:none;stroke:#3c3c3c;stroke-width:0.05;stroke-linecap:square;stroke-miterlimit:4;stroke-dasharray:none;stroke-opacity:0.501259;paint-order:stroke fill markers" />
    <path
       id="path848"
       d="M 0,33.866664 H 67.73333"
       style="fill:none;stroke:#3c3c3c;stroke-width:0.05;stroke-linecap:butt;stroke-linejoin:miter;stroke-miterlimit:4;stroke-dasharray:none;stroke-opacity:0.501259" />
    <path
       id="path850"
       d="M 33.866664,0 V 67.73333"
       style="fill:none;stroke:#3c3c3c;stroke-width:0.05;stroke-linecap:butt;stroke-linejoin:miter;stroke-miterlimit:4;stroke-dasharray:none;stroke-opacity:0.501259" />
    <circle
       r="16.933332"
       cy="33.866665"
       cx="33.866665"
       id="path852"
       style="opacity:1;fill:none;fill-opacity:1;stroke:#3c3c3c;stroke-width:0.05;stroke-linecap:square;stroke-miterlimit:4;stroke-dasharray:none;stroke-opacity:0.501259;paint-order:stroke fill markers" />
    <circle
       style="opacity:1;fill:none;fill-opacity:1;stroke:#3c3c3c;stroke-width:0.05;stroke-linecap:square;stroke-miterlimit:4;stroke-dasharray:none;stroke-opacity:0.501259;paint-order:stroke fill markers"
       id="path852-9"
       cx="16.883333"
       cy="33.866665"
       r="16.933332" />
    <circle
       style="opacity:1;fill:none;fill-opacity:1;stroke:#3c3c3c;stroke-width:0.05;stroke-linecap:square;stroke-miterlimit:4;stroke-dasharray:none;stroke-opacity:0.501259;paint-order:stroke fill markers"
       id="path852-7"
       cx="50.799995"
       cy="16.933332"
       r="16.933332" />
    <path
       id="path877"
       d="M 0,0 67.733332,67.733332"
       style="fill:none;stroke:#3c3c3c;stroke-width:0.05;stroke-linecap:butt;stroke-linejoin:miter;stroke-miterlimit:4;stroke-dasharray:none;stroke-opacity:0.5" />
    <path
       id="path879"
       d="M 67.733332,0 0,67.733332"
       style="fill:none;stroke:#3c3c3c;stroke-width:0.05;stroke-linecap:butt;stroke-linejoin:miter;stroke-miterlimit:4;stroke-dasharray:none;stroke-opacity:0.5" />
    <circle
       r="25.4"
       style="display:inline;opacity:1;fill:none;fill-opacity:1;stroke:#3c3c3c;stroke-width:0.0499999;stroke-linecap:square;stroke-miterlimit:4;stroke-dasharray:none;stroke-opacity:0.501259;paint-order:stroke fill markers"
       id="path852-3"
       cx="33.866665"
       cy="33.866665" />
  </g>
</svg>
