<?xml version="1.0" encoding="UTF-8" standalone="no"?>
<svg
   xmlns:dc="http://purl.org/dc/elements/1.1/"
   xmlns:cc="http://creativecommons.org/ns#"
   xmlns:rdf="http://www.w3.org/1999/02/22-rdf-syntax-ns#"
   xmlns:svg="http://www.w3.org/2000/svg"
   xmlns="http://www.w3.org/2000/svg"
   xmlns:sodipodi="http://sodipodi.sourceforge.net/DTD/sodipodi-0.dtd"
   xmlns:inkscape="http://www.inkscape.org/namespaces/inkscape"
   width="200mm"
   height="150mm"
   viewBox="0 0 200 150"
   version="1.1"
   id="svg8"
   inkscape:version="1.0 (4035a4fb49, 2020-05-01)"
   sodipodi:docname="card-back2.svg">
  <defs
     id="defs2" />
  <sodipodi:namedview
     id="base"
     pagecolor="#ffffff"
     bordercolor="#666666"
     borderopacity="1.0"
     inkscape:pageopacity="0.0"
     inkscape:pageshadow="2"
     inkscape:zoom="0.24748738"
     inkscape:cx="550.33279"
     inkscape:cy="418.82661"
     inkscape:document-units="mm"
     inkscape:current-layer="layer1"
     inkscape:document-rotation="0"
     showgrid="false"
     inkscape:pagecheckerboard="true"
     inkscape:snap-bbox="true"
     inkscape:snap-page="true"
     inkscape:bbox-paths="true"
     inkscape:snap-bbox-edge-midpoints="true"
     inkscape:snap-others="true"
     inkscape:window-width="1920"
     inkscape:window-height="1057"
     inkscape:window-x="-8"
     inkscape:window-y="-8"
     inkscape:window-maximized="1"
     inkscape:bbox-nodes="true"
     inkscape:snap-bbox-midpoints="true"
     inkscape:snap-object-midpoints="true"
     inkscape:snap-nodes="true"
     inkscape:object-paths="false"
     inkscape:snap-intersection-paths="true"
     inkscape:snap-midpoints="true" />
  <metadata
     id="metadata5">
    <rdf:RDF>
      <cc:Work
         rdf:about="">
        <dc:format>image/svg+xml</dc:format>
        <dc:type
           rdf:resource="http://purl.org/dc/dcmitype/StillImage" />
        <dc:title />
      </cc:Work>
    </rdf:RDF>
  </metadata>
  <g
     inkscape:label="レイヤー 1"
     inkscape:groupmode="layer"
     id="layer1"
     style="display:inline">
    <rect
       style="font-variation-settings:normal;display:inline;opacity:1;vector-effect:none;fill:#fcffff;fill-opacity:1;fill-rule:evenodd;stroke:none;stroke-width:0.693542;stroke-linecap:round;stroke-linejoin:round;stroke-miterlimit:4;stroke-dasharray:none;stroke-dashoffset:0;stroke-opacity:1;paint-order:markers stroke fill;stop-color:#000000;stop-opacity:1"
       id="rect10"
       width="200"
       height="149.99998"
       x="0"
       y="0" />
    <path
       id="path40-1-4-6-9"
       d="M 252.35508,82.281082 A 65.45743,65.45743 0 0 0 228.396,-7.1354303 65.45743,65.45743 0 0 0 138.97948,16.823653 65.45743,65.45743 0 0 0 162.93857,106.24016 65.45743,65.45743 0 0 0 252.35508,82.281082"
       style="display:inline;opacity:0.988;fill:#bccfe7;fill-opacity:1;stroke-width:0.800309;stroke-linecap:square;paint-order:stroke fill markers" />
    <path
       d="m 138.98065,16.824452 a 92.718921,92.718921 0 0 0 0.0868,0.320995 92.718921,92.718921 0 0 0 0.1111,0.40189 92.718921,92.718921 0 0 0 0.1123,0.400783 92.718921,92.718921 0 0 0 0.11442,0.4002 92.718921,92.718921 0 0 0 0.11628,0.400116 92.718921,92.718921 0 0 0 0.11772,0.399723 92.718921,92.718921 0 0 0 0.12005,0.398687 92.718921,92.718921 0 0 0 0.12148,0.39835 92.718921,92.718921 0 0 0 0.12362,0.397756 92.718921,92.718921 0 0 0 0.125,0.397385 92.718921,92.718921 0 0 0 0.12669,0.396563 92.718921,92.718921 0 0 0 0.12881,0.395982 92.718921,92.718921 0 0 0 0.13067,0.395867 92.718921,92.718921 0 0 0 0.13187,0.394789 92.718921,92.718921 0 0 0 0.13447,0.394482 92.718921,92.718921 0 0 0 0.13541,0.393838 92.718921,92.718921 0 0 0 0.13778,0.392821 92.718921,92.718921 0 0 0 0.1392,0.392452 92.718921,92.718921 0 0 0 0.14132,0.391871 92.718921,92.718921 0 0 0 0.14275,0.391507 92.718921,92.718921 0 0 0 0.14465,0.390219 92.718921,92.718921 0 0 0 0.14653,0.390111 92.718921,92.718921 0 0 0 0.14818,0.389297 92.718921,92.718921 0 0 0 0.1496,0.38889 92.718921,92.718921 0 0 0 0.15153,0.387629 92.718921,92.718921 0 0 0 0.15339,0.387532 92.718921,92.718921 0 0 0 0.15532,0.386237 92.718921,92.718921 0 0 0 0.15674,0.385863 92.718921,92.718921 0 0 0 0.1584,0.385023 92.718921,92.718921 0 0 0 0.1605,0.384462 92.718921,92.718921 0 0 0 0.1615,0.383816 92.718921,92.718921 0 0 0 0.16386,0.382827 92.718921,92.718921 0 0 0 0.16526,0.382448 92.718921,92.718921 0 0 0 0.16765,0.381408 92.718921,92.718921 0 0 0 0.16862,0.380779 92.718921,92.718921 0 0 0 0.17098,0.379757 92.718921,92.718921 0 0 0 0.17194,0.379152 92.718921,92.718921 0 0 0 0.17408,0.378556 92.718921,92.718921 0 0 0 0.17573,0.377733 92.718921,92.718921 0 0 0 0.17698,0.376684 92.718921,92.718921 0 0 0 0.17907,0.376059 92.718921,92.718921 0 0 0 0.18075,0.375282 92.718921,92.718921 0 0 0 0.18242,0.374423 92.718921,92.718921 0 0 0 0.18409,0.373609 92.718921,92.718921 0 0 0 0.18576,0.3728 92.718921,92.718921 0 0 0 0.18769,0.371505 92.718921,92.718921 0 0 0 0.18911,0.371126 92.718921,92.718921 0 0 0 0.19076,0.370311 92.718921,92.718921 0 0 0 0.19246,0.36949 92.718921,92.718921 0 0 0 0.1941,0.368638 92.718921,92.718921 0 0 0 0.19604,0.367372 92.718921,92.718921 0 0 0 0.19745,0.367025 92.718921,92.718921 0 0 0 0.19894,0.36547 92.718921,92.718921 0 0 0 0.20078,0.365341 92.718921,92.718921 0 0 0 0.20228,0.363825 92.718921,92.718921 0 0 0 0.20394,0.362982 92.718921,92.718921 0 0 0 0.20562,0.362184 92.718921,92.718921 0 0 0 0.20729,0.361336 92.718921,92.718921 0 0 0 0.20894,0.360523 92.718921,92.718921 0 0 0 0.21018,0.359435 92.718921,92.718921 0 0 0 0.21212,0.35814 92.718921,92.718921 0 0 0 0.21351,0.357785 92.718921,92.718921 0 0 0 0.21544,0.356513 92.718921,92.718921 0 0 0 0.21712,0.35568 92.718921,92.718921 0 0 0 0.21834,0.354589 92.718921,92.718921 0 0 0 0.22027,0.353345 92.718921,92.718921 0 0 0 0.22167,0.352927 92.718921,92.718921 0 0 0 0.22318,0.35142 92.718921,92.718921 0 0 0 0.22481,0.350592 92.718921,92.718921 0 0 0 0.22651,0.34977 92.718921,92.718921 0 0 0 0.22799,0.348237 92.718921,92.718921 0 0 0 0.2294,0.347836 92.718921,92.718921 0 0 0 0.23085,0.346316 92.718921,92.718921 0 0 0 0.23256,0.3455 92.718921,92.718921 0 0 0 0.23446,0.344212 92.718921,92.718921 0 0 0 0.23545,0.343599 92.718921,92.718921 0 0 0 0.23736,0.342316 92.718921,92.718921 0 0 0 0.2393,0.341016 92.718921,92.718921 0 0 0 0.24026,0.340416 92.718921,92.718921 0 0 0 0.24175,0.338865 92.718921,92.718921 0 0 0 0.2434,0.338042 92.718921,92.718921 0 0 0 0.24464,0.336954 92.718921,92.718921 0 0 0 0.24656,0.335682 92.718921,92.718921 0 0 0 0.24779,0.334618 92.718921,92.718921 0 0 0 0.24943,0.333767 92.718921,92.718921 0 0 0 0.25096,0.332259 92.718921,92.718921 0 0 0 0.2526,0.331411 92.718921,92.718921 0 0 0 0.2541,0.329891 92.718921,92.718921 0 0 0 0.25504,0.329241 92.718921,92.718921 0 0 0 0.25697,0.327974 92.718921,92.718921 0 0 0 0.25846,0.326451 92.718921,92.718921 0 0 0 0.25944,0.325824 92.718921,92.718921 0 0 0 0.2616,0.324077 92.718921,92.718921 0 0 0 0.26258,0.323454 92.718921,92.718921 0 0 0 0.26408,0.321904 92.718921,92.718921 0 0 0 0.26526,0.320848 92.718921,92.718921 0 0 0 0.26721,0.319558 92.718921,92.718921 0 0 0 0.26845,0.31847 92.718921,92.718921 0 0 0 0.2699,0.316951 92.718921,92.718921 0 0 0 0.27157,0.31612 92.718921,92.718921 0 0 0 0.27235,0.314767 92.718921,92.718921 0 0 0 0.27431,0.31351 92.718921,92.718921 0 0 0 0.2755,0.312431 92.718921,92.718921 0 0 0 0.277,0.310877 92.718921,92.718921 0 0 0 0.27866,0.310072 92.718921,92.718921 0 0 0 0.27944,0.30871 92.718921,92.718921 0 0 0 0.28091,0.307183 92.718921,92.718921 0 0 0 0.28285,0.305915 92.718921,92.718921 0 0 0 0.2836,0.304581 92.718921,92.718921 0 0 0 0.2853,0.303728 92.718921,92.718921 0 0 0 0.28678,0.302227 92.718921,92.718921 0 0 0 0.28799,0.301126 92.718921,92.718921 0 0 0 0.28902,0.299338 92.718921,92.718921 0 0 0 0.29072,0.298517 92.718921,92.718921 0 0 0 0.29216,0.296992 92.718921,92.718921 0 0 0 0.29296,0.295627 92.718921,92.718921 0 0 0 0.29488,0.294377 92.718921,92.718921 0 0 0 0.29567,0.293031 92.718921,92.718921 0 0 0 0.29759,0.291731 92.718921,92.718921 0 0 0 0.29836,0.29043 92.718921,92.718921 0 0 0 0.29983,0.288865 92.718921,92.718921 0 0 0 0.30107,0.287783 92.718921,92.718921 0 0 0 0.30257,0.286264 92.718921,92.718921 0 0 0 0.30376,0.28518 92.718921,92.718921 0 0 0 0.30523,0.283647 92.718921,92.718921 0 0 0 0.30604,0.28231 92.718921,92.718921 0 0 0 0.3075,0.280768 92.718921,92.718921 0 0 0 0.30898,0.279207 92.718921,92.718921 0 0 0 0.31023,0.27818 92.718921,92.718921 0 0 0 0.31098,0.276797 92.718921,92.718921 0 0 0 0.31245,0.275285 92.718921,92.718921 0 0 0 0.31397,0.27375 92.718921,92.718921 0 0 0 0.31515,0.272665 92.718921,92.718921 0 0 0 0.31621,0.270856 92.718921,92.718921 0 0 0 0.31743,0.269787 92.718921,92.718921 0 0 0 0.31847,0.268012 92.718921,92.718921 0 0 0 0.31968,0.266933 92.718921,92.718921 0 0 0 0.32116,0.265374 92.718921,92.718921 0 0 0 0.32219,0.26359 92.718921,92.718921 0 0 0 0.32342,0.262498 92.718921,92.718921 0 0 0 0.32489,0.260987 92.718921,92.718921 0 0 0 0.32568,0.259651 92.718921,92.718921 0 0 0 0.32671,0.257826 92.718921,92.718921 0 0 0 0.3284,0.257022 92.718921,92.718921 0 0 0 0.32896,0.254973 92.718921,92.718921 0 0 0 0.33043,0.25344 92.718921,92.718921 0 0 0 0.33168,0.252344 92.718921,92.718921 0 0 0 0.3327,0.250561 92.718921,92.718921 0 0 0 0.33374,0.248781 92.718921,92.718921 0 0 0 0.33498,0.247691 92.718921,92.718921 0 0 0 0.33571,0.246341 92.718921,92.718921 0 0 0 0.33721,0.244823 92.718921,92.718921 0 0 0 0.33826,0.243018 92.718921,92.718921 0 0 0 0.33927,0.241246 92.718921,92.718921 0 0 0 0.34052,0.240134 92.718921,92.718921 0 0 0 0.34129,0.238832 92.718921,92.718921 0 0 0 0.3423,0.237001 92.718921,92.718921 0 0 0 0.34335,0.235233 92.718921,92.718921 0 0 0 0.34484,0.233677 92.718921,92.718921 0 0 0 0.34559,0.232365 92.718921,92.718921 0 0 0 0.34685,0.231266 92.718921,92.718921 0 0 0 0.34766,0.228771 92.718921,92.718921 0 0 0 0.34887,0.227692 92.718921,92.718921 0 0 0 0.34969,0.226339 92.718921,92.718921 0 0 0 0.35071,0.224567 92.718921,92.718921 0 0 0 0.35171,0.222764 92.718921,92.718921 0 0 0 0.35299,0.221672 92.718921,92.718921 0 0 0 0.35353,0.219629 92.718921,92.718921 0 0 0 0.35502,0.21811 92.718921,92.718921 0 0 0 0.35582,0.216752 92.718921,92.718921 0 0 0 0.35635,0.214745 92.718921,92.718921 0 0 0 0.35761,0.213625 92.718921,92.718921 0 0 0 0.35893,0.211382 92.718921,92.718921 0 0 0 0.3594,0.210507 92.718921,92.718921 0 0 0 0.24768,0.143575 92.718921,92.718921 0 0 0 0.3612,0.207384 92.718921,92.718921 0 0 0 0.36228,0.205585 92.718921,92.718921 0 0 0 0.36305,0.20418 92.718921,92.718921 0 0 0 0.36381,0.202885 92.718921,92.718921 0 0 0 0.36511,0.200634 92.718921,92.718921 0 0 0 0.36587,0.199287 92.718921,92.718921 0 0 0 0.36622,0.197717 92.718921,92.718921 0 0 0 0.36768,0.196182 92.718921,92.718921 0 0 0 0.36828,0.194118 92.718921,92.718921 0 0 0 0.36903,0.192774 92.718921,92.718921 0 0 0 0.37008,0.191 92.718921,92.718921 0 0 0 0.37113,0.189212 92.718921,92.718921 0 0 0 0.37187,0.187841 92.718921,92.718921 0 0 0 0.3725,0.185827 92.718921,92.718921 0 0 0 0.37393,0.184274 92.718921,92.718921 0 0 0 0.37429,0.182668 92.718921,92.718921 0 0 0 0.37462,0.181089 92.718921,92.718921 0 0 0 0.37635,0.1791 92.718921,92.718921 0 0 0 0.37644,0.177928 92.718921,92.718921 0 0 0 0.37769,0.175718 92.718921,92.718921 0 0 0 0.37851,0.174351 92.718921,92.718921 0 0 0 0.37906,0.172319 92.718921,92.718921 0 0 0 0.37985,0.170968 92.718921,92.718921 0 0 0 0.38045,0.168939 92.718921,92.718921 0 0 0 0.38146,0.167109 92.718921,92.718921 0 0 0 0.38224,0.165817 92.718921,92.718921 0 0 0 0.38258,0.164174 92.718921,92.718921 0 0 0 0.38386,0.161958 92.718921,92.718921 0 0 0 0.38419,0.160346 92.718921,92.718921 0 0 0 0.38497,0.159018 92.718921,92.718921 0 0 0 0.38598,0.157229 92.718921,92.718921 0 0 0 0.3866,0.155164 92.718921,92.718921 0 0 0 0.3869,0.153565 92.718921,92.718921 0 0 0 0.38795,0.151791 92.718921,92.718921 0 0 0 0.38828,0.15018 92.718921,92.718921 0 0 0 0.38929,0.148372 92.718921,92.718921 0 0 0 0.38991,0.146354 92.718921,92.718921 0 0 0 0.39066,0.144987 92.718921,92.718921 0 0 0 0.3908,0.142683 92.718921,92.718921 0 0 0 0.39203,0.14162 92.718921,92.718921 0 0 0 0.39218,0.13929 92.718921,92.718921 0 0 0 0.39295,0.13797 92.718921,92.718921 0 0 0 0.39395,0.136157 92.718921,92.718921 0 0 0 0.39414,0.133852 92.718921,92.718921 0 0 0 0.39489,0.132522 92.718921,92.718921 0 0 0 0.39521,0.130923 92.718921,92.718921 0 0 0 0.39625,0.129113 92.718921,92.718921 0 0 0 0.39685,0.12708 92.718921,92.718921 0 0 0 0.39716,0.12548 92.718921,92.718921 0 0 0 0.39775,0.123411 92.718921,92.718921 0 0 0 0.39809,0.121841 92.718921,92.718921 0 0 0 0.39865,0.119781 92.718921,92.718921 0 0 0 0.39943,0.118422 92.718921,92.718921 0 0 0 0.40003,0.116388 92.718921,92.718921 0 0 0 0.40037,0.114782 92.718921,92.718921 0 0 0 0.40095,0.112735 92.718921,92.718921 0 0 0 0.40151,0.110705 92.718921,92.718921 0 0 0 0.40186,0.109076 92.718921,92.718921 0 0 0 0.40263,0.107747 92.718921,92.718921 0 0 0 0.40277,0.105445 92.718921,92.718921 0 0 0 0.4031,0.103832 92.718921,92.718921 0 0 0 0.40412,0.10204 92.718921,92.718921 0 0 0 0.404,0.100196 92.718921,92.718921 0 0 0 0.40461,0.09814 92.718921,92.718921 0 0 0 0.40537,0.09681 92.718921,92.718921 0 0 0 0.40549,0.09449 92.718921,92.718921 0 0 0 0.40583,0.09288 92.718921,92.718921 0 0 0 0.40687,0.0911 92.718921,92.718921 0 0 0 0.40675,0.08923 92.718921,92.718921 0 0 0 0.4071,0.08765 92.718921,92.718921 0 0 0 0.40765,0.0856 92.718921,92.718921 0 0 0 0.40781,0.08327 92.718921,92.718921 0 0 0 0.40858,0.08194 92.718921,92.718921 0 0 0 0.40845,0.08007 92.718921,92.718921 0 0 0 0.40947,0.07831 92.718921,92.718921 0 0 0 0.40939,0.07642 92.718921,92.718921 0 0 0 0.40969,0.07483 92.718921,92.718921 0 0 0 0.40984,0.07253 92.718921,92.718921 0 0 0 0.41086,0.07073 92.718921,92.718921 0 0 0 0.4105,0.06934 92.718921,92.718921 0 0 0 0.41133,0.06682 92.718921,92.718921 0 0 0 0.41097,0.06542 92.718921,92.718921 0 0 0 0.41154,0.06337 92.718921,92.718921 0 0 0 0.41186,0.06175 92.718921,92.718921 0 0 0 0.41247,0.05971 92.718921,92.718921 0 0 0 0.41233,0.05787 92.718921,92.718921 0 0 0 0.41266,0.05625 92.718921,92.718921 0 0 0 0.41281,0.05392 92.718921,92.718921 0 0 0 0.41358,0.05263 92.718921,92.718921 0 0 0 0.41301,0.05047 92.718921,92.718921 0 0 0 0.41404,0.04871 92.718921,92.718921 0 0 0 0.41348,0.04658 92.718921,92.718921 0 0 0 0.41425,0.04523 92.718921,92.718921 0 0 0 0.4144,0.04293 92.718921,92.718921 0 0 0 0.41427,0.04108 92.718921,92.718921 0 0 0 0.41458,0.03946 92.718921,92.718921 0 0 0 0.41476,0.03718 92.718921,92.718921 0 0 0 0.41507,0.03556 92.718921,92.718921 0 0 0 0.41538,0.03396 92.718921,92.718921 0 0 0 0.41527,0.0321 92.718921,92.718921 0 0 0 0.41541,0.02979 92.718921,92.718921 0 0 0 0.41502,0.02838 92.718921,92.718921 0 0 0 0.4159,0.02589 92.718921,92.718921 0 0 0 0.41593,0.02475 92.718921,92.718921 0 0 0 0.41609,0.02242 92.718921,92.718921 0 0 0 0.4157,0.02102 92.718921,92.718921 0 0 0 0.41585,0.01871 92.718921,92.718921 0 0 0 0.41643,0.01664 92.718921,92.718921 0 0 0 0.41604,0.01525 92.718921,92.718921 0 0 0 0.41665,0.01322 92.718921,92.718921 0 0 0 0.41607,0.01108 92.718921,92.718921 0 0 0 0.41641,0.0095 92.718921,92.718921 0 0 0 0.41626,0.0076 92.718921,92.718921 0 0 0 0.41661,0.006 92.718921,92.718921 0 0 0 0.41675,0.0037 92.718921,92.718921 0 0 0 0.41636,0.0023 92.718921,92.718921 0 0 0 0.41651,2e-6 92.718921,92.718921 0 0 0 0.41638,-0.0019 92.718921,92.718921 0 0 0 0.41626,-0.0037 92.718921,92.718921 0 0 0 0.4166,-0.0053 92.718921,92.718921 0 0 0 0.41646,-0.0072 92.718921,92.718921 0 0 0 0.41662,-0.0095 92.718921,92.718921 0 0 0 0.41622,-0.01089 92.718921,92.718921 0 0 0 0.41638,-0.01322 92.718921,92.718921 0 0 0 0.416,-0.01462 92.718921,92.718921 0 0 0 0.41613,-0.01693 92.718921,92.718921 0 0 0 0.41603,-0.01879 92.718921,92.718921 0 0 0 0.41606,-0.01993 92.718921,92.718921 0 0 0 0.41577,-0.02252 92.718921,92.718921 0 0 0 0.41611,-0.02409 92.718921,92.718921 0 0 0 0.41552,-0.02623 92.718921,92.718921 0 0 0 0.41541,-0.0281 92.718921,92.718921 0 0 0 0.41575,-0.02968 92.718921,92.718921 0 0 0 0.41518,-0.0318 92.718921,92.718921 0 0 0 0.41478,-0.0332 92.718921,92.718921 0 0 0 0.41537,-0.03527 92.718921,92.718921 0 0 0 0.41483,-0.03738 92.718921,92.718921 0 0 0 0.4147,-0.03923 92.718921,92.718921 0 0 0 0.41458,-0.04111 92.718921,92.718921 0 0 0 0.41416,-0.04251 92.718921,92.718921 0 0 0 0.4139,-0.04507 92.718921,92.718921 0 0 0 0.41396,-0.04623 92.718921,92.718921 0 0 0 0.41364,-0.04879 92.718921,92.718921 0 0 0 0.41326,-0.05021 92.718921,92.718921 0 0 0 0.41315,-0.05208 92.718921,92.718921 0 0 0 0.41303,-0.05392 92.718921,92.718921 0 0 0 0.41291,-0.05578 92.718921,92.718921 0 0 0 0.41233,-0.05792 92.718921,92.718921 0 0 0 0.41241,-0.05904 92.718921,92.718921 0 0 0 0.4121,-0.06163 92.718921,92.718921 0 0 0 0.41129,-0.06329 92.718921,92.718921 0 0 0 0.41159,-0.06489 92.718921,92.718921 0 0 0 0.41102,-0.06702 92.718921,92.718921 0 0 0 0.41094,-0.06887 92.718921,92.718921 0 0 0 0.41035,-0.07098 92.718921,92.718921 0 0 0 0.40997,-0.07239 92.718921,92.718921 0 0 0 0.40983,-0.07427 92.718921,92.718921 0 0 0 0.40973,-0.07611 92.718921,92.718921 0 0 0 0.4089,-0.07778 92.718921,92.718921 0 0 0 0.40905,-0.08011 92.718921,92.718921 0 0 0 0.40821,-0.08178 92.718921,92.718921 0 0 0 0.40784,-0.08315 92.718921,92.718921 0 0 0 0.40798,-0.08549 92.718921,92.718921 0 0 0 0.40715,-0.08715 92.718921,92.718921 0 0 0 0.40703,-0.08903 92.718921,92.718921 0 0 0 0.40619,-0.09067 92.718921,92.718921 0 0 0 0.40608,-0.09254 92.718921,92.718921 0 0 0 0.40554,-0.09466 92.718921,92.718921 0 0 0 0.40538,-0.09652 92.718921,92.718921 0 0 0 0.40503,-0.09795 92.718921,92.718921 0 0 0 0.40419,-0.09959 92.718921,92.718921 0 0 0 0.40389,-0.102177 92.718921,92.718921 0 0 0 0.40324,-0.103133 92.718921,92.718921 0 0 0 0.40293,-0.105696 92.718921,92.718921 0 0 0 0.196,-0.05213 65.457429,65.457429 0 0 0 0.10535,-0.181445 65.457429,65.457429 0 0 0 -23.95937,-89.4161623 65.457429,65.457429 0 0 0 -89.41591,23.9589133 65.457429,65.457429 0 0 0 -0.10446,0.181965 z"
       style="display:inline;opacity:0.988;fill:#d3cfe7;fill-opacity:1;stroke-width:0.800309;stroke-linecap:square;paint-order:stroke fill markers"
       id="path967" />
    <path
       d="m 261.09425,47.555547 a 65.457429,65.457429 0 0 0 -0.004,-0.123846 65.457429,65.457429 0 0 0 -0.0124,-0.349647 65.457429,65.457429 0 0 0 -0.0142,-0.349519 65.457429,65.457429 0 0 0 -0.0163,-0.350114 65.457429,65.457429 0 0 0 -0.0179,-0.349274 65.457429,65.457429 0 0 0 -0.0195,-0.349609 65.457429,65.457429 0 0 0 -0.0217,-0.349047 65.457429,65.457429 0 0 0 -0.0235,-0.348919 65.457429,65.457429 0 0 0 -0.0251,-0.349249 65.457429,65.457429 0 0 0 -0.0277,-0.348944 65.457429,65.457429 0 0 0 -0.0291,-0.34856 65.457429,65.457429 0 0 0 -0.0307,-0.348896 65.457429,65.457429 0 0 0 -0.0328,-0.348321 65.457429,65.457429 0 0 0 -0.0347,-0.348202 65.457429,65.457429 0 0 0 -0.0365,-0.348077 65.457429,65.457429 0 0 0 -0.0386,-0.347516 65.457429,65.457429 0 0 0 -0.0403,-0.347852 65.457429,65.457429 0 0 0 -0.0417,-0.347466 65.457429,65.457429 0 0 0 -0.0442,-0.347145 65.457429,65.457429 0 0 0 -0.0456,-0.346777 65.457429,65.457429 0 0 0 -0.0479,-0.346921 65.457429,65.457429 0 0 0 -0.0496,-0.346086 65.457429,65.457429 0 0 0 -0.0512,-0.346424 65.457429,65.457429 0 0 0 -0.0533,-0.345847 65.457429,65.457429 0 0 0 -0.0547,-0.34548 65.457429,65.457429 0 0 0 -0.0573,-0.34516 65.457429,65.457429 0 0 0 -0.0585,-0.345236 65.457429,65.457429 0 0 0 -0.0606,-0.344663 65.457429,65.457429 0 0 0 -0.0627,-0.344091 65.457429,65.457429 0 0 0 -0.0643,-0.344433 65.457429,65.457429 0 0 0 -0.0662,-0.34315 65.457429,65.457429 0 0 0 -0.0678,-0.34348 65.457429,65.457429 0 0 0 -0.0699,-0.342904 65.457429,65.457429 0 0 0 -0.0714,-0.342537 65.457429,65.457429 0 0 0 -0.0735,-0.341966 65.457429,65.457429 0 0 0 -0.0753,-0.341843 65.457429,65.457429 0 0 0 -0.0774,-0.34128 65.457429,65.457429 0 0 0 -0.0789,-0.340906 65.457429,65.457429 0 0 0 -0.0807,-0.34078 65.457429,65.457429 0 0 0 -0.0824,-0.339955 65.457429,65.457429 0 0 0 -0.0845,-0.339387 65.457429,65.457429 0 0 0 -0.0864,-0.339267 65.457429,65.457429 0 0 0 -0.0878,-0.338882 65.457429,65.457429 0 0 0 -0.0899,-0.338325 65.457429,65.457429 0 0 0 -0.0916,-0.337492 65.457429,65.457429 0 0 0 -0.0934,-0.337384 65.457429,65.457429 0 0 0 -0.0955,-0.336803 65.457429,65.457429 0 0 0 -0.0965,-0.336175 65.457429,65.457429 0 0 0 -0.0993,-0.33542 65.457429,65.457429 0 0 0 -0.10046,-0.335472 65.457429,65.457429 0 0 0 -0.10242,-0.334211 65.457429,65.457429 0 0 0 -0.10428,-0.334098 65.457429,65.457429 0 0 0 -0.10613,-0.333972 65.457429,65.457429 0 0 0 -0.10736,-0.332887 65.457429,65.457429 0 0 0 -0.10973,-0.33187 65.457429,65.457429 0 0 0 -0.11133,-0.332201 65.457429,65.457429 0 0 0 -0.11327,-0.330926 65.457429,65.457429 0 0 0 -0.11466,-0.330548 65.457429,65.457429 0 0 0 -0.11681,-0.329987 65.457429,65.457429 0 0 0 -0.11819,-0.329594 65.457429,65.457429 0 0 0 -0.12013,-0.328329 65.457429,65.457429 0 0 0 -0.12199,-0.328209 65.457429,65.457429 0 0 0 -0.12367,-0.32739 65.457429,65.457429 0 0 0 -0.12531,-0.326548 65.457429,65.457429 0 0 0 -0.12745,-0.325991 65.457429,65.457429 0 0 0 -0.12886,-0.325612 65.457429,65.457429 0 0 0 -0.13079,-0.324333 65.457429,65.457429 0 0 0 -0.13222,-0.323972 65.457429,65.457429 0 0 0 -0.1343,-0.323381 65.457429,65.457429 0 0 0 -0.13555,-0.322315 65.457429,65.457429 0 0 0 -0.13766,-0.321743 65.457429,65.457429 0 0 0 -0.13907,-0.321362 65.457429,65.457429 0 0 0 -0.141,-0.320088 65.457429,65.457429 0 0 0 -0.14311,-0.319514 65.457429,65.457429 0 0 0 -0.14407,-0.318882 65.457429,65.457429 0 0 0 -0.14646,-0.317874 65.457429,65.457429 0 0 0 -0.14744,-0.317245 65.457429,65.457429 0 0 0 -0.14952,-0.316651 65.457429,65.457429 0 0 0 -0.15146,-0.315393 65.457429,65.457429 0 0 0 -0.15245,-0.31476 65.457429,65.457429 0 0 0 -0.15455,-0.31419 65.457429,65.457429 0 0 0 -0.15648,-0.312915 65.457429,65.457429 0 0 0 -0.15788,-0.312534 65.457429,65.457429 0 0 0 -0.15983,-0.311267 65.457429,65.457429 0 0 0 -0.16079,-0.310637 65.457429,65.457429 0 0 0 -0.16315,-0.309601 65.457429,65.457429 0 0 0 -0.16456,-0.309228 65.457429,65.457429 0 0 0 -0.16605,-0.307699 65.457429,65.457429 0 0 0 -0.16772,-0.306876 65.457429,65.457429 0 0 0 -0.16985,-0.306313 65.457429,65.457429 0 0 0 -0.17106,-0.305223 65.457429,65.457429 0 0 0 -0.17275,-0.304408 65.457429,65.457429 0 0 0 -0.17394,-0.303304 65.457429,65.457429 0 0 0 -0.17608,-0.302753 65.457429,65.457429 0 0 0 -0.17756,-0.301217 65.457429,65.457429 0 0 0 -0.1794,-0.30109 65.457429,65.457429 0 0 0 -0.1809,-0.299562 65.457429,65.457429 0 0 0 -0.18213,-0.298485 65.457429,65.457429 0 0 0 -0.18423,-0.297914 65.457429,65.457429 0 0 0 -0.18572,-0.296382 65.457429,65.457429 0 0 0 -0.18668,-0.295736 65.457429,65.457429 0 0 0 -0.18906,-0.294732 65.457429,65.457429 0 0 0 -0.19027,-0.293642 65.457429,65.457429 0 0 0 -0.19194,-0.292811 65.457429,65.457429 0 0 0 -0.19343,-0.291287 65.457429,65.457429 0 0 0 -0.19511,-0.290463 65.457429,65.457429 0 0 0 -0.19676,-0.289631 65.457429,65.457429 0 0 0 -0.19801,-0.288561 65.457429,65.457429 0 0 0 -0.19921,-0.287461 65.457429,65.457429 0 0 0 -0.2016,-0.286456 65.457429,65.457429 0 0 0 -0.20238,-0.285113 65.457429,65.457429 0 0 0 -0.20427,-0.283825 65.457429,65.457429 0 0 0 -0.20572,-0.283457 65.457429,65.457429 0 0 0 -0.2072,-0.281934 65.457429,65.457429 0 0 0 -0.20911,-0.280649 65.457429,65.457429 0 0 0 -0.21008,-0.280013 65.457429,65.457429 0 0 0 -0.21155,-0.2784777 65.457429,65.457429 0 0 0 -0.21351,-0.2772169 65.457429,65.457429 0 0 0 -0.21444,-0.276567 65.457429,65.457429 0 0 0 -0.21639,-0.275304 65.457429,65.457429 0 0 0 -0.21788,-0.273774 65.457429,65.457429 0 0 0 -0.21882,-0.273128 65.457429,65.457429 0 0 0 -0.22075,-0.271851 65.457429,65.457429 0 0 0 -0.2218,-0.270079 65.457429,65.457429 0 0 0 -0.22346,-0.269238 65.457429,65.457429 0 0 0 -0.22513,-0.268414 65.457429,65.457429 0 0 0 -0.22617,-0.266632 65.457429,65.457429 0 0 0 -0.22783,-0.265793 65.457429,65.457429 0 0 0 -0.22932,-0.264269 65.457429,65.457429 0 0 0 -0.23055,-0.2631921 65.457429,65.457429 0 0 0 -0.23176,-0.262101 65.457429,65.457429 0 0 0 -0.23369,-0.260822 65.457429,65.457429 0 0 0 -0.23447,-0.259487 65.457429,65.457429 0 0 0 -0.23638,-0.258207 65.457429,65.457429 0 0 0 -0.23762,-0.257129 65.457429,65.457429 0 0 0 -0.2391,-0.255594 65.457429,65.457429 0 0 0 -0.23989,-0.25426 65.457429,65.457429 0 0 0 -0.24154,-0.2534209 65.457429,65.457429 0 0 0 -0.24303,-0.251895 65.457429,65.457429 0 0 0 -0.2445,-0.25036 65.457429,65.457429 0 0 0 -0.24573,-0.249282 65.457429,65.457429 0 0 0 -0.24694,-0.248191 65.457429,65.457429 0 0 0 -0.24799,-0.246412 65.457429,65.457429 0 0 0 -0.24991,-0.245125 65.457429,65.457429 0 0 0 -0.25114,-0.244043 65.457429,65.457429 0 0 0 -0.25217,-0.24225 65.457429,65.457429 0 0 0 -0.2534,-0.241186 65.457429,65.457429 0 0 0 -0.25461,-0.240089 65.457429,65.457429 0 0 0 -0.2561,-0.238561 65.457429,65.457429 0 0 0 -0.25758,-0.237024 65.457429,65.457429 0 0 0 -0.25881,-0.235946 65.457429,65.457429 0 0 0 -0.25982,-0.23413903 65.457429,65.457429 0 0 0 -0.26105,-0.233061 65.457429,65.457429 0 0 0 -0.26254,-0.231538 65.457429,65.457429 0 0 0 -0.26332,-0.2302 65.457429,65.457429 0 0 0 -0.26478,-0.228658 65.457429,65.457429 0 0 0 -0.26628,-0.227129 65.457429,65.457429 0 0 0 -0.2675,-0.226042 65.457429,65.457429 0 0 0 -0.26829,-0.22471 65.457429,65.457429 0 0 0 -0.26929,-0.22290297 65.457429,65.457429 0 0 0 -0.27125,-0.221648 65.457429,65.457429 0 0 0 -0.272,-0.220291 65.457429,65.457429 0 0 0 -0.27303,-0.218503 65.457429,65.457429 0 0 0 -0.27453,-0.21697 65.457429,65.457429 0 0 0 -0.27576,-0.215899 65.457429,65.457429 0 0 0 -0.27651,-0.214535 65.457429,65.457429 0 0 0 -0.27782,-0.212317 65.457429,65.457429 0 0 0 -0.27879,-0.211671 65.457429,65.457429 0 0 0 -0.28007,-0.209436 65.457429,65.457429 0 0 0 -0.28128,-0.208339 65.457429,65.457429 0 0 0 -0.28208,-0.207017 65.457429,65.457429 0 0 0 -0.28355,-0.205474 65.457429,65.457429 0 0 0 -0.28458,-0.203685 65.457429,65.457429 0 0 0 -0.28561,-0.201898 65.457429,65.457429 0 0 0 -0.28685,-0.20082 65.457429,65.457429 0 0 0 -0.2876,-0.199463 65.457429,65.457429 0 0 0 -0.28892,-0.197235 65.457429,65.457429 0 0 0 -0.28941,-0.1963267 65.457429,65.457429 0 0 0 -0.29115,-0.194354 65.457429,65.457429 0 0 0 -0.29196,-0.193031 65.457429,65.457429 0 0 0 -0.29297,-0.191223 65.457429,65.457429 0 0 0 -0.29418,-0.190131 65.457429,65.457429 0 0 0 -0.29478,-0.188089 65.457429,65.457429 0 0 0 -0.29601,-0.187011 65.457429,65.457429 0 0 0 -0.29705,-0.185218 65.457429,65.457429 0 0 0 -0.29763,-0.183152 65.457429,65.457429 0 0 0 -0.29883,-0.182118 65.457429,65.457429 0 0 0 -0.30032,-0.18055 65.457429,65.457429 0 0 0 -0.30092,-0.178465 65.457429,65.457429 0 0 0 -0.30168,-0.177182 65.457429,65.457429 0 0 0 -0.24723,-0.143332 65.457429,65.457429 0 0 0 -0.30347,-0.174054 65.457429,65.457429 0 0 0 -0.30429,-0.172678 65.457429,65.457429 0 0 0 -0.30533,-0.170855 65.457429,65.457429 0 0 0 -0.30632,-0.169117 65.457429,65.457429 0 0 0 -0.30713,-0.167737 65.457429,65.457429 0 0 0 -0.30815,-0.165976 65.457429,65.457429 0 0 0 -0.30917,-0.164176 65.457429,65.457429 0 0 0 -0.30952,-0.162599 65.457429,65.457429 0 0 0 -0.31098,-0.161041 65.457429,65.457429 0 0 0 -0.31131,-0.159449 65.457429,65.457429 0 0 0 -0.31235,-0.157656 65.457429,65.457429 0 0 0 -0.3134,-0.155888 65.457429,65.457429 0 0 0 -0.31416,-0.15453 65.457429,65.457429 0 0 0 -0.31473,-0.152472 65.457429,65.457429 0 0 0 -0.31552,-0.15114 65.457429,65.457429 0 0 0 -0.31654,-0.149337 65.457429,65.457429 0 0 0 -0.3176,-0.147559 65.457429,65.457429 0 0 0 -0.31792,-0.1459527 65.457429,65.457429 0 0 0 -0.31894,-0.144168 65.457429,65.457429 0 0 0 -0.31998,-0.14237 65.457429,65.457429 0 0 0 -0.32032,-0.140784 65.457429,65.457429 0 0 0 -0.32063,-0.13917 65.457429,65.457429 0 0 0 -0.32237,-0.137183 65.457429,65.457429 0 0 0 -0.32245,-0.136041 65.457429,65.457429 0 0 0 -0.3233,-0.133552 65.457429,65.457429 0 0 0 -0.32405,-0.132199 65.457429,65.457429 0 0 0 -0.32439,-0.130602 65.457429,65.457429 0 0 0 -0.32568,-0.128358 65.457429,65.457429 0 0 0 -0.32578,-0.127222 65.457429,65.457429 0 0 0 -0.32703,-0.124959 65.457429,65.457429 0 0 0 -0.32738,-0.123375 65.457429,65.457429 0 0 0 -0.32814,-0.122033 65.457429,65.457429 0 0 0 -0.32873,-0.11998 65.457429,65.457429 0 0 0 -0.32933,-0.117932 65.457429,65.457429 0 0 0 -0.3301,-0.116591 65.457429,65.457429 0 0 0 -0.33068,-0.114532 65.457429,65.457429 0 0 0 -0.33101,-0.11294 65.457429,65.457429 0 0 0 -0.33202,-0.111141 65.457429,65.457429 0 0 0 -0.33239,-0.109559 65.457429,65.457429 0 0 0 -0.33294,-0.107491 65.457429,65.457429 0 0 0 -0.334,-0.105713 65.457429,65.457429 0 0 0 -0.33387,-0.103851 65.457429,65.457429 0 0 0 -0.33464,-0.102499 65.457429,65.457429 0 0 0 -0.33549,-0.100014 65.457429,65.457429 0 0 0 -0.33556,-0.09886 65.457429,65.457429 0 0 0 -0.33614,-0.09681 65.457429,65.457429 0 0 0 -0.33719,-0.09502 65.457429,65.457429 0 0 0 -0.33705,-0.09316 65.457429,65.457429 0 0 0 -0.3381,-0.09137 65.457429,65.457429 0 0 0 -0.33797,-0.08951 65.457429,65.457429 0 0 0 -0.33875,-0.08817 65.457429,65.457429 0 0 0 -0.33932,-0.08612 65.457429,65.457429 0 0 0 -0.33947,-0.08381 65.457429,65.457429 0 0 0 -0.34025,-0.08248 65.457429,65.457429 0 0 0 -0.34084,-0.08043 65.457429,65.457429 0 0 0 -0.34069,-0.07855 65.457429,65.457429 0 0 0 -0.3415,-0.07723 65.457429,65.457429 0 0 0 -0.34163,-0.07492 65.457429,65.457429 0 0 0 -0.34195,-0.07331 65.457429,65.457429 0 0 0 -0.34299,-0.07152 65.457429,65.457429 0 0 0 -0.34287,-0.06966 65.457429,65.457429 0 0 0 -0.34344,-0.06761 65.457429,65.457429 0 0 0 -0.34334,-0.06576 65.457429,65.457429 0 0 0 -0.34436,-0.06396 65.457429,65.457429 0 0 0 -0.34426,-0.06211 65.457429,65.457429 0 0 0 -0.34458,-0.06051 65.457429,65.457429 0 0 0 -0.34514,-0.05845 65.457429,65.457429 0 0 0 -0.3455,-0.05686 65.457429,65.457429 0 0 0 -0.34537,-0.055 65.457429,65.457429 0 0 0 -0.34595,-0.05294 65.457429,65.457429 0 0 0 -0.34627,-0.05133 65.457429,65.457429 0 0 0 -0.34643,-0.04904 65.457429,65.457429 0 0 0 -0.34674,-0.04744 65.457429,65.457429 0 0 0 -0.34709,-0.04584 65.457429,65.457429 0 0 0 -0.3472,-0.04352 65.457429,65.457429 0 0 0 -0.34754,-0.04193 65.457429,65.457429 0 0 0 -0.34742,-0.04007 65.457429,65.457429 0 0 0 -0.34803,-0.03803 65.457429,65.457429 0 0 0 -0.34788,-0.03616 65.457429,65.457429 0 0 0 -0.34822,-0.03456 65.457429,65.457429 0 0 0 -0.34853,-0.03296 65.457429,65.457429 0 0 0 -0.34825,-0.0304 65.457429,65.457429 0 0 0 -0.34899,-0.02904 65.457429,65.457429 0 0 0 -0.34916,-0.02675 65.457429,65.457429 0 0 0 -0.34876,-0.02533 65.457429,65.457429 0 0 0 -0.34935,-0.02328 65.457429,65.457429 0 0 0 -0.34924,-0.02143 65.457429,65.457429 0 0 0 -0.34937,-0.01912 65.457429,65.457429 0 0 0 -0.34944,-0.01796 65.457429,65.457429 0 0 0 -0.34959,-0.01566 65.457429,65.457429 0 0 0 -0.34946,-0.0138 65.457429,65.457429 0 0 0 -0.3498,-0.0122 65.457429,65.457429 0 0 0 -0.34991,-0.0099 65.457429,65.457429 0 0 0 -0.35,-0.0087 65.457429,65.457429 0 0 0 -0.3497,-0.0062 65.457429,65.457429 0 0 0 -0.35002,-0.0046 65.457429,65.457429 0 0 0 -0.34989,-0.0027 65.457429,65.457429 0 0 0 -0.34978,-8.58e-4 65.457429,65.457429 0 0 0 -0.35035,0.0012 65.457429,65.457429 0 0 0 -0.34954,0.0029 65.457429,65.457429 0 0 0 -0.35013,0.0049 65.457429,65.457429 0 0 0 -0.34974,0.0063 65.457429,65.457429 0 0 0 -0.34987,0.0086 65.457429,65.457429 0 0 0 -0.34976,0.01049 65.457429,65.457429 0 0 0 -0.35009,0.0121 65.457429,65.457429 0 0 0 -0.34952,0.01421 65.457429,65.457429 0 0 0 -0.34941,0.01607 65.457429,65.457429 0 0 0 -0.34972,0.01767 65.457429,65.457429 0 0 0 -0.34917,0.01978 65.457429,65.457429 0 0 0 -0.34905,0.02165 65.457429,65.457429 0 0 0 -0.34962,0.0237 65.457429,65.457429 0 0 0 -0.3488,0.02537 65.457429,65.457429 0 0 0 -0.34913,0.02697 65.457429,65.457429 0 0 0 -0.34857,0.02908 65.457429,65.457429 0 0 0 -0.34844,0.03095 65.457429,65.457429 0 0 0 -0.34832,0.03281 65.457429,65.457429 0 0 0 -0.3482,0.03466 65.457429,65.457429 0 0 0 -0.3481,0.03651 65.457429,65.457429 0 0 0 -0.34796,0.03839 65.457429,65.457429 0 0 0 -0.34785,0.04024 65.457429,65.457429 0 0 0 -0.34726,0.04237 65.457429,65.457429 0 0 0 -0.34689,0.04378 65.457429,65.457429 0 0 0 -0.34706,0.04606 65.457429,65.457429 0 0 0 -0.34665,0.0475 65.457429,65.457429 0 0 0 -0.34653,0.04935 65.457429,65.457429 0 0 0 -0.34598,0.05146 65.457429,65.457429 0 0 0 -0.34584,0.05334 65.457429,65.457429 0 0 0 -0.34575,0.05518 65.457429,65.457429 0 0 0 -0.34533,0.05661 65.457429,65.457429 0 0 0 -0.34505,0.05916 65.457429,65.457429 0 0 0 -0.34465,0.06059 65.457429,65.457429 0 0 0 -0.34456,0.06243 65.457429,65.457429 0 0 0 -0.34372,0.06411 65.457429,65.457429 0 0 0 -0.34359,0.06596 65.457429,65.457429 0 0 0 -0.34305,0.06807 65.457429,65.457429 0 0 0 -0.34334,0.0697 65.457429,65.457429 0 0 0 -0.34235,0.07205 65.457429,65.457429 0 0 0 -0.3424,0.07322 65.457429,65.457429 0 0 0 -0.34187,0.07532 65.457429,65.457429 0 0 0 -0.34101,0.077 65.457429,65.457429 0 0 0 -0.34091,0.07886 65.457429,65.457429 0 0 0 -0.34031,0.08099 65.457429,65.457429 0 0 0 -0.34024,0.08282 65.457429,65.457429 0 0 0 -0.33982,0.08425 65.457429,65.457429 0 0 0 -0.33902,0.08591 65.457429,65.457429 0 0 0 -0.3387,0.08849 65.457429,65.457429 0 0 0 -0.33807,0.08945 65.457429,65.457429 0 0 0 -0.33819,0.09176 65.457429,65.457429 0 0 0 -0.33692,0.09369 65.457429,65.457429 0 0 0 -0.33656,0.09509 65.457429,65.457429 0 0 0 -0.33643,0.09695 65.457429,65.457429 0 0 0 -0.3356,0.09863 65.457429,65.457429 0 0 0 -0.33502,0.100752 65.457429,65.457429 0 0 0 -0.33493,0.102595 65.457429,65.457429 0 0 0 -0.3341,0.104269 65.457429,65.457429 0 0 0 -0.33326,0.105945 65.457429,65.457429 0 0 0 -0.33314,0.107805 65.457429,65.457429 0 0 0 -0.33233,0.109469 65.457429,65.457429 0 0 0 -0.33175,0.111589 65.457429,65.457429 0 0 0 -0.33112,0.112553 65.457429,65.457429 0 0 0 -0.3308,0.115125 65.457429,65.457429 0 0 0 -0.32998,0.116789 65.457429,65.457429 0 0 0 -0.32915,0.118462 65.457429,65.457429 0 0 0 -0.32878,0.119873 65.457429,65.457429 0 0 0 -0.32776,0.122246 65.457429,65.457429 0 0 0 -0.32738,0.123662 65.457429,65.457429 0 0 0 -0.32655,0.125338 65.457429,65.457429 0 0 0 -0.32644,0.127188 65.457429,65.457429 0 0 0 -0.32492,0.12866 65.457429,65.457429 0 0 0 -0.32479,0.13053 65.457429,65.457429 0 0 0 -0.3242,0.132658 65.457429,65.457429 0 0 0 -0.32314,0.133867 65.457429,65.457429 0 0 0 -0.32256,0.135992 65.457429,65.457429 0 0 0 -0.32174,0.137656 65.457429,65.457429 0 0 0 -0.32092,0.139327 65.457429,65.457429 0 0 0 -0.32054,0.140743 65.457429,65.457429 0 0 0 -0.31926,0.142666 65.457429,65.457429 0 0 0 -0.31869,0.1447967 65.457429,65.457429 0 0 0 -0.31808,0.145736 65.457429,65.457429 0 0 0 -0.31747,0.147878 65.457429,65.457429 0 0 0 -0.31598,0.149343 65.457429,65.457429 0 0 0 -0.31582,0.151221 65.457429,65.457429 0 0 0 -0.31459,0.153124 65.457429,65.457429 0 0 0 -0.31418,0.154555 65.457429,65.457429 0 0 0 -0.31337,0.156216 65.457429,65.457429 0 0 0 -0.31181,0.157713 65.457429,65.457429 0 0 0 -0.31173,0.159548 65.457429,65.457429 0 0 0 -0.31043,0.161497 65.457429,65.457429 0 0 0 -0.30979,0.162458 65.457429,65.457429 0 0 0 -0.30878,0.164829 65.457429,65.457429 0 0 0 -0.0526,0.02811 92.718921,92.718921 0 0 0 38.92188,43.9118713 92.718921,92.718921 0 0 0 57.48928,11.751139 z"
       style="display:inline;opacity:0.988;fill:#eccfe7;fill-opacity:1;stroke-width:1.13362;stroke-linecap:square;paint-order:stroke fill markers"
       id="path40-1-4-6-9-0-0" />
    <path
       style="display:inline;opacity:0.988;fill:#b6e9dc;fill-opacity:1;stroke-width:0.800309;stroke-linecap:square;paint-order:stroke fill markers"
       d="m 406.81069,-70.603302 a 65.45743,65.45743 0 0 0 -23.95908,-89.416518 65.45743,65.45743 0 0 0 -89.41652,23.95909 65.45743,65.45743 0 0 0 23.95909,89.41651 65.45743,65.45743 0 0 0 89.41651,-23.959082"
       id="path40-1-4-6-9-7" />
    <path
       id="path967-7"
       style="display:inline;opacity:0.988;fill:#a5d4dc;fill-opacity:1;stroke-width:0.800309;stroke-linecap:square;paint-order:stroke fill markers"
       d="m 293.33102,-135.87907 a 92.718922,92.718922 0 0 0 0.0868,0.321 92.718922,92.718922 0 0 0 0.1111,0.40188 92.718922,92.718922 0 0 0 0.1123,0.40079 92.718922,92.718922 0 0 0 0.11442,0.4002 92.718922,92.718922 0 0 0 0.11628,0.40011 92.718922,92.718922 0 0 0 0.11772,0.39973 92.718922,92.718922 0 0 0 0.12005,0.39868 92.718922,92.718922 0 0 0 0.12148,0.39836 92.718922,92.718922 0 0 0 0.12362,0.39775 92.718922,92.718922 0 0 0 0.125,0.39739 92.718922,92.718922 0 0 0 0.12669,0.39656 92.718922,92.718922 0 0 0 0.1288,0.39598 92.718922,92.718922 0 0 0 0.13068,0.39587 92.718922,92.718922 0 0 0 0.13186,0.39479 92.718922,92.718922 0 0 0 0.13447,0.39448 92.718922,92.718922 0 0 0 0.13541,0.39384 92.718922,92.718922 0 0 0 0.13778,0.39282 92.718922,92.718922 0 0 0 0.13921,0.39245 92.718922,92.718922 0 0 0 0.14131,0.39187 92.718922,92.718922 0 0 0 0.14275,0.39151 92.718922,92.718922 0 0 0 0.14466,0.39022 92.718922,92.718922 0 0 0 0.14653,0.39011 92.718922,92.718922 0 0 0 0.14817,0.38929 92.718922,92.718922 0 0 0 0.14961,0.38889 92.718922,92.718922 0 0 0 0.15152,0.38763 92.718922,92.718922 0 0 0 0.15339,0.38754 92.718922,92.718922 0 0 0 0.15532,0.38623 92.718922,92.718922 0 0 0 0.15675,0.38587 92.718922,92.718922 0 0 0 0.1584,0.38502 92.718922,92.718922 0 0 0 0.1605,0.38446 92.718922,92.718922 0 0 0 0.1615,0.38382 92.718922,92.718922 0 0 0 0.16386,0.38282 92.718922,92.718922 0 0 0 0.16526,0.38245 92.718922,92.718922 0 0 0 0.16765,0.38141 92.718922,92.718922 0 0 0 0.16862,0.38078 92.718922,92.718922 0 0 0 0.17097,0.37976 92.718922,92.718922 0 0 0 0.17194,0.37915 92.718922,92.718922 0 0 0 0.17408,0.37855 92.718922,92.718922 0 0 0 0.17574,0.37774 92.718922,92.718922 0 0 0 0.17697,0.37668 92.718922,92.718922 0 0 0 0.17907,0.37606 92.718922,92.718922 0 0 0 0.18076,0.37528 92.718922,92.718922 0 0 0 0.18241,0.37442 92.718922,92.718922 0 0 0 0.1841,0.37361 92.718922,92.718922 0 0 0 0.18576,0.3728 92.718922,92.718922 0 0 0 0.18768,0.37151 92.718922,92.718922 0 0 0 0.18912,0.37112 92.718922,92.718922 0 0 0 0.19075,0.37032 92.718922,92.718922 0 0 0 0.19246,0.36949 92.718922,92.718922 0 0 0 0.19411,0.36863 92.718922,92.718922 0 0 0 0.19603,0.36738 92.718922,92.718922 0 0 0 0.19746,0.36702 92.718922,92.718922 0 0 0 0.19893,0.36547 92.718922,92.718922 0 0 0 0.20079,0.36534 92.718922,92.718922 0 0 0 0.20228,0.36383 92.718922,92.718922 0 0 0 0.20393,0.36298 92.718922,92.718922 0 0 0 0.20563,0.36219 92.718922,92.718922 0 0 0 0.20729,0.36133 92.718922,92.718922 0 0 0 0.20894,0.36052 92.718922,92.718922 0 0 0 0.21018,0.35944 92.718922,92.718922 0 0 0 0.21212,0.35814 92.718922,92.718922 0 0 0 0.21351,0.35778 92.718922,92.718922 0 0 0 0.21544,0.35651 92.718922,92.718922 0 0 0 0.21712,0.35569 92.718922,92.718922 0 0 0 0.21834,0.35459 92.718922,92.718922 0 0 0 0.22027,0.35334 92.718922,92.718922 0 0 0 0.22167,0.35293 92.718922,92.718922 0 0 0 0.22318,0.35142 92.718922,92.718922 0 0 0 0.22481,0.35059 92.718922,92.718922 0 0 0 0.2265,0.34977 92.718922,92.718922 0 0 0 0.228,0.34824 92.718922,92.718922 0 0 0 0.2294,0.34783 92.718922,92.718922 0 0 0 0.23085,0.34632 92.718922,92.718922 0 0 0 0.23255,0.3455 92.718922,92.718922 0 0 0 0.23446,0.34421 92.718922,92.718922 0 0 0 0.23546,0.3436 92.718922,92.718922 0 0 0 0.23736,0.34232 92.718922,92.718922 0 0 0 0.2393,0.34101 92.718922,92.718922 0 0 0 0.24026,0.34042 92.718922,92.718922 0 0 0 0.24175,0.33886 92.718922,92.718922 0 0 0 0.2434,0.33804 92.718922,92.718922 0 0 0 0.24464,0.33696 92.718922,92.718922 0 0 0 0.24656,0.33568 92.718922,92.718922 0 0 0 0.24779,0.33462 92.718922,92.718922 0 0 0 0.24943,0.33376 92.718922,92.718922 0 0 0 0.25096,0.33227 92.718922,92.718922 0 0 0 0.2526,0.3314 92.718922,92.718922 0 0 0 0.2541,0.32989 92.718922,92.718922 0 0 0 0.25504,0.32925 92.718922,92.718922 0 0 0 0.25697,0.32797 92.718922,92.718922 0 0 0 0.25846,0.32645 92.718922,92.718922 0 0 0 0.25944,0.32583 92.718922,92.718922 0 0 0 0.2616,0.32407 92.718922,92.718922 0 0 0 0.26258,0.32346 92.718922,92.718922 0 0 0 0.26408,0.3219 92.718922,92.718922 0 0 0 0.26525,0.32085 92.718922,92.718922 0 0 0 0.26721,0.31956 92.718922,92.718922 0 0 0 0.26846,0.31847 92.718922,92.718922 0 0 0 0.2699,0.316949 92.718922,92.718922 0 0 0 0.27157,0.316119 92.718922,92.718922 0 0 0 0.27234,0.314767 92.718922,92.718922 0 0 0 0.27431,0.31351 92.718922,92.718922 0 0 0 0.2755,0.31243 92.718922,92.718922 0 0 0 0.277,0.310878 92.718922,92.718922 0 0 0 0.27867,0.310073 92.718922,92.718922 0 0 0 0.27944,0.308711 92.718922,92.718922 0 0 0 0.2809,0.307181 92.718922,92.718922 0 0 0 0.28285,0.305916 92.718922,92.718922 0 0 0 0.28361,0.304581 92.718922,92.718922 0 0 0 0.2853,0.303728 92.718922,92.718922 0 0 0 0.28678,0.302226 92.718922,92.718922 0 0 0 0.28799,0.301127 92.718922,92.718922 0 0 0 0.28901,0.299337 92.718922,92.718922 0 0 0 0.29073,0.298519 92.718922,92.718922 0 0 0 0.29216,0.296992 92.718922,92.718922 0 0 0 0.29296,0.295627 92.718922,92.718922 0 0 0 0.29487,0.294375 92.718922,92.718922 0 0 0 0.29568,0.293031 92.718922,92.718922 0 0 0 0.29759,0.291733 92.718922,92.718922 0 0 0 0.29836,0.290427 92.718922,92.718922 0 0 0 0.29983,0.288867 92.718922,92.718922 0 0 0 0.30106,0.287782 92.718922,92.718922 0 0 0 0.30257,0.286263 92.718922,92.718922 0 0 0 0.30376,0.285182 92.718922,92.718922 0 0 0 0.30524,0.283646 92.718922,92.718922 0 0 0 0.30604,0.282311 92.718922,92.718922 0 0 0 0.3075,0.280768 92.718922,92.718922 0 0 0 0.30898,0.279206 92.718922,92.718922 0 0 0 0.31022,0.278181 92.718922,92.718922 0 0 0 0.31099,0.276796 92.718922,92.718922 0 0 0 0.31244,0.275286 92.718922,92.718922 0 0 0 0.31397,0.273748 92.718922,92.718922 0 0 0 0.31516,0.272667 92.718922,92.718922 0 0 0 0.3162,0.270856 92.718922,92.718922 0 0 0 0.31744,0.269785 92.718922,92.718922 0 0 0 0.31847,0.268013 92.718922,92.718922 0 0 0 0.31967,0.266933 92.718922,92.718922 0 0 0 0.32117,0.265374 92.718922,92.718922 0 0 0 0.32218,0.263591 92.718922,92.718922 0 0 0 0.32343,0.262499 92.718922,92.718922 0 0 0 0.32489,0.260985 92.718922,92.718922 0 0 0 0.32568,0.259651 92.718922,92.718922 0 0 0 0.32671,0.257826 92.718922,92.718922 0 0 0 0.32839,0.257021 92.718922,92.718922 0 0 0 0.32897,0.254974 92.718922,92.718922 0 0 0 0.33042,0.253442 92.718922,92.718922 0 0 0 0.33169,0.252344 92.718922,92.718922 0 0 0 0.3327,0.25056 92.718922,92.718922 0 0 0 0.33374,0.24878 92.718922,92.718922 0 0 0 0.33497,0.247692 92.718922,92.718922 0 0 0 0.33572,0.24634 92.718922,92.718922 0 0 0 0.3372,0.244825 92.718922,92.718922 0 0 0 0.33827,0.243017 92.718922,92.718922 0 0 0 0.33927,0.241247 92.718922,92.718922 0 0 0 0.34052,0.240133 92.718922,92.718922 0 0 0 0.34129,0.238832 92.718922,92.718922 0 0 0 0.3423,0.237 92.718922,92.718922 0 0 0 0.34335,0.235233 92.718922,92.718922 0 0 0 0.34484,0.233677 92.718922,92.718922 0 0 0 0.34559,0.232366 92.718922,92.718922 0 0 0 0.34685,0.231267 92.718922,92.718922 0 0 0 0.34766,0.228769 92.718922,92.718922 0 0 0 0.34886,0.227692 92.718922,92.718922 0 0 0 0.34969,0.226341 92.718922,92.718922 0 0 0 0.35071,0.224565 92.718922,92.718922 0 0 0 0.35172,0.222766 92.718922,92.718922 0 0 0 0.35299,0.22167 92.718922,92.718922 0 0 0 0.35352,0.219631 92.718922,92.718922 0 0 0 0.35503,0.218109 92.718922,92.718922 0 0 0 0.35581,0.216752 92.718922,92.718922 0 0 0 0.35636,0.214744 92.718922,92.718922 0 0 0 0.3576,0.213625 92.718922,92.718922 0 0 0 0.35894,0.211383 92.718922,92.718922 0 0 0 0.3594,0.210508 92.718922,92.718922 0 0 0 0.24767,0.143573 92.718922,92.718922 0 0 0 0.36121,0.207383 92.718922,92.718922 0 0 0 0.36228,0.205587 92.718922,92.718922 0 0 0 0.36304,0.204179 92.718922,92.718922 0 0 0 0.36381,0.202885 92.718922,92.718922 0 0 0 0.36512,0.200634 92.718922,92.718922 0 0 0 0.36586,0.199287 92.718922,92.718922 0 0 0 0.36622,0.197717 92.718922,92.718922 0 0 0 0.36769,0.196184 92.718922,92.718922 0 0 0 0.36827,0.194116 92.718922,92.718922 0 0 0 0.36903,0.192776 92.718922,92.718922 0 0 0 0.37009,0.191 92.718922,92.718922 0 0 0 0.37113,0.189211 92.718922,92.718922 0 0 0 0.37187,0.187841 92.718922,92.718922 0 0 0 0.37249,0.185828 92.718922,92.718922 0 0 0 0.37393,0.184271 92.718922,92.718922 0 0 0 0.3743,0.182669 92.718922,92.718922 0 0 0 0.37462,0.181089 92.718922,92.718922 0 0 0 0.37634,0.179101 92.718922,92.718922 0 0 0 0.37645,0.177927 92.718922,92.718922 0 0 0 0.37769,0.175718 92.718922,92.718922 0 0 0 0.37851,0.174353 92.718922,92.718922 0 0 0 0.37906,0.172317 92.718922,92.718922 0 0 0 0.37985,0.170969 92.718922,92.718922 0 0 0 0.38045,0.168939 92.718922,92.718922 0 0 0 0.38146,0.167108 92.718922,92.718922 0 0 0 0.38224,0.165817 92.718922,92.718922 0 0 0 0.38258,0.164174 92.718922,92.718922 0 0 0 0.38386,0.16196 92.718922,92.718922 0 0 0 0.38418,0.160345 92.718922,92.718922 0 0 0 0.38498,0.159017 92.718922,92.718922 0 0 0 0.38598,0.157229 92.718922,92.718922 0 0 0 0.3866,0.155165 92.718922,92.718922 0 0 0 0.38689,0.153564 92.718922,92.718922 0 0 0 0.38795,0.151791 92.718922,92.718922 0 0 0 0.38829,0.15018 92.718922,92.718922 0 0 0 0.38929,0.148374 92.718922,92.718922 0 0 0 0.38991,0.146354 92.718922,92.718922 0 0 0 0.39066,0.144986 92.718922,92.718922 0 0 0 0.39079,0.142682 92.718922,92.718922 0 0 0 0.39203,0.141621 92.718922,92.718922 0 0 0 0.39219,0.13929 92.718922,92.718922 0 0 0 0.39294,0.137969 92.718922,92.718922 0 0 0 0.39396,0.136158 92.718922,92.718922 0 0 0 0.39414,0.133852 92.718922,92.718922 0 0 0 0.39489,0.132522 92.718922,92.718922 0 0 0 0.39521,0.130924 92.718922,92.718922 0 0 0 0.39624,0.129111 92.718922,92.718922 0 0 0 0.39686,0.12708 92.718922,92.718922 0 0 0 0.39716,0.125481 92.718922,92.718922 0 0 0 0.39774,0.12341 92.718922,92.718922 0 0 0 0.3981,0.121843 92.718922,92.718922 0 0 0 0.39864,0.119779 92.718922,92.718922 0 0 0 0.39944,0.118423 92.718922,92.718922 0 0 0 0.40003,0.116387 92.718922,92.718922 0 0 0 0.40037,0.114782 92.718922,92.718922 0 0 0 0.40095,0.112736 92.718922,92.718922 0 0 0 0.4015,0.110704 92.718922,92.718922 0 0 0 0.40187,0.109077 92.718922,92.718922 0 0 0 0.40263,0.107747 92.718922,92.718922 0 0 0 0.40277,0.105444 92.718922,92.718922 0 0 0 0.40309,0.103833 92.718922,92.718922 0 0 0 0.40413,0.102039 92.718922,92.718922 0 0 0 0.404,0.100198 92.718922,92.718922 0 0 0 0.40461,0.09814 92.718922,92.718922 0 0 0 0.40537,0.09681 92.718922,92.718922 0 0 0 0.40549,0.09449 92.718922,92.718922 0 0 0 0.40582,0.09288 92.718922,92.718922 0 0 0 0.40688,0.0911 92.718922,92.718922 0 0 0 0.40674,0.08923 92.718922,92.718922 0 0 0 0.40711,0.08765 92.718922,92.718922 0 0 0 0.40764,0.0856 92.718922,92.718922 0 0 0 0.40781,0.08327 92.718922,92.718922 0 0 0 0.40859,0.08194 92.718922,92.718922 0 0 0 0.40845,0.08007 92.718922,92.718922 0 0 0 0.40946,0.07831 92.718922,92.718922 0 0 0 0.40939,0.07642 92.718922,92.718922 0 0 0 0.4097,0.07483 92.718922,92.718922 0 0 0 0.40984,0.0725 92.718922,92.718922 0 0 0 0.41086,0.0707 92.718922,92.718922 0 0 0 0.41049,0.0693 92.718922,92.718922 0 0 0 0.41134,0.0668 92.718922,92.718922 0 0 0 0.41097,0.0654 92.718922,92.718922 0 0 0 0.41154,0.0634 92.718922,92.718922 0 0 0 0.41186,0.0617 92.718922,92.718922 0 0 0 0.41246,0.0597 92.718922,92.718922 0 0 0 0.41234,0.0579 92.718922,92.718922 0 0 0 0.41266,0.0563 92.718922,92.718922 0 0 0 0.4128,0.0539 92.718922,92.718922 0 0 0 0.41359,0.0526 92.718922,92.718922 0 0 0 0.413,0.0505 92.718922,92.718922 0 0 0 0.41405,0.0487 92.718922,92.718922 0 0 0 0.41348,0.0466 92.718922,92.718922 0 0 0 0.41425,0.0452 92.718922,92.718922 0 0 0 0.41439,0.0429 92.718922,92.718922 0 0 0 0.41428,0.0411 92.718922,92.718922 0 0 0 0.41457,0.0395 92.718922,92.718922 0 0 0 0.41477,0.0372 92.718922,92.718922 0 0 0 0.41507,0.0356 92.718922,92.718922 0 0 0 0.41538,0.034 92.718922,92.718922 0 0 0 0.41526,0.0321 92.718922,92.718922 0 0 0 0.41542,0.0298 92.718922,92.718922 0 0 0 0.41502,0.0284 92.718922,92.718922 0 0 0 0.41589,0.0259 92.718922,92.718922 0 0 0 0.41594,0.0247 92.718922,92.718922 0 0 0 0.41609,0.0224 92.718922,92.718922 0 0 0 0.4157,0.021 92.718922,92.718922 0 0 0 0.41585,0.0187 92.718922,92.718922 0 0 0 0.41643,0.0166 92.718922,92.718922 0 0 0 0.41604,0.0152 92.718922,92.718922 0 0 0 0.41665,0.0132 92.718922,92.718922 0 0 0 0.41606,0.0111 92.718922,92.718922 0 0 0 0.41642,0.009 92.718922,92.718922 0 0 0 0.41626,0.008 92.718922,92.718922 0 0 0 0.41661,0.006 92.718922,92.718922 0 0 0 0.41675,0.004 92.718922,92.718922 0 0 0 0.41635,0.002 92.718922,92.718922 0 0 0 0.41652,0 92.718922,92.718922 0 0 0 0.41637,-0.002 92.718922,92.718922 0 0 0 0.41627,-0.004 92.718922,92.718922 0 0 0 0.4166,-0.005 92.718922,92.718922 0 0 0 0.41646,-0.007 92.718922,92.718922 0 0 0 0.41662,-0.01 92.718922,92.718922 0 0 0 0.41622,-0.0109 92.718922,92.718922 0 0 0 0.41638,-0.0132 92.718922,92.718922 0 0 0 0.416,-0.0146 92.718922,92.718922 0 0 0 0.41613,-0.0169 92.718922,92.718922 0 0 0 0.41603,-0.0188 92.718922,92.718922 0 0 0 0.41606,-0.0199 92.718922,92.718922 0 0 0 0.41577,-0.0225 92.718922,92.718922 0 0 0 0.41611,-0.0241 92.718922,92.718922 0 0 0 0.41552,-0.0262 92.718922,92.718922 0 0 0 0.41541,-0.0281 92.718922,92.718922 0 0 0 0.41575,-0.0297 92.718922,92.718922 0 0 0 0.41518,-0.0318 92.718922,92.718922 0 0 0 0.41478,-0.0332 92.718922,92.718922 0 0 0 0.41537,-0.0353 92.718922,92.718922 0 0 0 0.41483,-0.0374 92.718922,92.718922 0 0 0 0.4147,-0.0392 92.718922,92.718922 0 0 0 0.41458,-0.0411 92.718922,92.718922 0 0 0 0.41416,-0.0425 92.718922,92.718922 0 0 0 0.4139,-0.0451 92.718922,92.718922 0 0 0 0.41396,-0.0462 92.718922,92.718922 0 0 0 0.41364,-0.0488 92.718922,92.718922 0 0 0 0.41326,-0.0502 92.718922,92.718922 0 0 0 0.41315,-0.0521 92.718922,92.718922 0 0 0 0.41303,-0.0539 92.718922,92.718922 0 0 0 0.41291,-0.0558 92.718922,92.718922 0 0 0 0.41233,-0.0579 92.718922,92.718922 0 0 0 0.41241,-0.059 92.718922,92.718922 0 0 0 0.4121,-0.0616 92.718922,92.718922 0 0 0 0.41129,-0.0633 92.718922,92.718922 0 0 0 0.41159,-0.0649 92.718922,92.718922 0 0 0 0.41102,-0.067 92.718922,92.718922 0 0 0 0.41094,-0.0689 92.718922,92.718922 0 0 0 0.41035,-0.071 92.718922,92.718922 0 0 0 0.40997,-0.0724 92.718922,92.718922 0 0 0 0.40983,-0.07427 92.718922,92.718922 0 0 0 0.40973,-0.07611 92.718922,92.718922 0 0 0 0.4089,-0.07778 92.718922,92.718922 0 0 0 0.40905,-0.08011 92.718922,92.718922 0 0 0 0.40821,-0.08178 92.718922,92.718922 0 0 0 0.40784,-0.08315 92.718922,92.718922 0 0 0 0.40798,-0.08549 92.718922,92.718922 0 0 0 0.40715,-0.08715 92.718922,92.718922 0 0 0 0.40703,-0.08903 92.718922,92.718922 0 0 0 0.40619,-0.09067 92.718922,92.718922 0 0 0 0.40608,-0.09254 92.718922,92.718922 0 0 0 0.40554,-0.09466 92.718922,92.718922 0 0 0 0.40538,-0.09652 92.718922,92.718922 0 0 0 0.40503,-0.09795 92.718922,92.718922 0 0 0 0.40419,-0.09959 92.718922,92.718922 0 0 0 0.40389,-0.102177 92.718922,92.718922 0 0 0 0.40324,-0.103135 92.718922,92.718922 0 0 0 0.40293,-0.105695 92.718922,92.718922 0 0 0 0.196,-0.05213 65.45743,65.45743 0 0 0 0.10535,-0.181443 65.45743,65.45743 0 0 0 -23.95937,-89.415498 65.45743,65.45743 0 0 0 -89.41591,23.95892 65.45743,65.45743 0 0 0 -0.10446,0.18196 z" />
    <path
       id="path40-1-4-6-9-0-0-4"
       style="display:inline;opacity:0.988;fill:#7cbfdc;fill-opacity:1;stroke-width:1.13362;stroke-linecap:square;paint-order:stroke fill markers"
       d="m 415.54986,-105.32884 a 65.45743,65.45743 0 0 0 -0.004,-0.12384 65.45743,65.45743 0 0 0 -0.0124,-0.34965 65.45743,65.45743 0 0 0 -0.0142,-0.34952 65.45743,65.45743 0 0 0 -0.0163,-0.35011 65.45743,65.45743 0 0 0 -0.0179,-0.34928 65.45743,65.45743 0 0 0 -0.0195,-0.34961 65.45743,65.45743 0 0 0 -0.0217,-0.34904 65.45743,65.45743 0 0 0 -0.0235,-0.34892 65.45743,65.45743 0 0 0 -0.0251,-0.34925 65.45743,65.45743 0 0 0 -0.0277,-0.34895 65.45743,65.45743 0 0 0 -0.0291,-0.34856 65.45743,65.45743 0 0 0 -0.0307,-0.34889 65.45743,65.45743 0 0 0 -0.0328,-0.34832 65.45743,65.45743 0 0 0 -0.0347,-0.3482 65.45743,65.45743 0 0 0 -0.0365,-0.34808 65.45743,65.45743 0 0 0 -0.0386,-0.34752 65.45743,65.45743 0 0 0 -0.0403,-0.34785 65.45743,65.45743 0 0 0 -0.0417,-0.34747 65.45743,65.45743 0 0 0 -0.0442,-0.34714 65.45743,65.45743 0 0 0 -0.0456,-0.34678 65.45743,65.45743 0 0 0 -0.0479,-0.34692 65.45743,65.45743 0 0 0 -0.0496,-0.34608 65.45743,65.45743 0 0 0 -0.0512,-0.34643 65.45743,65.45743 0 0 0 -0.0533,-0.34585 65.45743,65.45743 0 0 0 -0.0547,-0.34548 65.45743,65.45743 0 0 0 -0.0573,-0.34515 65.45743,65.45743 0 0 0 -0.0585,-0.34524 65.45743,65.45743 0 0 0 -0.0606,-0.34467 65.45743,65.45743 0 0 0 -0.0627,-0.34409 65.45743,65.45743 0 0 0 -0.0643,-0.34443 65.45743,65.45743 0 0 0 -0.0662,-0.34315 65.45743,65.45743 0 0 0 -0.0678,-0.34348 65.45743,65.45743 0 0 0 -0.0699,-0.3429 65.45743,65.45743 0 0 0 -0.0714,-0.34254 65.45743,65.45743 0 0 0 -0.0735,-0.34197 65.45743,65.45743 0 0 0 -0.0753,-0.34184 65.45743,65.45743 0 0 0 -0.0774,-0.34128 65.45743,65.45743 0 0 0 -0.0789,-0.34091 65.45743,65.45743 0 0 0 -0.0807,-0.34078 65.45743,65.45743 0 0 0 -0.0824,-0.33995 65.45743,65.45743 0 0 0 -0.0845,-0.33939 65.45743,65.45743 0 0 0 -0.0864,-0.33926 65.45743,65.45743 0 0 0 -0.0878,-0.33889 65.45743,65.45743 0 0 0 -0.0899,-0.33832 65.45743,65.45743 0 0 0 -0.0916,-0.33749 65.45743,65.45743 0 0 0 -0.0934,-0.33739 65.45743,65.45743 0 0 0 -0.0955,-0.3368 65.45743,65.45743 0 0 0 -0.0965,-0.33617 65.45743,65.45743 0 0 0 -0.0993,-0.33543 65.45743,65.45743 0 0 0 -0.10046,-0.33547 65.45743,65.45743 0 0 0 -0.10242,-0.33421 65.45743,65.45743 0 0 0 -0.10428,-0.3341 65.45743,65.45743 0 0 0 -0.10613,-0.33397 65.45743,65.45743 0 0 0 -0.10736,-0.33289 65.45743,65.45743 0 0 0 -0.10973,-0.33186 65.45743,65.45743 0 0 0 -0.11133,-0.33221 65.45743,65.45743 0 0 0 -0.11327,-0.33092 65.45743,65.45743 0 0 0 -0.11466,-0.33055 65.45743,65.45743 0 0 0 -0.11681,-0.32999 65.45743,65.45743 0 0 0 -0.11819,-0.32959 65.45743,65.45743 0 0 0 -0.12013,-0.32833 65.45743,65.45743 0 0 0 -0.12199,-0.32821 65.45743,65.45743 0 0 0 -0.12367,-0.32739 65.45743,65.45743 0 0 0 -0.12531,-0.32655 65.45743,65.45743 0 0 0 -0.12745,-0.32599 65.45743,65.45743 0 0 0 -0.12886,-0.32561 65.45743,65.45743 0 0 0 -0.13079,-0.32433 65.45743,65.45743 0 0 0 -0.13222,-0.32398 65.45743,65.45743 0 0 0 -0.1343,-0.32338 65.45743,65.45743 0 0 0 -0.13555,-0.32231 65.45743,65.45743 0 0 0 -0.13766,-0.32174 65.45743,65.45743 0 0 0 -0.13907,-0.32137 65.45743,65.45743 0 0 0 -0.141,-0.32009 65.45743,65.45743 0 0 0 -0.14311,-0.31951 65.45743,65.45743 0 0 0 -0.14407,-0.31888 65.45743,65.45743 0 0 0 -0.14646,-0.31788 65.45743,65.45743 0 0 0 -0.14744,-0.31724 65.45743,65.45743 0 0 0 -0.14952,-0.31665 65.45743,65.45743 0 0 0 -0.15146,-0.31539 65.45743,65.45743 0 0 0 -0.15245,-0.31476 65.45743,65.45743 0 0 0 -0.15455,-0.31419 65.45743,65.45743 0 0 0 -0.15648,-0.31292 65.45743,65.45743 0 0 0 -0.15788,-0.31253 65.45743,65.45743 0 0 0 -0.15983,-0.31127 65.45743,65.45743 0 0 0 -0.16079,-0.31064 65.45743,65.45743 0 0 0 -0.16315,-0.3096 65.45743,65.45743 0 0 0 -0.16456,-0.30923 65.45743,65.45743 0 0 0 -0.16605,-0.3077 65.45743,65.45743 0 0 0 -0.16772,-0.30687 65.45743,65.45743 0 0 0 -0.16985,-0.30631 65.45743,65.45743 0 0 0 -0.17106,-0.30523 65.45743,65.45743 0 0 0 -0.17275,-0.3044 65.45743,65.45743 0 0 0 -0.17394,-0.30331 65.45743,65.45743 0 0 0 -0.17608,-0.30275 65.45743,65.45743 0 0 0 -0.17756,-0.30122 65.45743,65.45743 0 0 0 -0.1794,-0.30109 65.45743,65.45743 0 0 0 -0.1809,-0.29956 65.45743,65.45743 0 0 0 -0.18213,-0.29849 65.45743,65.45743 0 0 0 -0.18423,-0.29791 65.45743,65.45743 0 0 0 -0.18572,-0.29638 65.45743,65.45743 0 0 0 -0.18668,-0.29574 65.45743,65.45743 0 0 0 -0.18906,-0.29473 65.45743,65.45743 0 0 0 -0.19027,-0.29364 65.45743,65.45743 0 0 0 -0.19194,-0.29281 65.45743,65.45743 0 0 0 -0.19343,-0.29129 65.45743,65.45743 0 0 0 -0.19511,-0.29046 65.45743,65.45743 0 0 0 -0.19676,-0.28963 65.45743,65.45743 0 0 0 -0.19801,-0.28857 65.45743,65.45743 0 0 0 -0.19921,-0.28745 65.45743,65.45743 0 0 0 -0.2016,-0.28646 65.45743,65.45743 0 0 0 -0.20238,-0.28511 65.45743,65.45743 0 0 0 -0.20427,-0.28383 65.45743,65.45743 0 0 0 -0.20572,-0.28346 65.45743,65.45743 0 0 0 -0.2072,-0.28193 65.45743,65.45743 0 0 0 -0.20911,-0.28065 65.45743,65.45743 0 0 0 -0.21008,-0.28001 65.45743,65.45743 0 0 0 -0.21155,-0.27848 65.45743,65.45743 0 0 0 -0.21351,-0.27722 65.45743,65.45743 0 0 0 -0.21444,-0.27656 65.45743,65.45743 0 0 0 -0.21639,-0.27531 65.45743,65.45743 0 0 0 -0.21788,-0.27377 65.45743,65.45743 0 0 0 -0.21882,-0.27313 65.45743,65.45743 0 0 0 -0.22075,-0.27185 65.45743,65.45743 0 0 0 -0.2218,-0.27008 65.45743,65.45743 0 0 0 -0.22346,-0.26924 65.45743,65.45743 0 0 0 -0.22513,-0.26841 65.45743,65.45743 0 0 0 -0.22617,-0.26663 65.45743,65.45743 0 0 0 -0.22783,-0.2658 65.45743,65.45743 0 0 0 -0.22932,-0.26427 65.45743,65.45743 0 0 0 -0.23055,-0.26319 65.45743,65.45743 0 0 0 -0.23176,-0.2621 65.45743,65.45743 0 0 0 -0.23369,-0.26082 65.45743,65.45743 0 0 0 -0.23447,-0.25949 65.45743,65.45743 0 0 0 -0.23638,-0.25821 65.45743,65.45743 0 0 0 -0.23762,-0.25712 65.45743,65.45743 0 0 0 -0.2391,-0.2556 65.45743,65.45743 0 0 0 -0.23989,-0.25426 65.45743,65.45743 0 0 0 -0.24154,-0.25342 65.45743,65.45743 0 0 0 -0.24303,-0.25189 65.45743,65.45743 0 0 0 -0.2445,-0.25036 65.45743,65.45743 0 0 0 -0.24573,-0.24929 65.45743,65.45743 0 0 0 -0.24694,-0.24819 65.45743,65.45743 0 0 0 -0.24799,-0.24641 65.45743,65.45743 0 0 0 -0.24991,-0.24512 65.45743,65.45743 0 0 0 -0.25114,-0.24405 65.45743,65.45743 0 0 0 -0.25217,-0.24225 65.45743,65.45743 0 0 0 -0.2534,-0.24118 65.45743,65.45743 0 0 0 -0.25461,-0.24009 65.45743,65.45743 0 0 0 -0.2561,-0.23856 65.45743,65.45743 0 0 0 -0.25758,-0.23703 65.45743,65.45743 0 0 0 -0.25881,-0.23594 65.45743,65.45743 0 0 0 -0.25982,-0.23414 65.45743,65.45743 0 0 0 -0.26105,-0.23306 65.45743,65.45743 0 0 0 -0.26254,-0.23154 65.45743,65.45743 0 0 0 -0.26332,-0.2302 65.45743,65.45743 0 0 0 -0.26478,-0.22866 65.45743,65.45743 0 0 0 -0.26628,-0.22713 65.45743,65.45743 0 0 0 -0.2675,-0.22604 65.45743,65.45743 0 0 0 -0.26829,-0.22471 65.45743,65.45743 0 0 0 -0.26929,-0.2229 65.45743,65.45743 0 0 0 -0.27125,-0.22165 65.45743,65.45743 0 0 0 -0.272,-0.22029 65.45743,65.45743 0 0 0 -0.27303,-0.2185 65.45743,65.45743 0 0 0 -0.27453,-0.21697 65.45743,65.45743 0 0 0 -0.27576,-0.2159 65.45743,65.45743 0 0 0 -0.27651,-0.21454 65.45743,65.45743 0 0 0 -0.27782,-0.21232 65.45743,65.45743 0 0 0 -0.27879,-0.21167 65.45743,65.45743 0 0 0 -0.28007,-0.20943 65.45743,65.45743 0 0 0 -0.28128,-0.20834 65.45743,65.45743 0 0 0 -0.28208,-0.20702 65.45743,65.45743 0 0 0 -0.28355,-0.20547 65.45743,65.45743 0 0 0 -0.28458,-0.20369 65.45743,65.45743 0 0 0 -0.28561,-0.2019 65.45743,65.45743 0 0 0 -0.28685,-0.20082 65.45743,65.45743 0 0 0 -0.2876,-0.19946 65.45743,65.45743 0 0 0 -0.28892,-0.19723 65.45743,65.45743 0 0 0 -0.28941,-0.19633 65.45743,65.45743 0 0 0 -0.29115,-0.19435 65.45743,65.45743 0 0 0 -0.29196,-0.19304 65.45743,65.45743 0 0 0 -0.29297,-0.19122 65.45743,65.45743 0 0 0 -0.29418,-0.19013 65.45743,65.45743 0 0 0 -0.29478,-0.18809 65.45743,65.45743 0 0 0 -0.29603,-0.18701 65.45743,65.45743 0 0 0 -0.29706,-0.18522 65.45743,65.45743 0 0 0 -0.29763,-0.18315 65.45743,65.45743 0 0 0 -0.29883,-0.18212 65.45743,65.45743 0 0 0 -0.30031,-0.18055 65.45743,65.45743 0 0 0 -0.30093,-0.17846 65.45743,65.45743 0 0 0 -0.30168,-0.17718 65.45743,65.45743 0 0 0 -0.24723,-0.14334 65.45743,65.45743 0 0 0 -0.30346,-0.17405 65.45743,65.45743 0 0 0 -0.3043,-0.17268 65.45743,65.45743 0 0 0 -0.30533,-0.17085 65.45743,65.45743 0 0 0 -0.30631,-0.16912 65.45743,65.45743 0 0 0 -0.30714,-0.16774 65.45743,65.45743 0 0 0 -0.30815,-0.16597 65.45743,65.45743 0 0 0 -0.30917,-0.16418 65.45743,65.45743 0 0 0 -0.30952,-0.1626 65.45743,65.45743 0 0 0 -0.31097,-0.16104 65.45743,65.45743 0 0 0 -0.31132,-0.15945 65.45743,65.45743 0 0 0 -0.31234,-0.15765 65.45743,65.45743 0 0 0 -0.31341,-0.15589 65.45743,65.45743 0 0 0 -0.31415,-0.15453 65.45743,65.45743 0 0 0 -0.31474,-0.15247 65.45743,65.45743 0 0 0 -0.31551,-0.15114 65.45743,65.45743 0 0 0 -0.31654,-0.14934 65.45743,65.45743 0 0 0 -0.3176,-0.14756 65.45743,65.45743 0 0 0 -0.31793,-0.14595 65.45743,65.45743 0 0 0 -0.31893,-0.14417 65.45743,65.45743 0 0 0 -0.31999,-0.14237 65.45743,65.45743 0 0 0 -0.32031,-0.14079 65.45743,65.45743 0 0 0 -0.32063,-0.13917 65.45743,65.45743 0 0 0 -0.32238,-0.13718 65.45743,65.45743 0 0 0 -0.32245,-0.13604 65.45743,65.45743 0 0 0 -0.3233,-0.13355 65.45743,65.45743 0 0 0 -0.32405,-0.1322 65.45743,65.45743 0 0 0 -0.32439,-0.1306 65.45743,65.45743 0 0 0 -0.32567,-0.12836 65.45743,65.45743 0 0 0 -0.32579,-0.12722 65.45743,65.45743 0 0 0 -0.32703,-0.12496 65.45743,65.45743 0 0 0 -0.32738,-0.12338 65.45743,65.45743 0 0 0 -0.32813,-0.12203 65.45743,65.45743 0 0 0 -0.32874,-0.11998 65.45743,65.45743 0 0 0 -0.32933,-0.11793 65.45743,65.45743 0 0 0 -0.3301,-0.11659 65.45743,65.45743 0 0 0 -0.33067,-0.11454 65.45743,65.45743 0 0 0 -0.33102,-0.11294 65.45743,65.45743 0 0 0 -0.33201,-0.11114 65.45743,65.45743 0 0 0 -0.33239,-0.10955 65.45743,65.45743 0 0 0 -0.33295,-0.1075 65.45743,65.45743 0 0 0 -0.334,-0.10571 65.45743,65.45743 0 0 0 -0.33387,-0.10385 65.45743,65.45743 0 0 0 -0.33463,-0.1025 65.45743,65.45743 0 0 0 -0.3355,-0.10001 65.45743,65.45743 0 0 0 -0.33555,-0.0989 65.45743,65.45743 0 0 0 -0.33614,-0.0968 65.45743,65.45743 0 0 0 -0.33719,-0.095 65.45743,65.45743 0 0 0 -0.33705,-0.0932 65.45743,65.45743 0 0 0 -0.33811,-0.0914 65.45743,65.45743 0 0 0 -0.33797,-0.0895 65.45743,65.45743 0 0 0 -0.33874,-0.0882 65.45743,65.45743 0 0 0 -0.33932,-0.0861 65.45743,65.45743 0 0 0 -0.33948,-0.0838 65.45743,65.45743 0 0 0 -0.34024,-0.0825 65.45743,65.45743 0 0 0 -0.34085,-0.0804 65.45743,65.45743 0 0 0 -0.34068,-0.0785 65.45743,65.45743 0 0 0 -0.3415,-0.0772 65.45743,65.45743 0 0 0 -0.34163,-0.0749 65.45743,65.45743 0 0 0 -0.34195,-0.0733 65.45743,65.45743 0 0 0 -0.34299,-0.0715 65.45743,65.45743 0 0 0 -0.34288,-0.0697 65.45743,65.45743 0 0 0 -0.34344,-0.0676 65.45743,65.45743 0 0 0 -0.34333,-0.0658 65.45743,65.45743 0 0 0 -0.34437,-0.064 65.45743,65.45743 0 0 0 -0.34426,-0.0621 65.45743,65.45743 0 0 0 -0.34458,-0.0605 65.45743,65.45743 0 0 0 -0.34514,-0.0585 65.45743,65.45743 0 0 0 -0.34549,-0.0569 65.45743,65.45743 0 0 0 -0.34538,-0.055 65.45743,65.45743 0 0 0 -0.34595,-0.0529 65.45743,65.45743 0 0 0 -0.34626,-0.0513 65.45743,65.45743 0 0 0 -0.34644,-0.049 65.45743,65.45743 0 0 0 -0.34674,-0.0474 65.45743,65.45743 0 0 0 -0.34709,-0.0458 65.45743,65.45743 0 0 0 -0.3472,-0.0435 65.45743,65.45743 0 0 0 -0.34753,-0.0419 65.45743,65.45743 0 0 0 -0.34743,-0.0401 65.45743,65.45743 0 0 0 -0.34803,-0.038 65.45743,65.45743 0 0 0 -0.34788,-0.0362 65.45743,65.45743 0 0 0 -0.34822,-0.0346 65.45743,65.45743 0 0 0 -0.34853,-0.033 65.45743,65.45743 0 0 0 -0.34825,-0.0304 65.45743,65.45743 0 0 0 -0.34898,-0.029 65.45743,65.45743 0 0 0 -0.34916,-0.0268 65.45743,65.45743 0 0 0 -0.34877,-0.0253 65.45743,65.45743 0 0 0 -0.34935,-0.0233 65.45743,65.45743 0 0 0 -0.34924,-0.0214 65.45743,65.45743 0 0 0 -0.34936,-0.0191 65.45743,65.45743 0 0 0 -0.34944,-0.018 65.45743,65.45743 0 0 0 -0.3496,-0.0157 65.45743,65.45743 0 0 0 -0.34946,-0.0138 65.45743,65.45743 0 0 0 -0.3498,-0.0122 65.45743,65.45743 0 0 0 -0.3499,-0.01 65.45743,65.45743 0 0 0 -0.35001,-0.009 65.45743,65.45743 0 0 0 -0.3497,-0.006 65.45743,65.45743 0 0 0 -0.35002,-0.005 65.45743,65.45743 0 0 0 -0.34989,-0.003 65.45743,65.45743 0 0 0 -0.34977,-8.6e-4 65.45743,65.45743 0 0 0 -0.35036,0.001 65.45743,65.45743 0 0 0 -0.34954,0.003 65.45743,65.45743 0 0 0 -0.35013,0.005 65.45743,65.45743 0 0 0 -0.34973,0.006 65.45743,65.45743 0 0 0 -0.34988,0.009 65.45743,65.45743 0 0 0 -0.34975,0.0105 65.45743,65.45743 0 0 0 -0.3501,0.0121 65.45743,65.45743 0 0 0 -0.34952,0.0142 65.45743,65.45743 0 0 0 -0.3494,0.0161 65.45743,65.45743 0 0 0 -0.34973,0.0177 65.45743,65.45743 0 0 0 -0.34917,0.0198 65.45743,65.45743 0 0 0 -0.34904,0.0216 65.45743,65.45743 0 0 0 -0.34963,0.0237 65.45743,65.45743 0 0 0 -0.3488,0.0254 65.45743,65.45743 0 0 0 -0.34913,0.027 65.45743,65.45743 0 0 0 -0.34857,0.0291 65.45743,65.45743 0 0 0 -0.34844,0.0309 65.45743,65.45743 0 0 0 -0.34832,0.0328 65.45743,65.45743 0 0 0 -0.3482,0.0347 65.45743,65.45743 0 0 0 -0.3481,0.0365 65.45743,65.45743 0 0 0 -0.34796,0.0384 65.45743,65.45743 0 0 0 -0.34785,0.0402 65.45743,65.45743 0 0 0 -0.34726,0.0424 65.45743,65.45743 0 0 0 -0.34689,0.0438 65.45743,65.45743 0 0 0 -0.34706,0.0461 65.45743,65.45743 0 0 0 -0.34664,0.0475 65.45743,65.45743 0 0 0 -0.34653,0.0494 65.45743,65.45743 0 0 0 -0.34598,0.0515 65.45743,65.45743 0 0 0 -0.34585,0.0533 65.45743,65.45743 0 0 0 -0.34575,0.0552 65.45743,65.45743 0 0 0 -0.34533,0.0566 65.45743,65.45743 0 0 0 -0.34505,0.0592 65.45743,65.45743 0 0 0 -0.34464,0.0606 65.45743,65.45743 0 0 0 -0.34457,0.0624 65.45743,65.45743 0 0 0 -0.34372,0.0641 65.45743,65.45743 0 0 0 -0.34358,0.066 65.45743,65.45743 0 0 0 -0.34306,0.0681 65.45743,65.45743 0 0 0 -0.34333,0.0697 65.45743,65.45743 0 0 0 -0.34236,0.072 65.45743,65.45743 0 0 0 -0.3424,0.0732 65.45743,65.45743 0 0 0 -0.34187,0.0753 65.45743,65.45743 0 0 0 -0.34101,0.077 65.45743,65.45743 0 0 0 -0.34091,0.0789 65.45743,65.45743 0 0 0 -0.34031,0.081 65.45743,65.45743 0 0 0 -0.34024,0.0828 65.45743,65.45743 0 0 0 -0.33981,0.0842 65.45743,65.45743 0 0 0 -0.33903,0.0859 65.45743,65.45743 0 0 0 -0.3387,0.0885 65.45743,65.45743 0 0 0 -0.33807,0.0894 65.45743,65.45743 0 0 0 -0.33819,0.0918 65.45743,65.45743 0 0 0 -0.33692,0.0937 65.45743,65.45743 0 0 0 -0.33656,0.0951 65.45743,65.45743 0 0 0 -0.33643,0.0969 65.45743,65.45743 0 0 0 -0.3356,0.0986 65.45743,65.45743 0 0 0 -0.33502,0.10075 65.45743,65.45743 0 0 0 -0.33493,0.1026 65.45743,65.45743 0 0 0 -0.3341,0.10427 65.45743,65.45743 0 0 0 -0.33326,0.10594 65.45743,65.45743 0 0 0 -0.33313,0.10781 65.45743,65.45743 0 0 0 -0.33233,0.10946 65.45743,65.45743 0 0 0 -0.33176,0.11159 65.45743,65.45743 0 0 0 -0.33112,0.11256 65.45743,65.45743 0 0 0 -0.3308,0.11512 65.45743,65.45743 0 0 0 -0.32998,0.11679 65.45743,65.45743 0 0 0 -0.32915,0.11846 65.45743,65.45743 0 0 0 -0.32878,0.11988 65.45743,65.45743 0 0 0 -0.32776,0.12224 65.45743,65.45743 0 0 0 -0.32738,0.12366 65.45743,65.45743 0 0 0 -0.32654,0.12534 65.45743,65.45743 0 0 0 -0.32644,0.12719 65.45743,65.45743 0 0 0 -0.32493,0.12866 65.45743,65.45743 0 0 0 -0.32479,0.13053 65.45743,65.45743 0 0 0 -0.32419,0.13266 65.45743,65.45743 0 0 0 -0.32315,0.13386 65.45743,65.45743 0 0 0 -0.32255,0.136 65.45743,65.45743 0 0 0 -0.32175,0.13765 65.45743,65.45743 0 0 0 -0.32092,0.13933 65.45743,65.45743 0 0 0 -0.32054,0.14074 65.45743,65.45743 0 0 0 -0.31926,0.14267 65.45743,65.45743 0 0 0 -0.31868,0.1448 65.45743,65.45743 0 0 0 -0.31809,0.14573 65.45743,65.45743 0 0 0 -0.31746,0.14788 65.45743,65.45743 0 0 0 -0.31599,0.14934 65.45743,65.45743 0 0 0 -0.31582,0.15122 65.45743,65.45743 0 0 0 -0.31459,0.15313 65.45743,65.45743 0 0 0 -0.31418,0.15455 65.45743,65.45743 0 0 0 -0.31337,0.15622 65.45743,65.45743 0 0 0 -0.31181,0.15771 65.45743,65.45743 0 0 0 -0.31173,0.15955 65.45743,65.45743 0 0 0 -0.31043,0.1615 65.45743,65.45743 0 0 0 -0.30979,0.16245 65.45743,65.45743 0 0 0 -0.30878,0.16483 65.45743,65.45743 0 0 0 -0.0526,0.0281 92.718922,92.718922 0 0 0 38.92188,43.91187 92.718922,92.718922 0 0 0 57.48929,11.75114 z" />
    <rect
       transform="rotate(-45)"
       ry="0.52668977"
       y="150.21909"
       x="184.99733"
       height="3.0561953"
       width="3.0561953"
       id="rect1015"
       style="font-variation-settings:normal;opacity:1;vector-effect:none;fill:#b2d4ea;fill-opacity:0.54646838;fill-rule:evenodd;stroke:none;stroke-width:0.11551;stroke-linecap:round;stroke-linejoin:round;stroke-miterlimit:4;stroke-dasharray:none;stroke-dashoffset:0;stroke-opacity:1;paint-order:markers stroke fill;stop-color:#000000;stop-opacity:1" />
    <rect
       style="font-variation-settings:normal;display:inline;opacity:1;vector-effect:none;fill:#b2d4ea;fill-opacity:0.54646838;fill-rule:evenodd;stroke:none;stroke-width:0.11551;stroke-linecap:round;stroke-linejoin:round;stroke-miterlimit:4;stroke-dasharray:none;stroke-dashoffset:0;stroke-opacity:1;paint-order:markers stroke fill;stop-color:#000000;stop-opacity:1"
       id="rect1015-0"
       width="3.0561953"
       height="3.0561953"
       x="-5.5371404"
       y="16.9135"
       ry="0.52668977"
       transform="rotate(-45)" />
    <rect
       style="font-variation-settings:normal;display:inline;opacity:1;vector-effect:none;fill:#b2d4ea;fill-opacity:0.54646838;fill-rule:evenodd;stroke:none;stroke-width:0.11551;stroke-linecap:round;stroke-linejoin:round;stroke-miterlimit:4;stroke-dasharray:none;stroke-dashoffset:0;stroke-opacity:1;paint-order:markers stroke fill;stop-color:#000000;stop-opacity:1"
       id="rect1015-4"
       width="3.0561953"
       height="3.0561953"
       x="22.25889"
       y="226.4528"
       ry="0.52668977"
       transform="rotate(-45)" />
    <rect
       style="font-variation-settings:normal;display:inline;opacity:1;vector-effect:none;fill:#b2d4ea;fill-opacity:0.54646838;fill-rule:evenodd;stroke:none;stroke-width:0.11551;stroke-linecap:round;stroke-linejoin:round;stroke-miterlimit:4;stroke-dasharray:none;stroke-dashoffset:0;stroke-opacity:1;paint-order:markers stroke fill;stop-color:#000000;stop-opacity:1"
       id="rect1015-6"
       width="3.0561953"
       height="3.0561953"
       x="47.649494"
       y="89.878075"
       ry="0.52668977"
       transform="rotate(-45)" />
    <rect
       style="font-variation-settings:normal;display:inline;opacity:1;vector-effect:none;fill:#b2d4ea;fill-opacity:0.54646838;fill-rule:evenodd;stroke:none;stroke-width:0.11551;stroke-linecap:round;stroke-linejoin:round;stroke-miterlimit:4;stroke-dasharray:none;stroke-dashoffset:0;stroke-opacity:1;paint-order:markers stroke fill;stop-color:#000000;stop-opacity:1"
       id="rect1015-48"
       width="3.0561953"
       height="3.0561953"
       x="-22.642389"
       y="99.767052"
       ry="0.52668977"
       transform="rotate(-45)" />
    <rect
       style="font-variation-settings:normal;display:inline;opacity:1;vector-effect:none;fill:#b2d4ea;fill-opacity:0.54646838;fill-rule:evenodd;stroke:none;stroke-width:0.11551;stroke-linecap:round;stroke-linejoin:round;stroke-miterlimit:4;stroke-dasharray:none;stroke-dashoffset:0;stroke-opacity:1;paint-order:markers stroke fill;stop-color:#000000;stop-opacity:1"
       id="rect1015-42"
       width="3.0561953"
       height="3.0561953"
       x="4.6191015"
       y="196.51862"
       ry="0.52668977"
       transform="rotate(-45)" />
    <rect
       style="font-variation-settings:normal;display:inline;opacity:1;vector-effect:none;fill:#b2d4ea;fill-opacity:0.54646838;fill-rule:evenodd;stroke:none;stroke-width:0.11551;stroke-linecap:round;stroke-linejoin:round;stroke-miterlimit:4;stroke-dasharray:none;stroke-dashoffset:0;stroke-opacity:1;paint-order:markers stroke fill;stop-color:#000000;stop-opacity:1"
       id="rect1015-7"
       width="3.0561953"
       height="3.0561953"
       x="-67.810936"
       y="115.53595"
       ry="0.52668977"
       transform="rotate(-45)" />
    <rect
       style="font-variation-settings:normal;display:inline;opacity:1;vector-effect:none;fill:#b2d4ea;fill-opacity:0.54646838;fill-rule:evenodd;stroke:none;stroke-width:0.11551;stroke-linecap:round;stroke-linejoin:round;stroke-miterlimit:4;stroke-dasharray:none;stroke-dashoffset:0;stroke-opacity:1;paint-order:markers stroke fill;stop-color:#000000;stop-opacity:1"
       id="rect1015-1"
       width="3.0561953"
       height="3.0561953"
       x="-15.158843"
       y="60.211163"
       ry="0.52668977"
       transform="rotate(-45)" />
    <rect
       style="font-variation-settings:normal;display:inline;opacity:1;vector-effect:none;fill:#b2d4ea;fill-opacity:0.54646838;fill-rule:evenodd;stroke:none;stroke-width:0.11551;stroke-linecap:round;stroke-linejoin:round;stroke-miterlimit:4;stroke-dasharray:none;stroke-dashoffset:0;stroke-opacity:1;paint-order:markers stroke fill;stop-color:#000000;stop-opacity:1"
       id="rect1015-481"
       width="3.0561953"
       height="3.0561953"
       x="16.149578"
       y="122.21558"
       ry="0.52668977"
       transform="rotate(-45)" />
    <path
       d="m 59.80709,106.41606 a 19.761413,19.761413 0 0 0 -5.06988,19.04311 19.761413,19.761413 0 0 0 24.20256,13.97344 19.761413,19.761413 0 0 0 8.81388,-5.06999 27.991647,27.991647 0 0 1 -0.10039,-2.2e-4 27.991647,27.991647 0 0 1 -0.12565,-0.001 27.991647,27.991647 0 0 1 -0.12576,-0.002 27.991647,27.991647 0 0 1 -0.12576,-0.002 27.991647,27.991647 0 0 1 -0.12576,-0.003 27.991647,27.991647 0 0 1 -0.12564,-0.003 27.991647,27.991647 0 0 1 -0.12577,-0.004 27.991647,27.991647 0 0 1 -0.12564,-0.004 27.991647,27.991647 0 0 1 -0.12554,-0.005 27.991647,27.991647 0 0 1 -0.12565,-0.005 27.991647,27.991647 0 0 1 -0.12566,-0.006 27.991647,27.991647 0 0 1 -0.12553,-0.007 27.991647,27.991647 0 0 1 -0.12543,-0.007 27.991647,27.991647 0 0 1 -0.12554,-0.008 27.991647,27.991647 0 0 1 -0.12543,-0.008 27.991647,27.991647 0 0 1 -0.12554,-0.009 27.991647,27.991647 0 0 1 -0.12542,-0.009 27.991647,27.991647 0 0 1 -0.12533,-0.01 27.991647,27.991647 0 0 1 -0.1252,-0.0105 27.991647,27.991647 0 0 1 -0.12521,-0.0111 27.991647,27.991647 0 0 1 -0.12532,-0.0117 27.991647,27.991647 0 0 1 -0.1251,-0.0121 27.991647,27.991647 0 0 1 -0.1251,-0.0128 27.991647,27.991647 0 0 1 -0.12498,-0.0133 27.991647,27.991647 0 0 1 -0.125,-0.014 27.991647,27.991647 0 0 1 -0.12487,-0.0143 27.991647,27.991647 0 0 1 -0.12488,-0.015 27.991647,27.991647 0 0 1 -0.12476,-0.0155 27.991647,27.991647 0 0 1 -0.12477,-0.0162 27.991647,27.991647 0 0 1 -0.12455,-0.0167 27.991647,27.991647 0 0 1 -0.12455,-0.0173 27.991647,27.991647 0 0 1 -0.12454,-0.0178 27.991647,27.991647 0 0 1 -0.12432,-0.0184 27.991647,27.991647 0 0 1 -0.12433,-0.0189 27.991647,27.991647 0 0 1 -0.12421,-0.0196 27.991647,27.991647 0 0 1 -0.12411,-0.02 27.991647,27.991647 0 0 1 -0.1241,-0.0206 27.991647,27.991647 0 0 1 -0.12389,-0.0211 27.991647,27.991647 0 0 1 -0.12377,-0.0218 27.991647,27.991647 0 0 1 -0.12378,-0.0223 27.991647,27.991647 0 0 1 -0.12366,-0.0228 27.991647,27.991647 0 0 1 -0.12356,-0.0234 27.991647,27.991647 0 0 1 -0.12344,-0.024 27.991647,27.991647 0 0 1 -0.12333,-0.0245 27.991647,27.991647 0 0 1 -0.12322,-0.025 27.991647,27.991647 0 0 1 -0.12312,-0.0256 27.991647,27.991647 0 0 1 -0.123,-0.0261 27.991647,27.991647 0 0 1 -0.12289,-0.0267 27.991647,27.991647 0 0 1 -0.12267,-0.0274 27.991647,27.991647 0 0 1 -0.12266,-0.0278 27.991647,27.991647 0 0 1 -0.12246,-0.0282 27.991647,27.991647 0 0 1 -0.12234,-0.029 27.991647,27.991647 0 0 1 -0.12234,-0.0295 27.991647,27.991647 0 0 1 -0.12201,-0.03 27.991647,27.991647 0 0 1 -0.122,-0.0307 27.991647,27.991647 0 0 1 -0.1219,-0.031 27.991647,27.991647 0 0 1 -0.12168,-0.0317 27.991647,27.991647 0 0 1 -0.12157,-0.0322 27.991647,27.991647 0 0 1 -0.12123,-0.0328 27.991647,27.991647 0 0 1 -0.12136,-0.0333 27.991647,27.991647 0 0 1 -0.12112,-0.0337 27.991647,27.991647 0 0 1 -0.12091,-0.0344 27.991647,27.991647 0 0 1 -0.12079,-0.035 27.991647,27.991647 0 0 1 -0.12058,-0.0354 27.991647,27.991647 0 0 1 -0.12046,-0.036 27.991647,27.991647 0 0 1 -0.12036,-0.0365 27.991647,27.991647 0 0 1 -0.12013,-0.0372 27.991647,27.991647 0 0 1 -0.11992,-0.0376 27.991647,27.991647 0 0 1 -0.11979,-0.0382 27.991647,27.991647 0 0 1 -0.1197,-0.0387 27.991647,27.991647 0 0 1 -0.11947,-0.0392 27.991647,27.991647 0 0 1 -0.11925,-0.0398 27.991647,27.991647 0 0 1 -0.11914,-0.0404 27.991647,27.991647 0 0 1 -0.11892,-0.0408 27.991647,27.991647 0 0 1 -0.11881,-0.0414 27.991647,27.991647 0 0 1 -0.11848,-0.0419 27.991647,27.991647 0 0 1 -0.11837,-0.0425 27.991647,27.991647 0 0 1 -0.11815,-0.0429 27.991647,27.991647 0 0 1 -0.11792,-0.0436 27.991647,27.991647 0 0 1 -0.11782,-0.0439 27.991647,27.991647 0 0 1 -0.1176,-0.0446 27.991647,27.991647 0 0 1 -0.11738,-0.0452 27.991647,27.991647 0 0 1 -0.11715,-0.0457 27.991647,27.991647 0 0 1 -0.11693,-0.0461 27.991647,27.991647 0 0 1 -0.11683,-0.0467 27.991647,27.991647 0 0 1 -0.11649,-0.0472 27.991647,27.991647 0 0 1 -0.11627,-0.0477 27.991647,27.991647 0 0 1 -0.11617,-0.0482 27.991647,27.991647 0 0 1 -0.11594,-0.0488 27.991647,27.991647 0 0 1 -0.1156,-0.0492 27.991647,27.991647 0 0 1 -0.11551,-0.0498 27.991647,27.991647 0 0 1 -0.11527,-0.0504 27.991647,27.991647 0 0 1 -0.11496,-0.0507 27.991647,27.991647 0 0 1 -0.11472,-0.0514 27.991647,27.991647 0 0 1 -0.11451,-0.0519 27.991647,27.991647 0 0 1 -0.1144,-0.0524 27.991647,27.991647 0 0 1 -0.11406,-0.053 27.991647,27.991647 0 0 1 -0.11385,-0.0534 27.991647,27.991647 0 0 1 -0.11363,-0.0538 27.991647,27.991647 0 0 1 -0.11329,-0.0544 27.991647,27.991647 0 0 1 -0.11307,-0.055 27.991647,27.991647 0 0 1 -0.11297,-0.0554 27.991647,27.991647 0 0 1 -0.11252,-0.056 27.991647,27.991647 0 0 1 -0.11241,-0.0564 27.991647,27.991647 0 0 1 -0.11209,-0.0569 27.991647,27.991647 0 0 1 -0.11174,-0.0575 27.991647,27.991647 0 0 1 -0.11164,-0.058 27.991647,27.991647 0 0 1 -0.11131,-0.0584 27.991647,27.991647 0 0 1 -0.11108,-0.059 27.991647,27.991647 0 0 1 -0.11087,-0.0595 27.991647,27.991647 0 0 1 -0.11043,-0.0599 27.991647,27.991647 0 0 1 -0.1102,-0.0606 27.991647,27.991647 0 0 1 -0.1101,-0.0609 27.991647,27.991647 0 0 1 -0.10954,-0.0614 27.991647,27.991647 0 0 1 -0.10954,-0.0619 27.991647,27.991647 0 0 1 -0.10911,-0.0626 27.991647,27.991647 0 0 1 -0.10888,-0.0628 27.991647,27.991647 0 0 1 -0.10866,-0.0634 27.991647,27.991647 0 0 1 -0.10822,-0.0639 27.991647,27.991647 0 0 1 -0.10811,-0.0644 27.991647,27.991647 0 0 1 -0.10767,-0.0649 27.991647,27.991647 0 0 1 -0.10744,-0.0653 27.991647,27.991647 0 0 1 -0.10711,-0.0659 27.991647,27.991647 0 0 1 -0.10679,-0.0664 27.991647,27.991647 0 0 1 -0.10656,-0.0666 27.991647,27.991647 0 0 1 -0.10623,-0.0674 27.991647,27.991647 0 0 1 -0.1059,-0.0677 27.991647,27.991647 0 0 1 -0.10569,-0.0682 27.991647,27.991647 0 0 1 -0.10525,-0.0686 27.991647,27.991647 0 0 1 -0.10501,-0.0693 27.991647,27.991647 0 0 1 -0.1047,-0.0696 27.991647,27.991647 0 0 1 -0.10446,-0.0701 27.991647,27.991647 0 0 1 -0.10402,-0.0705 27.991647,27.991647 0 0 1 -0.1037,-0.071 27.991647,27.991647 0 0 1 -0.10347,-0.0715 27.991647,27.991647 0 0 1 -0.10315,-0.072 27.991647,27.991647 0 0 1 -0.10271,-0.0725 27.991647,27.991647 0 0 1 -0.10247,-0.0729 27.991647,27.991647 0 0 1 -0.10216,-0.0733 27.991647,27.991647 0 0 1 -0.10181,-0.0738 27.991647,27.991647 0 0 1 -0.10139,-0.0742 27.991647,27.991647 0 0 1 -0.10115,-0.0747 27.991647,27.991647 0 0 1 -0.10083,-0.0752 27.991647,27.991647 0 0 1 -0.10039,-0.0757 27.991647,27.991647 0 0 1 -0.10016,-0.0761 27.991647,27.991647 0 0 1 -0.0998,-0.0764 27.991647,27.991647 0 0 1 -0.0993,-0.077 27.991647,27.991647 0 0 1 -0.0992,-0.0773 27.991647,27.991647 0 0 1 -0.0987,-0.078 27.991647,27.991647 0 0 1 -0.0983,-0.0782 27.991647,27.991647 0 0 1 -0.0981,-0.0789 27.991647,27.991647 0 0 1 -0.0976,-0.0791 27.991647,27.991647 0 0 1 -0.0973,-0.0797 27.991647,27.991647 0 0 1 -0.097,-0.08 27.991647,27.991647 0 0 1 -0.0966,-0.0805 27.991647,27.991647 0 0 1 -0.0962,-0.081 27.991647,27.991647 0 0 1 -0.0959,-0.0813 27.991647,27.991647 0 0 1 -0.0955,-0.0819 27.991647,27.991647 0 0 1 -0.0952,-0.0822 27.991647,27.991647 0 0 1 -0.0948,-0.0826 27.991647,27.991647 0 0 1 -0.0943,-0.0831 27.991647,27.991647 0 0 1 -0.0941,-0.0835 27.991647,27.991647 0 0 1 -0.0935,-0.0839 27.991647,27.991647 0 0 1 -0.0933,-0.0843 27.991647,27.991647 0 0 1 -0.0929,-0.0849 27.991647,27.991647 0 0 1 -0.0926,-0.085 27.991647,27.991647 0 0 1 -0.092,-0.0856 27.991647,27.991647 0 0 1 -0.0918,-0.0861 27.991647,27.991647 0 0 1 -0.0914,-0.0863 27.991647,27.991647 0 0 1 -0.0908,-0.087 27.991647,27.991647 0 0 1 -0.0906,-0.0872 27.991647,27.991647 0 0 1 -0.0902,-0.0876 27.991647,27.991647 0 0 1 -0.0898,-0.0881 27.991647,27.991647 0 0 1 -0.0893,-0.0885 27.991647,27.991647 0 0 1 -0.0612,-0.061 27.991647,27.991647 0 0 1 -0.0887,-0.0891 27.991647,27.991647 0 0 1 -0.0883,-0.0896 27.991647,27.991647 0 0 1 -0.0878,-0.09 27.991647,27.991647 0 0 1 -0.0874,-0.0904 27.991647,27.991647 0 0 1 -0.0872,-0.0906 27.991647,27.991647 0 0 1 -0.0867,-0.0911 27.991647,27.991647 0 0 1 -0.0863,-0.0913 27.991647,27.991647 0 0 1 -0.0858,-0.092 27.991647,27.991647 0 0 1 -0.0855,-0.0921 27.991647,27.991647 0 0 1 -0.0849,-0.0927 27.991647,27.991647 0 0 1 -0.0846,-0.093 27.991647,27.991647 0 0 1 -0.0843,-0.0933 27.991647,27.991647 0 0 1 -0.0837,-0.0939 27.991647,27.991647 0 0 1 -0.0834,-0.094 27.991647,27.991647 0 0 1 -0.0829,-0.0947 27.991647,27.991647 0 0 1 -0.0825,-0.0949 27.991647,27.991647 0 0 1 -0.0819,-0.0952 27.991647,27.991647 0 0 1 -0.0817,-0.0957 27.991647,27.991647 0 0 1 -0.0812,-0.096 27.991647,27.991647 0 0 1 -0.0809,-0.0963 27.991647,27.991647 0 0 1 -0.0804,-0.0967 27.991647,27.991647 0 0 1 -0.0799,-0.0971 27.991647,27.991647 0 0 1 -0.0795,-0.0974 27.991647,27.991647 0 0 1 -0.079,-0.0977 27.991647,27.991647 0 0 1 -0.0785,-0.0982 27.991647,27.991647 0 0 1 -0.0782,-0.0985 27.991647,27.991647 0 0 1 -0.0777,-0.0988 27.991647,27.991647 0 0 1 -0.0773,-0.0992 27.991647,27.991647 0 0 1 -0.0768,-0.0995 27.991647,27.991647 0 0 1 -0.0765,-0.0998 27.991647,27.991647 0 0 1 -0.0759,-0.1004 27.991647,27.991647 0 0 1 -0.0755,-0.10039 27.991647,27.991647 0 0 1 -0.0751,-0.10094 27.991647,27.991647 0 0 1 -0.0746,-0.10127 27.991647,27.991647 0 0 1 -0.074,-0.10159 27.991647,27.991647 0 0 1 -0.0737,-0.10193 27.991647,27.991647 0 0 1 -0.0732,-0.10215 27.991647,27.991647 0 0 1 -0.0727,-0.10249 27.991647,27.991647 0 0 1 -0.0723,-0.10292 27.991647,27.991647 0 0 1 -0.0719,-0.10326 27.991647,27.991647 0 0 1 -0.0713,-0.10347 27.991647,27.991647 0 0 1 -0.0709,-0.1038 27.991647,27.991647 0 0 1 -0.0705,-0.10426 27.991647,27.991647 0 0 1 -0.0698,-0.10446 27.991647,27.991647 0 0 1 -0.0695,-0.1048 27.991647,27.991647 0 0 1 -0.0691,-0.10502 27.991647,27.991647 0 0 1 -0.0685,-0.10557 27.991647,27.991647 0 0 1 -0.0682,-0.10569 27.991647,27.991647 0 0 1 -0.0676,-0.106 27.991647,27.991647 0 0 1 -0.0671,-0.10635 27.991647,27.991647 0 0 1 -0.0666,-0.10656 27.991647,27.991647 0 0 1 -0.0661,-0.1069 27.991647,27.991647 0 0 1 -0.0656,-0.10734 27.991647,27.991647 0 0 1 -0.0653,-0.10745 27.991647,27.991647 0 0 1 -0.0647,-0.10789 27.991647,27.991647 0 0 1 -0.0642,-0.10811 27.991647,27.991647 0 0 1 -0.0638,-0.10833 27.991647,27.991647 0 0 1 -0.0632,-0.10866 27.991647,27.991647 0 0 1 -0.0629,-0.10899 27.991647,27.991647 0 0 1 -0.0622,-0.10921 27.991647,27.991647 0 0 1 -0.0618,-0.10943 27.991647,27.991647 0 0 1 -0.0613,-0.10988 27.991647,27.991647 0 0 1 -0.0607,-0.1101 27.991647,27.991647 0 0 1 -0.0603,-0.1102 27.991647,27.991647 0 0 1 -0.0598,-0.11075 27.991647,27.991647 0 0 1 -0.0593,-0.11076 27.991647,27.991647 0 0 1 -0.0587,-0.1112 27.991647,27.991647 0 0 1 -0.0585,-0.11142 27.991647,27.991647 0 0 1 -0.0578,-0.11164 27.991647,27.991647 0 0 1 -0.0573,-0.11197 27.991647,27.991647 0 0 1 -0.0568,-0.11218 27.991647,27.991647 0 0 1 -0.0563,-0.11231 27.991647,27.991647 0 0 1 -0.0558,-0.11274 27.991647,27.991647 0 0 1 -0.0553,-0.11286 27.991647,27.991647 0 0 1 -0.0548,-0.11329 27.991647,27.991647 0 0 1 -0.0543,-0.1134 27.991647,27.991647 0 0 1 -0.0537,-0.11374 27.991647,27.991647 0 0 1 -0.0532,-0.11385 27.991647,27.991647 0 0 1 -0.0528,-0.11417 27.991647,27.991647 0 0 1 -0.0522,-0.1144 27.991647,27.991647 0 0 1 -0.0517,-0.11462 27.991647,27.991647 0 0 1 -0.0512,-0.11472 27.991647,27.991647 0 0 1 -0.0506,-0.11506 27.991647,27.991647 0 0 1 -0.0501,-0.1154 27.991647,27.991647 0 0 1 -0.0498,-0.11549 27.991647,27.991647 0 0 1 -0.0491,-0.11572 27.991647,27.991647 0 0 1 -0.0485,-0.11606 27.991647,27.991647 0 0 1 -0.0482,-0.11616 27.991647,27.991647 0 0 1 -0.0476,-0.11638 27.991647,27.991647 0 0 1 -0.0469,-0.11661 27.991647,27.991647 0 0 1 -0.0466,-0.11682 27.991647,27.991647 0 0 1 -0.0459,-0.11693 27.991647,27.991647 0 0 1 -0.0454,-0.11739 27.991647,27.991647 0 0 1 -0.045,-0.11737 27.991647,27.991647 0 0 1 -0.0444,-0.1176 27.991647,27.991647 0 0 1 -0.0438,-0.11792 27.991647,27.991647 0 0 1 -0.0435,-0.11804 27.991647,27.991647 0 0 1 -0.0427,-0.11815 27.991647,27.991647 0 0 1 -0.0424,-0.11847 27.991647,27.991647 0 0 1 -0.0418,-0.11859 27.991647,27.991647 0 0 1 -0.0411,-0.11881 27.991647,27.991647 0 0 1 -0.0406,-0.11892 27.991647,27.991647 0 0 1 -0.0402,-0.11914 27.991647,27.991647 0 0 1 -0.0397,-0.11936 27.991647,27.991647 0 0 1 -0.039,-0.11959 27.991647,27.991647 0 0 1 -0.0385,-0.11968 27.991647,27.991647 0 0 1 -0.0379,-0.11981 27.991647,27.991647 0 0 1 -0.0375,-0.12002 27.991647,27.991647 0 0 1 -0.037,-0.12014 27.991647,27.991647 0 0 1 -0.0364,-0.12046 27.991647,27.991647 0 0 1 -0.0357,-0.12047 27.991647,27.991647 0 0 1 -0.0353,-0.12068 27.991647,27.991647 0 0 1 -0.0349,-0.12091 27.991647,27.991647 0 0 1 -0.0342,-0.12091 27.991647,27.991647 0 0 1 -0.0336,-0.12123 27.991647,27.991647 0 0 1 -0.0331,-0.12135 27.991647,27.991647 0 0 1 -0.0326,-0.12134 27.991647,27.991647 0 0 1 -0.032,-0.12157 27.991647,27.991647 0 0 1 -0.0315,-0.12168 27.991647,27.991647 0 0 1 -0.031,-0.1219 27.991647,27.991647 0 0 1 -0.0303,-0.12212 27.991647,27.991647 0 0 1 -0.0299,-0.12212 27.991647,27.991647 0 0 1 -0.0294,-0.12223 27.991647,27.991647 0 0 1 -0.0287,-0.12245 27.991647,27.991647 0 0 1 -0.0281,-0.12256 27.991647,27.991647 0 0 1 -0.0277,-0.12256 27.991647,27.991647 0 0 1 -0.027,-0.12278 27.991647,27.991647 0 0 1 -0.0266,-0.123 27.991647,27.991647 0 0 1 -0.0259,-0.12301 27.991647,27.991647 0 0 1 -0.0256,-0.12311 27.991647,27.991647 0 0 1 -0.0248,-0.12322 27.991647,27.991647 0 0 1 -0.0243,-0.12333 27.991647,27.991647 0 0 1 -0.0238,-0.12355 27.991647,27.991647 0 0 1 -0.0232,-0.12356 27.991647,27.991647 0 0 1 -0.0226,-0.12366 27.991647,27.991647 0 0 1 -0.0222,-0.12388 27.991647,27.991647 0 0 1 -0.0216,-0.12378 27.991647,27.991647 0 0 1 -0.0209,-0.12399 27.991647,27.991647 0 0 1 -0.0204,-0.12411 27.991647,27.991647 0 0 1 -0.02,-0.1241 27.991647,27.991647 0 0 1 -0.0192,-0.12422 27.991647,27.991647 0 0 1 -0.0187,-0.12444 27.991647,27.991647 0 0 1 -0.0182,-0.12432 27.991647,27.991647 0 0 1 -0.0178,-0.12454 27.991647,27.991647 0 0 1 -0.0171,-0.12455 27.991647,27.991647 0 0 1 -0.0164,-0.12454 27.991647,27.991647 0 0 1 -0.016,-0.12478 27.991647,27.991647 0 0 1 -0.0154,-0.12487 27.991647,27.991647 0 0 1 -0.0148,-0.12488 27.991647,27.991647 0 0 1 -0.0144,-0.12488 27.991647,27.991647 0 0 1 -0.0136,-0.12498 27.991647,27.991647 0 0 1 -0.0132,-0.1251 27.991647,27.991647 0 0 1 -0.0126,-0.1251 27.991647,27.991647 0 0 1 -0.0121,-0.1251 27.991647,27.991647 0 0 1 -0.0113,-0.12521 27.991647,27.991647 0 0 1 -0.0111,-0.12532 27.991647,27.991647 0 0 1 -0.0102,-0.12521 27.991647,27.991647 0 0 1 -0.01,-0.12542 27.991647,27.991647 0 0 1 -0.009,-0.12543 27.991647,27.991647 0 0 1 -0.009,-0.12542 27.991647,27.991647 0 0 1 -0.008,-0.12544 27.991647,27.991647 0 0 1 -0.007,-0.12554 27.991647,27.991647 0 0 1 -0.007,-0.12554 27.991647,27.991647 0 0 1 -0.006,-0.12553 27.991647,27.991647 0 0 1 -0.006,-0.12566 27.991647,27.991647 0 0 1 -0.005,-0.12565 27.991647,27.991647 0 0 1 -0.005,-0.12564 27.991647,27.991647 0 0 1 -0.004,-0.12554 27.991647,27.991647 0 0 1 -0.004,-0.12576 27.991647,27.991647 0 0 1 -0.003,-0.12576 27.991647,27.991647 0 0 1 -0.002,-0.12576 27.991647,27.991647 0 0 1 -0.002,-0.12565 27.991647,27.991647 0 0 1 -0.001,-0.12576 27.991647,27.991647 0 0 1 -10e-4,-0.12565 27.991647,27.991647 0 0 1 -1.1e-4,-0.0612 z"
       style="display:inline;opacity:0.988;fill:#b6e9dc;fill-opacity:1;stroke-width:0.241611;stroke-linecap:square;paint-order:stroke fill markers"
       id="path40-1-4-6-9-7-5" />
    <circle
       style="display:inline;fill:#eccfe7;fill-opacity:1;stroke:none;stroke-width:5.06825;stroke-linecap:square;paint-order:stroke fill markers"
       id="path1013-3"
       cx="584.15161"
       cy="-99.765495"
       r="92.719147" />
  </g>
  <g
     style="display:none"
     inkscape:label="レイヤー 2"
     id="layer2"
     inkscape:groupmode="layer">
    <rect
       style="font-variation-settings:normal;opacity:1;vector-effect:none;fill:#000000;fill-opacity:0.0323325;fill-rule:evenodd;stroke:none;stroke-width:1;stroke-linecap:round;stroke-linejoin:round;stroke-miterlimit:4;stroke-dasharray:none;stroke-dashoffset:0;stroke-opacity:1;paint-order:markers stroke fill;stop-color:#000000;stop-opacity:1"
       id="rect956"
       width="210"
       height="297"
       x="0"
       y="1.3974009e-14" />
  </g>
</svg>
