<?xml version="1.0" encoding="UTF-8" standalone="no"?>
<svg
   xmlns:dc="http://purl.org/dc/elements/1.1/"
   xmlns:cc="http://creativecommons.org/ns#"
   xmlns:rdf="http://www.w3.org/1999/02/22-rdf-syntax-ns#"
   xmlns:svg="http://www.w3.org/2000/svg"
   xmlns="http://www.w3.org/2000/svg"
   xmlns:sodipodi="http://sodipodi.sourceforge.net/DTD/sodipodi-0.dtd"
   xmlns:inkscape="http://www.inkscape.org/namespaces/inkscape"
   width="200mm"
   height="150mm"
   viewBox="0 0 200 150"
   version="1.1"
   id="svg8"
   inkscape:version="1.0 (4035a4fb49, 2020-05-01)"
   sodipodi:docname="card-back4.svg">
  <defs
     id="defs2">
    <inkscape:path-effect
       only_selected="false"
       apply_with_weight="true"
       apply_no_weight="true"
       helper_size="0"
       steps="2"
       weight="33.333333"
       lpeversion="1"
       is_visible="true"
       id="path-effect1125"
       effect="bspline" />
    <inkscape:path-effect
       only_selected="false"
       apply_with_weight="true"
       apply_no_weight="true"
       helper_size="0"
       steps="2"
       weight="33.333333"
       lpeversion="1"
       is_visible="true"
       id="path-effect1121"
       effect="bspline" />
  </defs>
  <sodipodi:namedview
     id="base"
     pagecolor="#ffffff"
     bordercolor="#666666"
     borderopacity="1.0"
     inkscape:pageopacity="0.0"
     inkscape:pageshadow="2"
     inkscape:zoom="1.4"
     inkscape:cx="228.56613"
     inkscape:cy="68.878849"
     inkscape:document-units="mm"
     inkscape:current-layer="layer1"
     inkscape:document-rotation="0"
     showgrid="false"
     inkscape:pagecheckerboard="true"
     inkscape:snap-bbox="true"
     inkscape:snap-page="true"
     inkscape:bbox-paths="true"
     inkscape:snap-bbox-edge-midpoints="true"
     inkscape:snap-others="true"
     inkscape:window-width="1920"
     inkscape:window-height="1057"
     inkscape:window-x="-8"
     inkscape:window-y="-8"
     inkscape:window-maximized="1"
     inkscape:bbox-nodes="true"
     inkscape:snap-bbox-midpoints="true"
     inkscape:snap-object-midpoints="true"
     inkscape:snap-nodes="true"
     inkscape:object-paths="false"
     inkscape:snap-intersection-paths="true"
     inkscape:snap-midpoints="true" />
  <metadata
     id="metadata5">
    <rdf:RDF>
      <cc:Work
         rdf:about="">
        <dc:format>image/svg+xml</dc:format>
        <dc:type
           rdf:resource="http://purl.org/dc/dcmitype/StillImage" />
        <dc:title />
      </cc:Work>
    </rdf:RDF>
  </metadata>
  <g
     inkscape:label="レイヤー 1"
     inkscape:groupmode="layer"
     id="layer1"
     style="display:inline">
    <rect
       style="font-variation-settings:normal;display:inline;opacity:1;vector-effect:none;fill:#fcffff;fill-opacity:1;fill-rule:evenodd;stroke:none;stroke-width:0.693542;stroke-linecap:round;stroke-linejoin:round;stroke-miterlimit:4;stroke-dasharray:none;stroke-dashoffset:0;stroke-opacity:1;paint-order:markers stroke fill;stop-color:#000000;stop-opacity:1"
       id="rect10"
       width="200"
       height="149.99998"
       x="0"
       y="0" />
    <ellipse
       transform="rotate(60)"
       ry="21.355656"
       rx="88.257446"
       cy="-96.766632"
       cx="162.06502"
       id="path1117"
       style="fill:none;fill-opacity:1;stroke:#c08ada;stroke-width:2.5;stroke-linecap:square;stroke-miterlimit:4;stroke-dasharray:none;stroke-opacity:1;paint-order:stroke fill markers" />
    <path
       id="path40-1-4-6-9"
       d="m 221.52267,59.240397 a 65.45743,65.45743 0 0 0 -89.41652,-23.959088 65.45743,65.45743 0 0 0 -23.95908,89.416511 65.45743,65.45743 0 0 0 89.41651,23.95907 65.45743,65.45743 0 0 0 23.95909,-89.416493"
       style="display:inline;opacity:1;fill:#eab5c9;fill-opacity:1;stroke-width:0.800309;stroke-linecap:square;paint-order:stroke fill markers" />
    <path
       d="m 108.41562,124.96448 a 92.718922,92.718922 0 0 0 0.32139,0.0853 92.718922,92.718922 0 0 0 0.40359,0.10473 92.718922,92.718922 0 0 0 0.40324,0.10314 92.718922,92.718922 0 0 0 0.40379,0.101 92.718922,92.718922 0 0 0 0.40465,0.0994 92.718922,92.718922 0 0 0 0.40504,0.0979 92.718922,92.718922 0 0 0 0.40529,0.0954 92.718922,92.718922 0 0 0 0.40572,0.094 92.718922,92.718922 0 0 0 0.40628,0.0918 92.718922,92.718922 0 0 0 0.40664,0.0904 92.718922,92.718922 0 0 0 0.40679,0.0886 92.718922,92.718922 0 0 0 0.40733,0.0864 92.718922,92.718922 0 0 0 0.40817,0.0848 92.718922,92.718922 0 0 0 0.40783,0.0832 92.718922,92.718922 0 0 0 0.40887,0.0808 92.718922,92.718922 0 0 0 0.40877,0.0797 92.718922,92.718922 0 0 0 0.40908,0.0771 92.718922,92.718922 0 0 0 0.40948,0.0757 92.718922,92.718922 0 0 0 0.41003,0.0736 92.718922,92.718922 0 0 0 0.41043,0.0721 92.718922,92.718922 0 0 0 0.41027,0.0698 92.718922,92.718922 0 0 0 0.4111,0.0682 92.718922,92.718922 0 0 0 0.41124,0.0663 92.718922,92.718922 0 0 0 0.41158,0.0649 92.718922,92.718922 0 0 0 0.41147,0.0626 92.718922,92.718922 0 0 0 0.4123,0.0609 92.718922,92.718922 0 0 0 0.41215,0.0586 92.718922,92.718922 0 0 0 0.41254,0.0572 92.718922,92.718922 0 0 0 0.41264,0.0553 92.718922,92.718922 0 0 0 0.4132,0.0532 92.718922,92.718922 0 0 0 0.41315,0.052 92.718922,92.718922 0 0 0 0.41346,0.0495 92.718922,92.718922 0 0 0 0.41385,0.0481 92.718922,92.718922 0 0 0 0.41413,0.0455 92.718922,92.718922 0 0 0 0.41408,0.0444 92.718922,92.718922 0 0 0 0.41436,0.0418 92.718922,92.718922 0 0 0 0.41433,0.0407 92.718922,92.718922 0 0 0 0.41488,0.0385 92.718922,92.718922 0 0 0 0.41499,0.0367 92.718922,92.718922 0 0 0 0.41471,0.0351 92.718922,92.718922 0 0 0 0.41521,0.0329 92.718922,92.718922 0 0 0 0.41538,0.0311 92.718922,92.718922 0 0 0 0.41547,0.0292 92.718922,92.718922 0 0 0 0.4156,0.0274 92.718922,92.718922 0 0 0 0.41573,0.0255 92.718922,92.718922 0 0 0 0.41559,0.0232 92.718922,92.718922 0 0 0 0.41595,0.0218 92.718922,92.718922 0 0 0 0.41608,0.0199 92.718922,92.718922 0 0 0 0.41621,0.0181 92.718922,92.718922 0 0 0 0.41631,0.0162 92.718922,92.718922 0 0 0 0.41617,0.0139 92.718922,92.718922 0 0 0 0.41658,0.0125 92.718922,92.718922 0 0 0 0.41598,0.0104 92.718922,92.718922 0 0 0 0.41678,0.009 92.718922,92.718922 0 0 0 0.41622,0.007 92.718922,92.718922 0 0 0 0.41633,0.005 92.718922,92.718922 0 0 0 0.41646,0.003 92.718922,92.718922 0 0 0 0.41658,0.001 92.718922,92.718922 0 0 0 0.41669,-6.9e-4 92.718922,92.718922 0 0 0 0.41636,-0.002 92.718922,92.718922 0 0 0 0.41622,-0.005 92.718922,92.718922 0 0 0 0.41661,-0.006 92.718922,92.718922 0 0 0 0.41648,-0.008 92.718922,92.718922 0 0 0 0.41657,-0.0102 92.718922,92.718922 0 0 0 0.41626,-0.0118 92.718922,92.718922 0 0 0 0.41615,-0.0141 92.718922,92.718922 0 0 0 0.41648,-0.0155 92.718922,92.718922 0 0 0 0.41593,-0.0176 92.718922,92.718922 0 0 0 0.41602,-0.0194 92.718922,92.718922 0 0 0 0.41617,-0.0213 92.718922,92.718922 0 0 0 0.41558,-0.0233 92.718922,92.718922 0 0 0 0.41592,-0.0248 92.718922,92.718922 0 0 0 0.41535,-0.0268 92.718922,92.718922 0 0 0 0.41549,-0.0286 92.718922,92.718922 0 0 0 0.41533,-0.0309 92.718922,92.718922 0 0 0 0.41529,-0.0321 92.718922,92.718922 0 0 0 0.41513,-0.0344 92.718922,92.718922 0 0 0 0.41498,-0.0367 92.718922,92.718922 0 0 0 0.41494,-0.0379 92.718922,92.718922 0 0 0 0.41434,-0.0399 92.718922,92.718922 0 0 0 0.41445,-0.0418 92.718922,92.718922 0 0 0 0.41414,-0.0434 92.718922,92.718922 0 0 0 0.41398,-0.0457 92.718922,92.718922 0 0 0 0.41368,-0.0473 92.718922,92.718922 0 0 0 0.41377,-0.0491 92.718922,92.718922 0 0 0 0.41323,-0.0512 92.718922,92.718922 0 0 0 0.41331,-0.053 92.718922,92.718922 0 0 0 0.41275,-0.0551 92.718922,92.718922 0 0 0 0.41265,-0.0563 92.718922,92.718922 0 0 0 0.41251,-0.0585 92.718922,92.718922 0 0 0 0.41194,-0.0606 92.718922,92.718922 0 0 0 0.4119,-0.0618 92.718922,92.718922 0 0 0 0.41146,-0.0645 92.718922,92.718922 0 0 0 0.41141,-0.0657 92.718922,92.718922 0 0 0 0.41081,-0.0678 92.718922,92.718922 0 0 0 0.41049,-0.0693 92.718922,92.718922 0 0 0 0.41036,-0.0716 92.718922,92.718922 0 0 0 0.41002,-0.0733 92.718922,92.718922 0 0 0 0.40944,-0.0753 92.718922,92.718922 0 0 0 0.40956,-0.0771 92.718922,92.718922 0 0 0 0.40877,-0.0785 92.718922,92.718922 0 0 0 0.40866,-0.0808 92.718922,92.718922 0 0 0 0.40833,-0.0824 92.718922,92.718922 0 0 0 0.40772,-0.0845 92.718922,92.718922 0 0 0 0.40785,-0.0863 92.718922,92.718922 0 0 0 0.40708,-0.0876 92.718922,92.718922 0 0 0 0.40649,-0.0897 92.718922,92.718922 0 0 0 0.40635,-0.092 92.718922,92.718922 0 0 0 0.40558,-0.0933 92.718922,92.718922 0 0 0 0.40568,-0.0952 92.718922,92.718922 0 0 0 0.40513,-0.0972 92.718922,92.718922 0 0 0 0.40477,-0.0988 92.718922,92.718922 0 0 0 0.40375,-0.10062 92.718922,92.718922 0 0 0 0.40388,-0.10252 92.718922,92.718922 0 0 0 0.40329,-0.10453 92.718922,92.718922 0 0 0 0.4025,-0.10588 92.718922,92.718922 0 0 0 0.40237,-0.10819 92.718922,92.718922 0 0 0 0.40161,-0.10955 92.718922,92.718922 0 0 0 0.40144,-0.11185 92.718922,92.718922 0 0 0 0.40071,-0.11318 92.718922,92.718922 0 0 0 0.40007,-0.11522 92.718922,92.718922 0 0 0 0.39976,-0.11684 92.718922,92.718922 0 0 0 0.39919,-0.11892 92.718922,92.718922 0 0 0 0.39885,-0.12047 92.718922,92.718922 0 0 0 0.39825,-0.12254 92.718922,92.718922 0 0 0 0.39753,-0.12386 92.718922,92.718922 0 0 0 0.3969,-0.12592 92.718922,92.718922 0 0 0 0.39628,-0.12799 92.718922,92.718922 0 0 0 0.39603,-0.12957 92.718922,92.718922 0 0 0 0.39519,-0.13094 92.718922,92.718922 0 0 0 0.39464,-0.13293 92.718922,92.718922 0 0 0 0.39406,-0.13502 92.718922,92.718922 0 0 0 0.39374,-0.13656 92.718922,92.718922 0 0 0 0.39269,-0.13838 92.718922,92.718922 0 0 0 0.39234,-0.14004 92.718922,92.718922 0 0 0 0.39135,-0.14177 92.718922,92.718922 0 0 0 0.391,-0.14341 92.718922,92.718922 0 0 0 0.39038,-0.14548 92.718922,92.718922 0 0 0 0.38938,-0.14721 92.718922,92.718922 0 0 0 0.38903,-0.14886 92.718922,92.718922 0 0 0 0.38848,-0.15085 92.718922,92.718922 0 0 0 0.38769,-0.15224 92.718922,92.718922 0 0 0 0.38662,-0.15405 92.718922,92.718922 0 0 0 0.38679,-0.15588 92.718922,92.718922 0 0 0 0.38529,-0.15744 92.718922,92.718922 0 0 0 0.38471,-0.15941 92.718922,92.718922 0 0 0 0.38438,-0.16107 92.718922,92.718922 0 0 0 0.38332,-0.16288 92.718922,92.718922 0 0 0 0.38233,-0.16462 92.718922,92.718922 0 0 0 0.38199,-0.16627 92.718922,92.718922 0 0 0 0.3812,-0.16755 92.718922,92.718922 0 0 0 0.38062,-0.16964 92.718922,92.718922 0 0 0 0.37958,-0.17146 92.718922,92.718922 0 0 0 0.37855,-0.17318 92.718922,92.718922 0 0 0 0.37823,-0.17483 92.718922,92.718922 0 0 0 0.37748,-0.17614 92.718922,92.718922 0 0 0 0.37641,-0.17795 92.718922,92.718922 0 0 0 0.37537,-0.17976 92.718922,92.718922 0 0 0 0.37481,-0.18176 92.718922,92.718922 0 0 0 0.37401,-0.18314 92.718922,92.718922 0 0 0 0.37368,-0.1848 92.718922,92.718922 0 0 0 0.37195,-0.18669 92.718922,92.718922 0 0 0 0.37165,-0.18824 92.718922,92.718922 0 0 0 0.37088,-0.18965 92.718922,92.718922 0 0 0 0.36982,-0.19146 92.718922,92.718922 0 0 0 0.36879,-0.19318 92.718922,92.718922 0 0 0 0.36849,-0.19484 92.718922,92.718922 0 0 0 0.36694,-0.19638 92.718922,92.718922 0 0 0 0.36641,-0.19839 92.718922,92.718922 0 0 0 0.36572,-0.1996 92.718922,92.718922 0 0 0 0.36425,-0.20106 92.718922,92.718922 0 0 0 0.36371,-0.20306 92.718922,92.718922 0 0 0 0.36273,-0.20481 92.718922,92.718922 0 0 0 0.3622,-0.20565 92.718922,92.718922 0 0 0 0.24817,-0.14272 92.718922,92.718922 0 0 0 0.3602,-0.20911 92.718922,92.718922 0 0 0 0.35924,-0.21087 92.718922,92.718922 0 0 0 0.3582,-0.21258 92.718922,92.718922 0 0 0 0.3577,-0.21345 92.718922,92.718922 0 0 0 0.35621,-0.21605 92.718922,92.718922 0 0 0 0.3555,-0.21726 92.718922,92.718922 0 0 0 0.35433,-0.21831 92.718922,92.718922 0 0 0 0.35376,-0.22029 92.718922,92.718922 0 0 0 0.35226,-0.22186 92.718922,92.718922 0 0 0 0.35145,-0.22323 92.718922,92.718922 0 0 0 0.35047,-0.22497 92.718922,92.718922 0 0 0 0.34942,-0.2268 92.718922,92.718922 0 0 0 0.34859,-0.22816 92.718922,92.718922 0 0 0 0.3472,-0.22967 92.718922,92.718922 0 0 0 0.34654,-0.23171 92.718922,92.718922 0 0 0 0.34536,-0.23277 92.718922,92.718922 0 0 0 0.34413,-0.2339 92.718922,92.718922 0 0 0 0.34326,-0.23641 92.718922,92.718922 0 0 0 0.34233,-0.23701 92.718922,92.718922 0 0 0 0.34101,-0.23926 92.718922,92.718922 0 0 0 0.34022,-0.24065 92.718922,92.718922 0 0 0 0.33877,-0.24213 92.718922,92.718922 0 0 0 0.33796,-0.2435 92.718922,92.718922 0 0 0 0.33654,-0.245 92.718922,92.718922 0 0 0 0.33546,-0.24679 92.718922,92.718922 0 0 0 0.33473,-0.2481 92.718922,92.718922 0 0 0 0.33348,-0.24923 92.718922,92.718922 0 0 0 0.33217,-0.25148 92.718922,92.718922 0 0 0 0.33097,-0.25252 92.718922,92.718922 0 0 0 0.33019,-0.25391 92.718922,92.718922 0 0 0 0.32917,-0.25563 92.718922,92.718922 0 0 0 0.32769,-0.2572 92.718922,92.718922 0 0 0 0.32642,-0.25832 92.718922,92.718922 0 0 0 0.32543,-0.26006 92.718922,92.718922 0 0 0 0.3242,-0.26119 92.718922,92.718922 0 0 0 0.32311,-0.26299 92.718922,92.718922 0 0 0 0.3217,-0.26449 92.718922,92.718922 0 0 0 0.32088,-0.26585 92.718922,92.718922 0 0 0 0.31898,-0.26708 92.718922,92.718922 0 0 0 0.31865,-0.26872 92.718922,92.718922 0 0 0 0.3167,-0.27003 92.718922,92.718922 0 0 0 0.31596,-0.27133 92.718922,92.718922 0 0 0 0.31486,-0.27312 92.718922,92.718922 0 0 0 0.31302,-0.27437 92.718922,92.718922 0 0 0 0.3122,-0.27574 92.718922,92.718922 0 0 0 0.311,-0.27678 92.718922,92.718922 0 0 0 0.30994,-0.2786 92.718922,92.718922 0 0 0 0.30847,-0.28017 92.718922,92.718922 0 0 0 0.30725,-0.2812 92.718922,92.718922 0 0 0 0.30575,-0.28276 92.718922,92.718922 0 0 0 0.30458,-0.28381 92.718922,92.718922 0 0 0 0.30305,-0.28536 92.718922,92.718922 0 0 0 0.30226,-0.28674 92.718922,92.718922 0 0 0 0.30082,-0.28822 92.718922,92.718922 0 0 0 0.29958,-0.28935 92.718922,92.718922 0 0 0 0.29811,-0.29086 92.718922,92.718922 0 0 0 0.29663,-0.29237 92.718922,92.718922 0 0 0 0.29539,-0.29348 92.718922,92.718922 0 0 0 0.29463,-0.29481 92.718922,92.718922 0 0 0 0.29271,-0.2961 92.718922,92.718922 0 0 0 0.29147,-0.29718 92.718922,92.718922 0 0 0 0.29042,-0.298947 92.718922,92.718922 0 0 0 0.28877,-0.29978 92.718922,92.718922 0 0 0 0.28726,-0.30136 92.718922,92.718922 0 0 0 0.28652,-0.30265 92.718922,92.718922 0 0 0 0.28458,-0.30392 92.718922,92.718922 0 0 0 0.28337,-0.30501 92.718922,92.718922 0 0 0 0.28233,-0.30681 92.718922,92.718922 0 0 0 0.28063,-0.30765 92.718922,92.718922 0 0 0 0.27949,-0.3087 92.718922,92.718922 0 0 0 0.27796,-0.31025 92.718922,92.718922 0 0 0 0.27605,-0.31152 92.718922,92.718922 0 0 0 0.27521,-0.31289 92.718922,92.718922 0 0 0 0.2736,-0.31368 92.718922,92.718922 0 0 0 0.27254,-0.31546 92.718922,92.718922 0 0 0 0.27087,-0.31635 92.718922,92.718922 0 0 0 0.26962,-0.31739 92.718922,92.718922 0 0 0 0.2677,-0.31869 92.718922,92.718922 0 0 0 0.26666,-0.320456 92.718922,92.718922 0 0 0 0.26527,-0.32085 92.718922,92.718922 0 0 0 0.26351,-0.32283 92.718922,92.718922 0 0 0 0.26213,-0.3232 92.718922,92.718922 0 0 0 0.26067,-0.32471 92.718922,92.718922 0 0 0 0.25945,-0.32579 92.718922,92.718922 0 0 0 0.25794,-0.32735 92.718922,92.718922 0 0 0 0.2563,-0.32814 92.718922,92.718922 0 0 0 0.25509,-0.32923 92.718922,92.718922 0 0 0 0.25309,-0.33054 92.718922,92.718922 0 0 0 0.25234,-0.33188 92.718922,92.718922 0 0 0 0.25024,-0.33243 92.718922,92.718922 0 0 0 0.24919,-0.33422 92.718922,92.718922 0 0 0 0.2471,-0.33478 92.718922,92.718922 0 0 0 0.24627,-0.33615 92.718922,92.718922 0 0 0 0.24436,-0.33744 92.718922,92.718922 0 0 0 0.24272,-0.33821 92.718922,92.718922 0 0 0 0.2415,-0.33929 92.718922,92.718922 0 0 0 0.2396,-0.34058 92.718922,92.718922 0 0 0 0.23836,-0.34167 92.718922,92.718922 0 0 0 0.23714,-0.34273 92.718922,92.718922 0 0 0 0.23543,-0.34359 92.718922,92.718922 0 0 0 0.23351,-0.34485 92.718922,92.718922 0 0 0 0.23211,-0.34522 92.718922,92.718922 0 0 0 0.23038,-0.34723 92.718922,92.718922 0 0 0 0.22935,-0.34786 92.718922,92.718922 0 0 0 0.22745,-0.34914 92.718922,92.718922 0 0 0 0.22604,-0.3495 92.718922,92.718922 0 0 0 0.22412,-0.3508 92.718922,92.718922 0 0 0 0.22258,-0.35232 92.718922,92.718922 0 0 0 0.22119,-0.35271 92.718922,92.718922 0 0 0 0.21976,-0.35423 92.718922,92.718922 0 0 0 0.21764,-0.35478 92.718922,92.718922 0 0 0 0.21687,-0.35562 92.718922,92.718922 0 0 0 0.21506,-0.35649 92.718922,92.718922 0 0 0 0.2135,-0.3578 92.718922,92.718922 0 0 0 0.21184,-0.35891 92.718922,92.718922 0 0 0 0.20991,-0.35958 92.718922,92.718922 0 0 0 0.20826,-0.36071 92.718922,92.718922 0 0 0 0.20646,-0.36159 92.718922,92.718922 0 0 0 0.20467,-0.36249 92.718922,92.718922 0 0 0 0.20397,-0.36328 92.718922,92.718922 0 0 0 0.20217,-0.36418 92.718922,92.718922 0 0 0 0.20051,-0.3653 92.718922,92.718922 0 0 0 0.19867,-0.36591 92.718922,92.718922 0 0 0 0.19676,-0.36719 92.718922,92.718922 0 0 0 0.19536,-0.36756 92.718922,92.718922 0 0 0 0.19342,-0.36884 92.718922,92.718922 0 0 0 0.19174,-0.36969 92.718922,92.718922 0 0 0 0.19079,-0.37027 92.718922,92.718922 0 0 0 0.1884,-0.37132 92.718922,92.718922 0 0 0 0.18719,-0.3724 92.718922,92.718922 0 0 0 0.18507,-0.37295 92.718922,92.718922 0 0 0 0.18337,-0.37381 92.718922,92.718922 0 0 0 0.18215,-0.374906 92.718922,92.718922 0 0 0 0.18005,-0.37545 92.718922,92.718922 0 0 0 0.17864,-0.37581 92.718922,92.718922 0 0 0 0.17711,-0.37737 92.718922,92.718922 0 0 0 0.17503,-0.37795 92.718922,92.718922 0 0 0 0.1734,-0.37875 92.718922,92.718922 0 0 0 0.1717,-0.37958 92.718922,92.718922 0 0 0 0.17027,-0.37993 92.718922,92.718922 0 0 0 0.16789,-0.38099 92.718922,92.718922 0 0 0 0.16697,-0.3816 92.718922,92.718922 0 0 0 0.16456,-0.38263 92.718922,92.718922 0 0 0 0.16316,-0.38298 92.718922,92.718922 0 0 0 0.16145,-0.38386 92.718922,92.718922 0 0 0 0.15984,-0.38464 92.718922,92.718922 0 0 0 0.15813,-0.38549 92.718922,92.718922 0 0 0 0.15602,-0.38604 92.718922,92.718922 0 0 0 0.15511,-0.38666 92.718922,92.718922 0 0 0 0.1527,-0.38769 92.718922,92.718922 0 0 0 0.15083,-0.38783 92.718922,92.718922 0 0 0 0.14959,-0.3889 92.718922,92.718922 0 0 0 0.14749,-0.38945 92.718922,92.718922 0 0 0 0.1458,-0.390335 92.718922,92.718922 0 0 0 0.14369,-0.390883 92.718922,92.718922 0 0 0 0.14228,-0.391237 92.718922,92.718922 0 0 0 0.14057,-0.392071 92.718922,92.718922 0 0 0 0.13896,-0.392889 92.718922,92.718922 0 0 0 0.13707,-0.393022 92.718922,92.718922 0 0 0 0.13516,-0.394295 92.718922,92.718922 0 0 0 0.13326,-0.394424 92.718922,92.718922 0 0 0 0.13187,-0.394797 92.718922,92.718922 0 0 0 0.12994,-0.396075 92.718922,92.718922 0 0 0 0.12815,-0.396146 92.718922,92.718922 0 0 0 0.12644,-0.396998 92.718922,92.718922 0 0 0 0.12454,-0.397126 92.718922,92.718922 0 0 0 0.12293,-0.397916 92.718922,92.718922 0 0 0 0.12076,-0.398566 92.718922,92.718922 0 0 0 0.11912,-0.399318 92.718922,92.718922 0 0 0 0.11765,-0.399764 92.718922,92.718922 0 0 0 0.11584,-0.399847 92.718922,92.718922 0 0 0 0.11346,-0.400856 92.718922,92.718922 0 0 0 0.1123,-0.400786 92.718922,92.718922 0 0 0 0.10993,-0.401796 92.718922,92.718922 0 0 0 0.0529,-0.19579 65.45743,65.45743 0 0 0 -0.10446,-0.181956 65.45743,65.45743 0 0 0 -89.41635,-23.958662 65.45743,65.45743 0 0 0 -23.95894,89.415904 65.45743,65.45743 0 0 0 0.10536,0.18145 z"
       style="display:inline;opacity:1;fill:#e5c1d9;fill-opacity:1;stroke-width:0.800309;stroke-linecap:square;paint-order:stroke fill markers"
       id="path967" />
    <path
       d="m 195.81906,34.309285 a 65.45743,65.45743 0 0 0 -0.10926,-0.05846 65.45743,65.45743 0 0 0 -0.30901,-0.164089 65.45743,65.45743 0 0 0 -0.30979,-0.162453 65.45743,65.45743 0 0 0 -0.31136,-0.160947 65.45743,65.45743 0 0 0 -0.31143,-0.159132 65.45743,65.45743 0 0 0 -0.31251,-0.157919 65.45743,65.45743 0 0 0 -0.31314,-0.155731 65.45743,65.45743 0 0 0 -0.31392,-0.154109 65.45743,65.45743 0 0 0 -0.31501,-0.152889 65.45743,65.45743 0 0 0 -0.31604,-0.15048 65.45743,65.45743 0 0 0 -0.31641,-0.14908 65.45743,65.45743 0 0 0 -0.31751,-0.147861 65.45743,65.45743 0 0 0 -0.31806,-0.145752 65.45743,65.45743 0 0 0 -0.3189,-0.14405 65.45743,65.45743 0 0 0 -0.3197,-0.14243 65.45743,65.45743 0 0 0 -0.32025,-0.140328 65.45743,65.45743 0 0 0 -0.3214,-0.139029 65.45743,65.45743 0 0 0 -0.32177,-0.137614 65.45743,65.45743 0 0 0 -0.32273,-0.135298 65.45743,65.45743 0 0 0 -0.32312,-0.133893 65.45743,65.45743 0 0 0 -0.32439,-0.131986 65.45743,65.45743 0 0 0 -0.32452,-0.130082 65.45743,65.45743 0 0 0 -0.32561,-0.128877 65.45743,65.45743 0 0 0 -0.32616,-0.12676 65.45743,65.45743 0 0 0 -0.32654,-0.12537 65.45743,65.45743 0 0 0 -0.32758,-0.122953 65.45743,65.45743 0 0 0 -0.32823,-0.121959 65.45743,65.45743 0 0 0 -0.3288,-0.119852 65.45743,65.45743 0 0 0 -0.32933,-0.117747 65.45743,65.45743 0 0 0 -0.33044,-0.11653 65.45743,65.45743 0 0 0 -0.33028,-0.114242 65.45743,65.45743 0 0 0 -0.33136,-0.113028 65.45743,65.45743 0 0 0 -0.33191,-0.110912 65.45743,65.45743 0 0 0 -0.33234,-0.109437 65.45743,65.45743 0 0 0 -0.33291,-0.107324 65.45743,65.45743 0 0 0 -0.33369,-0.105717 65.45743,65.45743 0 0 0 -0.33426,-0.103609 65.45743,65.45743 0 0 0 -0.33468,-0.102121 65.45743,65.45743 0 0 0 -0.33549,-0.100503 65.45743,65.45743 0 0 0 -0.3356,-0.09862 65.45743,65.45743 0 0 0 -0.33616,-0.09652 65.45743,65.45743 0 0 0 -0.33702,-0.0948 65.45743,65.45743 0 0 0 -0.33738,-0.09341 65.45743,65.45743 0 0 0 -0.33795,-0.0913 65.45743,65.45743 0 0 0 -0.33807,-0.08942 65.45743,65.45743 0 0 0 -0.33889,-0.08781 65.45743,65.45743 0 0 0 -0.33943,-0.08569 65.45743,65.45743 0 0 0 -0.33938,-0.08452 65.45743,65.45743 0 0 0 -0.34013,-0.08171 65.45743,65.45743 0 0 0 -0.34076,-0.08073 65.45743,65.45743 0 0 0 -0.34065,-0.07842 65.45743,65.45743 0 0 0 -0.34148,-0.07674 65.45743,65.45743 0 0 0 -0.34229,-0.07507 65.45743,65.45743 0 0 0 -0.34197,-0.07346 65.45743,65.45743 0 0 0 -0.34226,-0.07091 65.45743,65.45743 0 0 0 -0.34336,-0.06969 65.45743,65.45743 0 0 0 -0.34323,-0.06737 65.45743,65.45743 0 0 0 -0.3436,-0.06597 65.45743,65.45743 0 0 0 -0.34418,-0.06384 65.45743,65.45743 0 0 0 -0.34453,-0.06244 65.45743,65.45743 0 0 0 -0.3444,-0.06013 65.45743,65.45743 0 0 0 -0.34524,-0.05845 65.45743,65.45743 0 0 0 -0.34536,-0.0566 65.45743,65.45743 0 0 0 -0.34546,-0.05475 65.45743,65.45743 0 0 0 -0.34604,-0.05262 65.45743,65.45743 0 0 0 -0.34642,-0.05121 65.45743,65.45743 0 0 0 -0.34627,-0.0489 65.45743,65.45743 0 0 0 -0.34668,-0.04748 65.45743,65.45743 0 0 0 -0.3472,-0.04539 65.45743,65.45743 0 0 0 -0.34691,-0.04377 65.45743,65.45743 0 0 0 -0.34747,-0.04165 65.45743,65.45743 0 0 0 -0.34784,-0.04024 65.45743,65.45743 0 0 0 -0.34771,-0.03794 65.45743,65.45743 0 0 0 -0.34826,-0.03582 65.45743,65.45743 0 0 0 -0.34819,-0.03468 65.45743,65.45743 0 0 0 -0.34852,-0.0321 65.45743,65.45743 0 0 0 -0.34846,-0.03093 65.45743,65.45743 0 0 0 -0.34899,-0.02884 65.45743,65.45743 0 0 0 -0.34887,-0.02653 65.45743,65.45743 0 0 0 -0.34881,-0.02536 65.45743,65.45743 0 0 0 -0.34937,-0.02325 65.45743,65.45743 0 0 0 -0.34923,-0.02094 65.45743,65.45743 0 0 0 -0.34961,-0.01954 65.45743,65.45743 0 0 0 -0.34948,-0.01722 65.45743,65.45743 0 0 0 -0.34942,-0.01607 65.45743,65.45743 0 0 0 -0.34969,-0.01351 65.45743,65.45743 0 0 0 -0.35009,-0.0121 65.45743,65.45743 0 0 0 -0.34949,-0.01005 65.45743,65.45743 0 0 0 -0.34963,-0.0082 65.45743,65.45743 0 0 0 -0.3502,-0.0061 65.45743,65.45743 0 0 0 -0.34985,-0.0045 65.45743,65.45743 0 0 0 -0.35,-0.0026 65.45743,65.45743 0 0 0 -0.34964,-0.001 65.45743,65.45743 0 0 0 -0.35024,0.0011 65.45743,65.45743 0 0 0 -0.34964,0.0032 65.45743,65.45743 0 0 0 -0.35045,0.0048 65.45743,65.45743 0 0 0 -0.34988,0.0069 65.45743,65.45743 0 0 0 -0.34956,0.0085 65.45743,65.45743 0 0 0 -0.35012,0.01059 65.45743,65.45743 0 0 0 -0.34953,0.01265 65.45743,65.45743 0 0 0 -0.34946,0.0138 65.45743,65.45743 0 0 0 -0.34977,0.01636 65.45743,65.45743 0 0 0 -0.34943,0.01796 65.45743,65.45743 0 0 0 -0.34956,0.01982 65.45743,65.45743 0 0 0 -0.34897,0.02187 65.45743,65.45743 0 0 0 -0.34911,0.02374 65.45743,65.45743 0 0 0 -0.34921,0.02559 65.45743,65.45743 0 0 0 -0.3489,0.0272 65.45743,65.45743 0 0 0 -0.34855,0.02879 65.45743,65.45743 0 0 0 -0.34888,0.03136 65.45743,65.45743 0 0 0 -0.34811,0.03271 65.45743,65.45743 0 0 0 -0.34794,0.03499 65.45743,65.45743 0 0 0 -0.34834,0.03643 65.45743,65.45743 0 0 0 -0.34775,0.03847 65.45743,65.45743 0 0 0 -0.34761,0.04077 65.45743,65.45743 0 0 0 -0.34754,0.04193 65.45743,65.45743 0 0 0 -0.34694,0.04397 65.45743,65.45743 0 0 0 -0.34683,0.0463 65.45743,65.45743 0 0 0 -0.34674,0.04743 65.45743,65.45743 0 0 0 -0.34662,0.04975 65.45743,65.45743 0 0 0 -0.34603,0.0518 65.45743,65.45743 0 0 0 -0.34594,0.05294 65.45743,65.45743 0 0 0 -0.34581,0.05525 65.45743,65.45743 0 0 0 -0.3448,0.05705 65.45743,65.45743 0 0 0 -0.34489,0.0589 65.45743,65.45743 0 0 0 -0.34502,0.06076 65.45743,65.45743 0 0 0 -0.344,0.06256 65.45743,65.45743 0 0 0 -0.34409,0.06441 65.45743,65.45743 0 0 0 -0.34353,0.06646 65.45743,65.45743 0 0 0 -0.3432,0.06807 65.45743,65.45743 0 0 0 -0.34287,0.06966 65.45743,65.45743 0 0 0 -0.34272,0.07197 65.45743,65.45743 0 0 0 -0.34196,0.07331 65.45743,65.45743 0 0 0 -0.34181,0.07561 65.45743,65.45743 0 0 0 -0.34149,0.07722 65.45743,65.45743 0 0 0 -0.34089,0.07927 65.45743,65.45743 0 0 0 -0.34014,0.08062 65.45743,65.45743 0 0 0 -0.34024,0.08247 65.45743,65.45743 0 0 0 -0.33967,0.08453 65.45743,65.45743 0 0 0 -0.33906,0.08656 65.45743,65.45743 0 0 0 -0.33875,0.08817 65.45743,65.45743 0 0 0 -0.33841,0.08976 65.45743,65.45743 0 0 0 -0.3374,0.09156 65.45743,65.45743 0 0 0 -0.33724,0.09387 65.45743,65.45743 0 0 0 -0.33692,0.09547 65.45743,65.45743 0 0 0 -0.33588,0.09726 65.45743,65.45743 0 0 0 -0.33557,0.09886 65.45743,65.45743 0 0 0 -0.33523,0.100451 65.45743,65.45743 0 0 0 -0.33465,0.102509 65.45743,65.45743 0 0 0 -0.33406,0.104556 65.45743,65.45743 0 0 0 -0.33374,0.106164 65.45743,65.45743 0 0 0 -0.33268,0.107941 65.45743,65.45743 0 0 0 -0.33236,0.109549 65.45743,65.45743 0 0 0 -0.33179,0.111593 65.45743,65.45743 0 0 0 -0.33102,0.112945 65.45743,65.45743 0 0 0 -0.33041,0.114977 65.45743,65.45743 0 0 0 -0.32984,0.117041 65.45743,65.45743 0 0 0 -0.32951,0.118638 65.45743,65.45743 0 0 0 -0.32876,0.119995 65.45743,65.45743 0 0 0 -0.32767,0.121763 65.45743,65.45743 0 0 0 -0.32758,0.124081 65.45743,65.45743 0 0 0 -0.32678,0.125414 65.45743,65.45743 0 0 0 -0.32574,0.127202 65.45743,65.45743 0 0 0 -0.32517,0.12926 65.45743,65.45743 0 0 0 -0.32485,0.130872 65.45743,65.45743 0 0 0 -0.32405,0.132194 65.45743,65.45743 0 0 0 -0.32278,0.134443 65.45743,65.45743 0 0 0 -0.32271,0.135599 65.45743,65.45743 0 0 0 -0.32141,0.137834 65.45743,65.45743 0 0 0 -0.32107,0.139421 65.45743,65.45743 0 0 0 -0.32032,0.140783 65.45743,65.45743 0 0 0 -0.31972,0.142826 65.45743,65.45743 0 0 0 -0.31869,0.14461 65.45743,65.45743 0 0 0 -0.31765,0.146397 65.45743,65.45743 0 0 0 -0.31734,0.14801 65.45743,65.45743 0 0 0 -0.31654,0.149337 65.45743,65.45743 0 0 0 -0.31527,0.151596 65.45743,65.45743 0 0 0 -0.31473,0.152472 65.45743,65.45743 0 0 0 -0.31389,0.154966 65.45743,65.45743 0 0 0 -0.31315,0.156329 65.45743,65.45743 0 0 0 -0.31209,0.158107 65.45743,65.45743 0 0 0 -0.31175,0.159699 65.45743,65.45743 0 0 0 -0.31028,0.161241 65.45743,65.45743 0 0 0 -0.30996,0.162849 65.45743,65.45743 0 0 0 -0.30893,0.164642 65.45743,65.45743 0 0 0 -0.30743,0.166183 65.45743,65.45743 0 0 0 -0.30713,0.167737 65.45743,65.45743 0 0 0 -0.30652,0.169811 65.45743,65.45743 0 0 0 -0.30502,0.171369 65.45743,65.45743 0 0 0 -0.30428,0.172673 65.45743,65.45743 0 0 0 -0.24775,0.142439 65.45743,65.45743 0 0 0 -0.30247,0.175786 65.45743,65.45743 0 0 0 -0.30168,0.177182 65.45743,65.45743 0 0 0 -0.30063,0.178995 65.45743,65.45743 0 0 0 -0.29962,0.180723 65.45743,65.45743 0 0 0 -0.29884,0.182118 65.45743,65.45743 0 0 0 -0.29781,0.183871 65.45743,65.45743 0 0 0 -0.29677,0.185658 65.45743,65.45743 0 0 0 -0.29558,0.186756 65.45743,65.45743 0 0 0 -0.29495,0.188789 65.45743,65.45743 0 0 0 -0.29374,0.189881 65.45743,65.45743 0 0 0 -0.29271,0.191674 65.45743,65.45743 0 0 0 -0.2917,0.193473 65.45743,65.45743 0 0 0 -0.29091,0.1948 65.45743,65.45743 0 0 0 -0.28941,0.196328 65.45743,65.45743 0 0 0 -0.28865,0.19768 65.45743,65.45743 0 0 0 -0.2876,0.199462 65.45743,65.45743 0 0 0 -0.28659,0.201271 65.45743,65.45743 0 0 0 -0.28536,0.202353 65.45743,65.45743 0 0 0 -0.28432,0.204126 65.45743,65.45743 0 0 0 -0.28329,0.205925 65.45743,65.45743 0 0 0 -0.28208,0.207012 65.45743,65.45743 0 0 0 -0.28084,0.208089 65.45743,65.45743 0 0 0 -0.27999,0.210587 65.45743,65.45743 0 0 0 -0.27904,0.211229 65.45743,65.45743 0 0 0 -0.27731,0.213214 65.45743,65.45743 0 0 0 -0.27651,0.214536 65.45743,65.45743 0 0 0 -0.2753,0.215628 65.45743,65.45743 0 0 0 -0.274,0.217871 65.45743,65.45743 0 0 0 -0.27307,0.218518 65.45743,65.45743 0 0 0 -0.27173,0.220741 65.45743,65.45743 0 0 0 -0.27054,0.22183 65.45743,65.45743 0 0 0 -0.26975,0.223162 65.45743,65.45743 0 0 0 -0.26827,0.2247 65.45743,65.45743 0 0 0 -0.2668,0.226238 65.45743,65.45743 0 0 0 -0.26602,0.22758 65.45743,65.45743 0 0 0 -0.26453,0.229112 65.45743,65.45743 0 0 0 -0.26331,0.230195 65.45743,65.45743 0 0 0 -0.26227,0.231969 65.45743,65.45743 0 0 0 -0.26108,0.233077 65.45743,65.45743 0 0 0 -0.25956,0.234588 65.45743,65.45743 0 0 0 -0.25854,0.236392 65.45743,65.45743 0 0 0 -0.25687,0.237219 65.45743,65.45743 0 0 0 -0.25609,0.238556 65.45743,65.45743 0 0 0 -0.25436,0.240536 65.45743,65.45743 0 0 0 -0.25339,0.241176 65.45743,65.45743 0 0 0 -0.25191,0.242701 65.45743,65.45743 0 0 0 -0.25089,0.244511 65.45743,65.45743 0 0 0 -0.2492,0.245316 65.45743,65.45743 0 0 0 -0.24818,0.247118 65.45743,65.45743 0 0 0 -0.2465,0.247935 65.45743,65.45743 0 0 0 -0.24573,0.249283 65.45743,65.45743 0 0 0 -0.24424,0.250801 65.45743,65.45743 0 0 0 -0.24232,0.252085 65.45743,65.45743 0 0 0 -0.24155,0.253418 65.45743,65.45743 0 0 0 -0.24008,0.254961 65.45743,65.45743 0 0 0 -0.23838,0.255775 65.45743,65.45743 0 0 0 -0.23763,0.257131 65.45743,65.45743 0 0 0 -0.23569,0.258401 65.45743,65.45743 0 0 0 -0.23447,0.259481 65.45743,65.45743 0 0 0 -0.23343,0.261278 65.45743,65.45743 0 0 0 -0.23176,0.262103 65.45743,65.45743 0 0 0 -0.23028,0.263626 65.45743,65.45743 0 0 0 -0.22862,0.264461 65.45743,65.45743 0 0 0 -0.22756,0.266242 65.45743,65.45743 0 0 0 -0.22592,0.267081 65.45743,65.45743 0 0 0 -0.22469,0.26816 65.45743,65.45743 0 0 0 -0.2232,0.269678 65.45743,65.45743 0 0 0 -0.22199,0.270781 65.45743,65.45743 0 0 0 -0.22031,0.271599 65.45743,65.45743 0 0 0 -0.21882,0.273131 65.45743,65.45743 0 0 0 -0.2176,0.274217 65.45743,65.45743 0 0 0 -0.21568,0.275494 65.45743,65.45743 0 0 0 -0.21446,0.276568 65.45743,65.45743 0 0 0 -0.21324,0.277669 65.45743,65.45743 0 0 0 -0.21129,0.278922 65.45743,65.45743 0 0 0 -0.21008,0.280011 65.45743,65.45743 0 0 0 -0.20841,0.280841 65.45743,65.45743 0 0 0 -0.20695,0.282389 65.45743,65.45743 0 0 0 -0.20525,0.283191 65.45743,65.45743 0 0 0 -0.20404,0.284288 65.45743,65.45743 0 0 0 -0.20282,0.285358 65.45743,65.45743 0 0 0 -0.20045,0.286392 65.45743,65.45743 0 0 0 -0.19965,0.287717 65.45743,65.45743 0 0 0 -0.19774,0.289004 65.45743,65.45743 0 0 0 -0.19631,0.289369 65.45743,65.45743 0 0 0 -0.19484,0.290908 65.45743,65.45743 0 0 0 -0.19318,0.291733 65.45743,65.45743 0 0 0 -0.19125,0.293007 65.45743,65.45743 0 0 0 -0.19027,0.293642 65.45743,65.45743 0 0 0 -0.18835,0.294922 65.45743,65.45743 0 0 0 -0.18669,0.295746 65.45743,65.45743 0 0 0 -0.18546,0.296832 65.45743,65.45743 0 0 0 -0.18353,0.298081 65.45743,65.45743 0 0 0 -0.18253,0.298759 65.45743,65.45743 0 0 0 -0.18022,0.29975 65.45743,65.45743 0 0 0 -0.179,0.300828 65.45743,65.45743 0 0 0 -0.17728,0.301662 65.45743,65.45743 0 0 0 -0.17562,0.302494 65.45743,65.45743 0 0 0 -0.17413,0.304011 65.45743,65.45743 0 0 0 -0.17226,0.304161 65.45743,65.45743 0 0 0 -0.17083,0.305675 65.45743,65.45743 0 0 0 -0.16941,0.306032 65.45743,65.45743 0 0 0 -0.16749,0.307298 65.45743,65.45743 0 0 0 -0.16579,0.308143 65.45743,65.45743 0 0 0 -0.16457,0.309239 65.45743,65.45743 0 0 0 -0.16246,0.309799 65.45743,65.45743 0 0 0 -0.16078,0.310631 65.45743,65.45743 0 0 0 -0.15956,0.311701 65.45743,65.45743 0 0 0 -0.15745,0.31228 65.45743,65.45743 0 0 0 -0.15578,0.313111 65.45743,65.45743 0 0 0 -0.15428,0.31463 65.45743,65.45743 0 0 0 -0.15244,0.314757 65.45743,65.45743 0 0 0 -0.1512,0.31584 65.45743,65.45743 0 0 0 -0.14911,0.316411 65.45743,65.45743 0 0 0 -0.14741,0.317231 65.45743,65.45743 0 0 0 -0.14575,0.318059 65.45743,65.45743 0 0 0 -0.14408,0.31888 65.45743,65.45743 0 0 0 -0.14243,0.319719 65.45743,65.45743 0 0 0 -0.14074,0.320539 65.45743,65.45743 0 0 0 -0.13907,0.321364 65.45743,65.45743 0 0 0 -0.13693,0.32192 65.45743,65.45743 0 0 0 -0.13554,0.322308 65.45743,65.45743 0 0 0 -0.13364,0.323591 65.45743,65.45743 0 0 0 -0.13219,0.323959 65.45743,65.45743 0 0 0 -0.13053,0.324776 65.45743,65.45743 0 0 0 -0.12842,0.32536 65.45743,65.45743 0 0 0 -0.12672,0.32618 65.45743,65.45743 0 0 0 -0.12509,0.32701 65.45743,65.45743 0 0 0 -0.12364,0.32737 65.45743,65.45743 0 0 0 -0.12129,0.3284 65.45743,65.45743 0 0 0 -0.11985,0.32878 65.45743,65.45743 0 0 0 -0.11822,0.32961 65.45743,65.45743 0 0 0 -0.11634,0.32972 65.45743,65.45743 0 0 0 -0.11467,0.33054 65.45743,65.45743 0 0 0 -0.11257,0.33113 65.45743,65.45743 0 0 0 -0.11131,0.33219 65.45743,65.45743 0 0 0 -0.10878,0.33251 65.45743,65.45743 0 0 0 -0.10779,0.33313 65.45743,65.45743 0 0 0 -0.10571,0.33373 65.45743,65.45743 0 0 0 -0.10382,0.33383 65.45743,65.45743 0 0 0 -0.10216,0.33466 65.45743,65.45743 0 0 0 -0.10001,0.33521 65.45743,65.45743 0 0 0 -0.0984,0.33607 65.45743,65.45743 0 0 0 -0.0969,0.33642 65.45743,65.45743 0 0 0 -0.0951,0.33655 65.45743,65.45743 0 0 0 -0.0927,0.33757 65.45743,65.45743 0 0 0 -0.0916,0.3375 65.45743,65.45743 0 0 0 -0.0896,0.33876 65.45743,65.45743 0 0 0 -0.0873,0.33863 65.45743,65.45743 0 0 0 -0.0859,0.339015 65.45743,65.45743 0 0 0 -0.0842,0.33983 65.45743,65.45743 0 0 0 -0.0824,0.33995 65.45743,65.45743 0 0 0 -0.0803,0.34051 65.45743,65.45743 0 0 0 -0.0786,0.34136 65.45743,65.45743 0 0 0 -0.0768,0.34147 65.45743,65.45743 0 0 0 -0.0749,0.34159 65.45743,65.45743 0 0 0 -0.0732,0.34241 65.45743,65.45743 0 0 0 -0.0714,0.34254 65.45743,65.45743 0 0 0 -0.0692,0.3431 65.45743,65.45743 0 0 0 -0.0681,0.34303 65.45743,65.45743 0 0 0 -0.0657,0.34404 65.45743,65.45743 0 0 0 -0.0638,0.34417 65.45743,65.45743 0 0 0 -0.062,0.34429 65.45743,65.45743 0 0 0 -0.0606,0.34466 65.45743,65.45743 0 0 0 -0.058,0.34497 65.45743,65.45743 0 0 0 -0.0566,0.34535 65.45743,65.45743 0 0 0 -0.0547,0.34547 65.45743,65.45743 0 0 0 -0.0531,0.3463 65.45743,65.45743 0 0 0 -0.051,0.34572 65.45743,65.45743 0 0 0 -0.0494,0.34654 65.45743,65.45743 0 0 0 -0.0472,0.34709 65.45743,65.45743 0 0 0 -0.0456,0.34679 65.45743,65.45743 0 0 0 -0.0435,0.34734 65.45743,65.45743 0 0 0 -0.0417,0.34746 65.45743,65.45743 0 0 0 -0.0398,0.34759 65.45743,65.45743 0 0 0 -0.0384,0.34797 65.45743,65.45743 0 0 0 -0.0361,0.34782 65.45743,65.45743 0 0 0 -0.034,0.34839 65.45743,65.45743 0 0 0 -0.0328,0.34833 65.45743,65.45743 0 0 0 -0.0307,0.34888 65.45743,65.45743 0 0 0 -0.0287,0.34832 65.45743,65.45743 0 0 0 -0.0269,0.34912 65.45743,65.45743 0 0 0 -0.0247,0.349 65.45743,65.45743 0 0 0 -0.0232,0.34937 65.45743,65.45743 0 0 0 -0.0214,0.34949 65.45743,65.45743 0 0 0 -0.0193,0.34889 65.45743,65.45743 0 0 0 -0.0177,0.34974 65.45743,65.45743 0 0 0 -0.0154,0.34959 65.45743,65.45743 0 0 0 -0.0142,0.34952 65.45743,65.45743 0 0 0 -0.0116,0.34982 65.45743,65.45743 0 0 0 -0.002,0.0596 92.718922,92.718922 0 0 0 57.48974,-11.7514 92.718922,92.718922 0 0 0 38.92142,-43.911606 z"
       style="display:inline;opacity:1;fill:#ecd1e2;fill-opacity:1;stroke-width:1.13362;stroke-linecap:square;paint-order:stroke fill markers"
       id="path40-1-4-6-9-0-0" />
    <rect
       style="font-variation-settings:normal;display:inline;opacity:1;vector-effect:none;fill:#b2d4ea;fill-opacity:0.546468;fill-rule:evenodd;stroke:none;stroke-width:0.11551;stroke-linecap:round;stroke-linejoin:round;stroke-miterlimit:4;stroke-dasharray:none;stroke-dashoffset:0;stroke-opacity:1;paint-order:markers stroke fill;stop-color:#000000;stop-opacity:1"
       id="rect1015-0"
       width="3.0561953"
       height="3.0561953"
       x="-5.5371356"
       y="16.913502"
       ry="0.52668977"
       transform="rotate(-45)" />
    <rect
       style="font-variation-settings:normal;display:inline;opacity:1;vector-effect:none;fill:#b2d4ea;fill-opacity:0.546468;fill-rule:evenodd;stroke:none;stroke-width:0.11551;stroke-linecap:round;stroke-linejoin:round;stroke-miterlimit:4;stroke-dasharray:none;stroke-dashoffset:0;stroke-opacity:1;paint-order:markers stroke fill;stop-color:#000000;stop-opacity:1"
       id="rect1015-6"
       width="3.0561953"
       height="3.0561953"
       x="47.271519"
       y="68.333435"
       ry="0.52668977"
       transform="rotate(-45)" />
    <rect
       style="font-variation-settings:normal;display:inline;opacity:1;vector-effect:none;fill:#b2d4ea;fill-opacity:0.546468;fill-rule:evenodd;stroke:none;stroke-width:0.11551;stroke-linecap:round;stroke-linejoin:round;stroke-miterlimit:4;stroke-dasharray:none;stroke-dashoffset:0;stroke-opacity:1;paint-order:markers stroke fill;stop-color:#000000;stop-opacity:1"
       id="rect1015-48"
       width="3.0561953"
       height="3.0561953"
       x="-26.422152"
       y="90.31765"
       ry="0.52668977"
       transform="rotate(-45)" />
    <rect
       style="font-variation-settings:normal;display:inline;opacity:1;vector-effect:none;fill:#b2d4ea;fill-opacity:0.546468;fill-rule:evenodd;stroke:none;stroke-width:0.11551;stroke-linecap:round;stroke-linejoin:round;stroke-miterlimit:4;stroke-dasharray:none;stroke-dashoffset:0;stroke-opacity:1;paint-order:markers stroke fill;stop-color:#000000;stop-opacity:1"
       id="rect1015-7"
       width="3.0561953"
       height="3.0561953"
       x="-67.810921"
       y="115.53595"
       ry="0.52668977"
       transform="rotate(-45)" />
    <rect
       style="font-variation-settings:normal;display:inline;opacity:1;vector-effect:none;fill:#b2d4ea;fill-opacity:0.546468;fill-rule:evenodd;stroke:none;stroke-width:0.11551;stroke-linecap:round;stroke-linejoin:round;stroke-miterlimit:4;stroke-dasharray:none;stroke-dashoffset:0;stroke-opacity:1;paint-order:markers stroke fill;stop-color:#000000;stop-opacity:1"
       id="rect1015-1"
       width="3.0561953"
       height="3.0561953"
       x="-18.938601"
       y="43.202236"
       ry="0.52668977"
       transform="rotate(-45)" />
    <rect
       style="font-variation-settings:normal;display:inline;opacity:1;vector-effect:none;fill:#b2d4ea;fill-opacity:0.546468;fill-rule:evenodd;stroke:none;stroke-width:0.11551;stroke-linecap:round;stroke-linejoin:round;stroke-miterlimit:4;stroke-dasharray:none;stroke-dashoffset:0;stroke-opacity:1;paint-order:markers stroke fill;stop-color:#000000;stop-opacity:1"
       id="rect1015-481"
       width="3.0561953"
       height="3.0561953"
       x="13.692735"
       y="89.898628"
       ry="0.52668977"
       transform="rotate(-45)" />
    <circle
       style="display:inline;fill:#eccfe7;fill-opacity:1;stroke:none;stroke-width:5.06825;stroke-linecap:square;paint-order:stroke fill markers"
       id="path1013-3"
       cx="665.54852"
       cy="365.2601"
       r="92.719147" />
    <path
       style="display:inline;opacity:0.988;fill:#bccfe7;fill-opacity:1;stroke-width:0.800309;stroke-linecap:square;paint-order:stroke fill markers"
       d="m 889.18254,207.08353 a 65.45743,65.45743 0 0 0 -65.45743,-65.45744 65.45743,65.45743 0 0 0 -65.45744,65.45744 65.45743,65.45743 0 0 0 65.45744,65.45742 65.45743,65.45743 0 0 0 65.45743,-65.45742"
       id="path40-1-4-6-9-9" />
    <path
       style="display:inline;opacity:0.988;fill:#d1f3f6;fill-opacity:1;stroke-width:0.239653;stroke-linecap:square;paint-order:stroke fill markers"
       d="M 70.647595,13.034674 A 19.601262,19.601262 0 0 0 63.473047,-13.74115 19.601262,19.601262 0 0 0 36.697219,-6.5665901 19.601262,19.601262 0 0 0 43.871787,20.209226 19.601262,19.601262 0 0 0 70.647595,13.034674"
       id="path40-1-4-6-9-9-5-2-2-5" />
    <path
       d="m 58.038744,-15.875 a 19.601262,19.601262 0 0 0 -21.341324,9.3080599 19.601262,19.601262 0 0 0 2.609392,23.1366001 38.878049,38.878049 0 0 1 0.0027,-0.126715 38.878049,38.878049 0 0 1 0.0072,-0.269749 38.878049,38.878049 0 0 1 0.0095,-0.269613 38.878049,38.878049 0 0 1 0.01106,-0.269294 38.878049,38.878049 0 0 1 0.01339,-0.269144 38.878049,38.878049 0 0 1 0.01477,-0.269535 38.878049,38.878049 0 0 1 0.01684,-0.268936 38.878049,38.878049 0 0 1 0.01871,-0.269054 38.878049,38.878049 0 0 1 0.02054,-0.269194 38.878049,38.878049 0 0 1 0.02217,-0.268849 38.878049,38.878049 0 0 1 0.02421,-0.268258 38.878049,38.878049 0 0 1 0.02632,-0.268842 38.878049,38.878049 0 0 1 0.02768,-0.268056 38.878049,38.878049 0 0 1 0.02998,-0.267928 38.878049,38.878049 0 0 1 0.03182,-0.268049 38.878049,38.878049 0 0 1 0.03343,-0.267715 38.878049,38.878049 0 0 1 0.0355,-0.267119 38.878049,38.878049 0 0 1 0.03734,-0.26725 38.878049,38.878049 0 0 1 0.03893,-0.26692 38.878049,38.878049 0 0 1 0.041,-0.26634 38.878049,38.878049 0 0 1 0.04285,-0.26645 38.878049,38.878049 0 0 1 0.04489,-0.26588 38.878049,38.878049 0 0 1 0.0465,-0.26553 38.878049,38.878049 0 0 1 0.04811,-0.265211 38.878049,38.878049 0 0 1 0.05039,-0.26508 38.878049,38.878049 0 0 1 0.052,-0.2647497 38.878049,38.878049 0 0 1 0.05361,-0.26442 38.878049,38.878049 0 0 1 0.05566,-0.26383 38.878049,38.878049 0 0 1 0.0577,-0.26325 38.878049,38.878049 0 0 1 0.05931,-0.26292 38.878049,38.878049 0 0 1 0.06117,-0.26303 38.878049,38.878049 0 0 1 0.06297,-0.26201 38.878049,38.878049 0 0 1 0.06479,-0.26214 38.878049,38.878049 0 0 1 0.06663,-0.26108 38.878049,38.878049 0 0 1 0.06819,-0.26077 38.878049,38.878049 0 0 1 0.07052,-0.26063 38.878049,38.878049 0 0 1 0.07187,-0.25983 38.878049,38.878049 0 0 1 0.0739,-0.25927 38.878049,38.878049 0 0 1 0.0755,-0.25895 38.878049,38.878049 0 0 1 0.07755,-0.25835 38.878049,38.878049 0 0 1 0.07916,-0.25802 38.878049,38.878049 0 0 1 0.08095,-0.25699 38.878049,38.878049 0 0 1 0.08299,-0.25641 38.878049,38.878049 0 0 1 0.0846,-0.25607 38.878049,38.878049 0 0 1 0.08619,-0.25575 38.878049,38.878049 0 0 1 0.08826,-0.2551597 38.878049,38.878049 0 0 1 0.09002,-0.25414 38.878049,38.878049 0 0 1 0.09138,-0.25335 38.878049,38.878049 0 0 1 0.0937,-0.25321 38.878049,38.878049 0 0 1 0.09501,-0.25245 38.878049,38.878049 0 0 1 0.09682,-0.2514 38.878049,38.878049 0 0 1 0.09842,-0.25108 38.878049,38.878049 0 0 1 0.100476,-0.25049 38.878049,38.878049 0 0 1 0.102241,-0.24948 38.878049,38.878049 0 0 1 0.103868,-0.24912 38.878049,38.878049 0 0 1 0.105638,-0.2481 38.878049,38.878049 0 0 1 0.107011,-0.24732 38.878049,38.878049 0 0 1 0.109028,-0.24674 38.878049,38.878049 0 0 1 0.111081,-0.24616 38.878049,38.878049 0 0 1 0.112172,-0.24493 38.878049,38.878049 0 0 1 0.114216,-0.24433997 38.878049,38.878049 0 0 1 0.115567,-0.24356 38.878049,38.878049 0 0 1 0.117616,-0.24299 38.878049,38.878049 0 0 1 0.119401,-0.24194 38.878049,38.878049 0 0 1 0.120736,-0.24118 38.878049,38.878049 0 0 1 0.122542,-0.24014 38.878049,38.878049 0 0 1 0.123871,-0.2393597 38.878049,38.878049 0 0 1 0.126388,-0.23851 38.878049,38.878049 0 0 1 0.126998,-0.23757003 38.878049,38.878049 0 0 1 0.129504,-0.23671 38.878049,38.878049 0 0 1 0.130807,-0.23596 38.878049,38.878049 0 0 1 0.132189,-0.23516 38.878049,38.878049 0 0 1 0.134011,-0.23411 38.878049,38.878049 0 0 1 0.05934,-0.10183 38.878049,38.878049 0 0 1 0.136262,-0.23281 38.878049,38.878049 0 0 1 0.137992,-0.23182 38.878049,38.878049 0 0 1 0.139556,-0.2303 38.878049,38.878049 0 0 1 0.141194,-0.22997 38.878049,38.878049 0 0 1 0.142931,-0.22896 38.878049,38.878049 0 0 1 0.144013,-0.22774 38.878049,38.878049 0 0 1 0.145823,-0.2267 38.878049,38.878049 0 0 1 0.147842,-0.22612 38.878049,38.878049 0 0 1 0.14868,-0.22445 38.878049,38.878049 0 0 1 0.150727,-0.2238499 38.878049,38.878049 0 0 1 0.15251,-0.22284 38.878049,38.878049 0 0 1 0.15361,-0.22161 38.878049,38.878049 0 0 1 0.155136,-0.22012 38.878049,38.878049 0 0 1 0.156744,-0.21979 38.878049,38.878049 0 0 1 0.158272,-0.21831 38.878049,38.878049 0 0 1 0.160039,-0.2173 38.878049,38.878049 0 0 1 0.161154,-0.21605 38.878049,38.878049 0 0 1 0.162925,-0.21502 38.878049,38.878049 0 0 1 0.164016,-0.2138101 38.878049,38.878049 0 0 1 0.165825,-0.21276 38.878049,38.878049 0 0 1 0.167583,-0.21174 38.878049,38.878049 0 0 1 0.168427,-0.21006 38.878049,38.878049 0 0 1 0.170036,-0.20974 38.878049,38.878049 0 0 1 0.171737,-0.20755 38.878049,38.878049 0 0 1 0.173345,-0.20723 38.878049,38.878049 0 0 1 0.174161,-0.20556 38.878049,38.878049 0 0 1 0.175973,-0.20451 38.878049,38.878049 0 0 1 0.177039,-0.2033 38.878049,38.878049 0 0 1 0.178576,-0.20181 38.878049,38.878049 0 0 1 0.180357,-0.2008 38.878049,38.878049 0 0 1 0.181449,-0.19956 38.878049,38.878049 0 0 1 0.182984,-0.19808 38.878049,38.878049 0 0 1 0.184078,-0.19685 38.878049,38.878049 0 0 1 0.185862,-0.19582 38.878049,38.878049 0 0 1 0.186935,-0.1945999 38.878049,38.878049 0 0 1 0.18823,-0.19266 38.878049,38.878049 0 0 1 0.189555,-0.1919 38.878049,38.878049 0 0 1 0.191079,-0.19042 38.878049,38.878049 0 0 1 0.192182,-0.18919 38.878049,38.878049 0 0 1 0.193707,-0.18771 38.878049,38.878049 0 0 1 0.194801,-0.18648 38.878049,38.878049 0 0 1 0.196308,-0.18502 38.878049,38.878049 0 0 1 0.197399,-0.18379 38.878049,38.878049 0 0 1 0.198953,-0.18229 38.878049,38.878049 0 0 1 0.19976,-0.18064 38.878049,38.878049 0 0 1 0.201114,-0.17985 38.878049,38.878049 0 0 1 0.202618,-0.17839 38.878049,38.878049 0 0 1 0.203913,-0.17645 38.878049,38.878049 0 0 1 0.204548,-0.17548 38.878049,38.878049 0 0 1 0.206539,-0.17375 38.878049,38.878049 0 0 1 0.207149,-0.17278 38.878049,38.878049 0 0 1 0.20844,-0.17085 38.878049,38.878049 0 0 1 0.209515,-0.16963 38.878049,38.878049 0 0 1 0.211068,-0.16814 38.878049,38.878049 0 0 1 0.211878,-0.16648 38.878049,38.878049 0 0 1 0.213402,-0.16501 38.878049,38.878049 0 0 1 0.214502,-0.16377 38.878049,38.878049 0 0 1 0.215311,-0.16211 38.878049,38.878049 0 0 1 0.216402,-0.16089 38.878049,38.878049 0 0 1 0.217925,-0.15943 38.878049,38.878049 0 0 1 0.218776,-0.1577 38.878049,38.878049 0 0 1 0.22005,-0.15576 38.878049,38.878049 0 0 1 0.220686,-0.15479 38.878049,38.878049 0 0 1 0.221933,-0.15295 38.878049,38.878049 0 0 1 0.223017,-0.15169 38.878049,38.878049 0 0 1 0.224559,-0.15024 38.878049,38.878049 0 0 1 0.225115,-0.14811 38.878049,38.878049 0 0 1 0.226217,-0.14686 38.878049,38.878049 0 0 1 0.227045,-0.14521 38.878049,38.878049 0 0 1 0.228127,-0.14395 38.878049,38.878049 0 0 1 0.229399,-0.14201 38.878049,38.878049 0 0 1 0.230227,-0.14037 38.878049,38.878049 0 0 1 0.0073,-0.005 z"
       style="display:inline;opacity:0.988;fill:#d3fff6;fill-opacity:1;stroke-width:0.239653;stroke-linecap:square;paint-order:stroke fill markers"
       id="path40-1-4-6-9-9-5-2-9" />
    <path
       id="path979-40"
       style="display:inline;opacity:0.988;fill:#c1f6f6;fill-opacity:1;stroke-width:0.239653;stroke-linecap:square;paint-order:stroke fill markers"
       d="m 67.436735,-10.72174 a 38.87805,38.87805 0 0 0 -0.008,0.004 38.87805,38.87805 0 0 0 -0.23104,0.1387 38.87805,38.87805 0 0 0 -0.23048,0.14082 38.87805,38.87805 0 0 0 -0.2294,0.14205 38.87805,38.87805 0 0 0 -0.22787,0.14352 38.87805,38.87805 0 0 0 -0.22729,0.14564 38.87805,38.87805 0 0 0 -0.22621,0.14687 38.87805,38.87805 0 0 0 -0.225135,0.14808 38.87805,38.87805 0 0 0 -0.223852,0.1500199 38.87805,38.87805 0 0 0 -0.223475,0.15143 38.87805,38.87805 0 0 0 -0.221756,0.15362 38.87805,38.87805 0 0 0 -0.221124,0.15457 38.87805,38.87805 0 0 0 -0.220033,0.15581 38.87805,38.87805 0 0 0 -0.218763,0.15773 38.87805,38.87805 0 0 0 -0.217227,0.15921 38.87805,38.87805 0 0 0 -0.216854,0.16062 38.87805,38.87805 0 0 0 -0.215581,0.16256 38.87805,38.87805 0 0 0 -0.214234,0.16332 38.87805,38.87805 0 0 0 -0.212961,0.16526 38.87805,38.87805 0 0 0 -0.212585,0.16667 38.87805,38.87805 0 0 0 -0.210614,0.16839 38.87805,38.87805 0 0 0 -0.209926,0.16941 38.87805,38.87805 0 0 0 -0.208449,0.17084 38.87805,38.87805 0 0 0 -0.207145,0.17279 38.87805,38.87805 0 0 0 -0.206106,0.17398 38.87805,38.87805 0 0 0 -0.204981,0.17524 38.87805,38.87805 0 0 0 -0.203942,0.17644 38.87805,38.87805 0 0 0 -0.202638,0.17838 38.87805,38.87805 0 0 0 -0.200819,0.1794301 38.87805,38.87805 0 0 0 -0.200035,0.18107 38.87805,38.87805 0 0 0 -0.19891,0.18232 38.87805,38.87805 0 0 0 -0.197433,0.18376 38.87805,38.87805 0 0 0 -0.196307,0.18502 38.87805,38.87805 0 0 0 -0.194748,0.18651 38.87805,38.87805 0 0 0 -0.193709,0.18771 38.87805,38.87805 0 0 0 -0.192146,0.18921 38.87805,38.87805 0 0 0 -0.191106,0.19041 38.87805,38.87805 0 0 0 -0.189288,0.19145 38.87805,38.87805 0 0 0 -0.188504,0.1931 38.87805,38.87805 0 0 0 -0.186945,0.1945999 38.87805,38.87805 0 0 0 -0.18556,0.1954 38.87805,38.87805 0 0 0 -0.184343,0.19729 38.87805,38.87805 0 0 0 -0.182961,0.1981 38.87805,38.87805 0 0 0 -0.181485,0.19954 38.87805,38.87805 0 0 0 -0.179667,0.20059 38.87805,38.87805 0 0 0 -0.178795,0.20228 38.87805,38.87805 0 0 0 -0.177497,0.20304 38.87805,38.87805 0 0 0 -0.175937,0.20453 38.87805,38.87805 0 0 0 -0.174206,0.20553 38.87805,38.87805 0 0 0 -0.17308,0.20679 38.87805,38.87805 0 0 0 -0.171517,0.20827 38.87805,38.87805 0 0 0 -0.170222,0.20904 38.87805,38.87805 0 0 0 -0.168659,0.21052 38.87805,38.87805 0 0 0 -0.167615,0.21172 38.87805,38.87805 0 0 0 -0.165546,0.21233 38.87805,38.87805 0 0 0 -0.164238,0.21427003 38.87805,38.87805 0 0 0 -0.162938,0.21502 38.87805,38.87805 0 0 0 -0.161125,0.2160797 38.87805,38.87805 0 0 0 -0.159561,0.21756 38.87805,38.87805 0 0 0 -0.158262,0.21832 38.87805,38.87805 0 0 0 -0.156963,0.21907 38.87805,38.87805 0 0 0 -0.155405,0.22057 38.87805,38.87805 0 0 0 -0.153581,0.22161 38.87805,38.87805 0 0 0 -0.152113,0.22307 38.87805,38.87805 0 0 0 -0.150468,0.22340997 38.87805,38.87805 0 0 0 -0.149338,0.22466 38.87805,38.87805 0 0 0 -0.147172,0.22591 38.87805,38.87805 0 0 0 -0.146052,0.22717 38.87805,38.87805 0 0 0 -0.144488,0.22746 38.87805,38.87805 0 0 0 -0.142669,0.22911 38.87805,38.87805 0 0 0 -0.140682,0.22967 38.87805,38.87805 0 0 0 -0.140071,0.23061 38.87805,38.87805 0 0 0 -0.138339,0.23161 38.87805,38.87805 0 0 0 -0.136607,0.23261 38.87805,38.87805 0 0 0 -0.05891,0.10204 38.87805,38.87805 0 0 0 -0.134416,0.23387 38.87805,38.87805 0 0 0 -0.132277,0.23511 38.87805,38.87805 0 0 0 -0.130545,0.23611 38.87805,38.87805 0 0 0 -0.129424,0.23617 38.87805,38.87805 0 0 0 -0.127081,0.23811 38.87805,38.87805 0 0 0 -0.125955,0.23876 38.87805,38.87805 0 0 0 -0.124309,0.2391097 38.87805,38.87805 0 0 0 -0.122496,0.24017 38.87805,38.87805 0 0 0 -0.120758,0.24116 38.87805,38.87805 0 0 0 -0.119378,0.24197 38.87805,38.87805 0 0 0 -0.117381,0.24251 38.87805,38.87805 0 0 0 -0.115827,0.24402 38.87805,38.87805 0 0 0 -0.114182,0.24437 38.87805,38.87805 0 0 0 -0.112189,0.24492 38.87805,38.87805 0 0 0 -0.110804,0.24571 38.87805,38.87805 0 0 0 -0.109072,0.24672 38.87805,38.87805 0 0 0 -0.107253,0.24777 38.87805,38.87805 0 0 0 -0.105608,0.24812 38.87805,38.87805 0 0 0 -0.10362,0.24867 38.87805,38.87805 0 0 0 -0.10249,0.24992 38.87805,38.87805 0 0 0 -0.100243,0.25003 38.87805,38.87805 0 0 0 -0.09842,0.25107 38.87805,38.87805 0 0 0 -0.09704,0.25188 38.87805,38.87805 0 0 0 -0.09505,0.25243 38.87805,38.87805 0 0 0 -0.0934,0.25278 38.87805,38.87805 0 0 0 -0.09167,0.25378 38.87805,38.87805 0 0 0 -0.09003,0.25413 38.87805,38.87805 0 0 0 -0.08795,0.2547397 38.87805,38.87805 0 0 0 -0.08622,0.25574 38.87805,38.87805 0 0 0 -0.08457,0.256082 38.87805,38.87805 0 0 0 -0.08302,0.256391 38.87805,38.87805 0 0 0 -0.08077,0.257691 38.87805,38.87805 0 0 0 -0.07964,0.257749 38.87805,38.87805 0 0 0 -0.07731,0.257899 38.87805,38.87805 0 0 0 -0.07548,0.25894 38.87805,38.87805 0 0 0 -0.07419,0.259707 38.87805,38.87805 0 0 0 -0.07185,0.259848 38.87805,38.87805 0 0 0 -0.0703,0.260156 38.87805,38.87805 0 0 0 -0.06848,0.261206 38.87805,38.87805 0 0 0 -0.06657,0.261106 38.87805,38.87805 0 0 0 -0.06459,0.261664 38.87805,38.87805 0 0 0 -0.0632,0.262464 38.87805,38.87805 0 0 0 -0.06087,0.262622 38.87805,38.87805 0 0 0 -0.05956,0.263363 38.87805,38.87805 0 0 0 -0.05723,0.26353 38.87805,38.87805 0 0 0 -0.05567,0.263821 38.87805,38.87805 0 0 0 -0.05403,0.26418 38.87805,38.87805 0 0 0 -0.05204,0.264729 38.87805,38.87805 0 0 0 -0.05013,0.264637 38.87805,38.87805 0 0 0 -0.0484,0.265636 38.87805,38.87805 0 0 0 -0.0465,0.265537 38.87805,38.87805 0 0 0 -0.04494,0.265844 38.87805,38.87805 0 0 0 -0.04287,0.266445 38.87805,38.87805 0 0 0 -0.04053,0.266602 38.87805,38.87805 0 0 0 -0.03941,0.266652 38.87805,38.87805 0 0 0 -0.03734,0.267242 38.87805,38.87805 0 0 0 -0.03503,0.267389 38.87805,38.87805 0 0 0 -0.03389,0.267458 38.87805,38.87805 0 0 0 -0.03157,0.267597 38.87805,38.87805 0 0 0 -0.02952,0.268177 38.87805,38.87805 0 0 0 -0.02837,0.268242 38.87805,38.87805 0 0 0 -0.02607,0.268393 38.87805,38.87805 0 0 0 -0.02402,0.268978 38.87805,38.87805 0 0 0 -0.0226,0.268592 38.87805,38.87805 0 0 0 -0.0203,0.268736 38.87805,38.87805 0 0 0 -0.0187,0.269059 38.87805,38.87805 0 0 0 -0.01709,0.269385 38.87805,38.87805 0 0 0 -0.01453,0.269086 38.87805,38.87805 0 0 0 -0.01293,0.269406 38.87805,38.87805 0 0 0 -0.01132,0.269735 38.87805,38.87805 0 0 0 -0.0095,0.269618 38.87805,38.87805 0 0 0 -0.0076,0.269496 38.87805,38.87805 0 0 0 -0.0053,0.269636 38.87805,38.87805 0 0 0 -0.0019,0.127215 19.601262,19.601262 0 0 0 22.179726,-9.097294 19.601262,19.601262 0 0 0 -3.21164,-23.756406 z" />
    <path
       sodipodi:nodetypes="ccc"
       inkscape:original-d="M 184.36036,155.00362 C 170.52431,138.92221 156.688,122.84054 142.85142,106.7586 135.18085,85.533397 127.51032,64.308778 119.83937,43.083473"
       inkscape:path-effect="#path-effect1125"
       id="path1123"
       d="M 184.36036,155.00362 C 170.52429,138.92223 156.68798,122.84056 145.93434,104.18701 135.1807,85.533452 127.51017,64.308833 119.83937,43.083473"
       style="fill:none;stroke:#c08ada;stroke-width:2.5;stroke-linecap:butt;stroke-linejoin:miter;stroke-miterlimit:4;stroke-dasharray:none;stroke-opacity:1" />
    <rect
       transform="rotate(-45)"
       ry="0.52668977"
       y="159.67874"
       x="-32.333157"
       height="3.0561953"
       width="3.0561953"
       id="rect1015-48-6"
       style="font-variation-settings:normal;display:inline;opacity:1;vector-effect:none;fill:#b2d4ea;fill-opacity:0.546468;fill-rule:evenodd;stroke:none;stroke-width:0.11551;stroke-linecap:round;stroke-linejoin:round;stroke-miterlimit:4;stroke-dasharray:none;stroke-dashoffset:0;stroke-opacity:1;paint-order:markers stroke fill;stop-color:#000000;stop-opacity:1" />
    <rect
       transform="rotate(-45)"
       ry="0.52668977"
       y="145.88261"
       x="113.37666"
       height="3.0561953"
       width="3.0561953"
       id="rect1015-48-1"
       style="font-variation-settings:normal;display:inline;opacity:1;vector-effect:none;fill:#b2d4ea;fill-opacity:0.546468;fill-rule:evenodd;stroke:none;stroke-width:0.11551;stroke-linecap:round;stroke-linejoin:round;stroke-miterlimit:4;stroke-dasharray:none;stroke-dashoffset:0;stroke-opacity:1;paint-order:markers stroke fill;stop-color:#000000;stop-opacity:1" />
  </g>
  <g
     style="display:none"
     inkscape:label="レイヤー 2"
     id="layer2"
     inkscape:groupmode="layer">
    <rect
       style="font-variation-settings:normal;opacity:1;vector-effect:none;fill:#000000;fill-opacity:0.0323325;fill-rule:evenodd;stroke:none;stroke-width:1;stroke-linecap:round;stroke-linejoin:round;stroke-miterlimit:4;stroke-dasharray:none;stroke-dashoffset:0;stroke-opacity:1;paint-order:markers stroke fill;stop-color:#000000;stop-opacity:1"
       id="rect956"
       width="210"
       height="297"
       x="0"
       y="1.3974009e-14" />
  </g>
</svg>
