<?xml version="1.0" encoding="UTF-8" standalone="no"?>
<svg
   xmlns:dc="http://purl.org/dc/elements/1.1/"
   xmlns:cc="http://creativecommons.org/ns#"
   xmlns:rdf="http://www.w3.org/1999/02/22-rdf-syntax-ns#"
   xmlns:svg="http://www.w3.org/2000/svg"
   xmlns="http://www.w3.org/2000/svg"
   xmlns:sodipodi="http://sodipodi.sourceforge.net/DTD/sodipodi-0.dtd"
   xmlns:inkscape="http://www.inkscape.org/namespaces/inkscape"
   sodipodi:docname="card-back.svg"
   inkscape:version="1.0 (4035a4fb49, 2020-05-01)"
   id="svg8"
   version="1.1"
   viewBox="0 0 200 150"
   height="150mm"
   width="200mm">
  <defs
     id="defs2">
    <clipPath
       clipPathUnits="userSpaceOnUse"
       id="clipPath885">
      <g
         style="stroke-width:0.999902;stroke-miterlimit:4;stroke-dasharray:none"
         id="use887"
         inkscape:label="Clip">
        <circle
           r="51.850288"
           cy="74.835464"
           cx="-230.92088"
           id="circle899"
           style="display:inline;opacity:0.988;fill:#adfcd5;fill-opacity:1;stroke-width:0.999902;stroke-linecap:square;stroke-miterlimit:4;stroke-dasharray:none;paint-order:stroke fill markers" />
      </g>
    </clipPath>
  </defs>
  <sodipodi:namedview
     inkscape:snap-midpoints="true"
     inkscape:snap-intersection-paths="true"
     inkscape:object-paths="false"
     inkscape:snap-nodes="true"
     inkscape:snap-object-midpoints="true"
     inkscape:snap-bbox-midpoints="true"
     inkscape:bbox-nodes="true"
     inkscape:window-maximized="1"
     inkscape:window-y="-8"
     inkscape:window-x="-8"
     inkscape:window-height="1057"
     inkscape:window-width="1920"
     inkscape:snap-others="true"
     inkscape:snap-bbox-edge-midpoints="true"
     inkscape:bbox-paths="true"
     inkscape:snap-page="true"
     inkscape:snap-bbox="true"
     inkscape:pagecheckerboard="true"
     showgrid="false"
     inkscape:document-rotation="0"
     inkscape:current-layer="layer1"
     inkscape:document-units="mm"
     inkscape:cy="60.7243"
     inkscape:cx="586.67328"
     inkscape:zoom="0.70710678"
     inkscape:pageshadow="2"
     inkscape:pageopacity="0"
     borderopacity="1.0"
     bordercolor="#666666"
     pagecolor="#f0f0f0"
     id="base"
     showborder="true"
     inkscape:showpageshadow="false" />
  <metadata
     id="metadata5">
    <rdf:RDF>
      <cc:Work
         rdf:about="">
        <dc:format>image/svg+xml</dc:format>
        <dc:type
           rdf:resource="http://purl.org/dc/dcmitype/StillImage" />
        <dc:title />
      </cc:Work>
    </rdf:RDF>
  </metadata>
  <g
     style="display:inline"
     id="layer1"
     inkscape:groupmode="layer"
     inkscape:label="レイヤー 1">
    <rect
       y="1.5258789e-05"
       x="-1.4210855e-14"
       height="149.99998"
       width="200"
       id="rect10"
       style="font-variation-settings:normal;opacity:1;vector-effect:none;fill:#fcffff;fill-opacity:1;fill-rule:evenodd;stroke:none;stroke-width:0.693542;stroke-linecap:round;stroke-linejoin:round;stroke-miterlimit:4;stroke-dasharray:none;stroke-dashoffset:0;stroke-opacity:1;paint-order:markers stroke fill;stop-color:#000000;stop-opacity:1" />
    <path
       id="path40-1-4-6"
       d="m -321.21221,-51.405042 a -65.45743,65.45743 0 0 0 -65.45743,-65.457428 -65.45743,65.45743 0 0 0 -65.45743,65.457428 -65.45743,65.45743 0 0 0 65.45743,65.45743 -65.45743,65.45743 0 0 0 65.45743,-65.45743"
       style="display:inline;opacity:0.988;fill:#b6e9dc;fill-opacity:1;stroke-width:0.800309;stroke-linecap:square;paint-order:stroke fill markers" />
    <path
       id="path978"
       style="display:inline;opacity:0.988;fill:#98d8dc;fill-opacity:1;stroke-width:0.800309;stroke-linecap:square;paint-order:stroke fill markers"
       d="m -386.66936,14.052668 a -65.457426,65.457426 0 0 0 65.45699,-65.457502 -65.457426,65.457426 0 0 1 -0.28526,-10e-4 -65.457426,65.457426 0 0 1 -0.34984,-0.0021 -65.457426,65.457426 0 0 1 -0.35037,-0.0047 -65.457426,65.457426 0 0 1 -0.34985,-0.0062 -65.457426,65.457426 0 0 1 -0.34985,-0.0078 -65.457426,65.457426 0 0 1 -0.34985,-0.01033 -65.457426,65.457426 0 0 1 -0.34933,-0.01137 -65.457426,65.457426 0 0 1 -0.34985,-0.01395 -65.457426,65.457426 0 0 1 -0.34985,-0.0155 -65.457426,65.457426 0 0 1 -0.34933,-0.01757 -65.457426,65.457426 0 0 1 -0.34934,-0.01912 -65.457426,65.457426 0 0 1 -0.34933,-0.02119 -65.457426,65.457426 0 0 1 -0.34933,-0.02325 -65.457426,65.457426 0 0 1 -0.34882,-0.02481 -65.457426,65.457426 0 0 1 -0.34881,-0.02687 -65.457426,65.457426 0 0 1 -0.34882,-0.02842 -65.457426,65.457426 0 0 1 -0.34881,-0.03049 -65.457426,65.457426 0 0 1 -0.3483,-0.03256 -65.457426,65.457426 0 0 1 -0.3483,-0.03411 -65.457426,65.457426 0 0 1 -0.3483,-0.03617 -65.457426,65.457426 0 0 1 -0.34778,-0.03772 -65.457426,65.457426 0 0 1 -0.34779,-0.03979 -65.457426,65.457426 0 0 1 -0.34726,-0.04186 -65.457426,65.457426 0 0 1 -0.34727,-0.04341 -65.457426,65.457426 0 0 1 -0.34726,-0.04547 -65.457426,65.457426 0 0 1 -0.34675,-0.04703 -65.457426,65.457426 0 0 1 -0.34624,-0.04909 -65.457426,65.457426 0 0 1 -0.34623,-0.05064 -65.457426,65.457426 0 0 1 -0.34571,-0.05323 -65.457426,65.457426 0 0 1 -0.34572,-0.05426 -65.457426,65.457426 0 0 1 -0.34571,-0.05633 -65.457426,65.457426 0 0 1 -0.34469,-0.0584 -65.457426,65.457426 0 0 1 -0.34519,-0.06046 -65.457426,65.457426 0 0 1 -0.34417,-0.06201 -65.457426,65.457426 0 0 1 -0.34416,-0.06356 -65.457426,65.457426 0 0 1 -0.34365,-0.06563 -65.457426,65.457426 0 0 1 -0.34313,-0.0677 -65.457426,65.457426 0 0 1 -0.34313,-0.06925 -65.457426,65.457426 0 0 1 -0.34262,-0.07131 -65.457426,65.457426 0 0 1 -0.34261,-0.07286 -65.457426,65.457426 0 0 1 -0.34158,-0.07493 -65.457426,65.457426 0 0 1 -0.34159,-0.07648 -65.457426,65.457426 0 0 1 -0.34106,-0.07855 -65.457426,65.457426 0 0 1 -0.34055,-0.08062 -65.457426,65.457426 0 0 1 -0.34003,-0.08217 -65.457426,65.457426 0 0 1 -0.33951,-0.08371 -65.457426,65.457426 0 0 1 -0.33952,-0.08578 -65.457426,65.457426 0 0 1 -0.33899,-0.08785 -65.457426,65.457426 0 0 1 -0.33797,-0.0894 -65.457426,65.457426 0 0 1 -0.33796,-0.09095 -65.457426,65.457426 0 0 1 -0.33745,-0.09302 -65.457426,65.457426 0 0 1 -0.33693,-0.09508 -65.457426,65.457426 0 0 1 -0.33641,-0.09663 -65.457426,65.457426 0 0 1 -0.3359,-0.09819 -65.457426,65.457426 0 0 1 -0.33486,-0.100253 -65.457426,65.457426 0 0 1 -0.33487,-0.101802 -65.457426,65.457426 0 0 1 -0.33434,-0.10387 -65.457426,65.457426 0 0 1 -0.33383,-0.10542 -65.457426,65.457426 0 0 1 -0.3328,-0.107487 -65.457426,65.457426 0 0 1 -0.3328,-0.109037 -65.457426,65.457426 0 0 1 -0.33176,-0.111104 -65.457426,65.457426 0 0 1 -0.33124,-0.112655 -65.457426,65.457426 0 0 1 -0.33073,-0.114205 -65.457426,65.457426 0 0 1 -0.33022,-0.116272 -65.457426,65.457426 0 0 1 -0.32918,-0.117822 -65.457426,65.457426 0 0 1 -0.32917,-0.119889 -65.457426,65.457426 0 0 1 -0.32815,-0.12144 -65.457426,65.457426 0 0 1 -0.32711,-0.123507 -65.457426,65.457426 0 0 1 -0.32711,-0.125057 -65.457426,65.457426 0 0 1 -0.32608,-0.126607 -65.457426,65.457426 0 0 1 -0.32556,-0.128157 -65.457426,65.457426 0 0 1 -0.32505,-0.130225 -65.457426,65.457426 0 0 1 -0.32401,-0.132292 -65.457426,65.457426 0 0 1 -0.32349,-0.133326 -65.457426,65.457426 0 0 1 -0.32246,-0.13539 -65.457426,65.457426 0 0 1 -0.32195,-0.137462 -65.457426,65.457426 0 0 1 -0.32143,-0.139009 -65.457426,65.457426 0 0 1 -0.32039,-0.14056 -65.457426,65.457426 0 0 1 -0.31988,-0.14211 -65.457426,65.457426 0 0 1 -0.31884,-0.143658 -65.457426,65.457426 0 0 1 -0.31833,-0.14573 -65.457426,65.457426 0 0 1 -0.31729,-0.147794 -65.457426,65.457426 0 0 1 -0.31626,-0.148828 -65.457426,65.457426 0 0 1 -0.31626,-0.150895 -65.457426,65.457426 0 0 1 -0.31471,-0.152445 -65.457426,65.457426 0 0 1 -0.31419,-0.153995 -65.457426,65.457426 0 0 1 -0.31316,-0.156064 -65.457426,65.457426 0 0 1 -0.31264,-0.157097 -65.457426,65.457426 0 0 1 -0.31161,-0.159163 -65.457426,65.457426 0 0 1 -0.31109,-0.161231 -65.457426,65.457426 0 0 1 -0.30955,-0.162264 -65.457426,65.457426 0 0 1 -0.30954,-0.16433 -65.457426,65.457426 0 0 1 -0.30799,-0.165881 -65.457426,65.457426 0 0 1 -0.30747,-0.167433 -65.457426,65.457426 0 0 1 -0.30593,-0.168982 -65.457426,65.457426 0 0 1 -0.30592,-0.170532 -65.457426,65.457426 0 0 1 -0.30438,-0.172598 -65.457426,65.457426 0 0 1 -0.30386,-0.173633 -65.457426,65.457426 0 0 1 -0.3023,-0.175702 -65.457426,65.457426 0 0 1 -0.30179,-0.177249 -65.457426,65.457426 0 0 1 -0.30076,-0.1788 -65.457426,65.457426 0 0 1 -0.30024,-0.180351 -65.457426,65.457426 0 0 1 -0.29869,-0.181901 -65.457426,65.457426 0 0 1 -0.29817,-0.183967 -65.457426,65.457426 0 0 1 -0.29663,-0.185002 -65.457426,65.457426 0 0 1 -0.2961,-0.186553 -65.457426,65.457426 0 0 1 -0.29507,-0.188619 -65.457426,65.457426 0 0 1 -0.29353,-0.189653 -65.457426,65.457426 0 0 1 -0.293,-0.19172 -65.457426,65.457426 0 0 1 -0.29197,-0.19327 -65.457426,65.457426 0 0 1 -0.29094,-0.194302 -65.457426,65.457426 0 0 1 -0.28939,-0.196371 -65.457426,65.457426 0 0 1 -0.28887,-0.197919 -65.457426,65.457426 0 0 1 -0.28784,-0.198956 -65.457426,65.457426 0 0 1 -0.28628,-0.20102 -65.457426,65.457426 0 0 1 -0.28578,-0.202057 -65.457426,65.457426 0 0 1 -0.28422,-0.204121 -65.457426,65.457426 0 0 1 -0.2837,-0.205155 -65.457426,65.457426 0 0 1 -0.28215,-0.207221 -65.457426,65.457426 0 0 1 -0.28112,-0.208257 -65.457426,65.457426 0 0 1 -0.28009,-0.209806 -65.457426,65.457426 0 0 1 -0.27854,-0.211357 -65.457426,65.457426 0 0 1 -0.27801,-0.212908 -65.457426,65.457426 0 0 1 -0.27647,-0.214455 -65.457426,65.457426 0 0 1 -0.27544,-0.215493 -65.457426,65.457426 0 0 1 -0.2744,-0.217556 -65.457426,65.457426 0 0 1 -0.27337,-0.218591 -65.457426,65.457426 0 0 1 -0.27182,-0.220144 -65.457426,65.457426 0 0 1 -0.27078,-0.221692 -65.457426,65.457426 0 0 1 -0.26975,-0.223242 -65.457426,65.457426 0 0 1 -0.2682,-0.224792 -65.457426,65.457426 0 0 1 -0.26717,-0.225825 -65.457426,65.457426 0 0 1 -0.26613,-0.227378 -65.457426,65.457426 0 0 1 -0.26459,-0.228925 -65.457426,65.457426 0 0 1 -0.26355,-0.22996 -65.457426,65.457426 0 0 1 -0.26251,-0.232025 -65.457426,65.457426 0 0 1 -0.26097,-0.233061 -65.457426,65.457426 0 0 1 -0.25993,-0.234096 -65.457426,65.457426 0 0 1 -0.25839,-0.236161 -65.457426,65.457426 0 0 1 -0.25734,-0.237194 -65.457426,65.457426 0 0 1 -0.2558,-0.238228 -65.457426,65.457426 0 0 1 -0.25477,-0.240297 -65.457426,65.457426 0 0 1 -0.25373,-0.24133 -65.457426,65.457426 0 0 1 -0.25218,-0.242361 -65.457426,65.457426 0 0 1 -0.25063,-0.243914 -65.457426,65.457426 0 0 1 -0.2496,-0.245461 -65.457426,65.457426 0 0 1 -0.24804,-0.246497 -65.457426,65.457426 0 0 1 -0.24702,-0.248047 -65.457426,65.457426 0 0 1 -0.24546,-0.249597 -65.457426,65.457426 0 0 1 -0.24443,-0.250632 -65.457426,65.457426 0 0 1 -0.24288,-0.251664 -65.457426,65.457426 0 0 1 -0.24133,-0.253214 -65.457426,65.457426 0 0 1 -0.24029,-0.254764 -65.457426,65.457426 0 0 1 -0.23875,-0.2558 -65.457426,65.457426 0 0 1 -0.23771,-0.256831 -65.457426,65.457426 0 0 1 -0.23616,-0.258381 -65.457426,65.457426 0 0 1 -0.23461,-0.259416 -65.457426,65.457426 0 0 1 -0.23306,-0.260967 -65.457426,65.457426 0 0 1 -0.23203,-0.261998 -65.457426,65.457426 0 0 1 -0.23048,-0.263551 -65.457426,65.457426 0 0 1 -0.22892,-0.264584 -65.457426,65.457426 0 0 1 -0.2279,-0.265615 -65.457426,65.457426 0 0 1 -0.22634,-0.267168 -65.457426,65.457426 0 0 1 -0.22479,-0.268201 -65.457426,65.457426 0 0 1 -0.22324,-0.269234 -65.457426,65.457426 0 0 1 -0.22221,-0.270267 -65.457426,65.457426 0 0 1 -0.22014,-0.271819 -65.457426,65.457426 0 0 1 -0.21911,-0.272852 -65.457426,65.457426 0 0 1 -0.21756,-0.274402 -65.457426,65.457426 0 0 1 -0.21601,-0.274918 -65.457426,65.457426 0 0 1 -0.21497,-0.276468 -65.457426,65.457426 0 0 1 -0.21291,-0.277503 -65.457426,65.457426 0 0 1 -0.21187,-0.279054 -65.457426,65.457426 0 0 1 -0.21032,-0.279569 -65.457426,65.457426 0 0 1 -0.20826,-0.28112 -65.457426,65.457426 0 0 1 -0.20722,-0.282152 -65.457426,65.457426 0 0 1 -0.20567,-0.28267 -65.457426,65.457426 0 0 1 -0.20413,-0.28422 -65.457426,65.457426 0 0 1 -0.20257,-0.285772 -65.457426,65.457426 0 0 1 -0.20102,-0.286287 -65.457426,65.457426 0 0 1 -0.19999,-0.287321 -65.457426,65.457426 0 0 1 -0.19792,-0.288354 -65.457426,65.457426 0 0 1 -0.19637,-0.289906 -65.457426,65.457426 0 0 1 -0.19482,-0.29042 -65.457426,65.457426 0 0 1 -0.19327,-0.291973 -65.457426,65.457426 0 0 1 -0.19172,-0.292489 -65.457426,65.457426 0 0 1 -0.19068,-0.294037 -65.457426,65.457426 0 0 1 -0.18862,-0.294555 -65.457426,65.457426 0 0 1 -0.18707,-0.29559 -65.457426,65.457426 0 0 1 -0.18552,-0.296625 -65.457426,65.457426 0 0 1 -0.18345,-0.298172 -65.457426,65.457426 0 0 1 -0.18242,-0.298691 -65.457426,65.457426 0 0 1 -0.18087,-0.299722 -65.457426,65.457426 0 0 1 -0.17931,-0.300239 -65.457426,65.457426 0 0 1 -0.17725,-0.301791 -65.457426,65.457426 0 0 1 -0.1757,-0.302308 -65.457426,65.457426 0 0 1 -0.17467,-0.303856 -65.457426,65.457426 0 0 1 -0.1726,-0.304376 -65.457426,65.457426 0 0 1 -0.17105,-0.30489 -65.457426,65.457426 0 0 1 -0.16898,-0.306441 -65.457426,65.457426 0 0 1 -0.16795,-0.306959 -65.457426,65.457426 0 0 1 -0.16588,-0.30799 -65.457426,65.457426 0 0 1 -0.16485,-0.309026 -65.457426,65.457426 0 0 1 -0.16278,-0.310057 -65.457426,65.457426 0 0 1 -0.16071,-0.310576 -65.457426,65.457426 0 0 1 -0.15968,-0.31161 -65.457426,65.457426 0 0 1 -0.15762,-0.312124 -65.457426,65.457426 0 0 1 -0.15606,-0.313161 -65.457426,65.457426 0 0 1 -0.15451,-0.314192 -65.457426,65.457426 0 0 1 -0.15296,-0.314709 -65.457426,65.457426 0 0 1 -0.1509,-0.315743 -65.457426,65.457426 0 0 1 -0.14934,-0.316259 -65.457426,65.457426 0 0 1 -0.1478,-0.317294 -65.457426,65.457426 0 0 1 -0.14624,-0.318328 -65.457426,65.457426 0 0 1 -0.14418,-0.318844 -65.457426,65.457426 0 0 1 -0.14263,-0.31936 -65.457426,65.457426 0 0 1 -0.14107,-0.320392 -65.457426,65.457426 0 0 1 -0.13901,-0.320911 -65.457426,65.457426 0 0 1 -0.13746,-0.321945 -65.457426,65.457426 0 0 1 -0.13539,-0.322461 -65.457426,65.457426 0 0 1 -0.13436,-0.323495 -65.457426,65.457426 0 0 1 -0.1323,-0.324011 -65.457426,65.457426 0 0 1 -0.13022,-0.324528 -65.457426,65.457426 0 0 1 -0.12919,-0.325563 -65.457426,65.457426 0 0 1 -0.12661,-0.326077 -65.457426,65.457426 0 0 1 -0.12557,-0.326597 -65.457426,65.457426 0 0 1 -0.12351,-0.327109 -65.457426,65.457426 0 0 1 -0.12195,-0.328147 -65.457426,65.457426 0 0 1 -0.11989,-0.32866 -65.457426,65.457426 0 0 1 -0.11834,-0.329698 -65.457426,65.457426 0 0 1 -0.11628,-0.329694 -65.457426,65.457426 0 0 1 -0.11523,-0.330729 -65.457426,65.457426 0 0 1 -0.11266,-0.331248 -65.457426,65.457426 0 0 1 -0.1111,-0.331761 -65.457426,65.457426 0 0 1 -0.10956,-0.33228 -65.457426,65.457426 0 0 1 -0.108,-0.333314 -65.457426,65.457426 0 0 1 -0.10542,-0.333311 -65.457426,65.457426 0 0 1 -0.10439,-0.334346 -65.457426,65.457426 0 0 1 -0.10232,-0.334349 -65.457426,65.457426 0 0 1 -0.10025,-0.335378 -65.457426,65.457426 0 0 1 -0.0992,-0.335381 -65.457426,65.457426 0 0 1 -0.0966,-0.336415 -65.457426,65.457426 0 0 1 -0.0951,-0.336928 -65.457426,65.457426 0 0 1 -0.0935,-0.336931 -65.457426,65.457426 0 0 1 -0.0915,-0.337966 -65.457426,65.457426 0 0 1 -0.0899,-0.33848 -65.457426,65.457426 0 0 1 -0.0878,-0.33848 -65.457426,65.457426 0 0 1 -0.0858,-0.33951 -65.457426,65.457426 0 0 1 -0.0842,-0.33952 -65.457426,65.457426 0 0 1 -0.0827,-0.34003 -65.457426,65.457426 0 0 1 -0.0806,-0.34055 -65.457426,65.457426 0 0 1 -0.0791,-0.34106 -65.457426,65.457426 0 0 1 -0.077,-0.34107 -65.457426,65.457426 0 0 1 -0.0749,-0.34209 -65.457426,65.457426 0 0 1 -0.0734,-0.3421 -65.457426,65.457426 0 0 1 -0.0718,-0.34262 -65.457426,65.457426 0 0 1 -0.0693,-0.34261 -65.457426,65.457426 0 0 1 -0.0682,-0.34365 -65.457426,65.457426 0 0 1 -0.0656,-0.34365 -65.457426,65.457426 0 0 1 -0.0646,-0.34364 -65.457426,65.457426 0 0 1 -0.062,-0.34469 -65.457426,65.457426 0 0 1 -0.0605,-0.34468 -65.457426,65.457426 0 0 1 -0.0589,-0.34468 -65.457426,65.457426 0 0 1 -0.0568,-0.3452 -65.457426,65.457426 0 0 1 -0.0548,-0.34571 -65.457426,65.457426 0 0 1 -0.0532,-0.34624 -65.457426,65.457426 0 0 1 -0.0512,-0.34623 -65.457426,65.457426 0 0 1 -0.0496,-0.34623 -65.457426,65.457426 0 0 1 -0.0475,-0.34675 -65.457426,65.457426 0 0 1 -0.0455,-0.34675 -65.457426,65.457426 0 0 1 -0.0439,-0.34726 -65.457426,65.457426 0 0 1 -0.0419,-0.34727 -65.457426,65.457426 0 0 1 -0.0403,-0.34778 -65.457426,65.457426 0 0 1 -0.0382,-0.34778 -65.457426,65.457426 0 0 1 -0.0367,-0.3483 -65.457426,65.457426 0 0 1 -0.0341,-0.3483 -65.457426,65.457426 0 0 1 -0.0331,-0.3483 -65.457426,65.457426 0 0 1 -0.0305,-0.3483 -65.457426,65.457426 0 0 1 -0.0289,-0.34882 -65.457426,65.457426 0 0 1 -0.0274,-0.34881 -65.457426,65.457426 0 0 1 -0.0253,-0.34934 -65.457426,65.457426 0 0 1 -0.0233,-0.34933 -65.457426,65.457426 0 0 1 -0.0212,-0.34881 -65.457426,65.457426 0 0 1 -0.0196,-0.34985 -65.457426,65.457426 0 0 1 -0.0181,-0.34934 -65.457426,65.457426 0 0 1 -0.016,-0.34933 -65.457426,65.457426 0 0 1 -0.0139,-0.34985 -65.457426,65.457426 0 0 1 -0.0119,-0.34985 -65.457426,65.457426 0 0 1 -0.0103,-0.34985 -65.457426,65.457426 0 0 1 -0.008,-0.34985 -65.457426,65.457426 0 0 1 -0.007,-0.34985 -65.457426,65.457426 0 0 1 -0.005,-0.34985 -65.457426,65.457426 0 0 1 -0.003,-0.34985 -65.457426,65.457426 0 0 1 -5.2e-4,-0.34985 -65.457426,65.457426 0 0 0 -65.4575,65.457507 -65.457426,65.457426 0 0 0 65.4575,65.457501 z" />
    <path
       id="path1064"
       style="display:inline;opacity:0.988;fill:#b6e9dc;fill-opacity:1;stroke-width:0.800309;stroke-linecap:square;paint-order:stroke fill markers"
       d="m -386.66874,14.052605 a 65.457429,65.457429 0 0 0 58.25848,-35.614879 65.457429,65.457429 0 0 1 -0.17106,0.08733 65.457429,65.457429 0 0 1 -0.31213,0.158128 65.457429,65.457429 0 0 1 -0.31316,0.156064 65.457429,65.457429 0 0 1 -0.31419,0.154512 65.457429,65.457429 0 0 1 -0.3147,0.152445 65.457429,65.457429 0 0 1 -0.31575,0.151413 65.457429,65.457429 0 0 1 -0.31626,0.149344 65.457429,65.457429 0 0 1 -0.31728,0.147796 65.457429,65.457429 0 0 1 -0.31835,0.145727 65.457429,65.457429 0 0 1 -0.31882,0.144177 65.457429,65.457429 0 0 1 -0.31938,0.142626 65.457429,65.457429 0 0 1 -0.32039,0.141079 65.457429,65.457429 0 0 1 -0.32091,0.139009 65.457429,65.457429 0 0 1 -0.32194,0.137459 65.457429,65.457429 0 0 1 -0.32245,0.135909 65.457429,65.457429 0 0 1 -0.32351,0.133842 65.457429,65.457429 0 0 1 -0.32401,0.132292 65.457429,65.457429 0 0 1 -0.32453,0.130741 65.457429,65.457429 0 0 1 -0.32555,0.128675 65.457429,65.457429 0 0 1 -0.3261,0.127124 65.457429,65.457429 0 0 1 -0.32657,0.125055 65.457429,65.457429 0 0 1 -0.32764,0.123508 65.457429,65.457429 0 0 1 -0.32763,0.121957 65.457429,65.457429 0 0 1 -0.32917,0.119888 65.457429,65.457429 0 0 1 -0.32919,0.11834 65.457429,65.457429 0 0 1 -0.3297,0.116787 65.457429,65.457429 0 0 1 -0.33073,0.114723 65.457429,65.457429 0 0 1 -0.33123,0.113171 65.457429,65.457429 0 0 1 -0.33176,0.111103 65.457429,65.457429 0 0 1 -0.33229,0.109556 65.457429,65.457429 0 0 1 -0.33332,0.107487 65.457429,65.457429 0 0 1 -0.3333,0.105937 65.457429,65.457429 0 0 1 -0.33435,0.103867 65.457429,65.457429 0 0 1 -0.33436,0.10232 65.457429,65.457429 0 0 1 -0.33536,0.100769 65.457429,65.457429 0 0 1 -0.33591,0.0987 65.457429,65.457429 0 0 1 -0.33589,0.09663 65.457429,65.457429 0 0 1 -0.33692,0.0956 65.457429,65.457429 0 0 1 -0.33745,0.09302 65.457429,65.457429 0 0 1 -0.33745,0.09147 65.457429,65.457429 0 0 1 -0.33848,0.08992 65.457429,65.457429 0 0 1 -0.33848,0.08785 65.457429,65.457429 0 0 1 -0.33952,0.0863 65.457429,65.457429 0 0 1 -0.33951,0.08423 65.457429,65.457429 0 0 1 -0.34004,0.08217 65.457429,65.457429 0 0 1 -0.34055,0.08062 65.457429,65.457429 0 0 1 -0.34107,0.07906 65.457429,65.457429 0 0 1 -0.34105,0.077 65.457429,65.457429 0 0 1 -0.34211,0.07493 65.457429,65.457429 0 0 1 -0.3421,0.07338 65.457429,65.457429 0 0 1 -0.34261,0.07183 65.457429,65.457429 0 0 1 -0.34261,0.06976 65.457429,65.457429 0 0 1 -0.34364,0.0677 65.457429,65.457429 0 0 1 -0.34367,0.06615 65.457429,65.457429 0 0 1 -0.34364,0.06408 65.457429,65.457429 0 0 1 -0.34467,0.06253 65.457429,65.457429 0 0 1 -0.3447,0.06046 65.457429,65.457429 0 0 1 -0.34467,0.05839 65.457429,65.457429 0 0 1 -0.34571,0.05684 65.457429,65.457429 0 0 1 -0.3452,0.05478 65.457429,65.457429 0 0 1 -0.34623,0.05323 65.457429,65.457429 0 0 1 -0.34624,0.05116 65.457429,65.457429 0 0 1 -0.34623,0.04961 65.457429,65.457429 0 0 1 -0.34674,0.04754 65.457429,65.457429 0 0 1 -0.34676,0.04599 65.457429,65.457429 0 0 1 -0.34727,0.04341 65.457429,65.457429 0 0 1 -0.34726,0.04238 65.457429,65.457429 0 0 1 -0.34777,0.03979 65.457429,65.457429 0 0 1 -0.34779,0.03824 65.457429,65.457429 0 0 1 -0.3483,0.03669 65.457429,65.457429 0 0 1 -0.3483,0.03462 65.457429,65.457429 0 0 1 -0.3483,0.03256 65.457429,65.457429 0 0 1 -0.34882,0.03101 65.457429,65.457429 0 0 1 -0.3483,0.02894 65.457429,65.457429 0 0 1 -0.34933,0.02687 65.457429,65.457429 0 0 1 -0.34883,0.02532 65.457429,65.457429 0 0 1 -0.34933,0.02325 65.457429,65.457429 0 0 1 -0.34933,0.0217 65.457429,65.457429 0 0 1 -0.34932,0.01964 65.457429,65.457429 0 0 1 -0.34933,0.01757 65.457429,65.457429 0 0 1 -0.34933,0.01602 65.457429,65.457429 0 0 1 -0.34986,0.01395 65.457429,65.457429 0 0 1 -0.34983,0.0124 65.457429,65.457429 0 0 1 -0.34986,0.01033 65.457429,65.457429 0 0 1 -0.34986,0.0083 65.457429,65.457429 0 0 1 -0.34983,0.0062 65.457429,65.457429 0 0 1 -0.34986,0.0052 65.457429,65.457429 0 0 1 -0.34986,0.0026 65.457429,65.457429 0 0 1 -0.34983,10e-4 65.457429,65.457429 0 0 1 -0.28578,-5.16e-4 65.457429,65.457429 0 0 1 -0.34986,-0.0026 65.457429,65.457429 0 0 1 -0.34986,-0.0047 65.457429,65.457429 0 0 1 -0.34983,-0.0062 65.457429,65.457429 0 0 1 -0.34986,-0.0077 65.457429,65.457429 0 0 1 -0.34983,-0.0098 65.457429,65.457429 0 0 1 -0.34986,-0.01188 65.457429,65.457429 0 0 1 -0.34986,-0.01395 65.457429,65.457429 0 0 1 -0.34933,-0.0155 65.457429,65.457429 0 0 1 -0.34985,-0.01757 65.457429,65.457429 0 0 1 -0.34933,-0.01912 65.457429,65.457429 0 0 1 -0.34933,-0.02119 65.457429,65.457429 0 0 1 -0.3488,-0.02274 65.457429,65.457429 0 0 1 -0.34936,-0.02532 65.457429,65.457429 0 0 1 -0.3488,-0.02636 65.457429,65.457429 0 0 1 -0.34883,-0.02894 65.457429,65.457429 0 0 1 -0.3488,-0.03049 65.457429,65.457429 0 0 1 -0.34829,-0.03204 65.457429,65.457429 0 0 1 -0.3483,-0.03462 65.457429,65.457429 0 0 1 -0.3483,-0.03566 65.457429,65.457429 0 0 1 -0.34779,-0.03824 65.457429,65.457429 0 0 1 -0.3478,-0.03979 65.457429,65.457429 0 0 1 -0.34726,-0.04134 65.457429,65.457429 0 0 1 -0.34727,-0.04392 65.457429,65.457429 0 0 1 -0.34674,-0.04496 65.457429,65.457429 0 0 1 -0.34673,-0.04754 65.457429,65.457429 0 0 1 -0.34676,-0.04909 65.457429,65.457429 0 0 1 -0.34624,-0.05064 65.457429,65.457429 0 0 1 -0.3457,-0.05271 65.457429,65.457429 0 0 1 -0.34573,-0.05478 65.457429,65.457429 0 0 1 -0.34521,-0.05633 65.457429,65.457429 0 0 1 -0.34517,-0.05839 65.457429,65.457429 0 0 1 -0.3447,-0.06046 65.457429,65.457429 0 0 1 -0.34467,-0.06201 65.457429,65.457429 0 0 1 -0.34417,-0.06356 65.457429,65.457429 0 0 1 -0.34364,-0.06563 65.457429,65.457429 0 0 1 -0.34314,-0.0677 65.457429,65.457429 0 0 1 -0.34314,-0.06925 65.457429,65.457429 0 0 1 -0.34261,-0.07131 65.457429,65.457429 0 0 1 -0.34211,-0.07286 65.457429,65.457429 0 0 1 -0.34208,-0.07493 65.457429,65.457429 0 0 1 -0.3416,-0.07648 65.457429,65.457429 0 0 1 -0.34054,-0.07855 65.457429,65.457429 0 0 1 -0.34105,-0.08062 65.457429,65.457429 0 0 1 -0.34004,-0.08217 65.457429,65.457429 0 0 1 -0.33952,-0.08371 65.457429,65.457429 0 0 1 -0.33951,-0.08578 65.457429,65.457429 0 0 1 -0.33848,-0.08785 65.457429,65.457429 0 0 1 -0.33848,-0.0894 65.457429,65.457429 0 0 1 -0.33796,-0.09095 65.457429,65.457429 0 0 1 -0.33745,-0.09302 65.457429,65.457429 0 0 1 -0.33692,-0.09457 65.457429,65.457429 0 0 1 -0.33641,-0.09663 65.457429,65.457429 0 0 1 -0.33539,-0.0987 65.457429,65.457429 0 0 1 -0.33539,-0.10025 65.457429,65.457429 0 0 1 -0.33485,-0.101804 65.457429,65.457429 0 0 1 -0.33436,-0.10387 65.457429,65.457429 0 0 1 -0.33332,-0.105421 65.457429,65.457429 0 0 1 -0.33329,-0.107487 65.457429,65.457429 0 0 1 -0.33229,-0.109035 65.457429,65.457429 0 0 1 -0.33227,-0.111106 65.457429,65.457429 0 0 1 -0.33126,-0.112654 65.457429,65.457429 0 0 1 -0.33073,-0.114205 65.457429,65.457429 0 0 1 -0.32969,-0.116271 65.457429,65.457429 0 0 1 -0.3297,-0.117822 65.457429,65.457429 0 0 1 -0.32867,-0.119891 65.457429,65.457429 0 0 1 -0.32813,-0.121438 65.457429,65.457429 0 0 1 -0.32764,-0.123507 65.457429,65.457429 0 0 1 -0.3271,-0.12454 65.457429,65.457429 0 0 1 -0.32607,-0.127124 65.457429,65.457429 0 0 1 -0.32557,-0.128159 65.457429,65.457429 0 0 1 -0.32454,-0.130225 65.457429,65.457429 0 0 1 -0.32451,-0.132292 65.457429,65.457429 0 0 1 -0.32298,-0.133324 65.457429,65.457429 0 0 1 -0.32298,-0.135392 65.457429,65.457429 0 0 1 -0.32194,-0.137459 65.457429,65.457429 0 0 1 -0.32144,-0.138494 65.457429,65.457429 0 0 1 -0.32039,-0.14056 65.457429,65.457429 0 0 1 -0.31935,-0.142626 65.457429,65.457429 0 0 1 -0.31938,-0.143661 65.457429,65.457429 0 0 1 -0.31779,-0.145727 65.457429,65.457429 0 0 1 -0.31782,-0.147277 65.457429,65.457429 0 0 1 -0.31625,-0.149345 65.457429,65.457429 0 0 1 -0.31576,-0.150897 65.457429,65.457429 0 0 1 -0.31522,-0.152445 65.457429,65.457429 0 0 1 -0.31419,-0.153995 65.457429,65.457429 0 0 1 -0.31316,-0.156062 65.457429,65.457429 0 0 1 -0.31264,-0.157096 65.457429,65.457429 0 0 1 -0.31162,-0.159166 65.457429,65.457429 0 0 1 -0.31057,-0.161229 65.457429,65.457429 0 0 1 -0.31006,-0.162264 65.457429,65.457429 0 0 1 -0.30901,-0.164332 65.457429,65.457429 0 0 1 -0.30851,-0.165365 65.457429,65.457429 0 0 1 -0.30697,-0.167431 65.457429,65.457429 0 0 1 -0.30644,-0.169497 65.457429,65.457429 0 0 1 -0.3054,-0.170535 65.457429,65.457429 0 0 1 -0.30488,-0.172082 65.457429,65.457429 0 0 1 -0.30335,-0.174149 65.457429,65.457429 0 0 1 -0.30284,-0.175699 65.457429,65.457429 0 0 1 -0.30178,-0.17725 65.457429,65.457429 0 0 1 -0.30076,-0.178802 65.457429,65.457429 0 0 1 -0.29972,-0.180351 65.457429,65.457429 0 0 1 -0.29921,-0.181901 65.457429,65.457429 0 0 1 -0.29766,-0.183451 65.457429,65.457429 0 0 1 -0.29713,-0.185518 65.457429,65.457429 0 0 1 -0.29612,-0.18655 65.457429,65.457429 0 0 1 -0.29456,-0.188622 65.457429,65.457429 0 0 1 -0.29403,-0.18965 65.457429,65.457429 0 0 1 -0.293,-0.19172 65.457429,65.457429 0 0 1 -0.29197,-0.19327 65.457429,65.457429 0 0 1 -0.29043,-0.194305 65.457429,65.457429 0 0 1 -0.2899,-0.196368 65.457429,65.457429 0 0 1 -0.28888,-0.197406 65.457429,65.457429 0 0 1 -0.28784,-0.199469 65.457429,65.457429 0 0 1 -0.28628,-0.201023 65.457429,65.457429 0 0 1 -0.28577,-0.202054 65.457429,65.457429 0 0 1 -0.28422,-0.204124 65.457429,65.457429 0 0 1 -0.28318,-0.205155 65.457429,65.457429 0 0 1 -0.28268,-0.206706 65.457429,65.457429 0 0 1 -0.28112,-0.208772 65.457429,65.457429 0 0 1 -0.28009,-0.209806 65.457429,65.457429 0 0 1 -0.27853,-0.211357 65.457429,65.457429 0 0 1 -0.27802,-0.212905 65.457429,65.457429 0 0 1 -0.27646,-0.214458 65.457429,65.457429 0 0 1 -0.27544,-0.21549 65.457429,65.457429 0 0 1 -0.2744,-0.217559 65.457429,65.457429 0 0 1 -0.27286,-0.218591 65.457429,65.457429 0 0 1 -0.27234,-0.220141 65.457429,65.457429 0 0 1 -0.27077,-0.221692 65.457429,65.457429 0 0 1 -0.26924,-0.223242 65.457429,65.457429 0 0 1 -0.26871,-0.224793 65.457429,65.457429 0 0 1 -0.26718,-0.225827 65.457429,65.457429 0 0 1 -0.26561,-0.227375 65.457429,65.457429 0 0 1 -0.26509,-0.228928 65.457429,65.457429 0 0 1 -0.26355,-0.22996 65.457429,65.457429 0 0 1 -0.26202,-0.232026 65.457429,65.457429 0 0 1 -0.26146,-0.233061 65.457429,65.457429 0 0 1 -0.25942,-0.234093 65.457429,65.457429 0 0 1 -0.2589,-0.236162 65.457429,65.457429 0 0 1 -0.25736,-0.237196 65.457429,65.457429 0 0 1 -0.2558,-0.238228 65.457429,65.457429 0 0 1 -0.25476,-0.240295 65.457429,65.457429 0 0 1 -0.25321,-0.241329 65.457429,65.457429 0 0 1 -0.25217,-0.242364 65.457429,65.457429 0 0 1 -0.25115,-0.243911 65.457429,65.457429 0 0 1 -0.2496,-0.245465 65.457429,65.457429 0 0 1 -0.24805,-0.246496 65.457429,65.457429 0 0 1 -0.24702,-0.248047 65.457429,65.457429 0 0 1 -0.24545,-0.249597 65.457429,65.457429 0 0 1 -0.24445,-0.25063 65.457429,65.457429 0 0 1 -0.24286,-0.251663 65.457429,65.457429 0 0 1 -0.24133,-0.253215 65.457429,65.457429 0 0 1 -0.24029,-0.254767 65.457429,65.457429 0 0 1 -0.23876,-0.255796 65.457429,65.457429 0 0 1 -0.2377,-0.256834 65.457429,65.457429 0 0 1 -0.23564,-0.258382 65.457429,65.457429 0 0 1 -0.23514,-0.259416 65.457429,65.457429 0 0 1 -0.23307,-0.260963 65.457429,65.457429 0 0 1 -0.23201,-0.262001 65.457429,65.457429 0 0 1 -0.23048,-0.263549 65.457429,65.457429 0 0 1 -0.22894,-0.264584 65.457429,65.457429 0 0 1 -0.22789,-0.265617 65.457429,65.457429 0 0 1 -0.22635,-0.26665 65.457429,65.457429 0 0 1 -0.22479,-0.2682 65.457429,65.457429 0 0 1 -0.22323,-0.269751 65.457429,65.457429 0 0 1 -0.22169,-0.270269 65.457429,65.457429 0 0 1 -0.22067,-0.271817 65.457429,65.457429 0 0 1 -0.2191,-0.272852 65.457429,65.457429 0 0 1 -0.21756,-0.274402 65.457429,65.457429 0 0 1 -0.21601,-0.274918 65.457429,65.457429 0 0 1 -0.21497,-0.276471 65.457429,65.457429 0 0 1 -0.21291,-0.2775 65.457429,65.457429 0 0 1 -0.21188,-0.279053 65.457429,65.457429 0 0 1 -0.20979,-0.27957 65.457429,65.457429 0 0 1 -0.20878,-0.28112 65.457429,65.457429 0 0 1 -0.20722,-0.281638 65.457429,65.457429 0 0 1 -0.20566,-0.283186 65.457429,65.457429 0 0 1 -0.20413,-0.284221 65.457429,65.457429 0 0 1 -0.20257,-0.285252 65.457429,65.457429 0 0 1 -0.20103,-0.286806 65.457429,65.457429 0 0 1 -0.19947,-0.287319 65.457429,65.457429 0 0 1 -0.19843,-0.288356 65.457429,65.457429 0 0 1 -0.19638,-0.289904 65.457429,65.457429 0 0 1 -0.19481,-0.290423 65.457429,65.457429 0 0 1 -0.19328,-0.29197 65.457429,65.457429 0 0 1 -0.19171,-0.292489 65.457429,65.457429 0 0 1 -0.19019,-0.293523 65.457429,65.457429 0 0 1 -0.18862,-0.295072 65.457429,65.457429 0 0 1 -0.18706,-0.29559 65.457429,65.457429 0 0 1 -0.18553,-0.296621 65.457429,65.457429 0 0 1 -0.18396,-0.297657 65.457429,65.457429 0 0 1 -0.1824,-0.29869 65.457429,65.457429 0 0 1 -0.18087,-0.299723 65.457429,65.457429 0 0 1 -0.17881,-0.300757 65.457429,65.457429 0 0 1 -0.17777,-0.301789 65.457429,65.457429 0 0 1 -0.17569,-0.302308 65.457429,65.457429 0 0 1 -0.17414,-0.303342 65.457429,65.457429 0 0 1 -0.17262,-0.30489 65.457429,65.457429 0 0 1 -0.17105,-0.30489 65.457429,65.457429 0 0 1 -0.16949,-0.306443 65.457429,65.457429 0 0 1 -0.16796,-0.306956 65.457429,65.457429 0 0 1 -0.16587,-0.307994 65.457429,65.457429 0 0 1 -0.16433,-0.309023 65.457429,65.457429 0 0 1 -0.16277,-0.310059 65.457429,65.457429 0 0 1 -0.16124,-0.310576 65.457429,65.457429 0 0 1 -0.15968,-0.311608 65.457429,65.457429 0 0 1 -0.15761,-0.312126 65.457429,65.457429 0 0 1 -0.15608,-0.313158 65.457429,65.457429 0 0 1 -0.15451,-0.314193 65.457429,65.457429 0 0 1 -0.15296,-0.314711 65.457429,65.457429 0 0 1 -0.15089,-0.315744 65.457429,65.457429 0 0 1 -0.14933,-0.316259 65.457429,65.457429 0 0 1 -0.1478,-0.317293 65.457429,65.457429 0 0 1 -0.14573,-0.31781 65.457429,65.457429 0 0 1 -0.1447,-0.318844 65.457429,65.457429 0 0 1 -0.14264,-0.319876 65.457429,65.457429 0 0 1 -0.14054,-0.320394 65.457429,65.457429 0 0 1 -0.13954,-0.320911 65.457429,65.457429 0 0 1 -0.13746,-0.321945 65.457429,65.457429 0 0 1 -0.13538,-0.322461 65.457429,65.457429 0 0 1 -0.13386,-0.323493 65.457429,65.457429 0 0 1 -0.13229,-0.324011 65.457429,65.457429 0 0 1 -0.13073,-0.324527 65.457429,65.457429 0 0 1 -0.12866,-0.325562 65.457429,65.457429 0 0 1 -0.12714,-0.326081 65.457429,65.457429 0 0 1 -0.12557,-0.326593 65.457429,65.457429 0 0 1 -0.12351,-0.327113 65.457429,65.457429 0 0 1 -0.12144,-0.328144 65.457429,65.457429 0 0 1 -0.12041,-0.328663 65.457429,65.457429 0 0 1 -0.11832,-0.329694 65.457429,65.457429 0 0 1 -0.11629,-0.329698 65.457429,65.457429 0 0 1 -0.11472,-0.330729 65.457429,65.457429 0 0 1 -0.11316,-0.331245 65.457429,65.457429 0 0 1 -0.1111,-0.331764 65.457429,65.457429 0 0 1 -0.10957,-0.332279 65.457429,65.457429 0 0 1 -0.1075,-0.332796 65.457429,65.457429 0 0 1 -0.10591,-0.33383 65.457429,65.457429 0 0 1 -0.1044,-0.33383 65.457429,65.457429 0 0 1 -0.10232,-0.334862 65.457429,65.457429 0 0 1 -0.10025,-0.33538 65.457429,65.457429 0 0 1 -0.0987,-0.335381 65.457429,65.457429 0 0 1 -0.0971,-0.336412 65.457429,65.457429 0 0 1 -0.0951,-0.336931 65.457429,65.457429 0 0 1 -0.0935,-0.336931 65.457429,65.457429 0 0 1 -0.0915,-0.337963 65.457429,65.457429 0 0 1 -0.0894,-0.338482 65.457429,65.457429 0 0 1 -0.0878,-0.338481 65.457429,65.457429 0 0 1 -0.0863,-0.338995 65.457429,65.457429 0 0 1 -0.0842,-0.340032 65.457429,65.457429 0 0 1 -0.0827,-0.340032 65.457429,65.457429 0 0 1 -0.0806,-0.340548 65.457429,65.457429 0 0 1 -0.0785,-0.341063 65.457429,65.457429 0 0 1 -0.077,-0.341064 65.457429,65.457429 0 0 1 -0.0754,-0.341582 65.457429,65.457429 0 0 1 -0.0734,-0.342615 65.457429,65.457429 0 0 1 -0.0713,-0.342614 65.457429,65.457429 0 0 1 -0.0698,-0.342614 65.457429,65.457429 0 0 1 -0.0677,-0.343133 65.457429,65.457429 0 0 1 -0.0661,-0.344165 65.457429,65.457429 0 0 1 -0.0641,-0.343649 65.457429,65.457429 0 0 1 -0.0625,-0.34468 65.457429,65.457429 0 0 1 -0.0605,-0.344683 65.457429,65.457429 0 0 1 -0.0589,-0.344681 65.457429,65.457429 0 0 1 -0.0569,-0.345199 65.457429,65.457429 0 0 1 -0.0548,-0.345715 65.457429,65.457429 0 0 1 -0.0532,-0.346232 65.457429,65.457429 0 0 1 -0.0511,-0.345715 65.457429,65.457429 0 0 1 -0.0491,-0.346749 65.457429,65.457429 0 0 1 -0.048,-0.34675 65.457429,65.457429 0 0 1 -0.0455,-0.346747 65.457429,65.457429 0 0 1 -0.0439,-0.347266 65.457429,65.457429 0 0 1 -0.0419,-0.347265 65.457429,65.457429 0 0 1 -0.0403,-0.347785 65.457429,65.457429 0 0 1 -0.0383,-0.347781 65.457429,65.457429 0 0 1 -0.0362,-0.3483 65.457429,65.457429 0 0 1 -0.0346,-0.347782 65.457429,65.457429 0 0 1 -0.0326,-0.348816 65.457429,65.457429 0 0 1 -0.031,-0.3483 65.457429,65.457429 0 0 1 -0.0289,-0.348814 65.457429,65.457429 0 0 1 -0.0274,-0.348816 65.457429,65.457429 0 0 1 -0.0248,-0.349334 65.457429,65.457429 0 0 1 -0.0238,-0.348816 65.457429,65.457429 0 0 1 -0.0212,-0.349332 65.457429,65.457429 0 0 1 -0.0197,-0.349332 65.457429,65.457429 0 0 1 -0.0181,-0.349851 65.457429,65.457429 0 0 1 -0.0155,-0.349332 65.457429,65.457429 0 0 1 -0.0145,-0.349848 65.457429,65.457429 0 0 1 -0.0119,-0.349851 65.457429,65.457429 0 0 1 -0.0103,-0.34985 65.457429,65.457429 0 0 1 -0.008,-0.349848 65.457429,65.457429 0 0 1 -0.007,-0.349851 65.457429,65.457429 0 0 1 -0.005,-0.349848 65.457429,65.457429 0 0 1 -0.003,-0.34985 65.457429,65.457429 0 0 1 -10e-4,-0.349848 65.457429,65.457429 0 0 1 5.3e-4,-0.285771 65.457429,65.457429 0 0 1 0.003,-0.349851 65.457429,65.457429 0 0 1 0.004,-0.349848 65.457429,65.457429 0 0 1 0.006,-0.349851 65.457429,65.457429 0 0 1 0.008,-0.349847 65.457429,65.457429 0 0 1 0.01,-0.349851 65.457429,65.457429 0 0 1 0.0119,-0.349851 65.457429,65.457429 0 0 1 0.0134,-0.349848 65.457429,65.457429 0 0 1 0.0155,-0.349332 65.457429,65.457429 0 0 1 0.0176,-0.349334 65.457429,65.457429 0 0 1 0.0196,-0.349848 65.457429,65.457429 0 0 1 0.0207,-0.349332 65.457429,65.457429 0 0 1 0.0232,-0.348816 65.457429,65.457429 0 0 1 0.0248,-0.349335 65.457429,65.457429 0 0 1 0.0269,-0.348816 65.457429,65.457429 0 0 1 0.0284,-0.348814 65.457429,65.457429 0 0 1 0.0305,-0.3483 65.457429,65.457429 0 0 1 0.0325,-0.348816 65.457429,65.457429 0 0 1 0.0341,-0.3483 65.457429,65.457429 0 0 1 0.0362,-0.347781 65.457429,65.457429 0 0 1 0.0377,-0.347782 65.457429,65.457429 0 0 1 0.0398,-0.347784 65.457429,65.457429 0 0 1 0.0419,-0.347782 65.457429,65.457429 0 0 1 0.0434,-0.347265 65.457429,65.457429 0 0 1 0.0455,-0.34675 65.457429,65.457429 0 0 1 0.047,-0.346747 65.457429,65.457429 0 0 1 0.0491,-0.34675 65.457429,65.457429 0 0 1 0.0512,-0.346231 65.457429,65.457429 0 0 1 0.0527,-0.345715 65.457429,65.457429 0 0 1 0.0548,-0.345715 65.457429,65.457429 0 0 1 0.0563,-0.345199 65.457429,65.457429 0 0 1 0.0584,-0.3452 65.457429,65.457429 0 0 1 0.06,-0.34468 65.457429,65.457429 0 0 1 0.062,-0.344684 65.457429,65.457429 0 0 1 0.0641,-0.343648 65.457429,65.457429 0 0 1 0.0656,-0.343646 65.457429,65.457429 0 0 1 0.0672,-0.343649 65.457429,65.457429 0 0 1 0.0698,-0.343133 65.457429,65.457429 0 0 1 0.0708,-0.342614 65.457429,65.457429 0 0 1 0.0734,-0.342099 65.457429,65.457429 0 0 1 0.0749,-0.342098 65.457429,65.457429 0 0 1 0.0765,-0.341064 65.457429,65.457429 0 0 1 0.0785,-0.341064 65.457429,65.457429 0 0 1 0.0801,-0.340547 65.457429,65.457429 0 0 1 0.0822,-0.340548 65.457429,65.457429 0 0 1 0.0842,-0.339514 65.457429,65.457429 0 0 1 0.0858,-0.339516 65.457429,65.457429 0 0 1 0.0873,-0.338478 65.457429,65.457429 0 0 1 0.0894,-0.338482 65.457429,65.457429 0 0 1 0.0915,-0.337965 65.457429,65.457429 0 0 1 0.093,-0.337447 65.457429,65.457429 0 0 1 0.0946,-0.336413 65.457429,65.457429 0 0 1 0.0966,-0.336412 65.457429,65.457429 0 0 1 0.0982,-0.335899 65.457429,65.457429 0 0 1 0.10025,-0.335378 65.457429,65.457429 0 0 1 0.10232,-0.334865 65.457429,65.457429 0 0 1 0.10334,-0.33383 65.457429,65.457429 0 0 1 0.10594,-0.33383 65.457429,65.457429 0 0 1 0.10697,-0.333316 65.457429,65.457429 0 0 1 0.10957,-0.33228 65.457429,65.457429 0 0 1 0.11059,-0.33176 65.457429,65.457429 0 0 1 0.11264,-0.33176 65.457429,65.457429 0 0 1 0.11472,-0.33021 65.457429,65.457429 0 0 1 0.11628,-0.33022 65.457429,65.457429 0 0 1 0.11782,-0.32969 65.457429,65.457429 0 0 1 0.11989,-0.32866 65.457429,65.457429 0 0 1 0.12144,-0.32815 65.457429,65.457429 0 0 1 0.123,-0.32763 65.457429,65.457429 0 0 1 0.12505,-0.32711 65.457429,65.457429 0 0 1 0.1266,-0.32608 65.457429,65.457429 0 0 1 0.12869,-0.32556 65.457429,65.457429 0 0 1 0.1302,-0.32453 65.457429,65.457429 0 0 1 0.13179,-0.32401 65.457429,65.457429 0 0 1 0.13383,-0.32349 65.457429,65.457429 0 0 1 0.13541,-0.32298 65.457429,65.457429 0 0 1 0.13692,-0.32194 65.457429,65.457429 0 0 1 0.13902,-0.32091 65.457429,65.457429 0 0 1 0.14057,-0.3204 65.457429,65.457429 0 0 1 0.14211,-0.31988 65.457429,65.457429 0 0 1 0.14417,-0.31884 65.457429,65.457429 0 0 1 0.14573,-0.31833 65.457429,65.457429 0 0 1 0.14727,-0.31729 65.457429,65.457429 0 0 1 0.14936,-0.31678 65.457429,65.457429 0 0 1 0.15036,-0.31574 65.457429,65.457429 0 0 1 0.15245,-0.31523 65.457429,65.457429 0 0 1 0.15452,-0.31419 65.457429,65.457429 0 0 1 0.15555,-0.31316 65.457429,65.457429 0 0 1 0.15761,-0.31264 65.457429,65.457429 0 0 1 0.11679,-0.22841 65.457429,65.457429 0 0 0 -35.61488,58.258975 65.457429,65.457429 0 0 0 65.45749,65.457503 z" />
    <path
       id="path1093-6"
       d="M 277.63664,-32.119245 A 19.276785,124.35416 60 0 1 179.58116,46.752016 19.276785,124.35416 60 0 1 62.248918,92.234915 19.276785,124.35416 60 0 1 160.30439,13.363645 19.276785,124.35416 60 0 1 277.63664,-32.119245"
       style="display:inline;opacity:0.988;fill:none;fill-opacity:1;stroke:#53d8c0;stroke-width:5;stroke-linecap:square;stroke-miterlimit:4;stroke-dasharray:none;stroke-opacity:1;paint-order:stroke fill markers" />
    <path
       style="display:inline;opacity:0.988;fill:none;fill-opacity:1;stroke:#53c5d8;stroke-width:5;stroke-linecap:square;stroke-miterlimit:4;stroke-dasharray:none;stroke-opacity:1;paint-order:stroke fill markers"
       d="M 277.63664,-32.119245 A 19.276785,124.35416 60 0 1 179.58116,46.752016 19.276785,124.35416 60 0 1 62.248918,92.234915 19.276785,124.35416 60 0 1 160.30439,13.363645 19.276785,124.35416 60 0 1 277.63664,-32.119245"
       id="path850" />
    <rect
       transform="rotate(-45)"
       ry="0.52668977"
       y="34.820557"
       x="-10.080723"
       height="3.0561953"
       width="3.0561953"
       id="rect1015-4"
       style="font-variation-settings:normal;display:inline;opacity:1;vector-effect:none;fill:#b2d4ea;fill-opacity:0.546468;fill-rule:evenodd;stroke:none;stroke-width:0.11551;stroke-linecap:round;stroke-linejoin:round;stroke-miterlimit:4;stroke-dasharray:none;stroke-dashoffset:0;stroke-opacity:1;paint-order:markers stroke fill;stop-color:#000000;stop-opacity:1" />
    <rect
       transform="rotate(-45)"
       ry="0.52668977"
       y="188.23326"
       x="18.249847"
       height="3.0561953"
       width="3.0561953"
       id="rect1015-4-4"
       style="font-variation-settings:normal;display:inline;opacity:1;vector-effect:none;fill:#b2d4ea;fill-opacity:0.546468;fill-rule:evenodd;stroke:none;stroke-width:0.11551;stroke-linecap:round;stroke-linejoin:round;stroke-miterlimit:4;stroke-dasharray:none;stroke-dashoffset:0;stroke-opacity:1;paint-order:markers stroke fill;stop-color:#000000;stop-opacity:1" />
    <rect
       transform="rotate(-45)"
       ry="0.52668977"
       y="108.7937"
       x="23.843554"
       height="3.0561953"
       width="3.0561953"
       id="rect1015-4-2"
       style="font-variation-settings:normal;display:inline;opacity:1;vector-effect:none;fill:#b2d4ea;fill-opacity:0.546468;fill-rule:evenodd;stroke:none;stroke-width:0.11551;stroke-linecap:round;stroke-linejoin:round;stroke-miterlimit:4;stroke-dasharray:none;stroke-dashoffset:0;stroke-opacity:1;paint-order:markers stroke fill;stop-color:#000000;stop-opacity:1" />
    <rect
       style="font-variation-settings:normal;display:inline;opacity:1;vector-effect:none;fill:#b2d4ea;fill-opacity:0.546468;fill-rule:evenodd;stroke:none;stroke-width:0.11551;stroke-linecap:round;stroke-linejoin:round;stroke-miterlimit:4;stroke-dasharray:none;stroke-dashoffset:0;stroke-opacity:1;paint-order:markers stroke fill;stop-color:#000000;stop-opacity:1"
       id="rect1015-4-2-8"
       width="3.0561953"
       height="3.0561953"
       x="-72.08725"
       y="98.965248"
       ry="0.52668977"
       transform="rotate(-45)" />
    <rect
       style="font-variation-settings:normal;display:inline;opacity:1;vector-effect:none;fill:#b2d4ea;fill-opacity:0.546468;fill-rule:evenodd;stroke:none;stroke-width:0.11551;stroke-linecap:round;stroke-linejoin:round;stroke-miterlimit:4;stroke-dasharray:none;stroke-dashoffset:0;stroke-opacity:1;paint-order:markers stroke fill;stop-color:#000000;stop-opacity:1"
       id="rect1015-4-2-3"
       width="3.0561953"
       height="3.0561953"
       x="-23.176929"
       y="169.25713"
       ry="0.52668977"
       transform="rotate(-45)" />
    <rect
       style="font-variation-settings:normal;display:inline;opacity:1;vector-effect:none;fill:#b2d4ea;fill-opacity:0.546468;fill-rule:evenodd;stroke:none;stroke-width:0.11551;stroke-linecap:round;stroke-linejoin:round;stroke-miterlimit:4;stroke-dasharray:none;stroke-dashoffset:0;stroke-opacity:1;paint-order:markers stroke fill;stop-color:#000000;stop-opacity:1"
       id="rect1015-4-2-5"
       width="3.0561953"
       height="3.0561953"
       x="52.727615"
       y="71.971024"
       ry="0.52668977"
       transform="rotate(-45)" />
    <rect
       style="font-variation-settings:normal;display:inline;opacity:1;vector-effect:none;fill:#b2d4ea;fill-opacity:0.546468;fill-rule:evenodd;stroke:none;stroke-width:0.11551;stroke-linecap:round;stroke-linejoin:round;stroke-miterlimit:4;stroke-dasharray:none;stroke-dashoffset:0;stroke-opacity:1;paint-order:markers stroke fill;stop-color:#000000;stop-opacity:1"
       id="rect1015-4-2-1"
       width="3.0561953"
       height="3.0561953"
       x="-19.969694"
       y="75.178253"
       ry="0.52668977"
       transform="rotate(-45)" />
    <rect
       style="font-variation-settings:normal;display:inline;opacity:1;vector-effect:none;fill:#b2d4ea;fill-opacity:0.546468;fill-rule:evenodd;stroke:none;stroke-width:0.11551;stroke-linecap:round;stroke-linejoin:round;stroke-miterlimit:4;stroke-dasharray:none;stroke-dashoffset:0;stroke-opacity:1;paint-order:markers stroke fill;stop-color:#000000;stop-opacity:1"
       id="rect1015-4-2-4"
       width="3.0561953"
       height="3.0561953"
       x="66.892899"
       y="205.33852"
       ry="0.52668977"
       transform="rotate(-45)" />
    <rect
       style="font-variation-settings:normal;display:inline;opacity:1;vector-effect:none;fill:#b2d4ea;fill-opacity:0.546468;fill-rule:evenodd;stroke:none;stroke-width:0.11551;stroke-linecap:round;stroke-linejoin:round;stroke-miterlimit:4;stroke-dasharray:none;stroke-dashoffset:0;stroke-opacity:1;paint-order:markers stroke fill;stop-color:#000000;stop-opacity:1"
       id="rect1015-4-2-15"
       width="3.0561953"
       height="3.0561953"
       x="36.156906"
       y="239.28175"
       ry="0.52668977"
       transform="rotate(-45)" />
    <path
       style="display:inline;opacity:0.988;fill:#b6e9dc;fill-opacity:1;stroke-width:0.800309;stroke-linecap:square;paint-order:stroke fill markers"
       d="m 226.86979,-2.6708805 a 65.45743,65.45743 0 0 0 -89.41652,-23.9590905 65.45743,65.45743 0 0 0 -23.95908,89.41653 65.45743,65.45743 0 0 0 89.41651,23.95907 65.45743,65.45743 0 0 0 23.95909,-89.4165095"
       id="path40-1-4-6-9-7" />
    <path
       id="path967-7"
       style="display:inline;opacity:0.988;fill:#a5d4dc;fill-opacity:1;stroke-width:0.800309;stroke-linecap:square;paint-order:stroke fill markers"
       d="m 113.59948,62.967509 a 92.718922,92.718922 0 0 0 0.32139,0.0853 92.718922,92.718922 0 0 0 0.4036,0.10473 92.718922,92.718922 0 0 0 0.40323,0.10314 92.718922,92.718922 0 0 0 0.4038,0.10101 92.718922,92.718922 0 0 0 0.40465,0.0994 92.718922,92.718922 0 0 0 0.40504,0.0979 92.718922,92.718922 0 0 0 0.40528,0.0954 92.718922,92.718922 0 0 0 0.40573,0.094 92.718922,92.718922 0 0 0 0.40627,0.0918 92.718922,92.718922 0 0 0 0.40666,0.0905 92.718922,92.718922 0 0 0 0.40677,0.0886 92.718922,92.718922 0 0 0 0.40733,0.0864 92.718922,92.718922 0 0 0 0.40817,0.0848 92.718922,92.718922 0 0 0 0.40783,0.0832 92.718922,92.718922 0 0 0 0.40886,0.0808 92.718922,92.718922 0 0 0 0.40878,0.0796 92.718922,92.718922 0 0 0 0.40909,0.0771 92.718922,92.718922 0 0 0 0.40947,0.0757 92.718922,92.718922 0 0 0 0.41003,0.0736 92.718922,92.718922 0 0 0 0.41044,0.0721 92.718922,92.718922 0 0 0 0.41026,0.0698 92.718922,92.718922 0 0 0 0.41112,0.0682 92.718922,92.718922 0 0 0 0.41122,0.0663 92.718922,92.718922 0 0 0 0.41158,0.0649 92.718922,92.718922 0 0 0 0.41147,0.0626 92.718922,92.718922 0 0 0 0.4123,0.0609 92.718922,92.718922 0 0 0 0.41215,0.0586 92.718922,92.718922 0 0 0 0.41256,0.0572 92.718922,92.718922 0 0 0 0.41263,0.0553 92.718922,92.718922 0 0 0 0.4132,0.0532 92.718922,92.718922 0 0 0 0.41315,0.052 92.718922,92.718922 0 0 0 0.41347,0.0495 92.718922,92.718922 0 0 0 0.41384,0.0481 92.718922,92.718922 0 0 0 0.41413,0.0455 92.718922,92.718922 0 0 0 0.41407,0.0444 92.718922,92.718922 0 0 0 0.41437,0.0418 92.718922,92.718922 0 0 0 0.41433,0.0407 92.718922,92.718922 0 0 0 0.41487,0.0385 92.718922,92.718922 0 0 0 0.415,0.0367 92.718922,92.718922 0 0 0 0.4147,0.0351 92.718922,92.718922 0 0 0 0.41522,0.0329 92.718922,92.718922 0 0 0 0.41538,0.0311 92.718922,92.718922 0 0 0 0.41546,0.0292 92.718922,92.718922 0 0 0 0.41561,0.0274 92.718922,92.718922 0 0 0 0.41573,0.0255 92.718922,92.718922 0 0 0 0.41558,0.0232 92.718922,92.718922 0 0 0 0.41596,0.0218 92.718922,92.718922 0 0 0 0.41607,0.02 92.718922,92.718922 0 0 0 0.41623,0.0181 92.718922,92.718922 0 0 0 0.41629,0.0162 92.718922,92.718922 0 0 0 0.41618,0.0139 92.718922,92.718922 0 0 0 0.41657,0.0125 92.718922,92.718922 0 0 0 0.41597,0.0105 92.718922,92.718922 0 0 0 0.4168,0.009 92.718922,92.718922 0 0 0 0.41622,0.007 92.718922,92.718922 0 0 0 0.41632,0.005 92.718922,92.718922 0 0 0 0.41647,0.003 92.718922,92.718922 0 0 0 0.41657,0.001 92.718922,92.718922 0 0 0 0.41669,-6.8e-4 92.718922,92.718922 0 0 0 0.41638,-0.002 92.718922,92.718922 0 0 0 0.41622,-0.005 92.718922,92.718922 0 0 0 0.4166,-0.006 92.718922,92.718922 0 0 0 0.41647,-0.008 92.718922,92.718922 0 0 0 0.41659,-0.0102 92.718922,92.718922 0 0 0 0.41625,-0.0118 92.718922,92.718922 0 0 0 0.41614,-0.0141 92.718922,92.718922 0 0 0 0.41648,-0.0155 92.718922,92.718922 0 0 0 0.41593,-0.0176 92.718922,92.718922 0 0 0 0.41602,-0.0194 92.718922,92.718922 0 0 0 0.41617,-0.0213 92.718922,92.718922 0 0 0 0.41557,-0.0233 92.718922,92.718922 0 0 0 0.41593,-0.0248 92.718922,92.718922 0 0 0 0.41535,-0.0268 92.718922,92.718922 0 0 0 0.4155,-0.0286 92.718922,92.718922 0 0 0 0.41532,-0.0309 92.718922,92.718922 0 0 0 0.41529,-0.0321 92.718922,92.718922 0 0 0 0.41514,-0.0344 92.718922,92.718922 0 0 0 0.41498,-0.0367 92.718922,92.718922 0 0 0 0.41493,-0.0379 92.718922,92.718922 0 0 0 0.41435,-0.0399 92.718922,92.718922 0 0 0 0.41445,-0.0418 92.718922,92.718922 0 0 0 0.41413,-0.0434 92.718922,92.718922 0 0 0 0.41399,-0.0457 92.718922,92.718922 0 0 0 0.41368,-0.0473 92.718922,92.718922 0 0 0 0.41376,-0.0491 92.718922,92.718922 0 0 0 0.41323,-0.0512 92.718922,92.718922 0 0 0 0.41331,-0.053 92.718922,92.718922 0 0 0 0.41274,-0.0551 92.718922,92.718922 0 0 0 0.41266,-0.0563 92.718922,92.718922 0 0 0 0.41252,-0.0586 92.718922,92.718922 0 0 0 0.41193,-0.0606 92.718922,92.718922 0 0 0 0.41191,-0.0618 92.718922,92.718922 0 0 0 0.41144,-0.0645 92.718922,92.718922 0 0 0 0.41143,-0.0657 92.718922,92.718922 0 0 0 0.41081,-0.0677 92.718922,92.718922 0 0 0 0.41049,-0.0693 92.718922,92.718922 0 0 0 0.41034,-0.0716 92.718922,92.718922 0 0 0 0.41004,-0.0733 92.718922,92.718922 0 0 0 0.40943,-0.0753 92.718922,92.718922 0 0 0 0.40956,-0.0771 92.718922,92.718922 0 0 0 0.40876,-0.0785 92.718922,92.718922 0 0 0 0.40867,-0.0808 92.718922,92.718922 0 0 0 0.40832,-0.0824 92.718922,92.718922 0 0 0 0.40773,-0.0845 92.718922,92.718922 0 0 0 0.40786,-0.0863 92.718922,92.718922 0 0 0 0.40707,-0.0876 92.718922,92.718922 0 0 0 0.40648,-0.0897 92.718922,92.718922 0 0 0 0.40636,-0.092 92.718922,92.718922 0 0 0 0.40558,-0.0933 92.718922,92.718922 0 0 0 0.40569,-0.0952 92.718922,92.718922 0 0 0 0.40512,-0.0972 92.718922,92.718922 0 0 0 0.40478,-0.0988 92.718922,92.718922 0 0 0 0.40374,-0.10062 92.718922,92.718922 0 0 0 0.40389,-0.10252 92.718922,92.718922 0 0 0 0.40328,-0.10452 92.718922,92.718922 0 0 0 0.4025,-0.10589 92.718922,92.718922 0 0 0 0.40237,-0.10818 92.718922,92.718922 0 0 0 0.40161,-0.10956 92.718922,92.718922 0 0 0 0.40145,-0.11185 92.718922,92.718922 0 0 0 0.40069,-0.11317 92.718922,92.718922 0 0 0 0.40009,-0.11523 92.718922,92.718922 0 0 0 0.39975,-0.11684 92.718922,92.718922 0 0 0 0.39919,-0.1189 92.718922,92.718922 0 0 0 0.39887,-0.12047 92.718922,92.718922 0 0 0 0.39825,-0.12252 92.718922,92.718922 0 0 0 0.39751,-0.12389 92.718922,92.718922 0 0 0 0.39691,-0.12591 92.718922,92.718922 0 0 0 0.39629,-0.12798 92.718922,92.718922 0 0 0 0.39602,-0.12957 92.718922,92.718922 0 0 0 0.3952,-0.13093 92.718922,92.718922 0 0 0 0.39463,-0.13294 92.718922,92.718922 0 0 0 0.39407,-0.13504 92.718922,92.718922 0 0 0 0.39371,-0.13659 92.718922,92.718922 0 0 0 0.39266,-0.13841 92.718922,92.718922 0 0 0 0.39237,-0.14002 92.718922,92.718922 0 0 0 0.39134,-0.1418 92.718922,92.718922 0 0 0 0.391,-0.14337 92.718922,92.718922 0 0 0 0.39041,-0.14546 92.718922,92.718922 0 0 0 0.38937,-0.14722 92.718922,92.718922 0 0 0 0.38904,-0.14885 92.718922,92.718922 0 0 0 0.38846,-0.15087 92.718922,92.718922 0 0 0 0.38771,-0.15222 92.718922,92.718922 0 0 0 0.38664,-0.15402 92.718922,92.718922 0 0 0 0.38678,-0.15589 92.718922,92.718922 0 0 0 0.38529,-0.15741 92.718922,92.718922 0 0 0 0.38471,-0.15943 92.718922,92.718922 0 0 0 0.38438,-0.16108 92.718922,92.718922 0 0 0 0.38334,-0.16285 92.718922,92.718922 0 0 0 0.38232,-0.16463 92.718922,92.718922 0 0 0 0.38199,-0.16625 92.718922,92.718922 0 0 0 0.3812,-0.16757 92.718922,92.718922 0 0 0 0.38062,-0.16961 92.718922,92.718922 0 0 0 0.37959,-0.17145 92.718922,92.718922 0 0 0 0.37857,-0.17319 92.718922,92.718922 0 0 0 0.37821,-0.17483 92.718922,92.718922 0 0 0 0.37749,-0.17615 92.718922,92.718922 0 0 0 0.3764,-0.17794 92.718922,92.718922 0 0 0 0.37539,-0.17973 92.718922,92.718922 0 0 0 0.37479,-0.1818 92.718922,92.718922 0 0 0 0.37403,-0.18311 92.718922,92.718922 0 0 0 0.37371,-0.18475 92.718922,92.718922 0 0 0 0.37195,-0.1867 92.718922,92.718922 0 0 0 0.37161,-0.18827 92.718922,92.718922 0 0 0 0.37086,-0.18967 92.718922,92.718922 0 0 0 0.36984,-0.19144 92.718922,92.718922 0 0 0 0.36878,-0.19322 92.718922,92.718922 0 0 0 0.36847,-0.19486 92.718922,92.718922 0 0 0 0.36696,-0.19635 92.718922,92.718922 0 0 0 0.3664,-0.19841 92.718922,92.718922 0 0 0 0.36562,-0.19976 92.718922,92.718922 0 0 0 0.36416,-0.20124 92.718922,92.718922 0 0 0 0.3638,-0.20288 92.718922,92.718922 0 0 0 0.36254,-0.20516 92.718922,92.718922 0 0 0 0.362,-0.206 92.718922,92.718922 0 0 0 0.24818,-0.1427 92.718922,92.718922 0 0 0 0.3602,-0.20913 92.718922,92.718922 0 0 0 0.35918,-0.21094 92.718922,92.718922 0 0 0 0.35835,-0.21232 92.718922,92.718922 0 0 0 0.3576,-0.21363 92.718922,92.718922 0 0 0 0.35631,-0.21588 92.718922,92.718922 0 0 0 0.35552,-0.2172 92.718922,92.718922 0 0 0 0.35434,-0.2183 92.718922,92.718922 0 0 0 0.35375,-0.22034 92.718922,92.718922 0 0 0 0.35224,-0.22187 92.718922,92.718922 0 0 0 0.35146,-0.2232 92.718922,92.718922 0 0 0 0.35046,-0.22501 92.718922,92.718922 0 0 0 0.34943,-0.2268 92.718922,92.718922 0 0 0 0.34861,-0.22813 92.718922,92.718922 0 0 0 0.34717,-0.22967 92.718922,92.718922 0 0 0 0.34656,-0.2317 92.718922,92.718922 0 0 0 0.34534,-0.23282 92.718922,92.718922 0 0 0 0.34413,-0.23388 92.718922,92.718922 0 0 0 0.34329,-0.23637 92.718922,92.718922 0 0 0 0.34231,-0.23705 92.718922,92.718922 0 0 0 0.34102,-0.23923 92.718922,92.718922 0 0 0 0.34025,-0.24063 92.718922,92.718922 0 0 0 0.33876,-0.24211 92.718922,92.718922 0 0 0 0.33799,-0.24348 92.718922,92.718922 0 0 0 0.33653,-0.24501 92.718922,92.718922 0 0 0 0.33545,-0.2468 92.718922,92.718922 0 0 0 0.33472,-0.24812 92.718922,92.718922 0 0 0 0.33347,-0.24924 92.718922,92.718922 0 0 0 0.33219,-0.25145 92.718922,92.718922 0 0 0 0.33095,-0.25254 92.718922,92.718922 0 0 0 0.33021,-0.25389 92.718922,92.718922 0 0 0 0.32915,-0.25565 92.718922,92.718922 0 0 0 0.32767,-0.25723 92.718922,92.718922 0 0 0 0.32645,-0.25827 92.718922,92.718922 0 0 0 0.32543,-0.26009 92.718922,92.718922 0 0 0 0.3242,-0.26117 92.718922,92.718922 0 0 0 0.32314,-0.26295 92.718922,92.718922 0 0 0 0.3217,-0.26449 92.718922,92.718922 0 0 0 0.32089,-0.26583 92.718922,92.718922 0 0 0 0.31896,-0.2671 92.718922,92.718922 0 0 0 0.31866,-0.26869 92.718922,92.718922 0 0 0 0.31672,-0.27001 92.718922,92.718922 0 0 0 0.31596,-0.27131 92.718922,92.718922 0 0 0 0.3149,-0.2731 92.718922,92.718922 0 0 0 0.31298,-0.27441 92.718922,92.718922 0 0 0 0.31222,-0.27572 92.718922,92.718922 0 0 0 0.31099,-0.2768 92.718922,92.718922 0 0 0 0.30993,-0.2786 92.718922,92.718922 0 0 0 0.30849,-0.28015 92.718922,92.718922 0 0 0 0.30724,-0.28121 92.718922,92.718922 0 0 0 0.30575,-0.28275 92.718922,92.718922 0 0 0 0.30457,-0.28384 92.718922,92.718922 0 0 0 0.30305,-0.28534 92.718922,92.718922 0 0 0 0.30228,-0.28671 92.718922,92.718922 0 0 0 0.30081,-0.28825 92.718922,92.718922 0 0 0 0.29959,-0.28934 92.718922,92.718922 0 0 0 0.2981,-0.29086 92.718922,92.718922 0 0 0 0.29663,-0.29236 92.718922,92.718922 0 0 0 0.29539,-0.29349 92.718922,92.718922 0 0 0 0.29463,-0.29482 92.718922,92.718922 0 0 0 0.2927,-0.29608 92.718922,92.718922 0 0 0 0.29148,-0.29717 92.718922,92.718922 0 0 0 0.29043,-0.29897 92.718922,92.718922 0 0 0 0.28877,-0.29978 92.718922,92.718922 0 0 0 0.28726,-0.30135 92.718922,92.718922 0 0 0 0.28652,-0.30266 92.718922,92.718922 0 0 0 0.28458,-0.30391 92.718922,92.718922 0 0 0 0.28336,-0.305 92.718922,92.718922 0 0 0 0.28234,-0.30682 92.718922,92.718922 0 0 0 0.28062,-0.30765 92.718922,92.718922 0 0 0 0.27942,-0.30877 92.718922,92.718922 0 0 0 0.27795,-0.31022 92.718922,92.718922 0 0 0 0.27604,-0.31153 92.718922,92.718922 0 0 0 0.27523,-0.3129 92.718922,92.718922 0 0 0 0.27359,-0.31368 92.718922,92.718922 0 0 0 0.27254,-0.31545 92.718922,92.718922 0 0 0 0.27086,-0.31634 92.718922,92.718922 0 0 0 0.26963,-0.31741 92.718922,92.718922 0 0 0 0.2677,-0.31868 92.718922,92.718922 0 0 0 0.26666,-0.32047 92.718922,92.718922 0 0 0 0.26526,-0.32084 92.718922,92.718922 0 0 0 0.26352,-0.32283 92.718922,92.718922 0 0 0 0.26213,-0.32321 92.718922,92.718922 0 0 0 0.26067,-0.32471 92.718922,92.718922 0 0 0 0.25937,-0.32583 92.718922,92.718922 0 0 0 0.25793,-0.32735 92.718922,92.718922 0 0 0 0.25631,-0.32815 92.718922,92.718922 0 0 0 0.25509,-0.32922 92.718922,92.718922 0 0 0 0.25308,-0.33055 92.718922,92.718922 0 0 0 0.25234,-0.33188 92.718922,92.718922 0 0 0 0.25024,-0.33242 92.718922,92.718922 0 0 0 0.2492,-0.33422 92.718922,92.718922 0 0 0 0.2471,-0.33479 92.718922,92.718922 0 0 0 0.24627,-0.33615 92.718922,92.718922 0 0 0 0.24434,-0.33742 92.718922,92.718922 0 0 0 0.24274,-0.33823 92.718922,92.718922 0 0 0 0.24149,-0.33928 92.718922,92.718922 0 0 0 0.2396,-0.3406 92.718922,92.718922 0 0 0 0.23837,-0.34166 92.718922,92.718922 0 0 0 0.23713,-0.34273 92.718922,92.718922 0 0 0 0.23543,-0.34357 92.718922,92.718922 0 0 0 0.23352,-0.34487 92.718922,92.718922 0 0 0 0.2321,-0.34522 92.718922,92.718922 0 0 0 0.23038,-0.34723 92.718922,92.718922 0 0 0 0.22936,-0.34785 92.718922,92.718922 0 0 0 0.22744,-0.34915 92.718922,92.718922 0 0 0 0.22604,-0.34951 92.718922,92.718922 0 0 0 0.22412,-0.35078 92.718922,92.718922 0 0 0 0.22259,-0.35234 92.718922,92.718922 0 0 0 0.22119,-0.35271 92.718922,92.718922 0 0 0 0.21976,-0.35423 92.718922,92.718922 0 0 0 0.21763,-0.35476 92.718922,92.718922 0 0 0 0.21601,-0.35613 92.718922,92.718922 0 0 0 0.21506,-0.35649 92.718922,92.718922 0 0 0 0.2135,-0.35779 92.718922,92.718922 0 0 0 0.21184,-0.35892 92.718922,92.718922 0 0 0 0.2099,-0.35957 92.718922,92.718922 0 0 0 0.20827,-0.36073 92.718922,92.718922 0 0 0 0.20645,-0.36157 92.718922,92.718922 0 0 0 0.20467,-0.3625 92.718922,92.718922 0 0 0 0.20397,-0.36329 92.718922,92.718922 0 0 0 0.20216,-0.36417 92.718922,92.718922 0 0 0 0.19965,-0.3658 92.718922,92.718922 0 0 0 0.19867,-0.36591 92.718922,92.718922 0 0 0 0.19676,-0.36719 92.718922,92.718922 0 0 0 0.19536,-0.36757 92.718922,92.718922 0 0 0 0.19343,-0.36883 92.718922,92.718922 0 0 0 0.19173,-0.36969 92.718922,92.718922 0 0 0 0.1908,-0.37027 92.718922,92.718922 0 0 0 0.1884,-0.37132 92.718922,92.718922 0 0 0 0.18718,-0.37241 92.718922,92.718922 0 0 0 0.18507,-0.37295 92.718922,92.718922 0 0 0 0.18337,-0.3738 92.718922,92.718922 0 0 0 0.18216,-0.3749 92.718922,92.718922 0 0 0 0.18005,-0.37546 92.718922,92.718922 0 0 0 0.17863,-0.37581 92.718922,92.718922 0 0 0 0.17712,-0.37737 92.718922,92.718922 0 0 0 0.17502,-0.37795 92.718922,92.718922 0 0 0 0.17341,-0.37875 92.718922,92.718922 0 0 0 0.17169,-0.37958 92.718922,92.718922 0 0 0 0.17028,-0.37993 92.718922,92.718922 0 0 0 0.16789,-0.38099 92.718922,92.718922 0 0 0 0.16697,-0.3816 92.718922,92.718922 0 0 0 0.16456,-0.3826295 92.718922,92.718922 0 0 0 0.16315,-0.38299 92.718922,92.718922 0 0 0 0.16146,-0.38385 92.718922,92.718922 0 0 0 0.15983,-0.38464 92.718922,92.718922 0 0 0 0.15813,-0.38549 92.718922,92.718922 0 0 0 0.15603,-0.38604 92.718922,92.718922 0 0 0 0.1551,-0.38666 92.718922,92.718922 0 0 0 0.15271,-0.38769 92.718922,92.718922 0 0 0 0.15082,-0.38784 92.718922,92.718922 0 0 0 0.14959,-0.38889 92.718922,92.718922 0 0 0 0.14749,-0.38946 92.718922,92.718922 0 0 0 0.1458,-0.39033 92.718922,92.718922 0 0 0 0.14369,-0.39087 92.718922,92.718922 0 0 0 0.14228,-0.39125 92.718922,92.718922 0 0 0 0.14057,-0.39207 92.718922,92.718922 0 0 0 0.13896,-0.39289 92.718922,92.718922 0 0 0 0.13708,-0.39302 92.718922,92.718922 0 0 0 0.13515,-0.39429 92.718922,92.718922 0 0 0 0.13327,-0.39442 92.718922,92.718922 0 0 0 0.13195,-0.39475 92.718922,92.718922 0 0 0 0.12994,-0.39608 92.718922,92.718922 0 0 0 0.12815,-0.39615 92.718922,92.718922 0 0 0 0.12644,-0.397 92.718922,92.718922 0 0 0 0.12454,-0.39712001 92.718922,92.718922 0 0 0 0.12294,-0.39792 92.718922,92.718922 0 0 0 0.12075,-0.39856 92.718922,92.718922 0 0 0 0.11912,-0.39932 92.718922,92.718922 0 0 0 0.11773,-0.39972 92.718922,92.718922 0 0 0 0.11584,-0.39983999 92.718922,92.718922 0 0 0 0.11347,-0.40086 92.718922,92.718922 0 0 0 0.11229,-0.40079 92.718922,92.718922 0 0 0 0.10994,-0.40179 92.718922,92.718922 0 0 0 0.0529,-0.19579 65.45743,65.45743 0 0 0 -0.10447,-0.18196 65.45743,65.45743 0 0 0 -89.41579,-23.9583305 65.45743,65.45743 0 0 0 -23.95892,89.41591 65.45743,65.45743 0 0 0 0.10535,0.18144 z" />
    <path
       style="fill:none;stroke:#53c5d8;stroke-width:5;stroke-linecap:butt;stroke-linejoin:miter;stroke-miterlimit:4;stroke-dasharray:none;stroke-opacity:1"
       d="M 122.8442,76.342308 C 167.45627,53.921773 195.72234,37.547077 233.57559,12.411513"
       id="path25"
       sodipodi:nodetypes="cc" />
    <path
       id="path40-1-4-6-9-0-0-4"
       style="display:inline;opacity:0.988;fill:#53c5d8;fill-opacity:1;stroke-width:1.13362;stroke-linecap:square;paint-order:stroke fill markers"
       d="m 201.16618,-27.601991 a 65.45743,65.45743 0 0 0 -0.10926,-0.0585 65.45743,65.45743 0 0 0 -0.309,-0.16408 65.45743,65.45743 0 0 0 -0.3098,-0.16247 65.45743,65.45743 0 0 0 -0.31135,-0.16094 65.45743,65.45743 0 0 0 -0.31143,-0.15913 65.45743,65.45743 0 0 0 -0.31253,-0.15792 65.45743,65.45743 0 0 0 -0.31312,-0.15573 65.45743,65.45743 0 0 0 -0.31392,-0.1541 65.45743,65.45743 0 0 0 -0.31501,-0.15289 65.45743,65.45743 0 0 0 -0.31606,-0.15049 65.45743,65.45743 0 0 0 -0.3164,-0.14907 65.45743,65.45743 0 0 0 -0.3175,-0.14786 65.45743,65.45743 0 0 0 -0.31806,-0.14576 65.45743,65.45743 0 0 0 -0.3189,-0.14405 65.45743,65.45743 0 0 0 -0.3197,-0.14243 65.45743,65.45743 0 0 0 -0.32026,-0.14033 65.45743,65.45743 0 0 0 -0.32139,-0.13903 65.45743,65.45743 0 0 0 -0.32177,-0.13762 65.45743,65.45743 0 0 0 -0.32273,-0.13529 65.45743,65.45743 0 0 0 -0.32312,-0.1339 65.45743,65.45743 0 0 0 -0.32439,-0.13197 65.45743,65.45743 0 0 0 -0.32452,-0.13009 65.45743,65.45743 0 0 0 -0.32561,-0.12887 65.45743,65.45743 0 0 0 -0.32616,-0.12677 65.45743,65.45743 0 0 0 -0.32655,-0.12537 65.45743,65.45743 0 0 0 -0.32757,-0.12295 65.45743,65.45743 0 0 0 -0.32822,-0.12195 65.45743,65.45743 0 0 0 -0.3288,-0.11986 65.45743,65.45743 0 0 0 -0.32935,-0.11775 65.45743,65.45743 0 0 0 -0.33042,-0.11652 65.45743,65.45743 0 0 0 -0.33029,-0.11425 65.45743,65.45743 0 0 0 -0.33136,-0.11303 65.45743,65.45743 0 0 0 -0.33191,-0.11091 65.45743,65.45743 0 0 0 -0.33235,-0.10944 65.45743,65.45743 0 0 0 -0.33289,-0.10732 65.45743,65.45743 0 0 0 -0.33371,-0.10572 65.45743,65.45743 0 0 0 -0.33424,-0.1036 65.45743,65.45743 0 0 0 -0.33469,-0.10213 65.45743,65.45743 0 0 0 -0.33548,-0.1005 65.45743,65.45743 0 0 0 -0.33561,-0.0986 65.45743,65.45743 0 0 0 -0.33616,-0.0965 65.45743,65.45743 0 0 0 -0.33702,-0.0948 65.45743,65.45743 0 0 0 -0.33738,-0.0934 65.45743,65.45743 0 0 0 -0.33795,-0.0913 65.45743,65.45743 0 0 0 -0.33806,-0.0894 65.45743,65.45743 0 0 0 -0.3389,-0.0878 65.45743,65.45743 0 0 0 -0.33942,-0.0857 65.45743,65.45743 0 0 0 -0.33939,-0.0845 65.45743,65.45743 0 0 0 -0.34013,-0.0817 65.45743,65.45743 0 0 0 -0.34076,-0.0807 65.45743,65.45743 0 0 0 -0.34065,-0.0784 65.45743,65.45743 0 0 0 -0.34148,-0.0768 65.45743,65.45743 0 0 0 -0.34229,-0.0751 65.45743,65.45743 0 0 0 -0.34196,-0.0735 65.45743,65.45743 0 0 0 -0.34228,-0.0709 65.45743,65.45743 0 0 0 -0.34336,-0.0697 65.45743,65.45743 0 0 0 -0.34322,-0.0674 65.45743,65.45743 0 0 0 -0.3436,-0.066 65.45743,65.45743 0 0 0 -0.34418,-0.0638 65.45743,65.45743 0 0 0 -0.34453,-0.0624 65.45743,65.45743 0 0 0 -0.3444,-0.0601 65.45743,65.45743 0 0 0 -0.34524,-0.0585 65.45743,65.45743 0 0 0 -0.34537,-0.0566 65.45743,65.45743 0 0 0 -0.34545,-0.0548 65.45743,65.45743 0 0 0 -0.34603,-0.0526 65.45743,65.45743 0 0 0 -0.34643,-0.0512 65.45743,65.45743 0 0 0 -0.34627,-0.0489 65.45743,65.45743 0 0 0 -0.34669,-0.0475 65.45743,65.45743 0 0 0 -0.3472,-0.0454 65.45743,65.45743 0 0 0 -0.3469,-0.0438 65.45743,65.45743 0 0 0 -0.34747,-0.0417 65.45743,65.45743 0 0 0 -0.34785,-0.0402 65.45743,65.45743 0 0 0 -0.34771,-0.0379 65.45743,65.45743 0 0 0 -0.34825,-0.0358 65.45743,65.45743 0 0 0 -0.3482,-0.0347 65.45743,65.45743 0 0 0 -0.34851,-0.0321 65.45743,65.45743 0 0 0 -0.34847,-0.0309 65.45743,65.45743 0 0 0 -0.34898,-0.0288 65.45743,65.45743 0 0 0 -0.34886,-0.0265 65.45743,65.45743 0 0 0 -0.34883,-0.0254 65.45743,65.45743 0 0 0 -0.34937,-0.0232 65.45743,65.45743 0 0 0 -0.34923,-0.0209 65.45743,65.45743 0 0 0 -0.34959,-0.0195 65.45743,65.45743 0 0 0 -0.3495,-0.0172 65.45743,65.45743 0 0 0 -0.34941,-0.0161 65.45743,65.45743 0 0 0 -0.3497,-0.0135 65.45743,65.45743 0 0 0 -0.35007,-0.0121 65.45743,65.45743 0 0 0 -0.34951,-0.0101 65.45743,65.45743 0 0 0 -0.34962,-0.008 65.45743,65.45743 0 0 0 -0.3502,-0.006 65.45743,65.45743 0 0 0 -0.34986,-0.004 65.45743,65.45743 0 0 0 -0.35,-0.003 65.45743,65.45743 0 0 0 -0.34964,-10e-4 65.45743,65.45743 0 0 0 -0.35023,10e-4 65.45743,65.45743 0 0 0 -0.34964,0.003 65.45743,65.45743 0 0 0 -0.35045,0.005 65.45743,65.45743 0 0 0 -0.34987,0.007 65.45743,65.45743 0 0 0 -0.34957,0.008 65.45743,65.45743 0 0 0 -0.35011,0.0106 65.45743,65.45743 0 0 0 -0.34954,0.0126 65.45743,65.45743 0 0 0 -0.34946,0.0138 65.45743,65.45743 0 0 0 -0.34977,0.0164 65.45743,65.45743 0 0 0 -0.34944,0.018 65.45743,65.45743 0 0 0 -0.34955,0.0198 65.45743,65.45743 0 0 0 -0.34898,0.0219 65.45743,65.45743 0 0 0 -0.3491,0.0237 65.45743,65.45743 0 0 0 -0.34921,0.0256 65.45743,65.45743 0 0 0 -0.3489,0.0272 65.45743,65.45743 0 0 0 -0.34855,0.0288 65.45743,65.45743 0 0 0 -0.34888,0.0314 65.45743,65.45743 0 0 0 -0.3481,0.0327 65.45743,65.45743 0 0 0 -0.34795,0.035 65.45743,65.45743 0 0 0 -0.34834,0.0364 65.45743,65.45743 0 0 0 -0.34775,0.0385 65.45743,65.45743 0 0 0 -0.34761,0.0408 65.45743,65.45743 0 0 0 -0.34754,0.0419 65.45743,65.45743 0 0 0 -0.34695,0.044 65.45743,65.45743 0 0 0 -0.34683,0.0463 65.45743,65.45743 0 0 0 -0.34673,0.0474 65.45743,65.45743 0 0 0 -0.34662,0.0497 65.45743,65.45743 0 0 0 -0.34603,0.0518 65.45743,65.45743 0 0 0 -0.34595,0.0529 65.45743,65.45743 0 0 0 -0.3458,0.0553 65.45743,65.45743 0 0 0 -0.3448,0.057 65.45743,65.45743 0 0 0 -0.3449,0.0589 65.45743,65.45743 0 0 0 -0.34501,0.0608 65.45743,65.45743 0 0 0 -0.344,0.0626 65.45743,65.45743 0 0 0 -0.3441,0.0644 65.45743,65.45743 0 0 0 -0.34352,0.0665 65.45743,65.45743 0 0 0 -0.34321,0.0681 65.45743,65.45743 0 0 0 -0.34286,0.0697 65.45743,65.45743 0 0 0 -0.34273,0.072 65.45743,65.45743 0 0 0 -0.34196,0.0733 65.45743,65.45743 0 0 0 -0.3418,0.0756 65.45743,65.45743 0 0 0 -0.34148,0.0772 65.45743,65.45743 0 0 0 -0.34091,0.0793 65.45743,65.45743 0 0 0 -0.34014,0.0806 65.45743,65.45743 0 0 0 -0.34024,0.0825 65.45743,65.45743 0 0 0 -0.33966,0.0845 65.45743,65.45743 0 0 0 -0.33907,0.0866 65.45743,65.45743 0 0 0 -0.33875,0.0882 65.45743,65.45743 0 0 0 -0.33841,0.0898 65.45743,65.45743 0 0 0 -0.33739,0.0916 65.45743,65.45743 0 0 0 -0.33724,0.0939 65.45743,65.45743 0 0 0 -0.33692,0.0955 65.45743,65.45743 0 0 0 -0.33588,0.0973 65.45743,65.45743 0 0 0 -0.33557,0.0989 65.45743,65.45743 0 0 0 -0.33523,0.10045 65.45743,65.45743 0 0 0 -0.33465,0.10251 65.45743,65.45743 0 0 0 -0.33406,0.10456 65.45743,65.45743 0 0 0 -0.33374,0.10616 65.45743,65.45743 0 0 0 -0.33268,0.10794 65.45743,65.45743 0 0 0 -0.33236,0.10955 65.45743,65.45743 0 0 0 -0.33179,0.1116 65.45743,65.45743 0 0 0 -0.33102,0.11294 65.45743,65.45743 0 0 0 -0.33041,0.11497 65.45743,65.45743 0 0 0 -0.32984,0.11704 65.45743,65.45743 0 0 0 -0.32951,0.11865 65.45743,65.45743 0 0 0 -0.32875,0.11999 65.45743,65.45743 0 0 0 -0.32768,0.12176 65.45743,65.45743 0 0 0 -0.32758,0.12408 65.45743,65.45743 0 0 0 -0.32678,0.12542 65.45743,65.45743 0 0 0 -0.32574,0.1272 65.45743,65.45743 0 0 0 -0.32517,0.12926 65.45743,65.45743 0 0 0 -0.32485,0.13087 65.45743,65.45743 0 0 0 -0.32405,0.13219 65.45743,65.45743 0 0 0 -0.32279,0.13444 65.45743,65.45743 0 0 0 -0.3227,0.13561 65.45743,65.45743 0 0 0 -0.32141,0.13783 65.45743,65.45743 0 0 0 -0.32107,0.13942 65.45743,65.45743 0 0 0 -0.32032,0.14078 65.45743,65.45743 0 0 0 -0.31972,0.14283 65.45743,65.45743 0 0 0 -0.31869,0.14461 65.45743,65.45743 0 0 0 -0.31766,0.14639 65.45743,65.45743 0 0 0 -0.31734,0.14801 65.45743,65.45743 0 0 0 -0.31653,0.14934 65.45743,65.45743 0 0 0 -0.31527,0.1516 65.45743,65.45743 0 0 0 -0.31473,0.15247 65.45743,65.45743 0 0 0 -0.31389,0.15497 65.45743,65.45743 0 0 0 -0.31316,0.15632 65.45743,65.45743 0 0 0 -0.31208,0.15811 65.45743,65.45743 0 0 0 -0.31175,0.1597 65.45743,65.45743 0 0 0 -0.31028,0.16125 65.45743,65.45743 0 0 0 -0.30997,0.16286 65.45743,65.45743 0 0 0 -0.30894,0.16465 65.45743,65.45743 0 0 0 -0.30742,0.16618 65.45743,65.45743 0 0 0 -0.30714,0.16774 65.45743,65.45743 0 0 0 -0.30652,0.1698 65.45743,65.45743 0 0 0 -0.30501,0.17138 65.45743,65.45743 0 0 0 -0.30428,0.17267 65.45743,65.45743 0 0 0 -0.24775,0.14244 65.45743,65.45743 0 0 0 -0.30247,0.17578 65.45743,65.45743 0 0 0 -0.30169,0.17719 65.45743,65.45743 0 0 0 -0.30063,0.179 65.45743,65.45743 0 0 0 -0.29961,0.18071 65.45743,65.45743 0 0 0 -0.29884,0.18212 65.45743,65.45743 0 0 0 -0.29781,0.18388 65.45743,65.45743 0 0 0 -0.29677,0.18566 65.45743,65.45743 0 0 0 -0.29558,0.18676 65.45743,65.45743 0 0 0 -0.29494,0.18878 65.45743,65.45743 0 0 0 -0.29375,0.18989 65.45743,65.45743 0 0 0 -0.2927,0.19167 65.45743,65.45743 0 0 0 -0.29171,0.19348 65.45743,65.45743 0 0 0 -0.2909,0.19479 65.45743,65.45743 0 0 0 -0.28942,0.19634 65.45743,65.45743 0 0 0 -0.28864,0.19767 65.45743,65.45743 0 0 0 -0.2876,0.19946 65.45743,65.45743 0 0 0 -0.2866,0.20127 65.45743,65.45743 0 0 0 -0.28536,0.20236 65.45743,65.45743 0 0 0 -0.28432,0.20412 65.45743,65.45743 0 0 0 -0.28329,0.20593 65.45743,65.45743 0 0 0 -0.28208,0.207 65.45743,65.45743 0 0 0 -0.28084,0.20809 65.45743,65.45743 0 0 0 -0.27999,0.2106 65.45743,65.45743 0 0 0 -0.27904,0.21123 65.45743,65.45743 0 0 0 -0.27731,0.21321 65.45743,65.45743 0 0 0 -0.27651,0.21454 65.45743,65.45743 0 0 0 -0.2753,0.21563 65.45743,65.45743 0 0 0 -0.274,0.21786 65.45743,65.45743 0 0 0 -0.27307,0.21853 65.45743,65.45743 0 0 0 -0.27173,0.22074 65.45743,65.45743 0 0 0 -0.27054,0.22182 65.45743,65.45743 0 0 0 -0.26975,0.22316 65.45743,65.45743 0 0 0 -0.26827,0.22471 65.45743,65.45743 0 0 0 -0.2668,0.22624 65.45743,65.45743 0 0 0 -0.26602,0.22758 65.45743,65.45743 0 0 0 -0.26453,0.2291 65.45743,65.45743 0 0 0 -0.26332,0.2302 65.45743,65.45743 0 0 0 -0.26225,0.23196 65.45743,65.45743 0 0 0 -0.26107,0.23308 65.45743,65.45743 0 0 0 -0.25957,0.23459 65.45743,65.45743 0 0 0 -0.25855,0.2364 65.45743,65.45743 0 0 0 -0.25687,0.23722 65.45743,65.45743 0 0 0 -0.25609,0.23855 65.45743,65.45743 0 0 0 -0.25436,0.24054 65.45743,65.45743 0 0 0 -0.25342,0.24115 65.45743,65.45743 0 0 0 -0.2519,0.2427 65.45743,65.45743 0 0 0 -0.25087,0.24452 65.45743,65.45743 0 0 0 -0.24924,0.24529 65.45743,65.45743 0 0 0 -0.24821,0.24711 65.45743,65.45743 0 0 0 -0.24649,0.24794 65.45743,65.45743 0 0 0 -0.24576,0.24926 65.45743,65.45743 0 0 0 -0.24422,0.25081 65.45743,65.45743 0 0 0 -0.24231,0.2521 65.45743,65.45743 0 0 0 -0.24157,0.25341 65.45743,65.45743 0 0 0 -0.24005,0.25498 65.45743,65.45743 0 0 0 -0.23833,0.25579 65.45743,65.45743 0 0 0 -0.2376,0.25715 65.45743,65.45743 0 0 0 -0.23568,0.25841 65.45743,65.45743 0 0 0 -0.23446,0.25948 65.45743,65.45743 0 0 0 -0.23342,0.26129 65.45743,65.45743 0 0 0 -0.2318,0.26209 65.45743,65.45743 0 0 0 -0.23026,0.26363 65.45743,65.45743 0 0 0 -0.22865,0.26443 65.45743,65.45743 0 0 0 -0.22761,0.26624 65.45743,65.45743 0 0 0 -0.22591,0.26709 65.45743,65.45743 0 0 0 -0.22469,0.26816 65.45743,65.45743 0 0 0 -0.22323,0.26965 65.45743,65.45743 0 0 0 -0.22202,0.27075 65.45743,65.45743 0 0 0 -0.22032,0.27161 65.45743,65.45743 0 0 0 -0.21879,0.27315 65.45743,65.45743 0 0 0 -0.21756,0.27422 65.45743,65.45743 0 0 0 -0.21565,0.27553 65.45743,65.45743 0 0 0 -0.21442,0.2765805 65.45743,65.45743 0 0 0 -0.21321,0.27769 65.45743,65.45743 0 0 0 -0.21127,0.27894 65.45743,65.45743 0 0 0 -0.21005,0.28002 65.45743,65.45743 0 0 0 -0.20845,0.28083 65.45743,65.45743 0 0 0 -0.20692,0.2824 65.45743,65.45743 0 0 0 -0.20529,0.28318 65.45743,65.45743 0 0 0 -0.20407,0.28426 65.45743,65.45743 0 0 0 -0.20285,0.28534 65.45743,65.45743 0 0 0 -0.20045,0.28639 65.45743,65.45743 0 0 0 -0.19961,0.28773 65.45743,65.45743 0 0 0 -0.19778,0.28898 65.45743,65.45743 0 0 0 -0.1963,0.28939 65.45743,65.45743 0 0 0 -0.19485,0.2909 65.45743,65.45743 0 0 0 -0.19316,0.29175 65.45743,65.45743 0 0 0 -0.19122,0.293 65.45743,65.45743 0 0 0 -0.19031,0.29363 65.45743,65.45743 0 0 0 -0.18839,0.29491 65.45743,65.45743 0 0 0 -0.18668,0.29574 65.45743,65.45743 0 0 0 -0.18547,0.29684 65.45743,65.45743 0 0 0 -0.18361,0.29802 65.45743,65.45743 0 0 0 -0.1828,0.29862 65.45743,65.45743 0 0 0 -0.18005,0.29985 65.45743,65.45743 0 0 0 -0.17934,0.30062 65.45743,65.45743 0 0 0 -0.17754,0.30152 65.45743,65.45743 0 0 0 -0.17564,0.30249 65.45743,65.45743 0 0 0 -0.17431,0.30392 65.45743,65.45743 0 0 0 -0.17217,0.30421 65.45743,65.45743 0 0 0 -0.17074,0.30573 65.45743,65.45743 0 0 0 -0.16967,0.30587 65.45743,65.45743 0 0 0 -0.16714,0.30751 65.45743,65.45743 0 0 0 -0.16579,0.30813999 65.45743,65.45743 0 0 0 -0.16457,0.30924 65.45743,65.45743 0 0 0 -0.16246,0.3098 65.45743,65.45743 0 0 0 -0.16076,0.31064 65.45743,65.45743 0 0 0 -0.15953,0.31172 65.45743,65.45743 0 0 0 -0.15744,0.31229 65.45743,65.45743 0 0 0 -0.15581,0.31308001 65.45743,65.45743 0 0 0 -0.15429,0.31464 65.45743,65.45743 0 0 0 -0.15241,0.31477 65.45743,65.45743 0 0 0 -0.15118,0.31585 65.45743,65.45743 0 0 0 -0.14908,0.31642 65.45743,65.45743 0 0 0 -0.14746,0.31721 65.45743,65.45743 0 0 0 -0.14576,0.31806 65.45743,65.45743 0 0 0 -0.14405,0.3189 65.45743,65.45743 0 0 0 -0.14244,0.31971 65.45743,65.45743 0 0 0 -0.14072,0.32054 65.45743,65.45743 0 0 0 -0.13911,0.32135 65.45743,65.45743 0 0 0 -0.13691,0.32193 65.45743,65.45743 0 0 0 -0.13551,0.32232 65.45743,65.45743 0 0 0 -0.13361,0.32361 65.45743,65.45743 0 0 0 -0.13218,0.32395 65.45743,65.45743 0 0 0 -0.13049,0.32481 65.45743,65.45743 0 0 0 -0.12839,0.32537 65.45743,65.45743 0 0 0 -0.12676,0.32617 65.45743,65.45743 0 0 0 -0.12507,0.32703 65.45743,65.45743 0 0 0 -0.12365,0.32736 65.45743,65.45743 0 0 0 -0.12126,0.32842 65.45743,65.45743 0 0 0 -0.11984,0.32877 65.45743,65.45743 0 0 0 -0.11824,0.32961 65.45743,65.45743 0 0 0 -0.11635,0.32972 65.45743,65.45743 0 0 0 -0.11463,0.33055 65.45743,65.45743 0 0 0 -0.11256,0.33114 65.45743,65.45743 0 0 0 -0.1113,0.33219 65.45743,65.45743 0 0 0 -0.10883,0.33249 65.45743,65.45743 0 0 0 -0.1078,0.3331295 65.45743,65.45743 0 0 0 -0.10573,0.33371 65.45743,65.45743 0 0 0 -0.10382,0.33383 65.45743,65.45743 0 0 0 -0.10212,0.33468 65.45743,65.45743 0 0 0 -0.10001,0.33522 65.45743,65.45743 0 0 0 -0.0984,0.33606 65.45743,65.45743 0 0 0 -0.097,0.33638 65.45743,65.45743 0 0 0 -0.0951,0.33656 65.45743,65.45743 0 0 0 -0.0927,0.33757 65.45743,65.45743 0 0 0 -0.0916,0.33748 65.45743,65.45743 0 0 0 -0.0896,0.33878 65.45743,65.45743 0 0 0 -0.0873,0.33863 65.45743,65.45743 0 0 0 -0.0859,0.33902 65.45743,65.45743 0 0 0 -0.0843,0.33981 65.45743,65.45743 0 0 0 -0.0824,0.33994 65.45743,65.45743 0 0 0 -0.0803,0.34051 65.45743,65.45743 0 0 0 -0.0786,0.34136 65.45743,65.45743 0 0 0 -0.0768,0.34147 65.45743,65.45743 0 0 0 -0.0749,0.34158 65.45743,65.45743 0 0 0 -0.0732,0.34241 65.45743,65.45743 0 0 0 -0.0714,0.34253 65.45743,65.45743 0 0 0 -0.0692,0.34311 65.45743,65.45743 0 0 0 -0.0681,0.34304 65.45743,65.45743 0 0 0 -0.0657,0.34404 65.45743,65.45743 0 0 0 -0.0639,0.34417 65.45743,65.45743 0 0 0 -0.062,0.34428 65.45743,65.45743 0 0 0 -0.0606,0.34467 65.45743,65.45743 0 0 0 -0.058,0.34497 65.45743,65.45743 0 0 0 -0.0566,0.34535 65.45743,65.45743 0 0 0 -0.0547,0.34546 65.45743,65.45743 0 0 0 -0.0531,0.3463 65.45743,65.45743 0 0 0 -0.051,0.34573 65.45743,65.45743 0 0 0 -0.0494,0.34654 65.45743,65.45743 0 0 0 -0.0472,0.34709 65.45743,65.45743 0 0 0 -0.0456,0.34678 65.45743,65.45743 0 0 0 -0.0435,0.34734 65.45743,65.45743 0 0 0 -0.0417,0.34747 65.45743,65.45743 0 0 0 -0.0398,0.34759 65.45743,65.45743 0 0 0 -0.0384,0.34796 65.45743,65.45743 0 0 0 -0.0361,0.34782 65.45743,65.45743 0 0 0 -0.0339,0.34839 65.45743,65.45743 0 0 0 -0.0328,0.34834 65.45743,65.45743 0 0 0 -0.0307,0.34887 65.45743,65.45743 0 0 0 -0.0287,0.34832 65.45743,65.45743 0 0 0 -0.0269,0.34912 65.45743,65.45743 0 0 0 -0.0247,0.34901 65.45743,65.45743 0 0 0 -0.0232,0.34936 65.45743,65.45743 0 0 0 -0.0214,0.3495 65.45743,65.45743 0 0 0 -0.0193,0.34889 65.45743,65.45743 0 0 0 -0.0177,0.34974 65.45743,65.45743 0 0 0 -0.0153,0.34959 65.45743,65.45743 0 0 0 -0.0142,0.34951 65.45743,65.45743 0 0 0 -0.0116,0.34983 65.45743,65.45743 0 0 0 -0.002,0.0596 92.718922,92.718922 0 0 0 57.48974,-11.7514 92.718922,92.718922 0 0 0 38.92144,-43.91161 z" />
  </g>
  <g
     inkscape:groupmode="layer"
     id="layer2"
     inkscape:label="レイヤー 2"
     style="display:none">
    <rect
       y="1.3974009e-14"
       x="0"
       height="297"
       width="210"
       id="rect956"
       style="font-variation-settings:normal;opacity:1;vector-effect:none;fill:#000000;fill-opacity:0.0323325;fill-rule:evenodd;stroke:none;stroke-width:1;stroke-linecap:round;stroke-linejoin:round;stroke-miterlimit:4;stroke-dasharray:none;stroke-dashoffset:0;stroke-opacity:1;paint-order:markers stroke fill;stop-color:#000000;stop-opacity:1" />
  </g>
</svg>
