<?xml version="1.0" encoding="UTF-8" standalone="no"?>
<svg
   xmlns:dc="http://purl.org/dc/elements/1.1/"
   xmlns:cc="http://creativecommons.org/ns#"
   xmlns:rdf="http://www.w3.org/1999/02/22-rdf-syntax-ns#"
   xmlns:svg="http://www.w3.org/2000/svg"
   xmlns="http://www.w3.org/2000/svg"
   xmlns:sodipodi="http://sodipodi.sourceforge.net/DTD/sodipodi-0.dtd"
   xmlns:inkscape="http://www.inkscape.org/namespaces/inkscape"
   width="200mm"
   height="150mm"
   viewBox="0 0 200 150"
   version="1.1"
   id="svg8"
   inkscape:version="1.0 (4035a4fb49, 2020-05-01)"
   sodipodi:docname="card-back.svg">
  <defs
     id="defs2">
    <clipPath
       id="clipPath885"
       clipPathUnits="userSpaceOnUse">
      <g
         inkscape:label="Clip"
         id="use887"
         style="stroke-width:0.999902;stroke-miterlimit:4;stroke-dasharray:none">
        <circle
           style="display:inline;opacity:0.988;fill:#adfcd5;fill-opacity:1;stroke-width:0.999902;stroke-linecap:square;stroke-miterlimit:4;stroke-dasharray:none;paint-order:stroke fill markers"
           id="circle899"
           cx="-230.92088"
           cy="74.835464"
           r="51.850288" />
      </g>
    </clipPath>
  </defs>
  <sodipodi:namedview
     inkscape:showpageshadow="false"
     showborder="true"
     id="base"
     pagecolor="#f0f0f0"
     bordercolor="#666666"
     borderopacity="1.0"
     inkscape:pageopacity="0"
     inkscape:pageshadow="2"
     inkscape:zoom="0.35"
     inkscape:cx="173.56603"
     inkscape:cy="-227.95816"
     inkscape:document-units="mm"
     inkscape:current-layer="layer1"
     inkscape:document-rotation="0"
     showgrid="false"
     inkscape:pagecheckerboard="true"
     inkscape:snap-bbox="true"
     inkscape:snap-page="true"
     inkscape:bbox-paths="true"
     inkscape:snap-bbox-edge-midpoints="true"
     inkscape:snap-others="true"
     inkscape:window-width="1920"
     inkscape:window-height="1057"
     inkscape:window-x="-8"
     inkscape:window-y="-8"
     inkscape:window-maximized="1"
     inkscape:bbox-nodes="true"
     inkscape:snap-bbox-midpoints="true"
     inkscape:snap-object-midpoints="true"
     inkscape:snap-nodes="true"
     inkscape:object-paths="false"
     inkscape:snap-intersection-paths="true"
     inkscape:snap-midpoints="true" />
  <metadata
     id="metadata5">
    <rdf:RDF>
      <cc:Work
         rdf:about="">
        <dc:format>image/svg+xml</dc:format>
        <dc:type
           rdf:resource="http://purl.org/dc/dcmitype/StillImage" />
        <dc:title />
      </cc:Work>
    </rdf:RDF>
  </metadata>
  <g
     inkscape:label="レイヤー 1"
     inkscape:groupmode="layer"
     id="layer1"
     style="display:inline">
    <rect
       style="font-variation-settings:normal;opacity:1;vector-effect:none;fill:#fcffff;fill-opacity:1;fill-rule:evenodd;stroke:none;stroke-width:0.693542;stroke-linecap:round;stroke-linejoin:round;stroke-miterlimit:4;stroke-dasharray:none;stroke-dashoffset:0;stroke-opacity:1;paint-order:markers stroke fill;stop-color:#000000;stop-opacity:1"
       id="rect10"
       width="200"
       height="149.99998"
       x="-1.4210855e-14"
       y="1.5258789e-05" />
    <path
       style="display:inline;opacity:0.988;fill:#b6e9dc;fill-opacity:1;stroke-width:0.800309;stroke-linecap:square;paint-order:stroke fill markers"
       d="m -321.21221,-51.405042 a -65.45743,65.45743 0 0 0 -65.45743,-65.457428 -65.45743,65.45743 0 0 0 -65.45743,65.457428 -65.45743,65.45743 0 0 0 65.45743,65.45743 -65.45743,65.45743 0 0 0 65.45743,-65.45743"
       id="path40-1-4-6" />
    <path
       d="m -386.66936,14.052668 a -65.457426,65.457426 0 0 0 65.45699,-65.457502 -65.457426,65.457426 0 0 1 -0.28526,-10e-4 -65.457426,65.457426 0 0 1 -0.34984,-0.0021 -65.457426,65.457426 0 0 1 -0.35037,-0.0047 -65.457426,65.457426 0 0 1 -0.34985,-0.0062 -65.457426,65.457426 0 0 1 -0.34985,-0.0078 -65.457426,65.457426 0 0 1 -0.34985,-0.01033 -65.457426,65.457426 0 0 1 -0.34933,-0.01137 -65.457426,65.457426 0 0 1 -0.34985,-0.01395 -65.457426,65.457426 0 0 1 -0.34985,-0.0155 -65.457426,65.457426 0 0 1 -0.34933,-0.01757 -65.457426,65.457426 0 0 1 -0.34934,-0.01912 -65.457426,65.457426 0 0 1 -0.34933,-0.02119 -65.457426,65.457426 0 0 1 -0.34933,-0.02325 -65.457426,65.457426 0 0 1 -0.34882,-0.02481 -65.457426,65.457426 0 0 1 -0.34881,-0.02687 -65.457426,65.457426 0 0 1 -0.34882,-0.02842 -65.457426,65.457426 0 0 1 -0.34881,-0.03049 -65.457426,65.457426 0 0 1 -0.3483,-0.03256 -65.457426,65.457426 0 0 1 -0.3483,-0.03411 -65.457426,65.457426 0 0 1 -0.3483,-0.03617 -65.457426,65.457426 0 0 1 -0.34778,-0.03772 -65.457426,65.457426 0 0 1 -0.34779,-0.03979 -65.457426,65.457426 0 0 1 -0.34726,-0.04186 -65.457426,65.457426 0 0 1 -0.34727,-0.04341 -65.457426,65.457426 0 0 1 -0.34726,-0.04547 -65.457426,65.457426 0 0 1 -0.34675,-0.04703 -65.457426,65.457426 0 0 1 -0.34624,-0.04909 -65.457426,65.457426 0 0 1 -0.34623,-0.05064 -65.457426,65.457426 0 0 1 -0.34571,-0.05323 -65.457426,65.457426 0 0 1 -0.34572,-0.05426 -65.457426,65.457426 0 0 1 -0.34571,-0.05633 -65.457426,65.457426 0 0 1 -0.34469,-0.0584 -65.457426,65.457426 0 0 1 -0.34519,-0.06046 -65.457426,65.457426 0 0 1 -0.34417,-0.06201 -65.457426,65.457426 0 0 1 -0.34416,-0.06356 -65.457426,65.457426 0 0 1 -0.34365,-0.06563 -65.457426,65.457426 0 0 1 -0.34313,-0.0677 -65.457426,65.457426 0 0 1 -0.34313,-0.06925 -65.457426,65.457426 0 0 1 -0.34262,-0.07131 -65.457426,65.457426 0 0 1 -0.34261,-0.07286 -65.457426,65.457426 0 0 1 -0.34158,-0.07493 -65.457426,65.457426 0 0 1 -0.34159,-0.07648 -65.457426,65.457426 0 0 1 -0.34106,-0.07855 -65.457426,65.457426 0 0 1 -0.34055,-0.08062 -65.457426,65.457426 0 0 1 -0.34003,-0.08217 -65.457426,65.457426 0 0 1 -0.33951,-0.08371 -65.457426,65.457426 0 0 1 -0.33952,-0.08578 -65.457426,65.457426 0 0 1 -0.33899,-0.08785 -65.457426,65.457426 0 0 1 -0.33797,-0.0894 -65.457426,65.457426 0 0 1 -0.33796,-0.09095 -65.457426,65.457426 0 0 1 -0.33745,-0.09302 -65.457426,65.457426 0 0 1 -0.33693,-0.09508 -65.457426,65.457426 0 0 1 -0.33641,-0.09663 -65.457426,65.457426 0 0 1 -0.3359,-0.09819 -65.457426,65.457426 0 0 1 -0.33486,-0.100253 -65.457426,65.457426 0 0 1 -0.33487,-0.101802 -65.457426,65.457426 0 0 1 -0.33434,-0.10387 -65.457426,65.457426 0 0 1 -0.33383,-0.10542 -65.457426,65.457426 0 0 1 -0.3328,-0.107487 -65.457426,65.457426 0 0 1 -0.3328,-0.109037 -65.457426,65.457426 0 0 1 -0.33176,-0.111104 -65.457426,65.457426 0 0 1 -0.33124,-0.112655 -65.457426,65.457426 0 0 1 -0.33073,-0.114205 -65.457426,65.457426 0 0 1 -0.33022,-0.116272 -65.457426,65.457426 0 0 1 -0.32918,-0.117822 -65.457426,65.457426 0 0 1 -0.32917,-0.119889 -65.457426,65.457426 0 0 1 -0.32815,-0.12144 -65.457426,65.457426 0 0 1 -0.32711,-0.123507 -65.457426,65.457426 0 0 1 -0.32711,-0.125057 -65.457426,65.457426 0 0 1 -0.32608,-0.126607 -65.457426,65.457426 0 0 1 -0.32556,-0.128157 -65.457426,65.457426 0 0 1 -0.32505,-0.130225 -65.457426,65.457426 0 0 1 -0.32401,-0.132292 -65.457426,65.457426 0 0 1 -0.32349,-0.133326 -65.457426,65.457426 0 0 1 -0.32246,-0.13539 -65.457426,65.457426 0 0 1 -0.32195,-0.137462 -65.457426,65.457426 0 0 1 -0.32143,-0.139009 -65.457426,65.457426 0 0 1 -0.32039,-0.14056 -65.457426,65.457426 0 0 1 -0.31988,-0.14211 -65.457426,65.457426 0 0 1 -0.31884,-0.143658 -65.457426,65.457426 0 0 1 -0.31833,-0.14573 -65.457426,65.457426 0 0 1 -0.31729,-0.147794 -65.457426,65.457426 0 0 1 -0.31626,-0.148828 -65.457426,65.457426 0 0 1 -0.31626,-0.150895 -65.457426,65.457426 0 0 1 -0.31471,-0.152445 -65.457426,65.457426 0 0 1 -0.31419,-0.153995 -65.457426,65.457426 0 0 1 -0.31316,-0.156064 -65.457426,65.457426 0 0 1 -0.31264,-0.157097 -65.457426,65.457426 0 0 1 -0.31161,-0.159163 -65.457426,65.457426 0 0 1 -0.31109,-0.161231 -65.457426,65.457426 0 0 1 -0.30955,-0.162264 -65.457426,65.457426 0 0 1 -0.30954,-0.16433 -65.457426,65.457426 0 0 1 -0.30799,-0.165881 -65.457426,65.457426 0 0 1 -0.30747,-0.167433 -65.457426,65.457426 0 0 1 -0.30593,-0.168982 -65.457426,65.457426 0 0 1 -0.30592,-0.170532 -65.457426,65.457426 0 0 1 -0.30438,-0.172598 -65.457426,65.457426 0 0 1 -0.30386,-0.173633 -65.457426,65.457426 0 0 1 -0.3023,-0.175702 -65.457426,65.457426 0 0 1 -0.30179,-0.177249 -65.457426,65.457426 0 0 1 -0.30076,-0.1788 -65.457426,65.457426 0 0 1 -0.30024,-0.180351 -65.457426,65.457426 0 0 1 -0.29869,-0.181901 -65.457426,65.457426 0 0 1 -0.29817,-0.183967 -65.457426,65.457426 0 0 1 -0.29663,-0.185002 -65.457426,65.457426 0 0 1 -0.2961,-0.186553 -65.457426,65.457426 0 0 1 -0.29507,-0.188619 -65.457426,65.457426 0 0 1 -0.29353,-0.189653 -65.457426,65.457426 0 0 1 -0.293,-0.19172 -65.457426,65.457426 0 0 1 -0.29197,-0.19327 -65.457426,65.457426 0 0 1 -0.29094,-0.194302 -65.457426,65.457426 0 0 1 -0.28939,-0.196371 -65.457426,65.457426 0 0 1 -0.28887,-0.197919 -65.457426,65.457426 0 0 1 -0.28784,-0.198956 -65.457426,65.457426 0 0 1 -0.28628,-0.20102 -65.457426,65.457426 0 0 1 -0.28578,-0.202057 -65.457426,65.457426 0 0 1 -0.28422,-0.204121 -65.457426,65.457426 0 0 1 -0.2837,-0.205155 -65.457426,65.457426 0 0 1 -0.28215,-0.207221 -65.457426,65.457426 0 0 1 -0.28112,-0.208257 -65.457426,65.457426 0 0 1 -0.28009,-0.209806 -65.457426,65.457426 0 0 1 -0.27854,-0.211357 -65.457426,65.457426 0 0 1 -0.27801,-0.212908 -65.457426,65.457426 0 0 1 -0.27647,-0.214455 -65.457426,65.457426 0 0 1 -0.27544,-0.215493 -65.457426,65.457426 0 0 1 -0.2744,-0.217556 -65.457426,65.457426 0 0 1 -0.27337,-0.218591 -65.457426,65.457426 0 0 1 -0.27182,-0.220144 -65.457426,65.457426 0 0 1 -0.27078,-0.221692 -65.457426,65.457426 0 0 1 -0.26975,-0.223242 -65.457426,65.457426 0 0 1 -0.2682,-0.224792 -65.457426,65.457426 0 0 1 -0.26717,-0.225825 -65.457426,65.457426 0 0 1 -0.26613,-0.227378 -65.457426,65.457426 0 0 1 -0.26459,-0.228925 -65.457426,65.457426 0 0 1 -0.26355,-0.22996 -65.457426,65.457426 0 0 1 -0.26251,-0.232025 -65.457426,65.457426 0 0 1 -0.26097,-0.233061 -65.457426,65.457426 0 0 1 -0.25993,-0.234096 -65.457426,65.457426 0 0 1 -0.25839,-0.236161 -65.457426,65.457426 0 0 1 -0.25734,-0.237194 -65.457426,65.457426 0 0 1 -0.2558,-0.238228 -65.457426,65.457426 0 0 1 -0.25477,-0.240297 -65.457426,65.457426 0 0 1 -0.25373,-0.24133 -65.457426,65.457426 0 0 1 -0.25218,-0.242361 -65.457426,65.457426 0 0 1 -0.25063,-0.243914 -65.457426,65.457426 0 0 1 -0.2496,-0.245461 -65.457426,65.457426 0 0 1 -0.24804,-0.246497 -65.457426,65.457426 0 0 1 -0.24702,-0.248047 -65.457426,65.457426 0 0 1 -0.24546,-0.249597 -65.457426,65.457426 0 0 1 -0.24443,-0.250632 -65.457426,65.457426 0 0 1 -0.24288,-0.251664 -65.457426,65.457426 0 0 1 -0.24133,-0.253214 -65.457426,65.457426 0 0 1 -0.24029,-0.254764 -65.457426,65.457426 0 0 1 -0.23875,-0.2558 -65.457426,65.457426 0 0 1 -0.23771,-0.256831 -65.457426,65.457426 0 0 1 -0.23616,-0.258381 -65.457426,65.457426 0 0 1 -0.23461,-0.259416 -65.457426,65.457426 0 0 1 -0.23306,-0.260967 -65.457426,65.457426 0 0 1 -0.23203,-0.261998 -65.457426,65.457426 0 0 1 -0.23048,-0.263551 -65.457426,65.457426 0 0 1 -0.22892,-0.264584 -65.457426,65.457426 0 0 1 -0.2279,-0.265615 -65.457426,65.457426 0 0 1 -0.22634,-0.267168 -65.457426,65.457426 0 0 1 -0.22479,-0.268201 -65.457426,65.457426 0 0 1 -0.22324,-0.269234 -65.457426,65.457426 0 0 1 -0.22221,-0.270267 -65.457426,65.457426 0 0 1 -0.22014,-0.271819 -65.457426,65.457426 0 0 1 -0.21911,-0.272852 -65.457426,65.457426 0 0 1 -0.21756,-0.274402 -65.457426,65.457426 0 0 1 -0.21601,-0.274918 -65.457426,65.457426 0 0 1 -0.21497,-0.276468 -65.457426,65.457426 0 0 1 -0.21291,-0.277503 -65.457426,65.457426 0 0 1 -0.21187,-0.279054 -65.457426,65.457426 0 0 1 -0.21032,-0.279569 -65.457426,65.457426 0 0 1 -0.20826,-0.28112 -65.457426,65.457426 0 0 1 -0.20722,-0.282152 -65.457426,65.457426 0 0 1 -0.20567,-0.28267 -65.457426,65.457426 0 0 1 -0.20413,-0.28422 -65.457426,65.457426 0 0 1 -0.20257,-0.285772 -65.457426,65.457426 0 0 1 -0.20102,-0.286287 -65.457426,65.457426 0 0 1 -0.19999,-0.287321 -65.457426,65.457426 0 0 1 -0.19792,-0.288354 -65.457426,65.457426 0 0 1 -0.19637,-0.289906 -65.457426,65.457426 0 0 1 -0.19482,-0.29042 -65.457426,65.457426 0 0 1 -0.19327,-0.291973 -65.457426,65.457426 0 0 1 -0.19172,-0.292489 -65.457426,65.457426 0 0 1 -0.19068,-0.294037 -65.457426,65.457426 0 0 1 -0.18862,-0.294555 -65.457426,65.457426 0 0 1 -0.18707,-0.29559 -65.457426,65.457426 0 0 1 -0.18552,-0.296625 -65.457426,65.457426 0 0 1 -0.18345,-0.298172 -65.457426,65.457426 0 0 1 -0.18242,-0.298691 -65.457426,65.457426 0 0 1 -0.18087,-0.299722 -65.457426,65.457426 0 0 1 -0.17931,-0.300239 -65.457426,65.457426 0 0 1 -0.17725,-0.301791 -65.457426,65.457426 0 0 1 -0.1757,-0.302308 -65.457426,65.457426 0 0 1 -0.17467,-0.303856 -65.457426,65.457426 0 0 1 -0.1726,-0.304376 -65.457426,65.457426 0 0 1 -0.17105,-0.30489 -65.457426,65.457426 0 0 1 -0.16898,-0.306441 -65.457426,65.457426 0 0 1 -0.16795,-0.306959 -65.457426,65.457426 0 0 1 -0.16588,-0.30799 -65.457426,65.457426 0 0 1 -0.16485,-0.309026 -65.457426,65.457426 0 0 1 -0.16278,-0.310057 -65.457426,65.457426 0 0 1 -0.16071,-0.310576 -65.457426,65.457426 0 0 1 -0.15968,-0.31161 -65.457426,65.457426 0 0 1 -0.15762,-0.312124 -65.457426,65.457426 0 0 1 -0.15606,-0.313161 -65.457426,65.457426 0 0 1 -0.15451,-0.314192 -65.457426,65.457426 0 0 1 -0.15296,-0.314709 -65.457426,65.457426 0 0 1 -0.1509,-0.315743 -65.457426,65.457426 0 0 1 -0.14934,-0.316259 -65.457426,65.457426 0 0 1 -0.1478,-0.317294 -65.457426,65.457426 0 0 1 -0.14624,-0.318328 -65.457426,65.457426 0 0 1 -0.14418,-0.318844 -65.457426,65.457426 0 0 1 -0.14263,-0.31936 -65.457426,65.457426 0 0 1 -0.14107,-0.320392 -65.457426,65.457426 0 0 1 -0.13901,-0.320911 -65.457426,65.457426 0 0 1 -0.13746,-0.321945 -65.457426,65.457426 0 0 1 -0.13539,-0.322461 -65.457426,65.457426 0 0 1 -0.13436,-0.323495 -65.457426,65.457426 0 0 1 -0.1323,-0.324011 -65.457426,65.457426 0 0 1 -0.13022,-0.324528 -65.457426,65.457426 0 0 1 -0.12919,-0.325563 -65.457426,65.457426 0 0 1 -0.12661,-0.326077 -65.457426,65.457426 0 0 1 -0.12557,-0.326597 -65.457426,65.457426 0 0 1 -0.12351,-0.327109 -65.457426,65.457426 0 0 1 -0.12195,-0.328147 -65.457426,65.457426 0 0 1 -0.11989,-0.32866 -65.457426,65.457426 0 0 1 -0.11834,-0.329698 -65.457426,65.457426 0 0 1 -0.11628,-0.329694 -65.457426,65.457426 0 0 1 -0.11523,-0.330729 -65.457426,65.457426 0 0 1 -0.11266,-0.331248 -65.457426,65.457426 0 0 1 -0.1111,-0.331761 -65.457426,65.457426 0 0 1 -0.10956,-0.33228 -65.457426,65.457426 0 0 1 -0.108,-0.333314 -65.457426,65.457426 0 0 1 -0.10542,-0.333311 -65.457426,65.457426 0 0 1 -0.10439,-0.334346 -65.457426,65.457426 0 0 1 -0.10232,-0.334349 -65.457426,65.457426 0 0 1 -0.10025,-0.335378 -65.457426,65.457426 0 0 1 -0.0992,-0.335381 -65.457426,65.457426 0 0 1 -0.0966,-0.336415 -65.457426,65.457426 0 0 1 -0.0951,-0.336928 -65.457426,65.457426 0 0 1 -0.0935,-0.336931 -65.457426,65.457426 0 0 1 -0.0915,-0.337966 -65.457426,65.457426 0 0 1 -0.0899,-0.33848 -65.457426,65.457426 0 0 1 -0.0878,-0.33848 -65.457426,65.457426 0 0 1 -0.0858,-0.33951 -65.457426,65.457426 0 0 1 -0.0842,-0.33952 -65.457426,65.457426 0 0 1 -0.0827,-0.34003 -65.457426,65.457426 0 0 1 -0.0806,-0.34055 -65.457426,65.457426 0 0 1 -0.0791,-0.34106 -65.457426,65.457426 0 0 1 -0.077,-0.34107 -65.457426,65.457426 0 0 1 -0.0749,-0.34209 -65.457426,65.457426 0 0 1 -0.0734,-0.3421 -65.457426,65.457426 0 0 1 -0.0718,-0.34262 -65.457426,65.457426 0 0 1 -0.0693,-0.34261 -65.457426,65.457426 0 0 1 -0.0682,-0.34365 -65.457426,65.457426 0 0 1 -0.0656,-0.34365 -65.457426,65.457426 0 0 1 -0.0646,-0.34364 -65.457426,65.457426 0 0 1 -0.062,-0.34469 -65.457426,65.457426 0 0 1 -0.0605,-0.34468 -65.457426,65.457426 0 0 1 -0.0589,-0.34468 -65.457426,65.457426 0 0 1 -0.0568,-0.3452 -65.457426,65.457426 0 0 1 -0.0548,-0.34571 -65.457426,65.457426 0 0 1 -0.0532,-0.34624 -65.457426,65.457426 0 0 1 -0.0512,-0.34623 -65.457426,65.457426 0 0 1 -0.0496,-0.34623 -65.457426,65.457426 0 0 1 -0.0475,-0.34675 -65.457426,65.457426 0 0 1 -0.0455,-0.34675 -65.457426,65.457426 0 0 1 -0.0439,-0.34726 -65.457426,65.457426 0 0 1 -0.0419,-0.34727 -65.457426,65.457426 0 0 1 -0.0403,-0.34778 -65.457426,65.457426 0 0 1 -0.0382,-0.34778 -65.457426,65.457426 0 0 1 -0.0367,-0.3483 -65.457426,65.457426 0 0 1 -0.0341,-0.3483 -65.457426,65.457426 0 0 1 -0.0331,-0.3483 -65.457426,65.457426 0 0 1 -0.0305,-0.3483 -65.457426,65.457426 0 0 1 -0.0289,-0.34882 -65.457426,65.457426 0 0 1 -0.0274,-0.34881 -65.457426,65.457426 0 0 1 -0.0253,-0.34934 -65.457426,65.457426 0 0 1 -0.0233,-0.34933 -65.457426,65.457426 0 0 1 -0.0212,-0.34881 -65.457426,65.457426 0 0 1 -0.0196,-0.34985 -65.457426,65.457426 0 0 1 -0.0181,-0.34934 -65.457426,65.457426 0 0 1 -0.016,-0.34933 -65.457426,65.457426 0 0 1 -0.0139,-0.34985 -65.457426,65.457426 0 0 1 -0.0119,-0.34985 -65.457426,65.457426 0 0 1 -0.0103,-0.34985 -65.457426,65.457426 0 0 1 -0.008,-0.34985 -65.457426,65.457426 0 0 1 -0.007,-0.34985 -65.457426,65.457426 0 0 1 -0.005,-0.34985 -65.457426,65.457426 0 0 1 -0.003,-0.34985 -65.457426,65.457426 0 0 1 -5.2e-4,-0.34985 -65.457426,65.457426 0 0 0 -65.4575,65.457507 -65.457426,65.457426 0 0 0 65.4575,65.457501 z"
       style="display:inline;opacity:0.988;fill:#98d8dc;fill-opacity:1;stroke-width:0.800309;stroke-linecap:square;paint-order:stroke fill markers"
       id="path978" />
    <path
       d="m -386.66874,14.052605 a 65.457429,65.457429 0 0 0 58.25848,-35.614879 65.457429,65.457429 0 0 1 -0.17106,0.08733 65.457429,65.457429 0 0 1 -0.31213,0.158128 65.457429,65.457429 0 0 1 -0.31316,0.156064 65.457429,65.457429 0 0 1 -0.31419,0.154512 65.457429,65.457429 0 0 1 -0.3147,0.152445 65.457429,65.457429 0 0 1 -0.31575,0.151413 65.457429,65.457429 0 0 1 -0.31626,0.149344 65.457429,65.457429 0 0 1 -0.31728,0.147796 65.457429,65.457429 0 0 1 -0.31835,0.145727 65.457429,65.457429 0 0 1 -0.31882,0.144177 65.457429,65.457429 0 0 1 -0.31938,0.142626 65.457429,65.457429 0 0 1 -0.32039,0.141079 65.457429,65.457429 0 0 1 -0.32091,0.139009 65.457429,65.457429 0 0 1 -0.32194,0.137459 65.457429,65.457429 0 0 1 -0.32245,0.135909 65.457429,65.457429 0 0 1 -0.32351,0.133842 65.457429,65.457429 0 0 1 -0.32401,0.132292 65.457429,65.457429 0 0 1 -0.32453,0.130741 65.457429,65.457429 0 0 1 -0.32555,0.128675 65.457429,65.457429 0 0 1 -0.3261,0.127124 65.457429,65.457429 0 0 1 -0.32657,0.125055 65.457429,65.457429 0 0 1 -0.32764,0.123508 65.457429,65.457429 0 0 1 -0.32763,0.121957 65.457429,65.457429 0 0 1 -0.32917,0.119888 65.457429,65.457429 0 0 1 -0.32919,0.11834 65.457429,65.457429 0 0 1 -0.3297,0.116787 65.457429,65.457429 0 0 1 -0.33073,0.114723 65.457429,65.457429 0 0 1 -0.33123,0.113171 65.457429,65.457429 0 0 1 -0.33176,0.111103 65.457429,65.457429 0 0 1 -0.33229,0.109556 65.457429,65.457429 0 0 1 -0.33332,0.107487 65.457429,65.457429 0 0 1 -0.3333,0.105937 65.457429,65.457429 0 0 1 -0.33435,0.103867 65.457429,65.457429 0 0 1 -0.33436,0.10232 65.457429,65.457429 0 0 1 -0.33536,0.100769 65.457429,65.457429 0 0 1 -0.33591,0.0987 65.457429,65.457429 0 0 1 -0.33589,0.09663 65.457429,65.457429 0 0 1 -0.33692,0.0956 65.457429,65.457429 0 0 1 -0.33745,0.09302 65.457429,65.457429 0 0 1 -0.33745,0.09147 65.457429,65.457429 0 0 1 -0.33848,0.08992 65.457429,65.457429 0 0 1 -0.33848,0.08785 65.457429,65.457429 0 0 1 -0.33952,0.0863 65.457429,65.457429 0 0 1 -0.33951,0.08423 65.457429,65.457429 0 0 1 -0.34004,0.08217 65.457429,65.457429 0 0 1 -0.34055,0.08062 65.457429,65.457429 0 0 1 -0.34107,0.07906 65.457429,65.457429 0 0 1 -0.34105,0.077 65.457429,65.457429 0 0 1 -0.34211,0.07493 65.457429,65.457429 0 0 1 -0.3421,0.07338 65.457429,65.457429 0 0 1 -0.34261,0.07183 65.457429,65.457429 0 0 1 -0.34261,0.06976 65.457429,65.457429 0 0 1 -0.34364,0.0677 65.457429,65.457429 0 0 1 -0.34367,0.06615 65.457429,65.457429 0 0 1 -0.34364,0.06408 65.457429,65.457429 0 0 1 -0.34467,0.06253 65.457429,65.457429 0 0 1 -0.3447,0.06046 65.457429,65.457429 0 0 1 -0.34467,0.05839 65.457429,65.457429 0 0 1 -0.34571,0.05684 65.457429,65.457429 0 0 1 -0.3452,0.05478 65.457429,65.457429 0 0 1 -0.34623,0.05323 65.457429,65.457429 0 0 1 -0.34624,0.05116 65.457429,65.457429 0 0 1 -0.34623,0.04961 65.457429,65.457429 0 0 1 -0.34674,0.04754 65.457429,65.457429 0 0 1 -0.34676,0.04599 65.457429,65.457429 0 0 1 -0.34727,0.04341 65.457429,65.457429 0 0 1 -0.34726,0.04238 65.457429,65.457429 0 0 1 -0.34777,0.03979 65.457429,65.457429 0 0 1 -0.34779,0.03824 65.457429,65.457429 0 0 1 -0.3483,0.03669 65.457429,65.457429 0 0 1 -0.3483,0.03462 65.457429,65.457429 0 0 1 -0.3483,0.03256 65.457429,65.457429 0 0 1 -0.34882,0.03101 65.457429,65.457429 0 0 1 -0.3483,0.02894 65.457429,65.457429 0 0 1 -0.34933,0.02687 65.457429,65.457429 0 0 1 -0.34883,0.02532 65.457429,65.457429 0 0 1 -0.34933,0.02325 65.457429,65.457429 0 0 1 -0.34933,0.0217 65.457429,65.457429 0 0 1 -0.34932,0.01964 65.457429,65.457429 0 0 1 -0.34933,0.01757 65.457429,65.457429 0 0 1 -0.34933,0.01602 65.457429,65.457429 0 0 1 -0.34986,0.01395 65.457429,65.457429 0 0 1 -0.34983,0.0124 65.457429,65.457429 0 0 1 -0.34986,0.01033 65.457429,65.457429 0 0 1 -0.34986,0.0083 65.457429,65.457429 0 0 1 -0.34983,0.0062 65.457429,65.457429 0 0 1 -0.34986,0.0052 65.457429,65.457429 0 0 1 -0.34986,0.0026 65.457429,65.457429 0 0 1 -0.34983,10e-4 65.457429,65.457429 0 0 1 -0.28578,-5.16e-4 65.457429,65.457429 0 0 1 -0.34986,-0.0026 65.457429,65.457429 0 0 1 -0.34986,-0.0047 65.457429,65.457429 0 0 1 -0.34983,-0.0062 65.457429,65.457429 0 0 1 -0.34986,-0.0077 65.457429,65.457429 0 0 1 -0.34983,-0.0098 65.457429,65.457429 0 0 1 -0.34986,-0.01188 65.457429,65.457429 0 0 1 -0.34986,-0.01395 65.457429,65.457429 0 0 1 -0.34933,-0.0155 65.457429,65.457429 0 0 1 -0.34985,-0.01757 65.457429,65.457429 0 0 1 -0.34933,-0.01912 65.457429,65.457429 0 0 1 -0.34933,-0.02119 65.457429,65.457429 0 0 1 -0.3488,-0.02274 65.457429,65.457429 0 0 1 -0.34936,-0.02532 65.457429,65.457429 0 0 1 -0.3488,-0.02636 65.457429,65.457429 0 0 1 -0.34883,-0.02894 65.457429,65.457429 0 0 1 -0.3488,-0.03049 65.457429,65.457429 0 0 1 -0.34829,-0.03204 65.457429,65.457429 0 0 1 -0.3483,-0.03462 65.457429,65.457429 0 0 1 -0.3483,-0.03566 65.457429,65.457429 0 0 1 -0.34779,-0.03824 65.457429,65.457429 0 0 1 -0.3478,-0.03979 65.457429,65.457429 0 0 1 -0.34726,-0.04134 65.457429,65.457429 0 0 1 -0.34727,-0.04392 65.457429,65.457429 0 0 1 -0.34674,-0.04496 65.457429,65.457429 0 0 1 -0.34673,-0.04754 65.457429,65.457429 0 0 1 -0.34676,-0.04909 65.457429,65.457429 0 0 1 -0.34624,-0.05064 65.457429,65.457429 0 0 1 -0.3457,-0.05271 65.457429,65.457429 0 0 1 -0.34573,-0.05478 65.457429,65.457429 0 0 1 -0.34521,-0.05633 65.457429,65.457429 0 0 1 -0.34517,-0.05839 65.457429,65.457429 0 0 1 -0.3447,-0.06046 65.457429,65.457429 0 0 1 -0.34467,-0.06201 65.457429,65.457429 0 0 1 -0.34417,-0.06356 65.457429,65.457429 0 0 1 -0.34364,-0.06563 65.457429,65.457429 0 0 1 -0.34314,-0.0677 65.457429,65.457429 0 0 1 -0.34314,-0.06925 65.457429,65.457429 0 0 1 -0.34261,-0.07131 65.457429,65.457429 0 0 1 -0.34211,-0.07286 65.457429,65.457429 0 0 1 -0.34208,-0.07493 65.457429,65.457429 0 0 1 -0.3416,-0.07648 65.457429,65.457429 0 0 1 -0.34054,-0.07855 65.457429,65.457429 0 0 1 -0.34105,-0.08062 65.457429,65.457429 0 0 1 -0.34004,-0.08217 65.457429,65.457429 0 0 1 -0.33952,-0.08371 65.457429,65.457429 0 0 1 -0.33951,-0.08578 65.457429,65.457429 0 0 1 -0.33848,-0.08785 65.457429,65.457429 0 0 1 -0.33848,-0.0894 65.457429,65.457429 0 0 1 -0.33796,-0.09095 65.457429,65.457429 0 0 1 -0.33745,-0.09302 65.457429,65.457429 0 0 1 -0.33692,-0.09457 65.457429,65.457429 0 0 1 -0.33641,-0.09663 65.457429,65.457429 0 0 1 -0.33539,-0.0987 65.457429,65.457429 0 0 1 -0.33539,-0.10025 65.457429,65.457429 0 0 1 -0.33485,-0.101804 65.457429,65.457429 0 0 1 -0.33436,-0.10387 65.457429,65.457429 0 0 1 -0.33332,-0.105421 65.457429,65.457429 0 0 1 -0.33329,-0.107487 65.457429,65.457429 0 0 1 -0.33229,-0.109035 65.457429,65.457429 0 0 1 -0.33227,-0.111106 65.457429,65.457429 0 0 1 -0.33126,-0.112654 65.457429,65.457429 0 0 1 -0.33073,-0.114205 65.457429,65.457429 0 0 1 -0.32969,-0.116271 65.457429,65.457429 0 0 1 -0.3297,-0.117822 65.457429,65.457429 0 0 1 -0.32867,-0.119891 65.457429,65.457429 0 0 1 -0.32813,-0.121438 65.457429,65.457429 0 0 1 -0.32764,-0.123507 65.457429,65.457429 0 0 1 -0.3271,-0.12454 65.457429,65.457429 0 0 1 -0.32607,-0.127124 65.457429,65.457429 0 0 1 -0.32557,-0.128159 65.457429,65.457429 0 0 1 -0.32454,-0.130225 65.457429,65.457429 0 0 1 -0.32451,-0.132292 65.457429,65.457429 0 0 1 -0.32298,-0.133324 65.457429,65.457429 0 0 1 -0.32298,-0.135392 65.457429,65.457429 0 0 1 -0.32194,-0.137459 65.457429,65.457429 0 0 1 -0.32144,-0.138494 65.457429,65.457429 0 0 1 -0.32039,-0.14056 65.457429,65.457429 0 0 1 -0.31935,-0.142626 65.457429,65.457429 0 0 1 -0.31938,-0.143661 65.457429,65.457429 0 0 1 -0.31779,-0.145727 65.457429,65.457429 0 0 1 -0.31782,-0.147277 65.457429,65.457429 0 0 1 -0.31625,-0.149345 65.457429,65.457429 0 0 1 -0.31576,-0.150897 65.457429,65.457429 0 0 1 -0.31522,-0.152445 65.457429,65.457429 0 0 1 -0.31419,-0.153995 65.457429,65.457429 0 0 1 -0.31316,-0.156062 65.457429,65.457429 0 0 1 -0.31264,-0.157096 65.457429,65.457429 0 0 1 -0.31162,-0.159166 65.457429,65.457429 0 0 1 -0.31057,-0.161229 65.457429,65.457429 0 0 1 -0.31006,-0.162264 65.457429,65.457429 0 0 1 -0.30901,-0.164332 65.457429,65.457429 0 0 1 -0.30851,-0.165365 65.457429,65.457429 0 0 1 -0.30697,-0.167431 65.457429,65.457429 0 0 1 -0.30644,-0.169497 65.457429,65.457429 0 0 1 -0.3054,-0.170535 65.457429,65.457429 0 0 1 -0.30488,-0.172082 65.457429,65.457429 0 0 1 -0.30335,-0.174149 65.457429,65.457429 0 0 1 -0.30284,-0.175699 65.457429,65.457429 0 0 1 -0.30178,-0.17725 65.457429,65.457429 0 0 1 -0.30076,-0.178802 65.457429,65.457429 0 0 1 -0.29972,-0.180351 65.457429,65.457429 0 0 1 -0.29921,-0.181901 65.457429,65.457429 0 0 1 -0.29766,-0.183451 65.457429,65.457429 0 0 1 -0.29713,-0.185518 65.457429,65.457429 0 0 1 -0.29612,-0.18655 65.457429,65.457429 0 0 1 -0.29456,-0.188622 65.457429,65.457429 0 0 1 -0.29403,-0.18965 65.457429,65.457429 0 0 1 -0.293,-0.19172 65.457429,65.457429 0 0 1 -0.29197,-0.19327 65.457429,65.457429 0 0 1 -0.29043,-0.194305 65.457429,65.457429 0 0 1 -0.2899,-0.196368 65.457429,65.457429 0 0 1 -0.28888,-0.197406 65.457429,65.457429 0 0 1 -0.28784,-0.199469 65.457429,65.457429 0 0 1 -0.28628,-0.201023 65.457429,65.457429 0 0 1 -0.28577,-0.202054 65.457429,65.457429 0 0 1 -0.28422,-0.204124 65.457429,65.457429 0 0 1 -0.28318,-0.205155 65.457429,65.457429 0 0 1 -0.28268,-0.206706 65.457429,65.457429 0 0 1 -0.28112,-0.208772 65.457429,65.457429 0 0 1 -0.28009,-0.209806 65.457429,65.457429 0 0 1 -0.27853,-0.211357 65.457429,65.457429 0 0 1 -0.27802,-0.212905 65.457429,65.457429 0 0 1 -0.27646,-0.214458 65.457429,65.457429 0 0 1 -0.27544,-0.21549 65.457429,65.457429 0 0 1 -0.2744,-0.217559 65.457429,65.457429 0 0 1 -0.27286,-0.218591 65.457429,65.457429 0 0 1 -0.27234,-0.220141 65.457429,65.457429 0 0 1 -0.27077,-0.221692 65.457429,65.457429 0 0 1 -0.26924,-0.223242 65.457429,65.457429 0 0 1 -0.26871,-0.224793 65.457429,65.457429 0 0 1 -0.26718,-0.225827 65.457429,65.457429 0 0 1 -0.26561,-0.227375 65.457429,65.457429 0 0 1 -0.26509,-0.228928 65.457429,65.457429 0 0 1 -0.26355,-0.22996 65.457429,65.457429 0 0 1 -0.26202,-0.232026 65.457429,65.457429 0 0 1 -0.26146,-0.233061 65.457429,65.457429 0 0 1 -0.25942,-0.234093 65.457429,65.457429 0 0 1 -0.2589,-0.236162 65.457429,65.457429 0 0 1 -0.25736,-0.237196 65.457429,65.457429 0 0 1 -0.2558,-0.238228 65.457429,65.457429 0 0 1 -0.25476,-0.240295 65.457429,65.457429 0 0 1 -0.25321,-0.241329 65.457429,65.457429 0 0 1 -0.25217,-0.242364 65.457429,65.457429 0 0 1 -0.25115,-0.243911 65.457429,65.457429 0 0 1 -0.2496,-0.245465 65.457429,65.457429 0 0 1 -0.24805,-0.246496 65.457429,65.457429 0 0 1 -0.24702,-0.248047 65.457429,65.457429 0 0 1 -0.24545,-0.249597 65.457429,65.457429 0 0 1 -0.24445,-0.25063 65.457429,65.457429 0 0 1 -0.24286,-0.251663 65.457429,65.457429 0 0 1 -0.24133,-0.253215 65.457429,65.457429 0 0 1 -0.24029,-0.254767 65.457429,65.457429 0 0 1 -0.23876,-0.255796 65.457429,65.457429 0 0 1 -0.2377,-0.256834 65.457429,65.457429 0 0 1 -0.23564,-0.258382 65.457429,65.457429 0 0 1 -0.23514,-0.259416 65.457429,65.457429 0 0 1 -0.23307,-0.260963 65.457429,65.457429 0 0 1 -0.23201,-0.262001 65.457429,65.457429 0 0 1 -0.23048,-0.263549 65.457429,65.457429 0 0 1 -0.22894,-0.264584 65.457429,65.457429 0 0 1 -0.22789,-0.265617 65.457429,65.457429 0 0 1 -0.22635,-0.26665 65.457429,65.457429 0 0 1 -0.22479,-0.2682 65.457429,65.457429 0 0 1 -0.22323,-0.269751 65.457429,65.457429 0 0 1 -0.22169,-0.270269 65.457429,65.457429 0 0 1 -0.22067,-0.271817 65.457429,65.457429 0 0 1 -0.2191,-0.272852 65.457429,65.457429 0 0 1 -0.21756,-0.274402 65.457429,65.457429 0 0 1 -0.21601,-0.274918 65.457429,65.457429 0 0 1 -0.21497,-0.276471 65.457429,65.457429 0 0 1 -0.21291,-0.2775 65.457429,65.457429 0 0 1 -0.21188,-0.279053 65.457429,65.457429 0 0 1 -0.20979,-0.27957 65.457429,65.457429 0 0 1 -0.20878,-0.28112 65.457429,65.457429 0 0 1 -0.20722,-0.281638 65.457429,65.457429 0 0 1 -0.20566,-0.283186 65.457429,65.457429 0 0 1 -0.20413,-0.284221 65.457429,65.457429 0 0 1 -0.20257,-0.285252 65.457429,65.457429 0 0 1 -0.20103,-0.286806 65.457429,65.457429 0 0 1 -0.19947,-0.287319 65.457429,65.457429 0 0 1 -0.19843,-0.288356 65.457429,65.457429 0 0 1 -0.19638,-0.289904 65.457429,65.457429 0 0 1 -0.19481,-0.290423 65.457429,65.457429 0 0 1 -0.19328,-0.29197 65.457429,65.457429 0 0 1 -0.19171,-0.292489 65.457429,65.457429 0 0 1 -0.19019,-0.293523 65.457429,65.457429 0 0 1 -0.18862,-0.295072 65.457429,65.457429 0 0 1 -0.18706,-0.29559 65.457429,65.457429 0 0 1 -0.18553,-0.296621 65.457429,65.457429 0 0 1 -0.18396,-0.297657 65.457429,65.457429 0 0 1 -0.1824,-0.29869 65.457429,65.457429 0 0 1 -0.18087,-0.299723 65.457429,65.457429 0 0 1 -0.17881,-0.300757 65.457429,65.457429 0 0 1 -0.17777,-0.301789 65.457429,65.457429 0 0 1 -0.17569,-0.302308 65.457429,65.457429 0 0 1 -0.17414,-0.303342 65.457429,65.457429 0 0 1 -0.17262,-0.30489 65.457429,65.457429 0 0 1 -0.17105,-0.30489 65.457429,65.457429 0 0 1 -0.16949,-0.306443 65.457429,65.457429 0 0 1 -0.16796,-0.306956 65.457429,65.457429 0 0 1 -0.16587,-0.307994 65.457429,65.457429 0 0 1 -0.16433,-0.309023 65.457429,65.457429 0 0 1 -0.16277,-0.310059 65.457429,65.457429 0 0 1 -0.16124,-0.310576 65.457429,65.457429 0 0 1 -0.15968,-0.311608 65.457429,65.457429 0 0 1 -0.15761,-0.312126 65.457429,65.457429 0 0 1 -0.15608,-0.313158 65.457429,65.457429 0 0 1 -0.15451,-0.314193 65.457429,65.457429 0 0 1 -0.15296,-0.314711 65.457429,65.457429 0 0 1 -0.15089,-0.315744 65.457429,65.457429 0 0 1 -0.14933,-0.316259 65.457429,65.457429 0 0 1 -0.1478,-0.317293 65.457429,65.457429 0 0 1 -0.14573,-0.31781 65.457429,65.457429 0 0 1 -0.1447,-0.318844 65.457429,65.457429 0 0 1 -0.14264,-0.319876 65.457429,65.457429 0 0 1 -0.14054,-0.320394 65.457429,65.457429 0 0 1 -0.13954,-0.320911 65.457429,65.457429 0 0 1 -0.13746,-0.321945 65.457429,65.457429 0 0 1 -0.13538,-0.322461 65.457429,65.457429 0 0 1 -0.13386,-0.323493 65.457429,65.457429 0 0 1 -0.13229,-0.324011 65.457429,65.457429 0 0 1 -0.13073,-0.324527 65.457429,65.457429 0 0 1 -0.12866,-0.325562 65.457429,65.457429 0 0 1 -0.12714,-0.326081 65.457429,65.457429 0 0 1 -0.12557,-0.326593 65.457429,65.457429 0 0 1 -0.12351,-0.327113 65.457429,65.457429 0 0 1 -0.12144,-0.328144 65.457429,65.457429 0 0 1 -0.12041,-0.328663 65.457429,65.457429 0 0 1 -0.11832,-0.329694 65.457429,65.457429 0 0 1 -0.11629,-0.329698 65.457429,65.457429 0 0 1 -0.11472,-0.330729 65.457429,65.457429 0 0 1 -0.11316,-0.331245 65.457429,65.457429 0 0 1 -0.1111,-0.331764 65.457429,65.457429 0 0 1 -0.10957,-0.332279 65.457429,65.457429 0 0 1 -0.1075,-0.332796 65.457429,65.457429 0 0 1 -0.10591,-0.33383 65.457429,65.457429 0 0 1 -0.1044,-0.33383 65.457429,65.457429 0 0 1 -0.10232,-0.334862 65.457429,65.457429 0 0 1 -0.10025,-0.33538 65.457429,65.457429 0 0 1 -0.0987,-0.335381 65.457429,65.457429 0 0 1 -0.0971,-0.336412 65.457429,65.457429 0 0 1 -0.0951,-0.336931 65.457429,65.457429 0 0 1 -0.0935,-0.336931 65.457429,65.457429 0 0 1 -0.0915,-0.337963 65.457429,65.457429 0 0 1 -0.0894,-0.338482 65.457429,65.457429 0 0 1 -0.0878,-0.338481 65.457429,65.457429 0 0 1 -0.0863,-0.338995 65.457429,65.457429 0 0 1 -0.0842,-0.340032 65.457429,65.457429 0 0 1 -0.0827,-0.340032 65.457429,65.457429 0 0 1 -0.0806,-0.340548 65.457429,65.457429 0 0 1 -0.0785,-0.341063 65.457429,65.457429 0 0 1 -0.077,-0.341064 65.457429,65.457429 0 0 1 -0.0754,-0.341582 65.457429,65.457429 0 0 1 -0.0734,-0.342615 65.457429,65.457429 0 0 1 -0.0713,-0.342614 65.457429,65.457429 0 0 1 -0.0698,-0.342614 65.457429,65.457429 0 0 1 -0.0677,-0.343133 65.457429,65.457429 0 0 1 -0.0661,-0.344165 65.457429,65.457429 0 0 1 -0.0641,-0.343649 65.457429,65.457429 0 0 1 -0.0625,-0.34468 65.457429,65.457429 0 0 1 -0.0605,-0.344683 65.457429,65.457429 0 0 1 -0.0589,-0.344681 65.457429,65.457429 0 0 1 -0.0569,-0.345199 65.457429,65.457429 0 0 1 -0.0548,-0.345715 65.457429,65.457429 0 0 1 -0.0532,-0.346232 65.457429,65.457429 0 0 1 -0.0511,-0.345715 65.457429,65.457429 0 0 1 -0.0491,-0.346749 65.457429,65.457429 0 0 1 -0.048,-0.34675 65.457429,65.457429 0 0 1 -0.0455,-0.346747 65.457429,65.457429 0 0 1 -0.0439,-0.347266 65.457429,65.457429 0 0 1 -0.0419,-0.347265 65.457429,65.457429 0 0 1 -0.0403,-0.347785 65.457429,65.457429 0 0 1 -0.0383,-0.347781 65.457429,65.457429 0 0 1 -0.0362,-0.3483 65.457429,65.457429 0 0 1 -0.0346,-0.347782 65.457429,65.457429 0 0 1 -0.0326,-0.348816 65.457429,65.457429 0 0 1 -0.031,-0.3483 65.457429,65.457429 0 0 1 -0.0289,-0.348814 65.457429,65.457429 0 0 1 -0.0274,-0.348816 65.457429,65.457429 0 0 1 -0.0248,-0.349334 65.457429,65.457429 0 0 1 -0.0238,-0.348816 65.457429,65.457429 0 0 1 -0.0212,-0.349332 65.457429,65.457429 0 0 1 -0.0197,-0.349332 65.457429,65.457429 0 0 1 -0.0181,-0.349851 65.457429,65.457429 0 0 1 -0.0155,-0.349332 65.457429,65.457429 0 0 1 -0.0145,-0.349848 65.457429,65.457429 0 0 1 -0.0119,-0.349851 65.457429,65.457429 0 0 1 -0.0103,-0.34985 65.457429,65.457429 0 0 1 -0.008,-0.349848 65.457429,65.457429 0 0 1 -0.007,-0.349851 65.457429,65.457429 0 0 1 -0.005,-0.349848 65.457429,65.457429 0 0 1 -0.003,-0.34985 65.457429,65.457429 0 0 1 -10e-4,-0.349848 65.457429,65.457429 0 0 1 5.3e-4,-0.285771 65.457429,65.457429 0 0 1 0.003,-0.349851 65.457429,65.457429 0 0 1 0.004,-0.349848 65.457429,65.457429 0 0 1 0.006,-0.349851 65.457429,65.457429 0 0 1 0.008,-0.349847 65.457429,65.457429 0 0 1 0.01,-0.349851 65.457429,65.457429 0 0 1 0.0119,-0.349851 65.457429,65.457429 0 0 1 0.0134,-0.349848 65.457429,65.457429 0 0 1 0.0155,-0.349332 65.457429,65.457429 0 0 1 0.0176,-0.349334 65.457429,65.457429 0 0 1 0.0196,-0.349848 65.457429,65.457429 0 0 1 0.0207,-0.349332 65.457429,65.457429 0 0 1 0.0232,-0.348816 65.457429,65.457429 0 0 1 0.0248,-0.349335 65.457429,65.457429 0 0 1 0.0269,-0.348816 65.457429,65.457429 0 0 1 0.0284,-0.348814 65.457429,65.457429 0 0 1 0.0305,-0.3483 65.457429,65.457429 0 0 1 0.0325,-0.348816 65.457429,65.457429 0 0 1 0.0341,-0.3483 65.457429,65.457429 0 0 1 0.0362,-0.347781 65.457429,65.457429 0 0 1 0.0377,-0.347782 65.457429,65.457429 0 0 1 0.0398,-0.347784 65.457429,65.457429 0 0 1 0.0419,-0.347782 65.457429,65.457429 0 0 1 0.0434,-0.347265 65.457429,65.457429 0 0 1 0.0455,-0.34675 65.457429,65.457429 0 0 1 0.047,-0.346747 65.457429,65.457429 0 0 1 0.0491,-0.34675 65.457429,65.457429 0 0 1 0.0512,-0.346231 65.457429,65.457429 0 0 1 0.0527,-0.345715 65.457429,65.457429 0 0 1 0.0548,-0.345715 65.457429,65.457429 0 0 1 0.0563,-0.345199 65.457429,65.457429 0 0 1 0.0584,-0.3452 65.457429,65.457429 0 0 1 0.06,-0.34468 65.457429,65.457429 0 0 1 0.062,-0.344684 65.457429,65.457429 0 0 1 0.0641,-0.343648 65.457429,65.457429 0 0 1 0.0656,-0.343646 65.457429,65.457429 0 0 1 0.0672,-0.343649 65.457429,65.457429 0 0 1 0.0698,-0.343133 65.457429,65.457429 0 0 1 0.0708,-0.342614 65.457429,65.457429 0 0 1 0.0734,-0.342099 65.457429,65.457429 0 0 1 0.0749,-0.342098 65.457429,65.457429 0 0 1 0.0765,-0.341064 65.457429,65.457429 0 0 1 0.0785,-0.341064 65.457429,65.457429 0 0 1 0.0801,-0.340547 65.457429,65.457429 0 0 1 0.0822,-0.340548 65.457429,65.457429 0 0 1 0.0842,-0.339514 65.457429,65.457429 0 0 1 0.0858,-0.339516 65.457429,65.457429 0 0 1 0.0873,-0.338478 65.457429,65.457429 0 0 1 0.0894,-0.338482 65.457429,65.457429 0 0 1 0.0915,-0.337965 65.457429,65.457429 0 0 1 0.093,-0.337447 65.457429,65.457429 0 0 1 0.0946,-0.336413 65.457429,65.457429 0 0 1 0.0966,-0.336412 65.457429,65.457429 0 0 1 0.0982,-0.335899 65.457429,65.457429 0 0 1 0.10025,-0.335378 65.457429,65.457429 0 0 1 0.10232,-0.334865 65.457429,65.457429 0 0 1 0.10334,-0.33383 65.457429,65.457429 0 0 1 0.10594,-0.33383 65.457429,65.457429 0 0 1 0.10697,-0.333316 65.457429,65.457429 0 0 1 0.10957,-0.33228 65.457429,65.457429 0 0 1 0.11059,-0.33176 65.457429,65.457429 0 0 1 0.11264,-0.33176 65.457429,65.457429 0 0 1 0.11472,-0.33021 65.457429,65.457429 0 0 1 0.11628,-0.33022 65.457429,65.457429 0 0 1 0.11782,-0.32969 65.457429,65.457429 0 0 1 0.11989,-0.32866 65.457429,65.457429 0 0 1 0.12144,-0.32815 65.457429,65.457429 0 0 1 0.123,-0.32763 65.457429,65.457429 0 0 1 0.12505,-0.32711 65.457429,65.457429 0 0 1 0.1266,-0.32608 65.457429,65.457429 0 0 1 0.12869,-0.32556 65.457429,65.457429 0 0 1 0.1302,-0.32453 65.457429,65.457429 0 0 1 0.13179,-0.32401 65.457429,65.457429 0 0 1 0.13383,-0.32349 65.457429,65.457429 0 0 1 0.13541,-0.32298 65.457429,65.457429 0 0 1 0.13692,-0.32194 65.457429,65.457429 0 0 1 0.13902,-0.32091 65.457429,65.457429 0 0 1 0.14057,-0.3204 65.457429,65.457429 0 0 1 0.14211,-0.31988 65.457429,65.457429 0 0 1 0.14417,-0.31884 65.457429,65.457429 0 0 1 0.14573,-0.31833 65.457429,65.457429 0 0 1 0.14727,-0.31729 65.457429,65.457429 0 0 1 0.14936,-0.31678 65.457429,65.457429 0 0 1 0.15036,-0.31574 65.457429,65.457429 0 0 1 0.15245,-0.31523 65.457429,65.457429 0 0 1 0.15452,-0.31419 65.457429,65.457429 0 0 1 0.15555,-0.31316 65.457429,65.457429 0 0 1 0.15761,-0.31264 65.457429,65.457429 0 0 1 0.11679,-0.22841 65.457429,65.457429 0 0 0 -35.61488,58.258975 65.457429,65.457429 0 0 0 65.45749,65.457503 z"
       style="display:inline;opacity:0.988;fill:#b6e9dc;fill-opacity:1;stroke-width:0.800309;stroke-linecap:square;paint-order:stroke fill markers"
       id="path1064" />
    <path
       style="display:inline;opacity:0.988;fill:none;fill-opacity:1;stroke:#53d8c0;stroke-width:5;stroke-linecap:square;stroke-miterlimit:4;stroke-dasharray:none;stroke-opacity:1;paint-order:stroke fill markers"
       d="M 277.63664,-32.119245 A 19.276785,124.35416 60 0 1 179.58116,46.752016 19.276785,124.35416 60 0 1 62.248918,92.234915 19.276785,124.35416 60 0 1 160.30439,13.363645 19.276785,124.35416 60 0 1 277.63664,-32.119245"
       id="path1093-6" />
    <path
       id="path850"
       d="M 277.63664,-32.119245 A 19.276785,124.35416 60 0 1 179.58116,46.752016 19.276785,124.35416 60 0 1 62.248918,92.234915 19.276785,124.35416 60 0 1 160.30439,13.363645 19.276785,124.35416 60 0 1 277.63664,-32.119245"
       style="display:inline;opacity:0.988;fill:none;fill-opacity:1;stroke:#53c5d8;stroke-width:5;stroke-linecap:square;stroke-miterlimit:4;stroke-dasharray:none;stroke-opacity:1;paint-order:stroke fill markers" />
    <g
       id="g886"
       transform="rotate(-75,164.10033,16.824549)">
      <path
         id="path880"
         d="m 222.69552,28.437323 a 65.45743,65.45743 0 0 0 -65.45743,-65.45743 65.45743,65.45743 0 0 0 -65.457426,65.45743 65.45743,65.45743 0 0 0 65.457426,65.45743 65.45743,65.45743 0 0 0 65.45743,-65.45743"
         style="display:inline;opacity:0.988;fill:#b6e9dc;fill-opacity:1;stroke-width:0.800309;stroke-linecap:square;paint-order:stroke fill markers" />
      <path
         id="path882"
         style="display:inline;opacity:0.988;fill:#98d8dc;fill-opacity:1;stroke-width:0.800309;stroke-linecap:square;paint-order:stroke fill markers"
         d="m 157.23837,93.895033 a 65.457427,65.457427 0 0 0 65.45699,-65.457504 65.457427,65.457427 0 0 1 -0.28526,-0.0011 65.457427,65.457427 0 0 1 -0.34984,-0.0021 65.457427,65.457427 0 0 1 -0.35037,-0.0047 65.457427,65.457427 0 0 1 -0.34985,-0.0062 65.457427,65.457427 0 0 1 -0.34985,-0.0078 65.457427,65.457427 0 0 1 -0.34985,-0.01032 65.457427,65.457427 0 0 1 -0.34933,-0.01138 65.457427,65.457427 0 0 1 -0.34985,-0.01394 65.457427,65.457427 0 0 1 -0.34985,-0.0155 65.457427,65.457427 0 0 1 -0.34933,-0.01757 65.457427,65.457427 0 0 1 -0.34934,-0.01913 65.457427,65.457427 0 0 1 -0.34933,-0.02119 65.457427,65.457427 0 0 1 -0.34933,-0.02326 65.457427,65.457427 0 0 1 -0.34882,-0.02482 65.457427,65.457427 0 0 1 -0.34881,-0.02687 65.457427,65.457427 0 0 1 -0.34882,-0.02842 65.457427,65.457427 0 0 1 -0.34881,-0.03049 65.457427,65.457427 0 0 1 -0.3483,-0.03256 65.457427,65.457427 0 0 1 -0.3483,-0.03411 65.457427,65.457427 0 0 1 -0.3483,-0.03617 65.457427,65.457427 0 0 1 -0.34778,-0.03772 65.457427,65.457427 0 0 1 -0.34779,-0.03979 65.457427,65.457427 0 0 1 -0.34726,-0.04186 65.457427,65.457427 0 0 1 -0.34727,-0.04341 65.457427,65.457427 0 0 1 -0.34726,-0.04547 65.457427,65.457427 0 0 1 -0.34675,-0.04703 65.457427,65.457427 0 0 1 -0.34624,-0.04909 65.457427,65.457427 0 0 1 -0.34623,-0.05064 65.457427,65.457427 0 0 1 -0.34571,-0.05323 65.457427,65.457427 0 0 1 -0.34572,-0.05426 65.457427,65.457427 0 0 1 -0.34571,-0.05633 65.457427,65.457427 0 0 1 -0.34469,-0.0584 65.457427,65.457427 0 0 1 -0.34519,-0.06046 65.457427,65.457427 0 0 1 -0.34417,-0.06201 65.457427,65.457427 0 0 1 -0.34416,-0.06356 65.457427,65.457427 0 0 1 -0.34365,-0.06563 65.457427,65.457427 0 0 1 -0.34313,-0.0677 65.457427,65.457427 0 0 1 -0.34313,-0.06925 65.457427,65.457427 0 0 1 -0.34262,-0.07131 65.457427,65.457427 0 0 1 -0.34261,-0.07286 65.457427,65.457427 0 0 1 -0.34158,-0.07493 65.457427,65.457427 0 0 1 -0.34159,-0.07648 65.457427,65.457427 0 0 1 -0.34106,-0.07855 65.457427,65.457427 0 0 1 -0.34055,-0.08062 65.457427,65.457427 0 0 1 -0.34003,-0.08217 65.457427,65.457427 0 0 1 -0.33951,-0.08371 65.457427,65.457427 0 0 1 -0.33952,-0.08578 65.457427,65.457427 0 0 1 -0.33899,-0.08785 65.457427,65.457427 0 0 1 -0.33797,-0.0894 65.457427,65.457427 0 0 1 -0.33796,-0.09095 65.457427,65.457427 0 0 1 -0.33745,-0.09302 65.457427,65.457427 0 0 1 -0.33693,-0.09508 65.457427,65.457427 0 0 1 -0.33641,-0.09663 65.457427,65.457427 0 0 1 -0.3359,-0.09819 65.457427,65.457427 0 0 1 -0.33486,-0.100253 65.457427,65.457427 0 0 1 -0.33487,-0.101804 65.457427,65.457427 0 0 1 -0.33434,-0.10387 65.457427,65.457427 0 0 1 -0.33383,-0.105418 65.457427,65.457427 0 0 1 -0.3328,-0.107487 65.457427,65.457427 0 0 1 -0.3328,-0.109037 65.457427,65.457427 0 0 1 -0.33176,-0.111104 65.457427,65.457427 0 0 1 -0.33124,-0.112655 65.457427,65.457427 0 0 1 -0.33073,-0.114207 65.457427,65.457427 0 0 1 -0.33022,-0.116271 65.457427,65.457427 0 0 1 -0.32918,-0.117822 65.457427,65.457427 0 0 1 -0.32917,-0.119888 65.457427,65.457427 0 0 1 -0.32815,-0.121441 65.457427,65.457427 0 0 1 -0.32711,-0.123507 65.457427,65.457427 0 0 1 -0.32711,-0.125056 65.457427,65.457427 0 0 1 -0.32608,-0.126608 65.457427,65.457427 0 0 1 -0.32556,-0.128156 65.457427,65.457427 0 0 1 -0.32505,-0.130226 65.457427,65.457427 0 0 1 -0.32401,-0.132291 65.457427,65.457427 0 0 1 -0.32349,-0.133326 65.457427,65.457427 0 0 1 -0.32246,-0.13539 65.457427,65.457427 0 0 1 -0.32195,-0.137462 65.457427,65.457427 0 0 1 -0.32143,-0.139009 65.457427,65.457427 0 0 1 -0.32039,-0.14056 65.457427,65.457427 0 0 1 -0.31988,-0.142111 65.457427,65.457427 0 0 1 -0.31884,-0.143658 65.457427,65.457427 0 0 1 -0.31833,-0.14573 65.457427,65.457427 0 0 1 -0.31729,-0.147793 65.457427,65.457427 0 0 1 -0.31626,-0.148828 65.457427,65.457427 0 0 1 -0.31626,-0.150895 65.457427,65.457427 0 0 1 -0.31471,-0.152445 65.457427,65.457427 0 0 1 -0.31419,-0.153995 65.457427,65.457427 0 0 1 -0.31316,-0.156065 65.457427,65.457427 0 0 1 -0.31264,-0.157096 65.457427,65.457427 0 0 1 -0.31161,-0.159163 65.457427,65.457427 0 0 1 -0.31109,-0.161232 65.457427,65.457427 0 0 1 -0.30955,-0.162263 65.457427,65.457427 0 0 1 -0.30954,-0.16433 65.457427,65.457427 0 0 1 -0.30799,-0.165881 65.457427,65.457427 0 0 1 -0.30747,-0.167434 65.457427,65.457427 0 0 1 -0.30593,-0.168981 65.457427,65.457427 0 0 1 -0.30592,-0.170532 65.457427,65.457427 0 0 1 -0.30438,-0.172598 65.457427,65.457427 0 0 1 -0.30386,-0.173633 65.457427,65.457427 0 0 1 -0.3023,-0.175702 65.457427,65.457427 0 0 1 -0.30179,-0.17725 65.457427,65.457427 0 0 1 -0.30076,-0.1788 65.457427,65.457427 0 0 1 -0.30024,-0.18035 65.457427,65.457427 0 0 1 -0.29869,-0.181901 65.457427,65.457427 0 0 1 -0.29817,-0.183968 65.457427,65.457427 0 0 1 -0.29663,-0.185002 65.457427,65.457427 0 0 1 -0.2961,-0.186552 65.457427,65.457427 0 0 1 -0.29507,-0.188619 65.457427,65.457427 0 0 1 -0.29353,-0.189653 65.457427,65.457427 0 0 1 -0.293,-0.19172 65.457427,65.457427 0 0 1 -0.29197,-0.19327 65.457427,65.457427 0 0 1 -0.29094,-0.194281 65.457427,65.457427 0 0 1 -0.28939,-0.196371 65.457427,65.457427 0 0 1 -0.28887,-0.197919 65.457427,65.457427 0 0 1 -0.28784,-0.198956 65.457427,65.457427 0 0 1 -0.28628,-0.20102 65.457427,65.457427 0 0 1 -0.28578,-0.202057 65.457427,65.457427 0 0 1 -0.28422,-0.204121 65.457427,65.457427 0 0 1 -0.2837,-0.205155 65.457427,65.457427 0 0 1 -0.28215,-0.207222 65.457427,65.457427 0 0 1 -0.28112,-0.208256 65.457427,65.457427 0 0 1 -0.28009,-0.209807 65.457427,65.457427 0 0 1 -0.27854,-0.211357 65.457427,65.457427 0 0 1 -0.27801,-0.212907 65.457427,65.457427 0 0 1 -0.27647,-0.214456 65.457427,65.457427 0 0 1 -0.27544,-0.215492 65.457427,65.457427 0 0 1 -0.2744,-0.217557 65.457427,65.457427 0 0 1 -0.27337,-0.21859 65.457427,65.457427 0 0 1 -0.27182,-0.220144 65.457427,65.457427 0 0 1 -0.27078,-0.221692 65.457427,65.457427 0 0 1 -0.26975,-0.223242 65.457427,65.457427 0 0 1 -0.2682,-0.224793 65.457427,65.457427 0 0 1 -0.26717,-0.225824 65.457427,65.457427 0 0 1 -0.26613,-0.227378 65.457427,65.457427 0 0 1 -0.26459,-0.228925 65.457427,65.457427 0 0 1 -0.26355,-0.22996 65.457427,65.457427 0 0 1 -0.26251,-0.232027 65.457427,65.457427 0 0 1 -0.26097,-0.233061 65.457427,65.457427 0 0 1 -0.25993,-0.234095 65.457427,65.457427 0 0 1 -0.25839,-0.236162 65.457427,65.457427 0 0 1 -0.25734,-0.237194 65.457427,65.457427 0 0 1 -0.2558,-0.238228 65.457427,65.457427 0 0 1 -0.25477,-0.240297 65.457427,65.457427 0 0 1 -0.25373,-0.241329 65.457427,65.457427 0 0 1 -0.25218,-0.242361 65.457427,65.457427 0 0 1 -0.25063,-0.2439144 65.457427,65.457427 0 0 1 -0.2496,-0.245462 65.457427,65.457427 0 0 1 -0.24804,-0.246496 65.457427,65.457427 0 0 1 -0.24702,-0.248047 65.457427,65.457427 0 0 1 -0.24546,-0.249598 65.457427,65.457427 0 0 1 -0.24443,-0.250631 65.457427,65.457427 0 0 1 -0.24288,-0.251664 65.457427,65.457427 0 0 1 -0.24133,-0.253214 65.457427,65.457427 0 0 1 -0.24029,-0.254765 65.457427,65.457427 0 0 1 -0.23875,-0.255799 65.457427,65.457427 0 0 1 -0.23771,-0.256831 65.457427,65.457427 0 0 1 -0.23616,-0.258382 65.457427,65.457427 0 0 1 -0.23461,-0.259416 65.457427,65.457427 0 0 1 -0.23306,-0.260966 65.457427,65.457427 0 0 1 -0.23203,-0.261999 65.457427,65.457427 0 0 1 -0.23048,-0.263551 65.457427,65.457427 0 0 1 -0.22892,-0.264583 65.457427,65.457427 0 0 1 -0.2279,-0.265616 65.457427,65.457427 0 0 1 -0.22634,-0.267168 65.457427,65.457427 0 0 1 -0.22479,-0.2682 65.457427,65.457427 0 0 1 -0.22324,-0.269235 65.457427,65.457427 0 0 1 -0.22221,-0.270266 65.457427,65.457427 0 0 1 -0.22014,-0.27182 65.457427,65.457427 0 0 1 -0.21911,-0.272852 65.457427,65.457427 0 0 1 -0.21756,-0.274402 65.457427,65.457427 0 0 1 -0.21601,-0.274918 65.457427,65.457427 0 0 1 -0.21497,-0.276468 65.457427,65.457427 0 0 1 -0.21291,-0.277503 65.457427,65.457427 0 0 1 -0.21187,-0.279053 65.457427,65.457427 0 0 1 -0.21032,-0.27957 65.457427,65.457427 0 0 1 -0.20826,-0.281119 65.457427,65.457427 0 0 1 -0.20722,-0.282152 65.457427,65.457427 0 0 1 -0.20567,-0.28267 65.457427,65.457427 0 0 1 -0.20413,-0.284221 65.457427,65.457427 0 0 1 -0.20257,-0.28577098 65.457427,65.457427 0 0 1 -0.20102,-0.286287 65.457427,65.457427 0 0 1 -0.19999,-0.287322 65.457427,65.457427 0 0 1 -0.19792,-0.288354 65.457427,65.457427 0 0 1 -0.19637,-0.289906 65.457427,65.457427 0 0 1 -0.19482,-0.29042 65.457427,65.457427 0 0 1 -0.19327,-0.291973 65.457427,65.457427 0 0 1 -0.19172,-0.29248902 65.457427,65.457427 0 0 1 -0.19068,-0.294037 65.457427,65.457427 0 0 1 -0.18862,-0.294555 65.457427,65.457427 0 0 1 -0.18707,-0.29559 65.457427,65.457427 0 0 1 -0.18552,-0.296624 65.457427,65.457427 0 0 1 -0.18345,-0.298172 65.457427,65.457427 0 0 1 -0.18242,-0.298691 65.457427,65.457427 0 0 1 -0.18087,-0.299723 65.457427,65.457427 0 0 1 -0.17931,-0.300238 65.457427,65.457427 0 0 1 -0.17725,-0.301792 65.457427,65.457427 0 0 1 -0.1757,-0.302308 65.457427,65.457427 0 0 1 -0.17467,-0.303855 65.457427,65.457427 0 0 1 -0.1726,-0.304377 65.457427,65.457427 0 0 1 -0.17105,-0.30489 65.457427,65.457427 0 0 1 -0.16898,-0.30644 65.457427,65.457427 0 0 1 -0.16795,-0.306959 65.457427,65.457427 0 0 1 -0.16588,-0.307991 65.457427,65.457427 0 0 1 -0.16485,-0.309026 65.457427,65.457427 0 0 1 -0.16278,-0.310057 65.457427,65.457427 0 0 1 -0.16071,-0.310576 65.457427,65.457427 0 0 1 -0.15968,-0.31161 65.457427,65.457427 0 0 1 -0.15762,-0.312124 65.457427,65.457427 0 0 1 -0.15606,-0.313161 65.457427,65.457427 0 0 1 -0.15451,-0.314192 65.457427,65.457427 0 0 1 -0.15296,-0.314709 65.457427,65.457427 0 0 1 -0.1509,-0.315743 65.457427,65.457427 0 0 1 -0.14934,-0.316259 65.457427,65.457427 0 0 1 -0.1478,-0.317294 65.457427,65.457427 0 0 1 -0.14624,-0.318328 65.457427,65.457427 0 0 1 -0.14418,-0.3188436 65.457427,65.457427 0 0 1 -0.14263,-0.31936 65.457427,65.457427 0 0 1 -0.14107,-0.320391 65.457427,65.457427 0 0 1 -0.13901,-0.320911 65.457427,65.457427 0 0 1 -0.13746,-0.321945 65.457427,65.457427 0 0 1 -0.13539,-0.322461 65.457427,65.457427 0 0 1 -0.13436,-0.323495 65.457427,65.457427 0 0 1 -0.1323,-0.324011 65.457427,65.457427 0 0 1 -0.13022,-0.324528 65.457427,65.457427 0 0 1 -0.12919,-0.325563 65.457427,65.457427 0 0 1 -0.12661,-0.326077 65.457427,65.457427 0 0 1 -0.12557,-0.326597 65.457427,65.457427 0 0 1 -0.12351,-0.327109 65.457427,65.457427 0 0 1 -0.12195,-0.328147 65.457427,65.457427 0 0 1 -0.11989,-0.32866 65.457427,65.457427 0 0 1 -0.11834,-0.329698 65.457427,65.457427 0 0 1 -0.11628,-0.329694 65.457427,65.457427 0 0 1 -0.11523,-0.330729 65.457427,65.457427 0 0 1 -0.11266,-0.331248 65.457427,65.457427 0 0 1 -0.1111,-0.331761 65.457427,65.457427 0 0 1 -0.10956,-0.33228 65.457427,65.457427 0 0 1 -0.108,-0.333314 65.457427,65.457427 0 0 1 -0.10542,-0.333311 65.457427,65.457427 0 0 1 -0.10439,-0.334346 65.457427,65.457427 0 0 1 -0.10232,-0.334349 65.457427,65.457427 0 0 1 -0.10025,-0.335378 65.457427,65.457427 0 0 1 -0.0992,-0.335381 65.457427,65.457427 0 0 1 -0.0966,-0.336415 65.457427,65.457427 0 0 1 -0.0951,-0.336928 65.457427,65.457427 0 0 1 -0.0935,-0.336931 65.457427,65.457427 0 0 1 -0.0915,-0.337966 65.457427,65.457427 0 0 1 -0.0899,-0.33848 65.457427,65.457427 0 0 1 -0.0878,-0.33848 65.457427,65.457427 0 0 1 -0.0858,-0.33951 65.457427,65.457427 0 0 1 -0.0842,-0.33952 65.457427,65.457427 0 0 1 -0.0827,-0.34003 65.457427,65.457427 0 0 1 -0.0806,-0.34055 65.457427,65.457427 0 0 1 -0.0791,-0.34106 65.457427,65.457427 0 0 1 -0.077,-0.34107 65.457427,65.457427 0 0 1 -0.0749,-0.34209 65.457427,65.457427 0 0 1 -0.0734,-0.3421 65.457427,65.457427 0 0 1 -0.0718,-0.34262 65.457427,65.457427 0 0 1 -0.0693,-0.34261 65.457427,65.457427 0 0 1 -0.0682,-0.34365 65.457427,65.457427 0 0 1 -0.0656,-0.34365 65.457427,65.457427 0 0 1 -0.0646,-0.34364 65.457427,65.457427 0 0 1 -0.062,-0.344691 65.457427,65.457427 0 0 1 -0.0605,-0.344679 65.457427,65.457427 0 0 1 -0.0589,-0.34468 65.457427,65.457427 0 0 1 -0.0568,-0.345201 65.457427,65.457427 0 0 1 -0.0548,-0.345709 65.457427,65.457427 0 0 1 -0.0532,-0.34624 65.457427,65.457427 0 0 1 -0.0512,-0.34623 65.457427,65.457427 0 0 1 -0.0496,-0.34623 65.457427,65.457427 0 0 1 -0.0475,-0.34675 65.457427,65.457427 0 0 1 -0.0455,-0.34675 65.457427,65.457427 0 0 1 -0.0439,-0.34726 65.457427,65.457427 0 0 1 -0.0419,-0.34727 65.457427,65.457427 0 0 1 -0.0403,-0.34778 65.457427,65.457427 0 0 1 -0.0382,-0.34778 65.457427,65.457427 0 0 1 -0.0367,-0.3483 65.457427,65.457427 0 0 1 -0.0341,-0.3483 65.457427,65.457427 0 0 1 -0.0331,-0.3483 65.457427,65.457427 0 0 1 -0.0305,-0.3483 65.457427,65.457427 0 0 1 -0.0289,-0.34882 65.457427,65.457427 0 0 1 -0.0274,-0.34881 65.457427,65.457427 0 0 1 -0.0253,-0.34934 65.457427,65.457427 0 0 1 -0.0233,-0.34933 65.457427,65.457427 0 0 1 -0.0212,-0.34881 65.457427,65.457427 0 0 1 -0.0196,-0.34985 65.457427,65.457427 0 0 1 -0.0181,-0.34934 65.457427,65.457427 0 0 1 -0.016,-0.34933 65.457427,65.457427 0 0 1 -0.0139,-0.34985 65.457427,65.457427 0 0 1 -0.0119,-0.34985 65.457427,65.457427 0 0 1 -0.0103,-0.34985 65.457427,65.457427 0 0 1 -0.008,-0.34985 65.457427,65.457427 0 0 1 -0.007,-0.34985 65.457427,65.457427 0 0 1 -0.005,-0.34985 65.457427,65.457427 0 0 1 -0.003,-0.34985 65.457427,65.457427 0 0 1 -5.3e-4,-0.34985 65.457427,65.457427 0 0 0 -65.457496,65.457609 65.457427,65.457427 0 0 0 65.457496,65.457501 z" />
      <path
         id="path884"
         style="display:inline;opacity:0.988;fill:#b6e9dc;fill-opacity:1;stroke-width:0.800309;stroke-linecap:square;paint-order:stroke fill markers"
         d="m 157.23899,93.894973 a 65.45743,65.45743 0 0 0 58.25848,-35.614883 65.45743,65.45743 0 0 1 -0.17106,0.08733 65.45743,65.45743 0 0 1 -0.31213,0.158128 65.45743,65.45743 0 0 1 -0.31316,0.156062 65.45743,65.45743 0 0 1 -0.31419,0.154514 65.45743,65.45743 0 0 1 -0.3147,0.152445 65.45743,65.45743 0 0 1 -0.31575,0.151413 65.45743,65.45743 0 0 1 -0.31626,0.149344 65.45743,65.45743 0 0 1 -0.31728,0.147796 65.45743,65.45743 0 0 1 -0.31835,0.145725 65.45743,65.45743 0 0 1 -0.31882,0.144179 65.45743,65.45743 0 0 1 -0.31938,0.142624 65.45743,65.45743 0 0 1 -0.32039,0.141081 65.45743,65.45743 0 0 1 -0.32091,0.139007 65.45743,65.45743 0 0 1 -0.32194,0.137459 65.45743,65.45743 0 0 1 -0.32245,0.135911 65.45743,65.45743 0 0 1 -0.32351,0.133842 65.45743,65.45743 0 0 1 -0.32401,0.132292 65.45743,65.45743 0 0 1 -0.32453,0.130741 65.45743,65.45743 0 0 1 -0.32555,0.128675 65.45743,65.45743 0 0 1 -0.3261,0.127124 65.45743,65.45743 0 0 1 -0.32657,0.125053 65.45743,65.45743 0 0 1 -0.32764,0.12351 65.45743,65.45743 0 0 1 -0.32763,0.121957 65.45743,65.45743 0 0 1 -0.32917,0.119888 65.45743,65.45743 0 0 1 -0.32919,0.11834 65.45743,65.45743 0 0 1 -0.3297,0.116787 65.45743,65.45743 0 0 1 -0.33073,0.114721 65.45743,65.45743 0 0 1 -0.33123,0.113173 65.45743,65.45743 0 0 1 -0.33176,0.111101 65.45743,65.45743 0 0 1 -0.33229,0.109556 65.45743,65.45743 0 0 1 -0.33332,0.107487 65.45743,65.45743 0 0 1 -0.3333,0.105939 65.45743,65.45743 0 0 1 -0.33435,0.103865 65.45743,65.45743 0 0 1 -0.33436,0.102322 65.45743,65.45743 0 0 1 -0.33536,0.100767 65.45743,65.45743 0 0 1 -0.33591,0.0987 65.45743,65.45743 0 0 1 -0.33589,0.09663 65.45743,65.45743 0 0 1 -0.33692,0.0956 65.45743,65.45743 0 0 1 -0.33745,0.093 65.45743,65.45743 0 0 1 -0.33745,0.0915 65.45743,65.45743 0 0 1 -0.33848,0.0899 65.45743,65.45743 0 0 1 -0.33848,0.0879 65.45743,65.45743 0 0 1 -0.33952,0.0863 65.45743,65.45743 0 0 1 -0.33951,0.0842 65.45743,65.45743 0 0 1 -0.34004,0.0822 65.45743,65.45743 0 0 1 -0.34055,0.0806 65.45743,65.45743 0 0 1 -0.34107,0.0791 65.45743,65.45743 0 0 1 -0.34105,0.077 65.45743,65.45743 0 0 1 -0.34211,0.0749 65.45743,65.45743 0 0 1 -0.3421,0.0734 65.45743,65.45743 0 0 1 -0.34261,0.0718 65.45743,65.45743 0 0 1 -0.34261,0.0698 65.45743,65.45743 0 0 1 -0.34364,0.0677 65.45743,65.45743 0 0 1 -0.34367,0.0661 65.45743,65.45743 0 0 1 -0.34364,0.0641 65.45743,65.45743 0 0 1 -0.34467,0.0625 65.45743,65.45743 0 0 1 -0.3447,0.0605 65.45743,65.45743 0 0 1 -0.34467,0.0584 65.45743,65.45743 0 0 1 -0.34571,0.0568 65.45743,65.45743 0 0 1 -0.3452,0.0548 65.45743,65.45743 0 0 1 -0.34623,0.0532 65.45743,65.45743 0 0 1 -0.34624,0.0512 65.45743,65.45743 0 0 1 -0.34623,0.0496 65.45743,65.45743 0 0 1 -0.34674,0.0475 65.45743,65.45743 0 0 1 -0.34676,0.046 65.45743,65.45743 0 0 1 -0.34727,0.0434 65.45743,65.45743 0 0 1 -0.34726,0.0424 65.45743,65.45743 0 0 1 -0.34777,0.0398 65.45743,65.45743 0 0 1 -0.34779,0.0382 65.45743,65.45743 0 0 1 -0.3483,0.0367 65.45743,65.45743 0 0 1 -0.3483,0.0346 65.45743,65.45743 0 0 1 -0.3483,0.0326 65.45743,65.45743 0 0 1 -0.34882,0.031 65.45743,65.45743 0 0 1 -0.3483,0.0289 65.45743,65.45743 0 0 1 -0.34933,0.0269 65.45743,65.45743 0 0 1 -0.34883,0.0253 65.45743,65.45743 0 0 1 -0.34933,0.0232 65.45743,65.45743 0 0 1 -0.34933,0.0217 65.45743,65.45743 0 0 1 -0.34932,0.0196 65.45743,65.45743 0 0 1 -0.34933,0.0176 65.45743,65.45743 0 0 1 -0.34933,0.016 65.45743,65.45743 0 0 1 -0.34986,0.0139 65.45743,65.45743 0 0 1 -0.34983,0.0124 65.45743,65.45743 0 0 1 -0.34986,0.0103 65.45743,65.45743 0 0 1 -0.34986,0.008 65.45743,65.45743 0 0 1 -0.34983,0.006 65.45743,65.45743 0 0 1 -0.34986,0.005 65.45743,65.45743 0 0 1 -0.34986,0.003 65.45743,65.45743 0 0 1 -0.34983,0.001 65.45743,65.45743 0 0 1 -0.28578,-5.3e-4 65.45743,65.45743 0 0 1 -0.34986,-0.003 65.45743,65.45743 0 0 1 -0.34986,-0.005 65.45743,65.45743 0 0 1 -0.34983,-0.006 65.45743,65.45743 0 0 1 -0.34986,-0.008 65.45743,65.45743 0 0 1 -0.34983,-0.01 65.45743,65.45743 0 0 1 -0.34986,-0.0119 65.45743,65.45743 0 0 1 -0.34986,-0.0139 65.45743,65.45743 0 0 1 -0.34933,-0.0155 65.45743,65.45743 0 0 1 -0.34985,-0.0176 65.45743,65.45743 0 0 1 -0.34933,-0.0191 65.45743,65.45743 0 0 1 -0.34933,-0.0212 65.45743,65.45743 0 0 1 -0.3488,-0.0227 65.45743,65.45743 0 0 1 -0.34936,-0.0253 65.45743,65.45743 0 0 1 -0.3488,-0.0264 65.45743,65.45743 0 0 1 -0.34883,-0.0289 65.45743,65.45743 0 0 1 -0.3488,-0.0305 65.45743,65.45743 0 0 1 -0.34829,-0.032 65.45743,65.45743 0 0 1 -0.3483,-0.0346 65.45743,65.45743 0 0 1 -0.3483,-0.0357 65.45743,65.45743 0 0 1 -0.34779,-0.0382 65.45743,65.45743 0 0 1 -0.3478,-0.0398 65.45743,65.45743 0 0 1 -0.34726,-0.0413 65.45743,65.45743 0 0 1 -0.34727,-0.0439 65.45743,65.45743 0 0 1 -0.34674,-0.045 65.45743,65.45743 0 0 1 -0.34673,-0.0475 65.45743,65.45743 0 0 1 -0.34676,-0.0491 65.45743,65.45743 0 0 1 -0.34624,-0.0506 65.45743,65.45743 0 0 1 -0.3457,-0.0527 65.45743,65.45743 0 0 1 -0.34573,-0.0548 65.45743,65.45743 0 0 1 -0.34521,-0.0563 65.45743,65.45743 0 0 1 -0.34517,-0.0584 65.45743,65.45743 0 0 1 -0.3447,-0.0605 65.45743,65.45743 0 0 1 -0.34467,-0.062 65.45743,65.45743 0 0 1 -0.34417,-0.0636 65.45743,65.45743 0 0 1 -0.34364,-0.0656 65.45743,65.45743 0 0 1 -0.34314,-0.0677 65.45743,65.45743 0 0 1 -0.34314,-0.0692 65.45743,65.45743 0 0 1 -0.34261,-0.0713 65.45743,65.45743 0 0 1 -0.34211,-0.0729 65.45743,65.45743 0 0 1 -0.34208,-0.0749 65.45743,65.45743 0 0 1 -0.3416,-0.0765 65.45743,65.45743 0 0 1 -0.34054,-0.0786 65.45743,65.45743 0 0 1 -0.34105,-0.0806 65.45743,65.45743 0 0 1 -0.34004,-0.0822 65.45743,65.45743 0 0 1 -0.33952,-0.0837 65.45743,65.45743 0 0 1 -0.33951,-0.0858 65.45743,65.45743 0 0 1 -0.33848,-0.0879 65.45743,65.45743 0 0 1 -0.33848,-0.0894 65.45743,65.45743 0 0 1 -0.33796,-0.0909 65.45743,65.45743 0 0 1 -0.33745,-0.093 65.45743,65.45743 0 0 1 -0.33692,-0.0946 65.45743,65.45743 0 0 1 -0.33641,-0.09664 65.45743,65.45743 0 0 1 -0.33539,-0.0987 65.45743,65.45743 0 0 1 -0.33539,-0.100241 65.45743,65.45743 0 0 1 -0.33485,-0.101804 65.45743,65.45743 0 0 1 -0.33436,-0.10387 65.45743,65.45743 0 0 1 -0.33332,-0.10542 65.45743,65.45743 0 0 1 -0.33329,-0.107487 65.45743,65.45743 0 0 1 -0.33229,-0.109035 65.45743,65.45743 0 0 1 -0.33227,-0.109699 65.45743,65.45743 0 0 1 -0.33126,-0.112654 65.45743,65.45743 0 0 1 -0.33073,-0.114205 65.45743,65.45743 0 0 1 -0.32969,-0.116271 65.45743,65.45743 0 0 1 -0.3297,-0.117821 65.45743,65.45743 0 0 1 -0.32867,-0.119891 65.45743,65.45743 0 0 1 -0.32813,-0.121439 65.45743,65.45743 0 0 1 -0.32764,-0.123507 65.45743,65.45743 0 0 1 -0.3271,-0.124539 65.45743,65.45743 0 0 1 -0.32607,-0.127125 65.45743,65.45743 0 0 1 -0.32557,-0.128159 65.45743,65.45743 0 0 1 -0.32454,-0.130225 65.45743,65.45743 0 0 1 -0.32451,-0.132292 65.45743,65.45743 0 0 1 -0.32298,-0.133323 65.45743,65.45743 0 0 1 -0.32298,-0.135393 65.45743,65.45743 0 0 1 -0.32194,-0.137459 65.45743,65.45743 0 0 1 -0.32144,-0.138493 65.45743,65.45743 0 0 1 -0.32039,-0.14056 65.45743,65.45743 0 0 1 -0.31935,-0.142626 65.45743,65.45743 0 0 1 -0.31938,-0.143661 65.45743,65.45743 0 0 1 -0.31779,-0.145727 65.45743,65.45743 0 0 1 -0.31782,-0.147278 65.45743,65.45743 0 0 1 -0.31625,-0.149344 65.45743,65.45743 0 0 1 -0.31576,-0.150897 65.45743,65.45743 0 0 1 -0.31522,-0.152445 65.45743,65.45743 0 0 1 -0.31419,-0.153996 65.45743,65.45743 0 0 1 -0.31316,-0.156062 65.45743,65.45743 0 0 1 -0.31264,-0.157096 65.45743,65.45743 0 0 1 -0.31162,-0.159165 65.45743,65.45743 0 0 1 -0.31057,-0.161229 65.45743,65.45743 0 0 1 -0.31006,-0.162264 65.45743,65.45743 0 0 1 -0.30901,-0.164333 65.45743,65.45743 0 0 1 -0.30851,-0.165364 65.45743,65.45743 0 0 1 -0.30697,-0.167431 65.45743,65.45743 0 0 1 -0.30644,-0.169498 65.45743,65.45743 0 0 1 -0.3054,-0.170534 65.45743,65.45743 0 0 1 -0.30488,-0.172083 65.45743,65.45743 0 0 1 -0.30335,-0.174148 65.45743,65.45743 0 0 1 -0.30284,-0.1757 65.45743,65.45743 0 0 1 -0.30178,-0.177249 65.45743,65.45743 0 0 1 -0.30076,-0.178803 65.45743,65.45743 0 0 1 -0.29972,-0.180351 65.45743,65.45743 0 0 1 -0.29921,-0.181901 65.45743,65.45743 0 0 1 -0.29766,-0.183451 65.45743,65.45743 0 0 1 -0.29713,-0.185518 65.45743,65.45743 0 0 1 -0.29612,-0.18655 65.45743,65.45743 0 0 1 -0.29456,-0.188621 65.45743,65.45743 0 0 1 -0.29403,-0.189651 65.45743,65.45743 0 0 1 -0.293,-0.19172 65.45743,65.45743 0 0 1 -0.29197,-0.19327 65.45743,65.45743 0 0 1 -0.29043,-0.194305 65.45743,65.45743 0 0 1 -0.2899,-0.196368 65.45743,65.45743 0 0 1 -0.28888,-0.197406 65.45743,65.45743 0 0 1 -0.28784,-0.199469 65.45743,65.45743 0 0 1 -0.28628,-0.201023 65.45743,65.45743 0 0 1 -0.28577,-0.202054 65.45743,65.45743 0 0 1 -0.28422,-0.204123 65.45743,65.45743 0 0 1 -0.28318,-0.205156 65.45743,65.45743 0 0 1 -0.28268,-0.206705 65.45743,65.45743 0 0 1 -0.28112,-0.208772 65.45743,65.45743 0 0 1 -0.28009,-0.209807 65.45743,65.45743 0 0 1 -0.27853,-0.211357 65.45743,65.45743 0 0 1 -0.27802,-0.212905 65.45743,65.45743 0 0 1 -0.27646,-0.214458 65.45743,65.45743 0 0 1 -0.27544,-0.21549 65.45743,65.45743 0 0 1 -0.2744,-0.217559 65.45743,65.45743 0 0 1 -0.27286,-0.218591 65.45743,65.45743 0 0 1 -0.27234,-0.220141 65.45743,65.45743 0 0 1 -0.27077,-0.221692 65.45743,65.45743 0 0 1 -0.26924,-0.223242 65.45743,65.45743 0 0 1 -0.26871,-0.224793 65.45743,65.45743 0 0 1 -0.26718,-0.225827 65.45743,65.45743 0 0 1 -0.26561,-0.227375 65.45743,65.45743 0 0 1 -0.26509,-0.228928 65.45743,65.45743 0 0 1 -0.26355,-0.22996 65.45743,65.45743 0 0 1 -0.26202,-0.232026 65.45743,65.45743 0 0 1 -0.26146,-0.233061 65.45743,65.45743 0 0 1 -0.25942,-0.234093 65.45743,65.45743 0 0 1 -0.2589,-0.236162 65.45743,65.45743 0 0 1 -0.25736,-0.237196 65.45743,65.45743 0 0 1 -0.2558,-0.238228 65.45743,65.45743 0 0 1 -0.25476,-0.240295 65.45743,65.45743 0 0 1 -0.25321,-0.241329 65.45743,65.45743 0 0 1 -0.25217,-0.242363 65.45743,65.45743 0 0 1 -0.25115,-0.243912 65.45743,65.45743 0 0 1 -0.2496,-0.245464 65.45743,65.45743 0 0 1 -0.24805,-0.246497 65.45743,65.45743 0 0 1 -0.24702,-0.248047 65.45743,65.45743 0 0 1 -0.24545,-0.249597 65.45743,65.45743 0 0 1 -0.24445,-0.250629 65.45743,65.45743 0 0 1 -0.24286,-0.251664 65.45743,65.45743 0 0 1 -0.24133,-0.253214 65.45743,65.45743 0 0 1 -0.24029,-0.254767 65.45743,65.45743 0 0 1 -0.23876,-0.255797 65.45743,65.45743 0 0 1 -0.2377,-0.256834 65.45743,65.45743 0 0 1 -0.23564,-0.258381 65.45743,65.45743 0 0 1 -0.23514,-0.259416 65.45743,65.45743 0 0 1 -0.23307,-0.260964 65.45743,65.45743 0 0 1 -0.23201,-0.262001 65.45743,65.45743 0 0 1 -0.23048,-0.263549 65.45743,65.45743 0 0 1 -0.22894,-0.264583 65.45743,65.45743 0 0 1 -0.22788,-0.265618 65.45743,65.45743 0 0 1 -0.22635,-0.26665 65.45743,65.45743 0 0 1 -0.22479,-0.2682 65.45743,65.45743 0 0 1 -0.22323,-0.26975 65.45743,65.45743 0 0 1 -0.2217,-0.27027 65.45743,65.45743 0 0 1 -0.22067,-0.271817 65.45743,65.45743 0 0 1 -0.21909,-0.272851 65.45743,65.45743 0 0 1 -0.21756,-0.274402 65.45743,65.45743 0 0 1 -0.21601,-0.274918 65.45743,65.45743 0 0 1 -0.21498,-0.276471 65.45743,65.45743 0 0 1 -0.2129,-0.277501 65.45743,65.45743 0 0 1 -0.21188,-0.279053 65.45743,65.45743 0 0 1 -0.2098,-0.279569 65.45743,65.45743 0 0 1 -0.20878,-0.28112 65.45743,65.45743 0 0 1 -0.20721,-0.281639 65.45743,65.45743 0 0 1 -0.20567,-0.283186 65.45743,65.45743 0 0 1 -0.20412,-0.28422 65.45743,65.45743 0 0 1 -0.20257,-0.285253 65.45743,65.45743 0 0 1 -0.20103,-0.286806 65.45743,65.45743 0 0 1 -0.19947,-0.287319 65.45743,65.45743 0 0 1 -0.19844,-0.288356 65.45743,65.45743 0 0 1 -0.19638,-0.289904 65.45743,65.45743 0 0 1 -0.19481,-0.290422 65.45743,65.45743 0 0 1 -0.19328,-0.291971 65.45743,65.45743 0 0 1 -0.19171,-0.292489 65.45743,65.45743 0 0 1 -0.19019,-0.293523 65.45743,65.45743 0 0 1 -0.18861,-0.295071 65.45743,65.45743 0 0 1 -0.18706,-0.29559 65.45743,65.45743 0 0 1 -0.18554,-0.296622 65.45743,65.45743 0 0 1 -0.18396,-0.297656 65.45743,65.45743 0 0 1 -0.18239,-0.298691 65.45743,65.45743 0 0 1 -0.18088,-0.299723 65.45743,65.45743 0 0 1 -0.1788,-0.300757 65.45743,65.45743 0 0 1 -0.17777,-0.301789 65.45743,65.45743 0 0 1 -0.1757,-0.302307 65.45743,65.45743 0 0 1 -0.17413,-0.303343 65.45743,65.45743 0 0 1 -0.17263,-0.30489 65.45743,65.45743 0 0 1 -0.17104,-0.304889 65.45743,65.45743 0 0 1 -0.1695,-0.306444 65.45743,65.45743 0 0 1 -0.16796,-0.306956 65.45743,65.45743 0 0 1 -0.16587,-0.307993 65.45743,65.45743 0 0 1 -0.16433,-0.309023 65.45743,65.45743 0 0 1 -0.16277,-0.31006 65.45743,65.45743 0 0 1 -0.16124,-0.310576 65.45743,65.45743 0 0 1 -0.15967,-0.311608 65.45743,65.45743 0 0 1 -0.15762,-0.312126 65.45743,65.45743 0 0 1 -0.15607,-0.313158 65.45743,65.45743 0 0 1 -0.15452,-0.314193 65.45743,65.45743 0 0 1 -0.15296,-0.314711 65.45743,65.45743 0 0 1 -0.15089,-0.315743 65.45743,65.45743 0 0 1 -0.14933,-0.316259 65.45743,65.45743 0 0 1 -0.1478,-0.317294 65.45743,65.45743 0 0 1 -0.14572,-0.31781 65.45743,65.45743 0 0 1 -0.14471,-0.318844 65.45743,65.45743 0 0 1 -0.14264,-0.319876 65.45743,65.45743 0 0 1 -0.14053,-0.320394 65.45743,65.45743 0 0 1 -0.13955,-0.320911 65.45743,65.45743 0 0 1 -0.13745,-0.321945 65.45743,65.45743 0 0 1 -0.13539,-0.322461 65.45743,65.45743 0 0 1 -0.13385,-0.323492 65.45743,65.45743 0 0 1 -0.1323,-0.324012 65.45743,65.45743 0 0 1 -0.13073,-0.324527 65.45743,65.45743 0 0 1 -0.12866,-0.325562 65.45743,65.45743 0 0 1 -0.12714,-0.32608 65.45743,65.45743 0 0 1 -0.12556,-0.326594 65.45743,65.45743 0 0 1 -0.12351,-0.327113 65.45743,65.45743 0 0 1 -0.12145,-0.328144 65.45743,65.45743 0 0 1 -0.1204,-0.328662 65.45743,65.45743 0 0 1 -0.11833,-0.329695 65.45743,65.45743 0 0 1 -0.11629,-0.329697 65.45743,65.45743 0 0 1 -0.11471,-0.33073 65.45743,65.45743 0 0 1 -0.11317,-0.331245 65.45743,65.45743 0 0 1 -0.11109,-0.331763 65.45743,65.45743 0 0 1 -0.10957,-0.33228 65.45743,65.45743 0 0 1 -0.1075,-0.332796 65.45743,65.45743 0 0 1 -0.10591,-0.33383 65.45743,65.45743 0 0 1 -0.10441,-0.33383 65.45743,65.45743 0 0 1 -0.10232,-0.334862 65.45743,65.45743 0 0 1 -0.10024,-0.33538 65.45743,65.45743 0 0 1 -0.0987,-0.335381 65.45743,65.45743 0 0 1 -0.0971,-0.336412 65.45743,65.45743 0 0 1 -0.0951,-0.336931 65.45743,65.45743 0 0 1 -0.0935,-0.336931 65.45743,65.45743 0 0 1 -0.0915,-0.337963 65.45743,65.45743 0 0 1 -0.0894,-0.338482 65.45743,65.45743 0 0 1 -0.0878,-0.338481 65.45743,65.45743 0 0 1 -0.0863,-0.338995 65.45743,65.45743 0 0 1 -0.0842,-0.340032 65.45743,65.45743 0 0 1 -0.0827,-0.340032 65.45743,65.45743 0 0 1 -0.0806,-0.340547 65.45743,65.45743 0 0 1 -0.0785,-0.341064 65.45743,65.45743 0 0 1 -0.077,-0.341064 65.45743,65.45743 0 0 1 -0.0754,-0.341582 65.45743,65.45743 0 0 1 -0.0734,-0.342615 65.45743,65.45743 0 0 1 -0.0713,-0.342614 65.45743,65.45743 0 0 1 -0.0698,-0.342614 65.45743,65.45743 0 0 1 -0.0677,-0.343133 65.45743,65.45743 0 0 1 -0.0661,-0.344165 65.45743,65.45743 0 0 1 -0.0641,-0.343648 65.45743,65.45743 0 0 1 -0.0625,-0.344681 65.45743,65.45743 0 0 1 -0.0605,-0.344683 65.45743,65.45743 0 0 1 -0.0589,-0.344681 65.45743,65.45743 0 0 1 -0.0569,-0.345199 65.45743,65.45743 0 0 1 -0.0548,-0.345715 65.45743,65.45743 0 0 1 -0.0532,-0.3462324 65.45743,65.45743 0 0 1 -0.0511,-0.345715 65.45743,65.45743 0 0 1 -0.0491,-0.346749 65.45743,65.45743 0 0 1 -0.048,-0.34675 65.45743,65.45743 0 0 1 -0.0455,-0.346747 65.45743,65.45743 0 0 1 -0.0439,-0.347266 65.45743,65.45743 0 0 1 -0.0419,-0.347265 65.45743,65.45743 0 0 1 -0.0403,-0.347785 65.45743,65.45743 0 0 1 -0.0383,-0.347781 65.45743,65.45743 0 0 1 -0.0362,-0.3483 65.45743,65.45743 0 0 1 -0.0346,-0.347782 65.45743,65.45743 0 0 1 -0.0326,-0.348816 65.45743,65.45743 0 0 1 -0.031,-0.3483 65.45743,65.45743 0 0 1 -0.0289,-0.348813 65.45743,65.45743 0 0 1 -0.0274,-0.348817 65.45743,65.45743 0 0 1 -0.0248,-0.349334 65.45743,65.45743 0 0 1 -0.0238,-0.348816 65.45743,65.45743 0 0 1 -0.0212,-0.349332 65.45743,65.45743 0 0 1 -0.0197,-0.349332 65.45743,65.45743 0 0 1 -0.0181,-0.349851 65.45743,65.45743 0 0 1 -0.0155,-0.349332 65.45743,65.45743 0 0 1 -0.0145,-0.349848 65.45743,65.45743 0 0 1 -0.0119,-0.349851 65.45743,65.45743 0 0 1 -0.0103,-0.34985 65.45743,65.45743 0 0 1 -0.008,-0.349848 65.45743,65.45743 0 0 1 -0.007,-0.349851 65.45743,65.45743 0 0 1 -0.005,-0.34984798 65.45743,65.45743 0 0 1 -0.003,-0.34985 65.45743,65.45743 0 0 1 -0.001,-0.349848 65.45743,65.45743 0 0 1 5.3e-4,-0.285771 65.45743,65.45743 0 0 1 0.003,-0.349851 65.45743,65.45743 0 0 1 0.004,-0.349848 65.45743,65.45743 0 0 1 0.006,-0.34985102 65.45743,65.45743 0 0 1 0.008,-0.349848 65.45743,65.45743 0 0 1 0.01,-0.34985 65.45743,65.45743 0 0 1 0.0119,-0.349851 65.45743,65.45743 0 0 1 0.0134,-0.349848 65.45743,65.45743 0 0 1 0.0155,-0.349332 65.45743,65.45743 0 0 1 0.0176,-0.349334 65.45743,65.45743 0 0 1 0.0196,-0.349848 65.45743,65.45743 0 0 1 0.0207,-0.349332 65.45743,65.45743 0 0 1 0.0232,-0.348816 65.45743,65.45743 0 0 1 0.0248,-0.349335 65.45743,65.45743 0 0 1 0.0269,-0.348816 65.45743,65.45743 0 0 1 0.0284,-0.348814 65.45743,65.45743 0 0 1 0.0305,-0.3483 65.45743,65.45743 0 0 1 0.0325,-0.348816 65.45743,65.45743 0 0 1 0.0341,-0.3483 65.45743,65.45743 0 0 1 0.0362,-0.347782 65.45743,65.45743 0 0 1 0.0377,-0.347781 65.45743,65.45743 0 0 1 0.0398,-0.347784 65.45743,65.45743 0 0 1 0.0419,-0.347782 65.45743,65.45743 0 0 1 0.0434,-0.347266 65.45743,65.45743 0 0 1 0.0455,-0.346749 65.45743,65.45743 0 0 1 0.047,-0.346747 65.45743,65.45743 0 0 1 0.0491,-0.34675 65.45743,65.45743 0 0 1 0.0512,-0.346231 65.45743,65.45743 0 0 1 0.0527,-0.3457146 65.45743,65.45743 0 0 1 0.0548,-0.345715 65.45743,65.45743 0 0 1 0.0563,-0.3452 65.45743,65.45743 0 0 1 0.0584,-0.3452 65.45743,65.45743 0 0 1 0.06,-0.344679 65.45743,65.45743 0 0 1 0.062,-0.344685 65.45743,65.45743 0 0 1 0.0641,-0.343648 65.45743,65.45743 0 0 1 0.0656,-0.343646 65.45743,65.45743 0 0 1 0.0672,-0.343649 65.45743,65.45743 0 0 1 0.0698,-0.343133 65.45743,65.45743 0 0 1 0.0708,-0.342614 65.45743,65.45743 0 0 1 0.0734,-0.342099 65.45743,65.45743 0 0 1 0.0749,-0.342098 65.45743,65.45743 0 0 1 0.0765,-0.341063 65.45743,65.45743 0 0 1 0.0785,-0.341065 65.45743,65.45743 0 0 1 0.0801,-0.340547 65.45743,65.45743 0 0 1 0.0822,-0.340548 65.45743,65.45743 0 0 1 0.0842,-0.339514 65.45743,65.45743 0 0 1 0.0858,-0.339516 65.45743,65.45743 0 0 1 0.0873,-0.338478 65.45743,65.45743 0 0 1 0.0894,-0.338482 65.45743,65.45743 0 0 1 0.0915,-0.337965 65.45743,65.45743 0 0 1 0.093,-0.337447 65.45743,65.45743 0 0 1 0.0946,-0.336413 65.45743,65.45743 0 0 1 0.0966,-0.336412 65.45743,65.45743 0 0 1 0.0982,-0.335899 65.45743,65.45743 0 0 1 0.10025,-0.335378 65.45743,65.45743 0 0 1 0.10232,-0.334865 65.45743,65.45743 0 0 1 0.10334,-0.33383 65.45743,65.45743 0 0 1 0.10594,-0.33383 65.45743,65.45743 0 0 1 0.10697,-0.333316 65.45743,65.45743 0 0 1 0.10957,-0.33228 65.45743,65.45743 0 0 1 0.11059,-0.33176 65.45743,65.45743 0 0 1 0.11264,-0.33176 65.45743,65.45743 0 0 1 0.11472,-0.33021 65.45743,65.45743 0 0 1 0.11628,-0.33022 65.45743,65.45743 0 0 1 0.11782,-0.32969 65.45743,65.45743 0 0 1 0.11989,-0.32866 65.45743,65.45743 0 0 1 0.12144,-0.32815 65.45743,65.45743 0 0 1 0.123,-0.32763 65.45743,65.45743 0 0 1 0.12505,-0.32711 65.45743,65.45743 0 0 1 0.1266,-0.32608 65.45743,65.45743 0 0 1 0.12869,-0.32556 65.45743,65.45743 0 0 1 0.1302,-0.32453 65.45743,65.45743 0 0 1 0.13179,-0.32401 65.45743,65.45743 0 0 1 0.13383,-0.32349 65.45743,65.45743 0 0 1 0.13541,-0.32298 65.45743,65.45743 0 0 1 0.13692,-0.32194 65.45743,65.45743 0 0 1 0.13902,-0.32091 65.45743,65.45743 0 0 1 0.14057,-0.3204 65.45743,65.45743 0 0 1 0.14211,-0.31988 65.45743,65.45743 0 0 1 0.14417,-0.318839 65.45743,65.45743 0 0 1 0.14573,-0.31833 65.45743,65.45743 0 0 1 0.14727,-0.317291 65.45743,65.45743 0 0 1 0.14936,-0.316779 65.45743,65.45743 0 0 1 0.15036,-0.31574 65.45743,65.45743 0 0 1 0.15245,-0.315231 65.45743,65.45743 0 0 1 0.15452,-0.31419 65.45743,65.45743 0 0 1 0.15555,-0.313159 65.45743,65.45743 0 0 1 0.15761,-0.312641 65.45743,65.45743 0 0 1 0.11679,-0.22841 65.45743,65.45743 0 0 0 -35.614786,58.258955 65.45743,65.45743 0 0 0 65.457486,65.457504 z" />
    </g>
    <path
       sodipodi:nodetypes="cc"
       id="path25"
       d="M 127.48345,74.19519 C 172.09552,51.774655 200,34.551935 237.85325,9.4163707"
       style="fill:none;stroke:#53c5d8;stroke-width:5;stroke-linecap:butt;stroke-linejoin:miter;stroke-miterlimit:4;stroke-dasharray:none;stroke-opacity:1" />
  </g>
  <g
     style="display:none"
     inkscape:label="レイヤー 2"
     id="layer2"
     inkscape:groupmode="layer">
    <rect
       style="font-variation-settings:normal;opacity:1;vector-effect:none;fill:#000000;fill-opacity:0.0323325;fill-rule:evenodd;stroke:none;stroke-width:1;stroke-linecap:round;stroke-linejoin:round;stroke-miterlimit:4;stroke-dasharray:none;stroke-dashoffset:0;stroke-opacity:1;paint-order:markers stroke fill;stop-color:#000000;stop-opacity:1"
       id="rect956"
       width="210"
       height="297"
       x="0"
       y="1.3974009e-14" />
  </g>
</svg>
