<?xml version="1.0" encoding="UTF-8" standalone="no"?>
<svg
   xmlns:dc="http://purl.org/dc/elements/1.1/"
   xmlns:cc="http://creativecommons.org/ns#"
   xmlns:rdf="http://www.w3.org/1999/02/22-rdf-syntax-ns#"
   xmlns:svg="http://www.w3.org/2000/svg"
   xmlns="http://www.w3.org/2000/svg"
   xmlns:sodipodi="http://sodipodi.sourceforge.net/DTD/sodipodi-0.dtd"
   xmlns:inkscape="http://www.inkscape.org/namespaces/inkscape"
   width="200mm"
   height="150mm"
   viewBox="0 0 200 150"
   version="1.1"
   id="svg8"
   inkscape:version="1.0 (4035a4fb49, 2020-05-01)"
   sodipodi:docname="card-back3.svg">
  <defs
     id="defs2" />
  <sodipodi:namedview
     id="base"
     pagecolor="#ffffff"
     bordercolor="#666666"
     borderopacity="1.0"
     inkscape:pageopacity="0.0"
     inkscape:pageshadow="2"
     inkscape:zoom="0.35"
     inkscape:cx="-536.20907"
     inkscape:cy="-165.62916"
     inkscape:document-units="mm"
     inkscape:current-layer="layer1"
     inkscape:document-rotation="0"
     showgrid="false"
     inkscape:pagecheckerboard="true"
     inkscape:snap-bbox="true"
     inkscape:snap-page="true"
     inkscape:bbox-paths="true"
     inkscape:snap-bbox-edge-midpoints="true"
     inkscape:snap-others="true"
     inkscape:window-width="1920"
     inkscape:window-height="1057"
     inkscape:window-x="-8"
     inkscape:window-y="-8"
     inkscape:window-maximized="1"
     inkscape:bbox-nodes="true"
     inkscape:snap-bbox-midpoints="true"
     inkscape:snap-object-midpoints="true"
     inkscape:snap-nodes="true"
     inkscape:object-paths="false"
     inkscape:snap-intersection-paths="true"
     inkscape:snap-midpoints="true" />
  <metadata
     id="metadata5">
    <rdf:RDF>
      <cc:Work
         rdf:about="">
        <dc:format>image/svg+xml</dc:format>
        <dc:type
           rdf:resource="http://purl.org/dc/dcmitype/StillImage" />
        <dc:title />
      </cc:Work>
    </rdf:RDF>
  </metadata>
  <g
     inkscape:label="レイヤー 1"
     inkscape:groupmode="layer"
     id="layer1"
     style="display:inline">
    <rect
       style="font-variation-settings:normal;display:inline;opacity:1;vector-effect:none;fill:#fcffff;fill-opacity:1;fill-rule:evenodd;stroke:none;stroke-width:0.693542;stroke-linecap:round;stroke-linejoin:round;stroke-miterlimit:4;stroke-dasharray:none;stroke-dashoffset:0;stroke-opacity:1;paint-order:markers stroke fill;stop-color:#000000;stop-opacity:1"
       id="rect10"
       width="200"
       height="149.99998"
       x="0"
       y="2.2888184e-05" />
    <path
       id="path40-1-4-6-9"
       d="M 252.24984,71.877826 A 65.45743,65.45743 0 0 0 228.29076,-17.538687 65.45743,65.45743 0 0 0 138.87424,6.4203944 65.45743,65.45743 0 0 0 162.83333,95.836896 65.45743,65.45743 0 0 0 252.24984,71.877826"
       style="display:inline;opacity:0.988;fill:#bdebf4;fill-opacity:1;stroke-width:0.800309;stroke-linecap:square;paint-order:stroke fill markers" />
    <path
       d="m 138.87541,6.4211944 a 92.718922,92.718922 0 0 0 0.0868,0.321 92.718922,92.718922 0 0 0 0.1111,0.40189 92.718922,92.718922 0 0 0 0.1123,0.40078 92.718922,92.718922 0 0 0 0.11442,0.4002 92.718922,92.718922 0 0 0 0.11628,0.40012 92.718922,92.718922 0 0 0 0.11772,0.39972 92.718922,92.718922 0 0 0 0.12005,0.39869 92.718922,92.718922 0 0 0 0.12148,0.39835 92.718922,92.718922 0 0 0 0.12362,0.39775 92.718922,92.718922 0 0 0 0.125,0.3973896 92.718922,92.718922 0 0 0 0.12669,0.39656 92.718922,92.718922 0 0 0 0.12881,0.39598 92.718922,92.718922 0 0 0 0.13067,0.39587 92.718922,92.718922 0 0 0 0.13187,0.39479 92.718922,92.718922 0 0 0 0.13447,0.39448 92.718922,92.718922 0 0 0 0.13541,0.39384 92.718922,92.718922 0 0 0 0.13778,0.39282 92.718922,92.718922 0 0 0 0.1392,0.39245 92.718922,92.718922 0 0 0 0.14132,0.39187 92.718922,92.718922 0 0 0 0.14275,0.39151 92.718922,92.718922 0 0 0 0.14465,0.39022 92.718922,92.718922 0 0 0 0.14653,0.39011 92.718922,92.718922 0 0 0 0.14818,0.3893 92.718922,92.718922 0 0 0 0.1496,0.38889 92.718922,92.718922 0 0 0 0.15153,0.38763 92.718922,92.718922 0 0 0 0.15339,0.38753 92.718922,92.718922 0 0 0 0.15532,0.38624 92.718922,92.718922 0 0 0 0.15674,0.38586 92.718922,92.718922 0 0 0 0.1584,0.38502 92.718922,92.718922 0 0 0 0.1605,0.38446 92.718922,92.718922 0 0 0 0.1615,0.38382 92.718922,92.718922 0 0 0 0.16386,0.38283 92.718922,92.718922 0 0 0 0.16526,0.38244 92.718922,92.718922 0 0 0 0.16765,0.38141 92.718922,92.718922 0 0 0 0.16862,0.38078 92.718922,92.718922 0 0 0 0.17098,0.37976 92.718922,92.718922 0 0 0 0.17194,0.37915 92.718922,92.718922 0 0 0 0.17408,0.37856 92.718922,92.718922 0 0 0 0.17573,0.37773 92.718922,92.718922 0 0 0 0.17698,0.37668 92.718922,92.718922 0 0 0 0.17907,0.37606 92.718922,92.718922 0 0 0 0.18075,0.37528 92.718922,92.718922 0 0 0 0.18242,0.37443 92.718922,92.718922 0 0 0 0.18409,0.37361 92.718922,92.718922 0 0 0 0.18576,0.3728 92.718922,92.718922 0 0 0 0.18769,0.3715 92.718922,92.718922 0 0 0 0.18911,0.37113 92.718922,92.718922 0 0 0 0.19076,0.37031 92.718922,92.718922 0 0 0 0.19246,0.36949 92.718922,92.718922 0 0 0 0.1941,0.36864 92.718922,92.718922 0 0 0 0.19604,0.36737 92.718922,92.718922 0 0 0 0.19745,0.36702 92.718922,92.718922 0 0 0 0.19894,0.36547 92.718922,92.718922 0 0 0 0.20078,0.36534 92.718922,92.718922 0 0 0 0.20228,0.36383 92.718922,92.718922 0 0 0 0.20394,0.36298 92.718922,92.718922 0 0 0 0.20562,0.36218 92.718922,92.718922 0 0 0 0.20729,0.36134 92.718922,92.718922 0 0 0 0.20894,0.36052 92.718922,92.718922 0 0 0 0.21018,0.35944 92.718922,92.718922 0 0 0 0.21212,0.35814 92.718922,92.718922 0 0 0 0.21351,0.35778 92.718922,92.718922 0 0 0 0.21544,0.35652 92.718922,92.718922 0 0 0 0.21712,0.35568 92.718922,92.718922 0 0 0 0.21834,0.35459 92.718922,92.718922 0 0 0 0.22027,0.35334 92.718922,92.718922 0 0 0 0.22167,0.35293 92.718922,92.718922 0 0 0 0.22318,0.35142 92.718922,92.718922 0 0 0 0.22481,0.35059 92.718922,92.718922 0 0 0 0.22651,0.34977 92.718922,92.718922 0 0 0 0.22799,0.34824 92.718922,92.718922 0 0 0 0.2294,0.34783 92.718922,92.718922 0 0 0 0.23085,0.34632 92.718922,92.718922 0 0 0 0.23256,0.3455 92.718922,92.718922 0 0 0 0.23446,0.34421 92.718922,92.718922 0 0 0 0.23545,0.3436 92.718922,92.718922 0 0 0 0.23736,0.34231 92.718922,92.718922 0 0 0 0.2393,0.34102 92.718922,92.718922 0 0 0 0.24026,0.34042 92.718922,92.718922 0 0 0 0.24175,0.33886 92.718922,92.718922 0 0 0 0.2434,0.33804 92.718922,92.718922 0 0 0 0.24464,0.33696 92.718922,92.718922 0 0 0 0.24656,0.33568 92.718922,92.718922 0 0 0 0.24779,0.33462 92.718922,92.718922 0 0 0 0.24943,0.33377 92.718922,92.718922 0 0 0 0.25096,0.33225 92.718922,92.718922 0 0 0 0.2526,0.33142 92.718922,92.718922 0 0 0 0.2541,0.32989 92.718922,92.718922 0 0 0 0.25504,0.32924 92.718922,92.718922 0 0 0 0.25697,0.32797 92.718922,92.718922 0 0 0 0.25846,0.32645 92.718922,92.718922 0 0 0 0.25944,0.32583 92.718922,92.718922 0 0 0 0.2616,0.32407 92.718922,92.718922 0 0 0 0.26258,0.32346 92.718922,92.718922 0 0 0 0.26408,0.3219 92.718922,92.718922 0 0 0 0.26526,0.32085 92.718922,92.718922 0 0 0 0.26721,0.31956 92.718922,92.718922 0 0 0 0.26845,0.31847 92.718922,92.718922 0 0 0 0.2699,0.31695 92.718922,92.718922 0 0 0 0.27157,0.31612 92.718922,92.718922 0 0 0 0.27235,0.31477 92.718922,92.718922 0 0 0 0.27431,0.31351 92.718922,92.718922 0 0 0 0.2755,0.31243 92.718922,92.718922 0 0 0 0.277,0.31087 92.718922,92.718922 0 0 0 0.27866,0.31007 92.718922,92.718922 0 0 0 0.27944,0.30872 92.718922,92.718922 0 0 0 0.28091,0.30718 92.718922,92.718922 0 0 0 0.28285,0.30591 92.718922,92.718922 0 0 0 0.2836,0.30459 92.718922,92.718922 0 0 0 0.2853,0.30372 92.718922,92.718922 0 0 0 0.28678,0.30223 92.718922,92.718922 0 0 0 0.28799,0.30113 92.718922,92.718922 0 0 0 0.28902,0.29933 92.718922,92.718922 0 0 0 0.29072,0.29852 92.718922,92.718922 0 0 0 0.29216,0.29699 92.718922,92.718922 0 0 0 0.29296,0.29563 92.718922,92.718922 0 0 0 0.29488,0.29438 92.718922,92.718922 0 0 0 0.29567,0.29303 92.718922,92.718922 0 0 0 0.29759,0.29173 92.718922,92.718922 0 0 0 0.29836,0.29043 92.718922,92.718922 0 0 0 0.29983,0.28886 92.718922,92.718922 0 0 0 0.30107,0.28779 92.718922,92.718922 0 0 0 0.30257,0.28626 92.718922,92.718922 0 0 0 0.30376,0.28518 92.718922,92.718922 0 0 0 0.30523,0.28365 92.718922,92.718922 0 0 0 0.30604,0.28231 92.718922,92.718922 0 0 0 0.3075,0.28077 92.718922,92.718922 0 0 0 0.30898,0.2792 92.718922,92.718922 0 0 0 0.31023,0.27818 92.718922,92.718922 0 0 0 0.31098,0.2768 92.718922,92.718922 0 0 0 0.31245,0.27529 92.718922,92.718922 0 0 0 0.31397,0.27374 92.718922,92.718922 0 0 0 0.31515,0.27267 92.718922,92.718922 0 0 0 0.31621,0.27086 92.718922,92.718922 0 0 0 0.31743,0.26978 92.718922,92.718922 0 0 0 0.31847,0.26802 92.718922,92.718922 0 0 0 0.31968,0.26693 92.718922,92.718922 0 0 0 0.32116,0.26537 92.718922,92.718922 0 0 0 0.32219,0.26359 92.718922,92.718922 0 0 0 0.32342,0.2625 92.718922,92.718922 0 0 0 0.32489,0.26099 92.718922,92.718922 0 0 0 0.32568,0.25965 92.718922,92.718922 0 0 0 0.32671,0.25782 92.718922,92.718922 0 0 0 0.3284,0.25703 92.718922,92.718922 0 0 0 0.32896,0.25497 92.718922,92.718922 0 0 0 0.33043,0.25344 92.718922,92.718922 0 0 0 0.33168,0.25234 92.718922,92.718922 0 0 0 0.3327,0.25057 92.718922,92.718922 0 0 0 0.33374,0.24878 92.718922,92.718922 0 0 0 0.33498,0.24769 92.718922,92.718922 0 0 0 0.33571,0.24634 92.718922,92.718922 0 0 0 0.33721,0.24482 92.718922,92.718922 0 0 0 0.33826,0.24302 92.718922,92.718922 0 0 0 0.33927,0.24124 92.718922,92.718922 0 0 0 0.34052,0.24014 92.718922,92.718922 0 0 0 0.34129,0.23883 92.718922,92.718922 0 0 0 0.3423,0.237 92.718922,92.718922 0 0 0 0.34335,0.23523 92.718922,92.718922 0 0 0 0.34484,0.23368 92.718922,92.718922 0 0 0 0.34559,0.23237 92.718922,92.718922 0 0 0 0.34685,0.23126 92.718922,92.718922 0 0 0 0.34766,0.22877 92.718922,92.718922 0 0 0 0.34887,0.2277 92.718922,92.718922 0 0 0 0.34969,0.22633 92.718922,92.718922 0 0 0 0.35071,0.22457 92.718922,92.718922 0 0 0 0.35171,0.22276 92.718922,92.718922 0 0 0 0.35299,0.22168 92.718922,92.718922 0 0 0 0.35353,0.21963 92.718922,92.718922 0 0 0 0.35502,0.2181 92.718922,92.718922 0 0 0 0.35582,0.21676 92.718922,92.718922 0 0 0 0.35635,0.21474 92.718922,92.718922 0 0 0 0.35761,0.21363 92.718922,92.718922 0 0 0 0.35893,0.21138 92.718922,92.718922 0 0 0 0.3594,0.21051 92.718922,92.718922 0 0 0 0.24768,0.14357 92.718922,92.718922 0 0 0 0.3612,0.20739 92.718922,92.718922 0 0 0 0.36228,0.205582 92.718922,92.718922 0 0 0 0.36305,0.20418 92.718922,92.718922 0 0 0 0.36381,0.20288 92.718922,92.718922 0 0 0 0.36511,0.20064 92.718922,92.718922 0 0 0 0.36587,0.19928 92.718922,92.718922 0 0 0 0.36622,0.19772 92.718922,92.718922 0 0 0 0.36768,0.19618 92.718922,92.718922 0 0 0 0.36828,0.19412 92.718922,92.718922 0 0 0 0.36903,0.19277 92.718922,92.718922 0 0 0 0.37008,0.191 92.718922,92.718922 0 0 0 0.37113,0.18921 92.718922,92.718922 0 0 0 0.37187,0.18785 92.718922,92.718922 0 0 0 0.3725,0.18582 92.718922,92.718922 0 0 0 0.37393,0.18428 92.718922,92.718922 0 0 0 0.37429,0.18267 92.718922,92.718922 0 0 0 0.37462,0.18108 92.718922,92.718922 0 0 0 0.37635,0.1791 92.718922,92.718922 0 0 0 0.37644,0.17793 92.718922,92.718922 0 0 0 0.37769,0.17572 92.718922,92.718922 0 0 0 0.37851,0.17435 92.718922,92.718922 0 0 0 0.37906,0.17232 92.718922,92.718922 0 0 0 0.37985,0.17097 92.718922,92.718922 0 0 0 0.38045,0.16894 92.718922,92.718922 0 0 0 0.38146,0.16711 92.718922,92.718922 0 0 0 0.38224,0.16581 92.718922,92.718922 0 0 0 0.38258,0.16418 92.718922,92.718922 0 0 0 0.38386,0.16195 92.718922,92.718922 0 0 0 0.38419,0.16035 92.718922,92.718922 0 0 0 0.38497,0.15902 92.718922,92.718922 0 0 0 0.38598,0.15723 92.718922,92.718922 0 0 0 0.3866,0.15516 92.718922,92.718922 0 0 0 0.3869,0.15357 92.718922,92.718922 0 0 0 0.38795,0.15179 92.718922,92.718922 0 0 0 0.38828,0.15018 92.718922,92.718922 0 0 0 0.38929,0.14837 92.718922,92.718922 0 0 0 0.38991,0.14635 92.718922,92.718922 0 0 0 0.39066,0.14499 92.718922,92.718922 0 0 0 0.3908,0.14268 92.718922,92.718922 0 0 0 0.39203,0.14163 92.718922,92.718922 0 0 0 0.39218,0.13929 92.718922,92.718922 0 0 0 0.39295,0.13797 92.718922,92.718922 0 0 0 0.39395,0.13615 92.718922,92.718922 0 0 0 0.39414,0.13385 92.718922,92.718922 0 0 0 0.39489,0.13253 92.718922,92.718922 0 0 0 0.39521,0.13092 92.718922,92.718922 0 0 0 0.39625,0.12911 92.718922,92.718922 0 0 0 0.39685,0.12708 92.718922,92.718922 0 0 0 0.39716,0.12548 92.718922,92.718922 0 0 0 0.39775,0.12341 92.718922,92.718922 0 0 0 0.39809,0.12184 92.718922,92.718922 0 0 0 0.39865,0.11979 92.718922,92.718922 0 0 0 0.39943,0.11842 92.718922,92.718922 0 0 0 0.40003,0.11639 92.718922,92.718922 0 0 0 0.40037,0.11478 92.718922,92.718922 0 0 0 0.40095,0.11273 92.718922,92.718922 0 0 0 0.40151,0.11071 92.718922,92.718922 0 0 0 0.40186,0.10907 92.718922,92.718922 0 0 0 0.40263,0.10775 92.718922,92.718922 0 0 0 0.40277,0.10545 92.718922,92.718922 0 0 0 0.4031,0.10383 92.718922,92.718922 0 0 0 0.40412,0.10204 92.718922,92.718922 0 0 0 0.404,0.10019 92.718922,92.718922 0 0 0 0.40461,0.0981 92.718922,92.718922 0 0 0 0.40537,0.0968 92.718922,92.718922 0 0 0 0.40549,0.0945 92.718922,92.718922 0 0 0 0.40583,0.0929 92.718922,92.718922 0 0 0 0.40687,0.0911 92.718922,92.718922 0 0 0 0.40675,0.0892 92.718922,92.718922 0 0 0 0.4071,0.0877 92.718922,92.718922 0 0 0 0.40765,0.0856 92.718922,92.718922 0 0 0 0.40781,0.0833 92.718922,92.718922 0 0 0 0.40858,0.0819 92.718922,92.718922 0 0 0 0.40845,0.0801 92.718922,92.718922 0 0 0 0.40947,0.0783 92.718922,92.718922 0 0 0 0.40939,0.0764 92.718922,92.718922 0 0 0 0.40969,0.0748 92.718922,92.718922 0 0 0 0.40984,0.0725 92.718922,92.718922 0 0 0 0.41086,0.0707 92.718922,92.718922 0 0 0 0.4105,0.0693 92.718922,92.718922 0 0 0 0.41133,0.0668 92.718922,92.718922 0 0 0 0.41097,0.0654 92.718922,92.718922 0 0 0 0.41154,0.0634 92.718922,92.718922 0 0 0 0.41186,0.0618 92.718922,92.718922 0 0 0 0.41247,0.0597 92.718922,92.718922 0 0 0 0.41233,0.0579 92.718922,92.718922 0 0 0 0.41266,0.0563 92.718922,92.718922 0 0 0 0.41281,0.0539 92.718922,92.718922 0 0 0 0.41358,0.0526 92.718922,92.718922 0 0 0 0.41301,0.0505 92.718922,92.718922 0 0 0 0.41404,0.0487 92.718922,92.718922 0 0 0 0.41348,0.0466 92.718922,92.718922 0 0 0 0.41425,0.0452 92.718922,92.718922 0 0 0 0.4144,0.0429 92.718922,92.718922 0 0 0 0.41427,0.0411 92.718922,92.718922 0 0 0 0.41458,0.0395 92.718922,92.718922 0 0 0 0.41476,0.0372 92.718922,92.718922 0 0 0 0.41507,0.0356 92.718922,92.718922 0 0 0 0.41538,0.034 92.718922,92.718922 0 0 0 0.41527,0.0321 92.718922,92.718922 0 0 0 0.41541,0.0298 92.718922,92.718922 0 0 0 0.41502,0.0284 92.718922,92.718922 0 0 0 0.4159,0.0259 92.718922,92.718922 0 0 0 0.41593,0.0247 92.718922,92.718922 0 0 0 0.41609,0.0224 92.718922,92.718922 0 0 0 0.4157,0.021 92.718922,92.718922 0 0 0 0.41585,0.0187 92.718922,92.718922 0 0 0 0.41643,0.0166 92.718922,92.718922 0 0 0 0.41604,0.0152 92.718922,92.718922 0 0 0 0.41665,0.0132 92.718922,92.718922 0 0 0 0.41607,0.0111 92.718922,92.718922 0 0 0 0.41641,0.01 92.718922,92.718922 0 0 0 0.41626,0.008 92.718922,92.718922 0 0 0 0.41661,0.006 92.718922,92.718922 0 0 0 0.41675,0.004 92.718922,92.718922 0 0 0 0.41636,0.002 92.718922,92.718922 0 0 0 0.41651,1e-5 92.718922,92.718922 0 0 0 0.41638,-0.002 92.718922,92.718922 0 0 0 0.41626,-0.004 92.718922,92.718922 0 0 0 0.4166,-0.005 92.718922,92.718922 0 0 0 0.41646,-0.007 92.718922,92.718922 0 0 0 0.41662,-0.009 92.718922,92.718922 0 0 0 0.41622,-0.0109 92.718922,92.718922 0 0 0 0.41638,-0.0132 92.718922,92.718922 0 0 0 0.416,-0.0146 92.718922,92.718922 0 0 0 0.41613,-0.0169 92.718922,92.718922 0 0 0 0.41603,-0.0188 92.718922,92.718922 0 0 0 0.41606,-0.0199 92.718922,92.718922 0 0 0 0.41577,-0.0225 92.718922,92.718922 0 0 0 0.41611,-0.0241 92.718922,92.718922 0 0 0 0.41552,-0.0262 92.718922,92.718922 0 0 0 0.41541,-0.0281 92.718922,92.718922 0 0 0 0.41575,-0.0297 92.718922,92.718922 0 0 0 0.41518,-0.0318 92.718922,92.718922 0 0 0 0.41478,-0.0332 92.718922,92.718922 0 0 0 0.41537,-0.0353 92.718922,92.718922 0 0 0 0.41483,-0.0374 92.718922,92.718922 0 0 0 0.4147,-0.0392 92.718922,92.718922 0 0 0 0.41458,-0.0411 92.718922,92.718922 0 0 0 0.41416,-0.0425 92.718922,92.718922 0 0 0 0.4139,-0.0451 92.718922,92.718922 0 0 0 0.41396,-0.0462 92.718922,92.718922 0 0 0 0.41364,-0.0488 92.718922,92.718922 0 0 0 0.41326,-0.0502 92.718922,92.718922 0 0 0 0.41315,-0.0521 92.718922,92.718922 0 0 0 0.41303,-0.0539 92.718922,92.718922 0 0 0 0.41291,-0.0558 92.718922,92.718922 0 0 0 0.41233,-0.0579 92.718922,92.718922 0 0 0 0.41241,-0.059 92.718922,92.718922 0 0 0 0.4121,-0.0616 92.718922,92.718922 0 0 0 0.41129,-0.0633 92.718922,92.718922 0 0 0 0.41159,-0.0649 92.718922,92.718922 0 0 0 0.41102,-0.067 92.718922,92.718922 0 0 0 0.41094,-0.0689 92.718922,92.718922 0 0 0 0.41035,-0.071 92.718922,92.718922 0 0 0 0.40997,-0.0724 92.718922,92.718922 0 0 0 0.40983,-0.0743 92.718922,92.718922 0 0 0 0.40973,-0.0761 92.718922,92.718922 0 0 0 0.4089,-0.0778 92.718922,92.718922 0 0 0 0.40905,-0.0801 92.718922,92.718922 0 0 0 0.40821,-0.0818 92.718922,92.718922 0 0 0 0.40784,-0.0832 92.718922,92.718922 0 0 0 0.40798,-0.0855 92.718922,92.718922 0 0 0 0.40715,-0.0871 92.718922,92.718922 0 0 0 0.40703,-0.089 92.718922,92.718922 0 0 0 0.40619,-0.0907 92.718922,92.718922 0 0 0 0.40608,-0.0925 92.718922,92.718922 0 0 0 0.40554,-0.0947 92.718922,92.718922 0 0 0 0.40538,-0.0965 92.718922,92.718922 0 0 0 0.40503,-0.098 92.718922,92.718922 0 0 0 0.40419,-0.0996 92.718922,92.718922 0 0 0 0.40389,-0.10217 92.718922,92.718922 0 0 0 0.40324,-0.10313 92.718922,92.718922 0 0 0 0.40293,-0.1057 92.718922,92.718922 0 0 0 0.196,-0.0521 65.45743,65.45743 0 0 0 0.10535,-0.18145 65.45743,65.45743 0 0 0 -23.95937,-89.416153 65.45743,65.45743 0 0 0 -89.41591,23.9589114 65.45743,65.45743 0 0 0 -0.10446,0.18197 z"
       style="display:inline;opacity:0.988;fill:#b3e1f4;fill-opacity:1;stroke-width:0.800309;stroke-linecap:square;paint-order:stroke fill markers"
       id="path967" />
    <path
       d="m 260.98901,37.152294 a 65.45743,65.45743 0 0 0 -0.004,-0.12385 65.45743,65.45743 0 0 0 -0.0124,-0.34965 65.45743,65.45743 0 0 0 -0.0142,-0.34951 65.45743,65.45743 0 0 0 -0.0163,-0.35012 65.45743,65.45743 0 0 0 -0.0179,-0.34927 65.45743,65.45743 0 0 0 -0.0195,-0.34961 65.45743,65.45743 0 0 0 -0.0217,-0.34905 65.45743,65.45743 0 0 0 -0.0235,-0.34892 65.45743,65.45743 0 0 0 -0.0251,-0.34925 65.45743,65.45743 0 0 0 -0.0277,-0.34894 65.45743,65.45743 0 0 0 -0.0291,-0.34856 65.45743,65.45743 0 0 0 -0.0307,-0.3489 65.45743,65.45743 0 0 0 -0.0328,-0.34832 65.45743,65.45743 0 0 0 -0.0347,-0.3482 65.45743,65.45743 0 0 0 -0.0365,-0.34808 65.45743,65.45743 0 0 0 -0.0386,-0.34751 65.45743,65.45743 0 0 0 -0.0403,-0.34785 65.45743,65.45743 0 0 0 -0.0417,-0.34747 65.45743,65.45743 0 0 0 -0.0442,-0.34714 65.45743,65.45743 0 0 0 -0.0456,-0.34678 65.45743,65.45743 0 0 0 -0.0479,-0.34692 65.45743,65.45743 0 0 0 -0.0496,-0.34609 65.45743,65.45743 0 0 0 -0.0512,-0.34642 65.45743,65.45743 0 0 0 -0.0533,-0.34585 65.45743,65.45743 0 0 0 -0.0547,-0.34548 65.45743,65.45743 0 0 0 -0.0573,-0.34516 65.45743,65.45743 0 0 0 -0.0585,-0.34524 65.45743,65.45743 0 0 0 -0.0606,-0.34466 65.45743,65.45743 0 0 0 -0.0627,-0.34409 65.45743,65.45743 0 0 0 -0.0643,-0.34443 65.45743,65.45743 0 0 0 -0.0662,-0.34315 65.45743,65.45743 0 0 0 -0.0678,-0.34348 65.45743,65.45743 0 0 0 -0.0699,-0.34291 65.45743,65.45743 0 0 0 -0.0714,-0.34253 65.45743,65.45743 0 0 0 -0.0735,-0.34197 65.45743,65.45743 0 0 0 -0.0753,-0.34184 65.45743,65.45743 0 0 0 -0.0774,-0.34128 65.45743,65.45743 0 0 0 -0.0789,-0.34091 65.45743,65.45743 0 0 0 -0.0807,-0.34078 65.45743,65.45743 0 0 0 -0.0824,-0.33995 65.45743,65.45743 0 0 0 -0.0845,-0.33939 65.45743,65.45743 0 0 0 -0.0864,-0.33927 65.45743,65.45743 0 0 0 -0.0878,-0.33888 65.45743,65.45743 0 0 0 -0.0899,-0.33833 65.45743,65.45743 0 0 0 -0.0916,-0.33749 65.45743,65.45743 0 0 0 -0.0934,-0.33738 65.45743,65.45743 0 0 0 -0.0955,-0.3368 65.45743,65.45743 0 0 0 -0.0965,-0.33618 65.45743,65.45743 0 0 0 -0.0993,-0.33542 65.45743,65.45743 0 0 0 -0.10046,-0.33547 65.45743,65.45743 0 0 0 -0.10242,-0.33421 65.45743,65.45743 0 0 0 -0.10428,-0.3341 65.45743,65.45743 0 0 0 -0.10613,-0.33397 65.45743,65.45743 0 0 0 -0.10736,-0.33289 65.45743,65.45743 0 0 0 -0.10973,-0.33187 65.45743,65.45743 0 0 0 -0.11133,-0.3322 65.45743,65.45743 0 0 0 -0.11327,-0.33093 65.45743,65.45743 0 0 0 -0.11466,-0.33054 65.45743,65.45743 0 0 0 -0.11681,-0.32999 65.45743,65.45743 0 0 0 -0.11819,-0.3296 65.45743,65.45743 0 0 0 -0.12013,-0.32833 65.45743,65.45743 0 0 0 -0.12199,-0.3282 65.45743,65.45743 0 0 0 -0.12367,-0.32739 65.45743,65.45743 0 0 0 -0.12531,-0.32655 65.45743,65.45743 0 0 0 -0.12745,-0.32599 65.45743,65.45743 0 0 0 -0.12886,-0.32561 65.45743,65.45743 0 0 0 -0.13079,-0.32434 65.45743,65.45743 0 0 0 -0.13222,-0.32397 65.45743,65.45743 0 0 0 -0.1343,-0.32338 65.45743,65.45743 0 0 0 -0.13555,-0.32231 65.45743,65.45743 0 0 0 -0.13766,-0.32175 65.45743,65.45743 0 0 0 -0.13907,-0.32136 65.45743,65.45743 0 0 0 -0.141,-0.32009 65.45743,65.45743 0 0 0 -0.14311,-0.31951 65.45743,65.45743 0 0 0 -0.14407,-0.31888 65.45743,65.45743 0 0 0 -0.14646,-0.31788 65.45743,65.45743 0 0 0 -0.14744,-0.31724 65.45743,65.45743 0 0 0 -0.14952,-0.31665 65.45743,65.45743 0 0 0 -0.15146,-0.3154 65.45743,65.45743 0 0 0 -0.15245,-0.31476 65.45743,65.45743 0 0 0 -0.15455,-0.31419 65.45743,65.45743 0 0 0 -0.15648,-0.3129096 65.45743,65.45743 0 0 0 -0.15788,-0.31254 65.45743,65.45743 0 0 0 -0.15983,-0.31126 65.45743,65.45743 0 0 0 -0.16079,-0.31064 65.45743,65.45743 0 0 0 -0.16315,-0.3096 65.45743,65.45743 0 0 0 -0.16456,-0.30923 65.45743,65.45743 0 0 0 -0.16605,-0.3077 65.45743,65.45743 0 0 0 -0.16772,-0.30687 65.45743,65.45743 0 0 0 -0.16985,-0.30632 65.45743,65.45743 0 0 0 -0.17106,-0.30522 65.45743,65.45743 0 0 0 -0.17275,-0.30441 65.45743,65.45743 0 0 0 -0.17394,-0.3033 65.45743,65.45743 0 0 0 -0.17608,-0.30276 65.45743,65.45743 0 0 0 -0.17756,-0.30121 65.45743,65.45743 0 0 0 -0.1794,-0.30109 65.45743,65.45743 0 0 0 -0.1809,-0.29957 65.45743,65.45743 0 0 0 -0.18213,-0.29848 65.45743,65.45743 0 0 0 -0.18423,-0.29791 65.45743,65.45743 0 0 0 -0.18572,-0.29639 65.45743,65.45743 0 0 0 -0.18668,-0.29573 65.45743,65.45743 0 0 0 -0.18906,-0.29473 65.45743,65.45743 0 0 0 -0.19027,-0.29364 65.45743,65.45743 0 0 0 -0.19194,-0.29282 65.45743,65.45743 0 0 0 -0.19343,-0.29128 65.45743,65.45743 0 0 0 -0.19511,-0.29047 65.45743,65.45743 0 0 0 -0.19676,-0.28963 65.45743,65.45743 0 0 0 -0.19801,-0.28856 65.45743,65.45743 0 0 0 -0.19921,-0.287461 65.45743,65.45743 0 0 0 -0.2016,-0.28646 65.45743,65.45743 0 0 0 -0.20238,-0.28511 65.45743,65.45743 0 0 0 -0.20427,-0.28382005 65.45743,65.45743 0 0 0 -0.20572,-0.28346 65.45743,65.45743 0 0 0 -0.2072,-0.28194 65.45743,65.45743 0 0 0 -0.20911,-0.28064 65.45743,65.45743 0 0 0 -0.21008,-0.28002 65.45743,65.45743 0 0 0 -0.21155,-0.27847 65.45743,65.45743 0 0 0 -0.21351,-0.27722 65.45743,65.45743 0 0 0 -0.21444,-0.27656995 65.45743,65.45743 0 0 0 -0.21639,-0.2753 65.45743,65.45743 0 0 0 -0.21788,-0.27378 65.45743,65.45743 0 0 0 -0.21882,-0.27312 65.45743,65.45743 0 0 0 -0.22075,-0.27186 65.45743,65.45743 0 0 0 -0.2218,-0.27007 65.45743,65.45743 0 0 0 -0.22346,-0.26924 65.45743,65.45743 0 0 0 -0.22513,-0.26842 65.45743,65.45743 0 0 0 -0.22617,-0.26663 65.45743,65.45743 0 0 0 -0.22783,-0.26579 65.45743,65.45743 0 0 0 -0.22932,-0.26427 65.45743,65.45743 0 0 0 -0.23055,-0.26319 65.45743,65.45743 0 0 0 -0.23176,-0.2621 65.45743,65.45743 0 0 0 -0.23369,-0.26082 65.45743,65.45743 0 0 0 -0.23447,-0.25949 65.45743,65.45743 0 0 0 -0.23638,-0.25821 65.45743,65.45743 0 0 0 -0.23762,-0.25713 65.45743,65.45743 0 0 0 -0.2391,-0.25559 65.45743,65.45743 0 0 0 -0.23989,-0.25426 65.45743,65.45743 0 0 0 -0.24154,-0.25342 65.45743,65.45743 0 0 0 -0.24303,-0.2519 65.45743,65.45743 0 0 0 -0.2445,-0.25036 65.45743,65.45743 0 0 0 -0.24573,-0.24928 65.45743,65.45743 0 0 0 -0.24694,-0.24819 65.45743,65.45743 0 0 0 -0.24799,-0.24641 65.45743,65.45743 0 0 0 -0.24991,-0.24513 65.45743,65.45743 0 0 0 -0.25114,-0.24404 65.45743,65.45743 0 0 0 -0.25217,-0.24225 65.45743,65.45743 0 0 0 -0.2534,-0.24119 65.45743,65.45743 0 0 0 -0.25461,-0.24009 65.45743,65.45743 0 0 0 -0.2561,-0.23856 65.45743,65.45743 0 0 0 -0.25758,-0.23702 65.45743,65.45743 0 0 0 -0.25881,-0.23595 65.45743,65.45743 0 0 0 -0.25982,-0.23414 65.45743,65.45743 0 0 0 -0.26105,-0.23306 65.45743,65.45743 0 0 0 -0.26254,-0.2315304 65.45743,65.45743 0 0 0 -0.26332,-0.23021 65.45743,65.45743 0 0 0 -0.26478,-0.22865 65.45743,65.45743 0 0 0 -0.26628,-0.22713 65.45743,65.45743 0 0 0 -0.2675,-0.22604 65.45743,65.45743 0 0 0 -0.26829,-0.22471 65.45743,65.45743 0 0 0 -0.26929,-0.22291 65.45743,65.45743 0 0 0 -0.27125,-0.22165 65.45743,65.45743 0 0 0 -0.272,-0.22029 65.45743,65.45743 0 0 0 -0.27303,-0.2185 65.45743,65.45743 0 0 0 -0.27453,-0.21697 65.45743,65.45743 0 0 0 -0.27576,-0.2159 65.45743,65.45743 0 0 0 -0.27651,-0.21453 65.45743,65.45743 0 0 0 -0.27782,-0.21232 65.45743,65.45743 0 0 0 -0.27879,-0.21167 65.45743,65.45743 0 0 0 -0.28007,-0.20944 65.45743,65.45743 0 0 0 -0.28128,-0.20834 65.45743,65.45743 0 0 0 -0.28208,-0.20701 65.45743,65.45743 0 0 0 -0.28355,-0.20548 65.45743,65.45743 0 0 0 -0.28458,-0.20368 65.45743,65.45743 0 0 0 -0.28561,-0.2019 65.45743,65.45743 0 0 0 -0.28685,-0.20082 65.45743,65.45743 0 0 0 -0.2876,-0.19946 65.45743,65.45743 0 0 0 -0.28892,-0.19724 65.45743,65.45743 0 0 0 -0.28941,-0.19632 65.45743,65.45743 0 0 0 -0.29115,-0.19436 65.45743,65.45743 0 0 0 -0.29196,-0.19303 65.45743,65.45743 0 0 0 -0.29297,-0.19122 65.45743,65.45743 0 0 0 -0.29418,-0.19013 65.45743,65.45743 0 0 0 -0.29478,-0.18809 65.45743,65.45743 0 0 0 -0.29601,-0.18701 65.45743,65.45743 0 0 0 -0.29705,-0.18522 65.45743,65.45743 0 0 0 -0.29763,-0.18315 65.45743,65.45743 0 0 0 -0.29883,-0.18212 65.45743,65.45743 0 0 0 -0.30032,-0.18055 65.45743,65.45743 0 0 0 -0.30092,-0.17847 65.45743,65.45743 0 0 0 -0.30168,-0.17718 65.45743,65.45743 0 0 0 -0.24723,-0.14333 65.45743,65.45743 0 0 0 -0.30347,-0.17405 65.45743,65.45743 0 0 0 -0.30429,-0.17268 65.45743,65.45743 0 0 0 -0.30533,-0.17086 65.45743,65.45743 0 0 0 -0.30632,-0.16911 65.45743,65.45743 0 0 0 -0.30713,-0.16774 65.45743,65.45743 0 0 0 -0.30815,-0.16598 65.45743,65.45743 0 0 0 -0.30917,-0.16417 65.45743,65.45743 0 0 0 -0.30952,-0.1626 65.45743,65.45743 0 0 0 -0.31098,-0.16104 65.45743,65.45743 0 0 0 -0.31131,-0.15945 65.45743,65.45743 0 0 0 -0.31235,-0.15766 65.45743,65.45743 0 0 0 -0.3134,-0.15589 65.45743,65.45743 0 0 0 -0.31416,-0.15453 65.45743,65.45743 0 0 0 -0.31473,-0.15247 65.45743,65.45743 0 0 0 -0.31552,-0.15114 65.45743,65.45743 0 0 0 -0.31654,-0.14934 65.45743,65.45743 0 0 0 -0.3176,-0.14755 65.45743,65.45743 0 0 0 -0.31792,-0.145959 65.45743,65.45743 0 0 0 -0.31894,-0.14417 65.45743,65.45743 0 0 0 -0.31998,-0.14237 65.45743,65.45743 0 0 0 -0.32032,-0.14078 65.45743,65.45743 0 0 0 -0.32063,-0.13917 65.45743,65.45743 0 0 0 -0.32237,-0.13718 65.45743,65.45743 0 0 0 -0.32245,-0.13604 65.45743,65.45743 0 0 0 -0.3233,-0.13356 65.45743,65.45743 0 0 0 -0.32405,-0.13219 65.45743,65.45743 0 0 0 -0.32439,-0.13061 65.45743,65.45743 0 0 0 -0.32568,-0.12835 65.45743,65.45743 0 0 0 -0.32578,-0.12723 65.45743,65.45743 0 0 0 -0.32703,-0.12496 65.45743,65.45743 0 0 0 -0.32738,-0.12337 65.45743,65.45743 0 0 0 -0.32814,-0.12203 65.45743,65.45743 0 0 0 -0.32873,-0.119984 65.45743,65.45743 0 0 0 -0.32933,-0.117932 65.45743,65.45743 0 0 0 -0.3301,-0.116591 65.45743,65.45743 0 0 0 -0.33068,-0.114532 65.45743,65.45743 0 0 0 -0.33101,-0.11294 65.45743,65.45743 0 0 0 -0.33202,-0.111141 65.45743,65.45743 0 0 0 -0.33239,-0.109559 65.45743,65.45743 0 0 0 -0.33294,-0.107491 65.45743,65.45743 0 0 0 -0.334,-0.105713 65.45743,65.45743 0 0 0 -0.33387,-0.103851 65.45743,65.45743 0 0 0 -0.33464,-0.102499 65.45743,65.45743 0 0 0 -0.33549,-0.100014 65.45743,65.45743 0 0 0 -0.33556,-0.09886 65.45743,65.45743 0 0 0 -0.33614,-0.09681 65.45743,65.45743 0 0 0 -0.33719,-0.09502 65.45743,65.45743 0 0 0 -0.33705,-0.09316 65.45743,65.45743 0 0 0 -0.3381,-0.09137 65.45743,65.45743 0 0 0 -0.33797,-0.08951 65.45743,65.45743 0 0 0 -0.33875,-0.08817 65.45743,65.45743 0 0 0 -0.33932,-0.08612 65.45743,65.45743 0 0 0 -0.33947,-0.08381 65.45743,65.45743 0 0 0 -0.34025,-0.08248 65.45743,65.45743 0 0 0 -0.34084,-0.08043 65.45743,65.45743 0 0 0 -0.34069,-0.07855 65.45743,65.45743 0 0 0 -0.3415,-0.07723 65.45743,65.45743 0 0 0 -0.34163,-0.07492 65.45743,65.45743 0 0 0 -0.34195,-0.07331 65.45743,65.45743 0 0 0 -0.34299,-0.07152 65.45743,65.45743 0 0 0 -0.34287,-0.06966 65.45743,65.45743 0 0 0 -0.34344,-0.06761 65.45743,65.45743 0 0 0 -0.34334,-0.06576 65.45743,65.45743 0 0 0 -0.34436,-0.06396 65.45743,65.45743 0 0 0 -0.34426,-0.06211 65.45743,65.45743 0 0 0 -0.34458,-0.06051 65.45743,65.45743 0 0 0 -0.34514,-0.05845 65.45743,65.45743 0 0 0 -0.3455,-0.05686 65.45743,65.45743 0 0 0 -0.34537,-0.055 65.45743,65.45743 0 0 0 -0.34595,-0.05294 65.45743,65.45743 0 0 0 -0.34627,-0.05133 65.45743,65.45743 0 0 0 -0.34643,-0.04904 65.45743,65.45743 0 0 0 -0.34674,-0.04744 65.45743,65.45743 0 0 0 -0.34709,-0.04584 65.45743,65.45743 0 0 0 -0.3472,-0.04352 65.45743,65.45743 0 0 0 -0.34754,-0.04193 65.45743,65.45743 0 0 0 -0.34742,-0.04007 65.45743,65.45743 0 0 0 -0.34803,-0.03803 65.45743,65.45743 0 0 0 -0.34788,-0.03616 65.45743,65.45743 0 0 0 -0.34822,-0.03456 65.45743,65.45743 0 0 0 -0.34853,-0.03296 65.45743,65.45743 0 0 0 -0.34825,-0.0304 65.45743,65.45743 0 0 0 -0.34899,-0.02904 65.45743,65.45743 0 0 0 -0.34916,-0.02675 65.45743,65.45743 0 0 0 -0.34876,-0.02533 65.45743,65.45743 0 0 0 -0.34935,-0.02328 65.45743,65.45743 0 0 0 -0.34924,-0.02143 65.45743,65.45743 0 0 0 -0.34937,-0.01912 65.45743,65.45743 0 0 0 -0.34944,-0.01796 65.45743,65.45743 0 0 0 -0.34959,-0.01566 65.45743,65.45743 0 0 0 -0.34946,-0.0138 65.45743,65.45743 0 0 0 -0.3498,-0.0122 65.45743,65.45743 0 0 0 -0.34991,-0.0099 65.45743,65.45743 0 0 0 -0.35,-0.0087 65.45743,65.45743 0 0 0 -0.3497,-0.0062 65.45743,65.45743 0 0 0 -0.35002,-0.0046 65.45743,65.45743 0 0 0 -0.34989,-0.0027 65.45743,65.45743 0 0 0 -0.34978,-8.46e-4 65.45743,65.45743 0 0 0 -0.35035,0.0012 65.45743,65.45743 0 0 0 -0.34954,0.0029 65.45743,65.45743 0 0 0 -0.35013,0.0049 65.45743,65.45743 0 0 0 -0.34974,0.0063 65.45743,65.45743 0 0 0 -0.34987,0.0086 65.45743,65.45743 0 0 0 -0.34976,0.01049 65.45743,65.45743 0 0 0 -0.35009,0.0121 65.45743,65.45743 0 0 0 -0.34952,0.01421 65.45743,65.45743 0 0 0 -0.34941,0.01607 65.45743,65.45743 0 0 0 -0.34972,0.01767 65.45743,65.45743 0 0 0 -0.34917,0.01978 65.45743,65.45743 0 0 0 -0.34905,0.02165 65.45743,65.45743 0 0 0 -0.34962,0.0237 65.45743,65.45743 0 0 0 -0.3488,0.02537 65.45743,65.45743 0 0 0 -0.34913,0.02697 65.45743,65.45743 0 0 0 -0.34857,0.02908 65.45743,65.45743 0 0 0 -0.34844,0.03095 65.45743,65.45743 0 0 0 -0.34832,0.03281 65.45743,65.45743 0 0 0 -0.3482,0.03466 65.45743,65.45743 0 0 0 -0.3481,0.03651 65.45743,65.45743 0 0 0 -0.34796,0.03839 65.45743,65.45743 0 0 0 -0.34785,0.04024 65.45743,65.45743 0 0 0 -0.34726,0.04237 65.45743,65.45743 0 0 0 -0.34689,0.04378 65.45743,65.45743 0 0 0 -0.34706,0.04606 65.45743,65.45743 0 0 0 -0.34665,0.0475 65.45743,65.45743 0 0 0 -0.34653,0.04935 65.45743,65.45743 0 0 0 -0.34598,0.05146 65.45743,65.45743 0 0 0 -0.34584,0.05334 65.45743,65.45743 0 0 0 -0.34575,0.05518 65.45743,65.45743 0 0 0 -0.34533,0.05661 65.45743,65.45743 0 0 0 -0.34505,0.05916 65.45743,65.45743 0 0 0 -0.34465,0.06059 65.45743,65.45743 0 0 0 -0.34456,0.06243 65.45743,65.45743 0 0 0 -0.34372,0.06411 65.45743,65.45743 0 0 0 -0.34359,0.06596 65.45743,65.45743 0 0 0 -0.34305,0.06807 65.45743,65.45743 0 0 0 -0.34334,0.0697 65.45743,65.45743 0 0 0 -0.34235,0.07205 65.45743,65.45743 0 0 0 -0.3424,0.07322 65.45743,65.45743 0 0 0 -0.34187,0.07532 65.45743,65.45743 0 0 0 -0.34101,0.077 65.45743,65.45743 0 0 0 -0.34091,0.07886 65.45743,65.45743 0 0 0 -0.34031,0.08099 65.45743,65.45743 0 0 0 -0.34024,0.08282 65.45743,65.45743 0 0 0 -0.33982,0.08425 65.45743,65.45743 0 0 0 -0.33902,0.08591 65.45743,65.45743 0 0 0 -0.3387,0.08849 65.45743,65.45743 0 0 0 -0.33807,0.08945 65.45743,65.45743 0 0 0 -0.33819,0.09176 65.45743,65.45743 0 0 0 -0.33692,0.09369 65.45743,65.45743 0 0 0 -0.33656,0.09509 65.45743,65.45743 0 0 0 -0.33643,0.09695 65.45743,65.45743 0 0 0 -0.3356,0.09863 65.45743,65.45743 0 0 0 -0.33502,0.100752 65.45743,65.45743 0 0 0 -0.33493,0.102595 65.45743,65.45743 0 0 0 -0.3341,0.104269 65.45743,65.45743 0 0 0 -0.33326,0.105945 65.45743,65.45743 0 0 0 -0.33314,0.107805 65.45743,65.45743 0 0 0 -0.33233,0.109469 65.45743,65.45743 0 0 0 -0.33175,0.111589 65.45743,65.45743 0 0 0 -0.33112,0.112553 65.45743,65.45743 0 0 0 -0.3308,0.115125 65.45743,65.45743 0 0 0 -0.32998,0.116789 65.45743,65.45743 0 0 0 -0.32915,0.118462 65.45743,65.45743 0 0 0 -0.32878,0.11987 65.45743,65.45743 0 0 0 -0.32776,0.12225 65.45743,65.45743 0 0 0 -0.32738,0.12366 65.45743,65.45743 0 0 0 -0.32655,0.12534 65.45743,65.45743 0 0 0 -0.32644,0.12719 65.45743,65.45743 0 0 0 -0.32492,0.12866 65.45743,65.45743 0 0 0 -0.32479,0.13053 65.45743,65.45743 0 0 0 -0.3242,0.13266 65.45743,65.45743 0 0 0 -0.32314,0.13386 65.45743,65.45743 0 0 0 -0.32256,0.13599 65.45743,65.45743 0 0 0 -0.32174,0.13766 65.45743,65.45743 0 0 0 -0.32092,0.13933 65.45743,65.45743 0 0 0 -0.32054,0.14074 65.45743,65.45743 0 0 0 -0.31926,0.14267 65.45743,65.45743 0 0 0 -0.31869,0.144789 65.45743,65.45743 0 0 0 -0.31808,0.14574 65.45743,65.45743 0 0 0 -0.31747,0.14788 65.45743,65.45743 0 0 0 -0.31598,0.14934 65.45743,65.45743 0 0 0 -0.31582,0.15122 65.45743,65.45743 0 0 0 -0.31459,0.15313 65.45743,65.45743 0 0 0 -0.31418,0.15455 65.45743,65.45743 0 0 0 -0.31337,0.15622 65.45743,65.45743 0 0 0 -0.31181,0.15771 65.45743,65.45743 0 0 0 -0.31173,0.15955 65.45743,65.45743 0 0 0 -0.31043,0.16149 65.45743,65.45743 0 0 0 -0.30979,0.16246 65.45743,65.45743 0 0 0 -0.30878,0.16483 65.45743,65.45743 0 0 0 -0.0526,0.0281 92.718922,92.718922 0 0 0 38.92188,43.911871 92.718922,92.718922 0 0 0 57.48928,11.75114 z"
       style="display:inline;opacity:0.988;fill:#a5dff4;fill-opacity:1;stroke-width:1.13362;stroke-linecap:square;paint-order:stroke fill markers"
       id="path40-1-4-6-9-0-0" />
    <rect
       transform="rotate(-45)"
       ry="0.52668977"
       y="150.2191"
       x="184.99731"
       height="3.0561953"
       width="3.0561953"
       id="rect1015"
       style="font-variation-settings:normal;display:inline;opacity:1;vector-effect:none;fill:#b2d4ea;fill-opacity:0.546468;fill-rule:evenodd;stroke:none;stroke-width:0.11551;stroke-linecap:round;stroke-linejoin:round;stroke-miterlimit:4;stroke-dasharray:none;stroke-dashoffset:0;stroke-opacity:1;paint-order:markers stroke fill;stop-color:#000000;stop-opacity:1" />
    <rect
       style="font-variation-settings:normal;display:inline;opacity:1;vector-effect:none;fill:#b2d4ea;fill-opacity:0.546468;fill-rule:evenodd;stroke:none;stroke-width:0.11551;stroke-linecap:round;stroke-linejoin:round;stroke-miterlimit:4;stroke-dasharray:none;stroke-dashoffset:0;stroke-opacity:1;paint-order:markers stroke fill;stop-color:#000000;stop-opacity:1"
       id="rect1015-0"
       width="3.0561953"
       height="3.0561953"
       x="-5.5371561"
       y="16.913515"
       ry="0.52668977"
       transform="rotate(-45)" />
    <rect
       style="font-variation-settings:normal;display:inline;opacity:1;vector-effect:none;fill:#b2d4ea;fill-opacity:0.546468;fill-rule:evenodd;stroke:none;stroke-width:0.11551;stroke-linecap:round;stroke-linejoin:round;stroke-miterlimit:4;stroke-dasharray:none;stroke-dashoffset:0;stroke-opacity:1;paint-order:markers stroke fill;stop-color:#000000;stop-opacity:1"
       id="rect1015-4"
       width="3.0561953"
       height="3.0561953"
       x="22.258873"
       y="226.45284"
       ry="0.52668977"
       transform="rotate(-45)" />
    <rect
       style="font-variation-settings:normal;display:inline;opacity:1;vector-effect:none;fill:#b2d4ea;fill-opacity:0.546468;fill-rule:evenodd;stroke:none;stroke-width:0.11551;stroke-linecap:round;stroke-linejoin:round;stroke-miterlimit:4;stroke-dasharray:none;stroke-dashoffset:0;stroke-opacity:1;paint-order:markers stroke fill;stop-color:#000000;stop-opacity:1"
       id="rect1015-6"
       width="3.0561953"
       height="3.0561953"
       x="47.649479"
       y="89.878082"
       ry="0.52668977"
       transform="rotate(-45)" />
    <rect
       style="font-variation-settings:normal;display:inline;opacity:1;vector-effect:none;fill:#b2d4ea;fill-opacity:0.546468;fill-rule:evenodd;stroke:none;stroke-width:0.11551;stroke-linecap:round;stroke-linejoin:round;stroke-miterlimit:4;stroke-dasharray:none;stroke-dashoffset:0;stroke-opacity:1;paint-order:markers stroke fill;stop-color:#000000;stop-opacity:1"
       id="rect1015-48"
       width="3.0561953"
       height="3.0561953"
       x="-22.642406"
       y="99.767059"
       ry="0.52668977"
       transform="rotate(-45)" />
    <rect
       style="font-variation-settings:normal;display:inline;opacity:1;vector-effect:none;fill:#b2d4ea;fill-opacity:0.546468;fill-rule:evenodd;stroke:none;stroke-width:0.11551;stroke-linecap:round;stroke-linejoin:round;stroke-miterlimit:4;stroke-dasharray:none;stroke-dashoffset:0;stroke-opacity:1;paint-order:markers stroke fill;stop-color:#000000;stop-opacity:1"
       id="rect1015-42"
       width="3.0561953"
       height="3.0561953"
       x="4.6190844"
       y="196.51863"
       ry="0.52668977"
       transform="rotate(-45)" />
    <rect
       style="font-variation-settings:normal;display:inline;opacity:1;vector-effect:none;fill:#b2d4ea;fill-opacity:0.546468;fill-rule:evenodd;stroke:none;stroke-width:0.11551;stroke-linecap:round;stroke-linejoin:round;stroke-miterlimit:4;stroke-dasharray:none;stroke-dashoffset:0;stroke-opacity:1;paint-order:markers stroke fill;stop-color:#000000;stop-opacity:1"
       id="rect1015-7"
       width="3.0561953"
       height="3.0561953"
       x="-67.810951"
       y="115.53595"
       ry="0.52668977"
       transform="rotate(-45)" />
    <rect
       style="font-variation-settings:normal;display:inline;opacity:1;vector-effect:none;fill:#b2d4ea;fill-opacity:0.546468;fill-rule:evenodd;stroke:none;stroke-width:0.11551;stroke-linecap:round;stroke-linejoin:round;stroke-miterlimit:4;stroke-dasharray:none;stroke-dashoffset:0;stroke-opacity:1;paint-order:markers stroke fill;stop-color:#000000;stop-opacity:1"
       id="rect1015-1"
       width="3.0561953"
       height="3.0561953"
       x="-15.15886"
       y="60.211166"
       ry="0.52668977"
       transform="rotate(-45)" />
    <rect
       style="font-variation-settings:normal;display:inline;opacity:1;vector-effect:none;fill:#b2d4ea;fill-opacity:0.546468;fill-rule:evenodd;stroke:none;stroke-width:0.11551;stroke-linecap:round;stroke-linejoin:round;stroke-miterlimit:4;stroke-dasharray:none;stroke-dashoffset:0;stroke-opacity:1;paint-order:markers stroke fill;stop-color:#000000;stop-opacity:1"
       id="rect1015-481"
       width="3.0561953"
       height="3.0561953"
       x="16.149561"
       y="122.21559"
       ry="0.52668977"
       transform="rotate(-45)" />
    <path
       d="m 296.4604,158.04839 a 19.761413,19.761413 0 0 0 -5.06988,19.04311 19.761413,19.761413 0 0 0 24.20256,13.97344 19.761413,19.761413 0 0 0 8.81388,-5.06999 27.991647,27.991647 0 0 1 -0.10039,-2.2e-4 27.991647,27.991647 0 0 1 -0.12565,-0.001 27.991647,27.991647 0 0 1 -0.12576,-0.002 27.991647,27.991647 0 0 1 -0.12576,-0.002 27.991647,27.991647 0 0 1 -0.12576,-0.003 27.991647,27.991647 0 0 1 -0.12564,-0.003 27.991647,27.991647 0 0 1 -0.12577,-0.004 27.991647,27.991647 0 0 1 -0.12564,-0.004 27.991647,27.991647 0 0 1 -0.12554,-0.005 27.991647,27.991647 0 0 1 -0.12565,-0.005 27.991647,27.991647 0 0 1 -0.12566,-0.006 27.991647,27.991647 0 0 1 -0.12553,-0.007 27.991647,27.991647 0 0 1 -0.12543,-0.007 27.991647,27.991647 0 0 1 -0.12554,-0.008 27.991647,27.991647 0 0 1 -0.12543,-0.008 27.991647,27.991647 0 0 1 -0.12554,-0.009 27.991647,27.991647 0 0 1 -0.12542,-0.009 27.991647,27.991647 0 0 1 -0.12533,-0.01 27.991647,27.991647 0 0 1 -0.1252,-0.0105 27.991647,27.991647 0 0 1 -0.12521,-0.0111 27.991647,27.991647 0 0 1 -0.12532,-0.0117 27.991647,27.991647 0 0 1 -0.1251,-0.0121 27.991647,27.991647 0 0 1 -0.1251,-0.0128 27.991647,27.991647 0 0 1 -0.12498,-0.0133 27.991647,27.991647 0 0 1 -0.125,-0.014 27.991647,27.991647 0 0 1 -0.12487,-0.0143 27.991647,27.991647 0 0 1 -0.12488,-0.015 27.991647,27.991647 0 0 1 -0.12476,-0.0155 27.991647,27.991647 0 0 1 -0.12477,-0.0162 27.991647,27.991647 0 0 1 -0.12455,-0.0167 27.991647,27.991647 0 0 1 -0.12455,-0.0173 27.991647,27.991647 0 0 1 -0.12454,-0.0178 27.991647,27.991647 0 0 1 -0.12432,-0.0184 27.991647,27.991647 0 0 1 -0.12433,-0.0189 27.991647,27.991647 0 0 1 -0.12421,-0.0196 27.991647,27.991647 0 0 1 -0.12411,-0.02 27.991647,27.991647 0 0 1 -0.1241,-0.0206 27.991647,27.991647 0 0 1 -0.12389,-0.0211 27.991647,27.991647 0 0 1 -0.12377,-0.0218 27.991647,27.991647 0 0 1 -0.12378,-0.0223 27.991647,27.991647 0 0 1 -0.12366,-0.0228 27.991647,27.991647 0 0 1 -0.12356,-0.0234 27.991647,27.991647 0 0 1 -0.12344,-0.024 27.991647,27.991647 0 0 1 -0.12333,-0.0245 27.991647,27.991647 0 0 1 -0.12322,-0.025 27.991647,27.991647 0 0 1 -0.12312,-0.0256 27.991647,27.991647 0 0 1 -0.123,-0.0261 27.991647,27.991647 0 0 1 -0.12289,-0.0267 27.991647,27.991647 0 0 1 -0.12267,-0.0274 27.991647,27.991647 0 0 1 -0.12266,-0.0278 27.991647,27.991647 0 0 1 -0.12246,-0.0282 27.991647,27.991647 0 0 1 -0.12234,-0.029 27.991647,27.991647 0 0 1 -0.12234,-0.0295 27.991647,27.991647 0 0 1 -0.12201,-0.03 27.991647,27.991647 0 0 1 -0.122,-0.0307 27.991647,27.991647 0 0 1 -0.1219,-0.031 27.991647,27.991647 0 0 1 -0.12168,-0.0317 27.991647,27.991647 0 0 1 -0.12157,-0.0322 27.991647,27.991647 0 0 1 -0.12123,-0.0328 27.991647,27.991647 0 0 1 -0.12136,-0.0333 27.991647,27.991647 0 0 1 -0.12112,-0.0337 27.991647,27.991647 0 0 1 -0.12091,-0.0344 27.991647,27.991647 0 0 1 -0.12079,-0.035 27.991647,27.991647 0 0 1 -0.12058,-0.0354 27.991647,27.991647 0 0 1 -0.12046,-0.036 27.991647,27.991647 0 0 1 -0.12036,-0.0365 27.991647,27.991647 0 0 1 -0.12013,-0.0372 27.991647,27.991647 0 0 1 -0.11992,-0.0376 27.991647,27.991647 0 0 1 -0.11979,-0.0382 27.991647,27.991647 0 0 1 -0.1197,-0.0387 27.991647,27.991647 0 0 1 -0.11947,-0.0392 27.991647,27.991647 0 0 1 -0.11925,-0.0398 27.991647,27.991647 0 0 1 -0.11914,-0.0404 27.991647,27.991647 0 0 1 -0.11892,-0.0408 27.991647,27.991647 0 0 1 -0.11881,-0.0414 27.991647,27.991647 0 0 1 -0.11848,-0.0419 27.991647,27.991647 0 0 1 -0.11837,-0.0425 27.991647,27.991647 0 0 1 -0.11815,-0.0429 27.991647,27.991647 0 0 1 -0.11792,-0.0436 27.991647,27.991647 0 0 1 -0.11782,-0.0439 27.991647,27.991647 0 0 1 -0.1176,-0.0446 27.991647,27.991647 0 0 1 -0.11738,-0.0452 27.991647,27.991647 0 0 1 -0.11715,-0.0457 27.991647,27.991647 0 0 1 -0.11693,-0.0461 27.991647,27.991647 0 0 1 -0.11683,-0.0467 27.991647,27.991647 0 0 1 -0.11649,-0.0472 27.991647,27.991647 0 0 1 -0.11627,-0.0477 27.991647,27.991647 0 0 1 -0.11617,-0.0482 27.991647,27.991647 0 0 1 -0.11594,-0.0488 27.991647,27.991647 0 0 1 -0.1156,-0.0492 27.991647,27.991647 0 0 1 -0.11551,-0.0498 27.991647,27.991647 0 0 1 -0.11527,-0.0504 27.991647,27.991647 0 0 1 -0.11496,-0.0507 27.991647,27.991647 0 0 1 -0.11472,-0.0514 27.991647,27.991647 0 0 1 -0.11451,-0.0519 27.991647,27.991647 0 0 1 -0.1144,-0.0524 27.991647,27.991647 0 0 1 -0.11406,-0.053 27.991647,27.991647 0 0 1 -0.11385,-0.0534 27.991647,27.991647 0 0 1 -0.11363,-0.0538 27.991647,27.991647 0 0 1 -0.11329,-0.0544 27.991647,27.991647 0 0 1 -0.11307,-0.055 27.991647,27.991647 0 0 1 -0.11297,-0.0554 27.991647,27.991647 0 0 1 -0.11252,-0.056 27.991647,27.991647 0 0 1 -0.11241,-0.0564 27.991647,27.991647 0 0 1 -0.11209,-0.0569 27.991647,27.991647 0 0 1 -0.11174,-0.0575 27.991647,27.991647 0 0 1 -0.11164,-0.058 27.991647,27.991647 0 0 1 -0.11131,-0.0584 27.991647,27.991647 0 0 1 -0.11108,-0.059 27.991647,27.991647 0 0 1 -0.11087,-0.0595 27.991647,27.991647 0 0 1 -0.11043,-0.0599 27.991647,27.991647 0 0 1 -0.1102,-0.0606 27.991647,27.991647 0 0 1 -0.1101,-0.0609 27.991647,27.991647 0 0 1 -0.10954,-0.0614 27.991647,27.991647 0 0 1 -0.10954,-0.0619 27.991647,27.991647 0 0 1 -0.10911,-0.0626 27.991647,27.991647 0 0 1 -0.10888,-0.0628 27.991647,27.991647 0 0 1 -0.10866,-0.0634 27.991647,27.991647 0 0 1 -0.10822,-0.0639 27.991647,27.991647 0 0 1 -0.10811,-0.0644 27.991647,27.991647 0 0 1 -0.10767,-0.0649 27.991647,27.991647 0 0 1 -0.10744,-0.0653 27.991647,27.991647 0 0 1 -0.10711,-0.0659 27.991647,27.991647 0 0 1 -0.10679,-0.0664 27.991647,27.991647 0 0 1 -0.10656,-0.0666 27.991647,27.991647 0 0 1 -0.10623,-0.0674 27.991647,27.991647 0 0 1 -0.1059,-0.0677 27.991647,27.991647 0 0 1 -0.10569,-0.0682 27.991647,27.991647 0 0 1 -0.10525,-0.0686 27.991647,27.991647 0 0 1 -0.10501,-0.0693 27.991647,27.991647 0 0 1 -0.1047,-0.0696 27.991647,27.991647 0 0 1 -0.10446,-0.0701 27.991647,27.991647 0 0 1 -0.10402,-0.0705 27.991647,27.991647 0 0 1 -0.1037,-0.071 27.991647,27.991647 0 0 1 -0.10347,-0.0715 27.991647,27.991647 0 0 1 -0.10315,-0.072 27.991647,27.991647 0 0 1 -0.10271,-0.0725 27.991647,27.991647 0 0 1 -0.10247,-0.0729 27.991647,27.991647 0 0 1 -0.10216,-0.0733 27.991647,27.991647 0 0 1 -0.10181,-0.0738 27.991647,27.991647 0 0 1 -0.10139,-0.0742 27.991647,27.991647 0 0 1 -0.10115,-0.0747 27.991647,27.991647 0 0 1 -0.10083,-0.0752 27.991647,27.991647 0 0 1 -0.10039,-0.0757 27.991647,27.991647 0 0 1 -0.10016,-0.0761 27.991647,27.991647 0 0 1 -0.0998,-0.0764 27.991647,27.991647 0 0 1 -0.0993,-0.077 27.991647,27.991647 0 0 1 -0.0992,-0.0773 27.991647,27.991647 0 0 1 -0.0987,-0.078 27.991647,27.991647 0 0 1 -0.0983,-0.0782 27.991647,27.991647 0 0 1 -0.0981,-0.0789 27.991647,27.991647 0 0 1 -0.0976,-0.0791 27.991647,27.991647 0 0 1 -0.0973,-0.0797 27.991647,27.991647 0 0 1 -0.097,-0.08 27.991647,27.991647 0 0 1 -0.0966,-0.0805 27.991647,27.991647 0 0 1 -0.0962,-0.081 27.991647,27.991647 0 0 1 -0.0959,-0.0813 27.991647,27.991647 0 0 1 -0.0955,-0.0819 27.991647,27.991647 0 0 1 -0.0952,-0.0822 27.991647,27.991647 0 0 1 -0.0948,-0.0826 27.991647,27.991647 0 0 1 -0.0943,-0.0831 27.991647,27.991647 0 0 1 -0.0941,-0.0835 27.991647,27.991647 0 0 1 -0.0935,-0.0839 27.991647,27.991647 0 0 1 -0.0933,-0.0843 27.991647,27.991647 0 0 1 -0.0929,-0.0849 27.991647,27.991647 0 0 1 -0.0926,-0.085 27.991647,27.991647 0 0 1 -0.092,-0.0856 27.991647,27.991647 0 0 1 -0.0918,-0.0861 27.991647,27.991647 0 0 1 -0.0914,-0.0863 27.991647,27.991647 0 0 1 -0.0908,-0.087 27.991647,27.991647 0 0 1 -0.0906,-0.0872 27.991647,27.991647 0 0 1 -0.0902,-0.0876 27.991647,27.991647 0 0 1 -0.0898,-0.0881 27.991647,27.991647 0 0 1 -0.0893,-0.0885 27.991647,27.991647 0 0 1 -0.0612,-0.061 27.991647,27.991647 0 0 1 -0.0887,-0.0891 27.991647,27.991647 0 0 1 -0.0883,-0.0896 27.991647,27.991647 0 0 1 -0.0878,-0.09 27.991647,27.991647 0 0 1 -0.0874,-0.0904 27.991647,27.991647 0 0 1 -0.0872,-0.0906 27.991647,27.991647 0 0 1 -0.0867,-0.0911 27.991647,27.991647 0 0 1 -0.0863,-0.0913 27.991647,27.991647 0 0 1 -0.0858,-0.092 27.991647,27.991647 0 0 1 -0.0855,-0.0921 27.991647,27.991647 0 0 1 -0.0849,-0.0927 27.991647,27.991647 0 0 1 -0.0846,-0.093 27.991647,27.991647 0 0 1 -0.0843,-0.0933 27.991647,27.991647 0 0 1 -0.0837,-0.0939 27.991647,27.991647 0 0 1 -0.0834,-0.094 27.991647,27.991647 0 0 1 -0.0829,-0.0947 27.991647,27.991647 0 0 1 -0.0825,-0.0949 27.991647,27.991647 0 0 1 -0.0819,-0.0952 27.991647,27.991647 0 0 1 -0.0817,-0.0957 27.991647,27.991647 0 0 1 -0.0812,-0.096 27.991647,27.991647 0 0 1 -0.0809,-0.0963 27.991647,27.991647 0 0 1 -0.0804,-0.0967 27.991647,27.991647 0 0 1 -0.0799,-0.0971 27.991647,27.991647 0 0 1 -0.0795,-0.0974 27.991647,27.991647 0 0 1 -0.079,-0.0977 27.991647,27.991647 0 0 1 -0.0785,-0.0982 27.991647,27.991647 0 0 1 -0.0782,-0.0985 27.991647,27.991647 0 0 1 -0.0777,-0.0988 27.991647,27.991647 0 0 1 -0.0773,-0.0992 27.991647,27.991647 0 0 1 -0.0768,-0.0995 27.991647,27.991647 0 0 1 -0.0765,-0.0998 27.991647,27.991647 0 0 1 -0.0759,-0.1004 27.991647,27.991647 0 0 1 -0.0755,-0.10039 27.991647,27.991647 0 0 1 -0.0751,-0.10094 27.991647,27.991647 0 0 1 -0.0746,-0.10127 27.991647,27.991647 0 0 1 -0.074,-0.10159 27.991647,27.991647 0 0 1 -0.0737,-0.10193 27.991647,27.991647 0 0 1 -0.0732,-0.10215 27.991647,27.991647 0 0 1 -0.0727,-0.10249 27.991647,27.991647 0 0 1 -0.0723,-0.10292 27.991647,27.991647 0 0 1 -0.0719,-0.10326 27.991647,27.991647 0 0 1 -0.0713,-0.10347 27.991647,27.991647 0 0 1 -0.0709,-0.1038 27.991647,27.991647 0 0 1 -0.0705,-0.10426 27.991647,27.991647 0 0 1 -0.0698,-0.10446 27.991647,27.991647 0 0 1 -0.0695,-0.1048 27.991647,27.991647 0 0 1 -0.0691,-0.10502 27.991647,27.991647 0 0 1 -0.0685,-0.10557 27.991647,27.991647 0 0 1 -0.0682,-0.10569 27.991647,27.991647 0 0 1 -0.0676,-0.106 27.991647,27.991647 0 0 1 -0.0671,-0.10635 27.991647,27.991647 0 0 1 -0.0666,-0.10656 27.991647,27.991647 0 0 1 -0.0661,-0.1069 27.991647,27.991647 0 0 1 -0.0656,-0.10734 27.991647,27.991647 0 0 1 -0.0653,-0.10745 27.991647,27.991647 0 0 1 -0.0647,-0.10789 27.991647,27.991647 0 0 1 -0.0642,-0.10811 27.991647,27.991647 0 0 1 -0.0638,-0.10833 27.991647,27.991647 0 0 1 -0.0632,-0.10866 27.991647,27.991647 0 0 1 -0.0629,-0.10899 27.991647,27.991647 0 0 1 -0.0622,-0.10921 27.991647,27.991647 0 0 1 -0.0618,-0.10943 27.991647,27.991647 0 0 1 -0.0613,-0.10988 27.991647,27.991647 0 0 1 -0.0607,-0.1101 27.991647,27.991647 0 0 1 -0.0603,-0.1102 27.991647,27.991647 0 0 1 -0.0598,-0.11075 27.991647,27.991647 0 0 1 -0.0593,-0.11076 27.991647,27.991647 0 0 1 -0.0587,-0.1112 27.991647,27.991647 0 0 1 -0.0585,-0.11142 27.991647,27.991647 0 0 1 -0.0578,-0.11164 27.991647,27.991647 0 0 1 -0.0573,-0.11197 27.991647,27.991647 0 0 1 -0.0568,-0.11218 27.991647,27.991647 0 0 1 -0.0563,-0.11231 27.991647,27.991647 0 0 1 -0.0558,-0.11274 27.991647,27.991647 0 0 1 -0.0553,-0.11286 27.991647,27.991647 0 0 1 -0.0548,-0.11329 27.991647,27.991647 0 0 1 -0.0543,-0.1134 27.991647,27.991647 0 0 1 -0.0537,-0.11374 27.991647,27.991647 0 0 1 -0.0532,-0.11385 27.991647,27.991647 0 0 1 -0.0528,-0.11417 27.991647,27.991647 0 0 1 -0.0522,-0.1144 27.991647,27.991647 0 0 1 -0.0517,-0.11462 27.991647,27.991647 0 0 1 -0.0512,-0.11472 27.991647,27.991647 0 0 1 -0.0506,-0.11506 27.991647,27.991647 0 0 1 -0.0501,-0.1154 27.991647,27.991647 0 0 1 -0.0498,-0.11549 27.991647,27.991647 0 0 1 -0.0491,-0.11572 27.991647,27.991647 0 0 1 -0.0485,-0.11606 27.991647,27.991647 0 0 1 -0.0482,-0.11616 27.991647,27.991647 0 0 1 -0.0476,-0.11638 27.991647,27.991647 0 0 1 -0.0469,-0.11661 27.991647,27.991647 0 0 1 -0.0466,-0.11682 27.991647,27.991647 0 0 1 -0.0459,-0.11693 27.991647,27.991647 0 0 1 -0.0454,-0.11739 27.991647,27.991647 0 0 1 -0.045,-0.11737 27.991647,27.991647 0 0 1 -0.0444,-0.1176 27.991647,27.991647 0 0 1 -0.0438,-0.11792 27.991647,27.991647 0 0 1 -0.0435,-0.11804 27.991647,27.991647 0 0 1 -0.0427,-0.11815 27.991647,27.991647 0 0 1 -0.0424,-0.11847 27.991647,27.991647 0 0 1 -0.0418,-0.11859 27.991647,27.991647 0 0 1 -0.0411,-0.11881 27.991647,27.991647 0 0 1 -0.0406,-0.11892 27.991647,27.991647 0 0 1 -0.0402,-0.11914 27.991647,27.991647 0 0 1 -0.0397,-0.11936 27.991647,27.991647 0 0 1 -0.039,-0.11959 27.991647,27.991647 0 0 1 -0.0385,-0.11968 27.991647,27.991647 0 0 1 -0.0379,-0.11981 27.991647,27.991647 0 0 1 -0.0375,-0.12002 27.991647,27.991647 0 0 1 -0.037,-0.12014 27.991647,27.991647 0 0 1 -0.0364,-0.12046 27.991647,27.991647 0 0 1 -0.0357,-0.12047 27.991647,27.991647 0 0 1 -0.0353,-0.12068 27.991647,27.991647 0 0 1 -0.0349,-0.12091 27.991647,27.991647 0 0 1 -0.0342,-0.12091 27.991647,27.991647 0 0 1 -0.0336,-0.12123 27.991647,27.991647 0 0 1 -0.0331,-0.12135 27.991647,27.991647 0 0 1 -0.0326,-0.12134 27.991647,27.991647 0 0 1 -0.032,-0.12157 27.991647,27.991647 0 0 1 -0.0315,-0.12168 27.991647,27.991647 0 0 1 -0.031,-0.1219 27.991647,27.991647 0 0 1 -0.0303,-0.12212 27.991647,27.991647 0 0 1 -0.0299,-0.12212 27.991647,27.991647 0 0 1 -0.0294,-0.12223 27.991647,27.991647 0 0 1 -0.0287,-0.12245 27.991647,27.991647 0 0 1 -0.0281,-0.12256 27.991647,27.991647 0 0 1 -0.0277,-0.12256 27.991647,27.991647 0 0 1 -0.027,-0.12278 27.991647,27.991647 0 0 1 -0.0266,-0.123 27.991647,27.991647 0 0 1 -0.0259,-0.12301 27.991647,27.991647 0 0 1 -0.0256,-0.12311 27.991647,27.991647 0 0 1 -0.0248,-0.12322 27.991647,27.991647 0 0 1 -0.0243,-0.12333 27.991647,27.991647 0 0 1 -0.0238,-0.12355 27.991647,27.991647 0 0 1 -0.0232,-0.12356 27.991647,27.991647 0 0 1 -0.0226,-0.12366 27.991647,27.991647 0 0 1 -0.0222,-0.12388 27.991647,27.991647 0 0 1 -0.0216,-0.12378 27.991647,27.991647 0 0 1 -0.0209,-0.12399 27.991647,27.991647 0 0 1 -0.0204,-0.12411 27.991647,27.991647 0 0 1 -0.02,-0.1241 27.991647,27.991647 0 0 1 -0.0192,-0.12422 27.991647,27.991647 0 0 1 -0.0187,-0.12444 27.991647,27.991647 0 0 1 -0.0182,-0.12432 27.991647,27.991647 0 0 1 -0.0178,-0.12454 27.991647,27.991647 0 0 1 -0.0171,-0.12455 27.991647,27.991647 0 0 1 -0.0164,-0.12454 27.991647,27.991647 0 0 1 -0.016,-0.12478 27.991647,27.991647 0 0 1 -0.0154,-0.12487 27.991647,27.991647 0 0 1 -0.0148,-0.12488 27.991647,27.991647 0 0 1 -0.0144,-0.12488 27.991647,27.991647 0 0 1 -0.0136,-0.12498 27.991647,27.991647 0 0 1 -0.0132,-0.1251 27.991647,27.991647 0 0 1 -0.0126,-0.1251 27.991647,27.991647 0 0 1 -0.0121,-0.1251 27.991647,27.991647 0 0 1 -0.0113,-0.12521 27.991647,27.991647 0 0 1 -0.0111,-0.12532 27.991647,27.991647 0 0 1 -0.0102,-0.12521 27.991647,27.991647 0 0 1 -0.01,-0.12542 27.991647,27.991647 0 0 1 -0.009,-0.12543 27.991647,27.991647 0 0 1 -0.009,-0.12542 27.991647,27.991647 0 0 1 -0.008,-0.12544 27.991647,27.991647 0 0 1 -0.007,-0.12554 27.991647,27.991647 0 0 1 -0.007,-0.12554 27.991647,27.991647 0 0 1 -0.006,-0.12553 27.991647,27.991647 0 0 1 -0.006,-0.12566 27.991647,27.991647 0 0 1 -0.005,-0.12565 27.991647,27.991647 0 0 1 -0.005,-0.12564 27.991647,27.991647 0 0 1 -0.004,-0.12554 27.991647,27.991647 0 0 1 -0.004,-0.12576 27.991647,27.991647 0 0 1 -0.003,-0.12576 27.991647,27.991647 0 0 1 -0.002,-0.12576 27.991647,27.991647 0 0 1 -0.002,-0.12565 27.991647,27.991647 0 0 1 -10e-4,-0.12576 27.991647,27.991647 0 0 1 -0.001,-0.12565 27.991647,27.991647 0 0 1 -1.1e-4,-0.0612 z"
       style="display:inline;opacity:0.988;fill:#b6e9dc;fill-opacity:1;stroke-width:0.241611;stroke-linecap:square;paint-order:stroke fill markers"
       id="path40-1-4-6-9-7-5" />
    <circle
       r="12.25506"
       cy="126.41286"
       cx="83.189255"
       id="path936"
       style="fill:#b6e9dc;fill-opacity:1;stroke-width:2.70189;stroke-linecap:square;paint-order:stroke fill markers" />
    <circle
       r="6.5474281"
       style="display:inline;fill:#d1ffc0;fill-opacity:1;stroke-width:1.44352;stroke-linecap:square;paint-order:stroke fill markers"
       id="path936-4"
       cx="32.074474"
       cy="35.35445" />
  </g>
  <g
     style="display:none"
     inkscape:label="レイヤー 2"
     id="layer2"
     inkscape:groupmode="layer">
    <rect
       style="font-variation-settings:normal;opacity:1;vector-effect:none;fill:#000000;fill-opacity:0.0323325;fill-rule:evenodd;stroke:none;stroke-width:1;stroke-linecap:round;stroke-linejoin:round;stroke-miterlimit:4;stroke-dasharray:none;stroke-dashoffset:0;stroke-opacity:1;paint-order:markers stroke fill;stop-color:#000000;stop-opacity:1"
       id="rect956"
       width="210"
       height="297"
       x="0"
       y="1.3974009e-14" />
  </g>
</svg>
