<?xml version="1.0" encoding="UTF-8" standalone="no"?>
<svg
   xmlns:dc="http://purl.org/dc/elements/1.1/"
   xmlns:cc="http://creativecommons.org/ns#"
   xmlns:rdf="http://www.w3.org/1999/02/22-rdf-syntax-ns#"
   xmlns:svg="http://www.w3.org/2000/svg"
   xmlns="http://www.w3.org/2000/svg"
   xmlns:sodipodi="http://sodipodi.sourceforge.net/DTD/sodipodi-0.dtd"
   xmlns:inkscape="http://www.inkscape.org/namespaces/inkscape"
   sodipodi:docname="logo.svg"
   inkscape:version="1.0 (4035a4fb49, 2020-05-01)"
   id="svg8"
   version="1.1"
   viewBox="0 0 67.733332 67.733335"
   height="256"
   width="256">
  <defs
     id="defs2" />
  <sodipodi:namedview
     inkscape:window-maximized="1"
     inkscape:window-y="-8"
     inkscape:window-x="1912"
     inkscape:window-height="1057"
     inkscape:window-width="1920"
     inkscape:snap-page="true"
     inkscape:snap-center="true"
     inkscape:snap-text-baseline="true"
     inkscape:snap-object-midpoints="true"
     inkscape:snap-midpoints="true"
     inkscape:snap-smooth-nodes="true"
     inkscape:snap-intersection-paths="true"
     inkscape:object-paths="true"
     inkscape:snap-bbox-midpoints="true"
     inkscape:snap-bbox-edge-midpoints="true"
     inkscape:bbox-nodes="true"
     inkscape:bbox-paths="true"
     inkscape:snap-bbox="true"
     inkscape:pagecheckerboard="true"
     units="px"
     showgrid="false"
     inkscape:document-rotation="0"
     inkscape:current-layer="layer1"
     inkscape:document-units="px"
     inkscape:cy="104.16121"
     inkscape:cx="116.38646"
     inkscape:zoom="1.979899"
     inkscape:pageshadow="2"
     inkscape:pageopacity="0.0"
     borderopacity="1.0"
     bordercolor="#666666"
     pagecolor="#ffffff"
     id="base" />
  <metadata
     id="metadata5">
    <rdf:RDF>
      <cc:Work
         rdf:about="">
        <dc:format>image/svg+xml</dc:format>
        <dc:type
           rdf:resource="http://purl.org/dc/dcmitype/StillImage" />
        <dc:title></dc:title>
      </cc:Work>
    </rdf:RDF>
  </metadata>
  <g
     id="layer1"
     inkscape:groupmode="layer"
     inkscape:label="レイヤー 1">
    <circle
       r="33.866665"
       cy="33.866665"
       cx="33.866665"
       id="path10"
       style="fill:none;stroke:#000000;stroke-width:0.264583;stroke-linecap:round;stroke-miterlimit:4;stroke-dasharray:none;paint-order:markers fill stroke" />
    <rect
       transform="rotate(0.00846385)"
       style="font-variation-settings:normal;opacity:1;vector-effect:none;fill:#ffffff;fill-opacity:0.27020785;fill-rule:evenodd;stroke:#000000;stroke-width:5.98576;stroke-linecap:round;stroke-linejoin:round;stroke-miterlimit:4;stroke-dasharray:none;stroke-dashoffset:0;stroke-opacity:1;paint-order:markers stroke fill;stop-color:#000000;stop-opacity:1"
       id="rect843"
       width="47.885933"
       height="47.885933"
       x="9.9287004"
       y="9.9186954"
       ry="7.482173" />
    <path
       transform="scale(0.26458333)"
       id="path859"
       d="m 62.982268,218.16269 c -3.837032,-0.42136 -6.835538,-1.32851 -10.357143,-3.13338 -2.612693,-1.33903 -3.852634,-2.2857 -6.624949,-5.05802 -2.784916,-2.78491 -3.717826,-4.00922 -5.084873,-6.67314 -0.939965,-1.83167 -1.988307,-4.57269 -2.390406,-6.25 -0.703444,-2.93433 -0.716241,-4.16453 -0.718699,-69.09111 -0.0025,-64.813902 0.01136,-66.158696 0.708249,-68.928567 0.889644,-3.536026 3.435994,-8.713596 5.399982,-10.979949 l 1.496064,-1.726391 3.863206,3.851227 3.863206,3.851226 -0.900589,1.180733 c -1.518964,1.991464 -2.966268,5.514607 -3.344325,8.141024 -0.500213,3.475055 -0.501013,126.307127 -8.57e-4,129.464287 1.171086,7.3921 7.006488,13.16149 14.448262,14.28482 1.704023,0.25722 22.797418,0.34586 66.250004,0.27842 l 63.75001,-0.099 2.21578,-0.76102 c 1.21867,-0.41857 3.16441,-1.40856 4.32386,-2.19999 l 2.10808,-1.43897 3.80793,3.81978 3.80793,3.81978 -1.1675,1.11062 c -2.54508,2.42109 -7.2504,4.85038 -11.79046,6.08724 -2.0626,0.56192 -7.18515,0.61313 -66.69848,0.66677 -35.455354,0.032 -65.589282,-0.0654 -66.964282,-0.21643 z"
       style="font-variation-settings:normal;opacity:1;vector-effect:none;fill:#c2c2c0;fill-opacity:1;stroke-width:3.85668;stroke-linecap:round;stroke-linejoin:round;stroke-miterlimit:4;stroke-dasharray:none;stroke-dashoffset:0;stroke-opacity:1;paint-order:markers stroke fill;stop-color:#000000;stop-opacity:1" />
    <path
       transform="scale(0.26458333)"
       id="path861"
       d="m 59.053696,229.02531 c -10.62877,-1.90958 -20.35418,-8.24697 -25.979301,-16.92897 -2.481004,-3.82926 -3.144729,-5.15466 -4.483511,-8.95321 -2.358171,-6.69087 -2.258435,-3.11717 -2.142261,-76.76107 l 0.105073,-66.607146 0.945606,-3.419204 c 0.520083,-1.880562 1.444761,-4.618229 2.054839,-6.083704 1.181675,-2.838508 4.507633,-8.138107 6.587837,-10.497092 l 1.259746,-1.428571 3.913007,3.884619 3.913007,3.884619 -1.772787,2.186809 c -1.955878,2.412661 -4.182617,6.736516 -5.172529,10.043953 -0.605305,2.022407 -0.647374,5.866762 -0.748434,68.392857 -0.117283,72.56376 -0.216669,68.779 1.948088,74.18646 2.678979,6.69197 8.880925,12.88842 15.586765,15.57295 5.379973,2.15375 1.621173,2.05532 74.341999,1.94683 l 66.42857,-0.0991 2.85714,-0.98024 c 3.50994,-1.20421 7.31921,-3.29518 9.49315,-5.21094 l 1.636,-1.44171 3.87209,3.88413 c 4.46214,4.47602 4.45534,3.87486 0.081,7.171 -3.59505,2.70895 -9.06222,5.37306 -13.65369,6.65334 l -3.57143,0.99585 -67.32143,0.0604 c -57.163434,0.0513 -67.752538,-0.017 -70.178574,-0.45289 z"
       style="font-variation-settings:normal;opacity:1;vector-effect:none;fill:#fffffc;fill-opacity:1;stroke-width:3.85668;stroke-linecap:round;stroke-linejoin:round;stroke-miterlimit:4;stroke-dasharray:none;stroke-dashoffset:0;stroke-opacity:1;paint-order:markers stroke fill;stop-color:#000000;stop-opacity:1" />
    <path
       transform="scale(0.26458333)"
       id="path863"
       d="m 62.485243,206.71291 c -6.302458,-1.24919 -12.070818,-7.12687 -13.253407,-13.5046 -0.229089,-1.23548 -0.354492,-24.55467 -0.35051,-65.17857 0.0053,-53.565095 0.08469,-63.625196 0.518541,-65.672614 0.538015,-2.538949 2.285242,-6.212761 3.460604,-7.27645 0.673649,-0.609643 2.740182,1.420394 74.765669,73.445254 l 74.07288,74.07223 -1.82968,1.30682 c -1.00632,0.71875 -2.80688,1.69066 -4.00123,2.15981 l -2.17156,0.85298 -64.82142,0.053 c -35.651791,0.0291 -65.527238,-0.0869 -66.389887,-0.25787 z"
       style="font-variation-settings:normal;opacity:1;vector-effect:none;fill:#000000;fill-opacity:0.66743642;stroke-width:3.85668;stroke-linecap:round;stroke-linejoin:round;stroke-miterlimit:4;stroke-dasharray:none;stroke-dashoffset:0;stroke-opacity:1;paint-order:markers stroke fill;stop-color:#000000;stop-opacity:1" />
  </g>
</svg>
